<?xml version="1.0" standalone="no"?>
<!DOCTYPE svg PUBLIC "-//W3C//DTD SVG 20010904//EN"
 "http://www.w3.org/TR/2001/REC-SVG-20010904/DTD/svg10.dtd">
<svg version="1.0" xmlns="http://www.w3.org/2000/svg"
 width="1332.000000pt" height="1332.000000pt" viewBox="0 0 1332.000000 1332.000000"
 preserveAspectRatio="xMidYMid meet">
<metadata>
Created by potrace 1.14, written by Peter Selinger 2001-2017
</metadata>
<g transform="translate(0.000000,1332.000000) scale(0.100000,-0.100000)"
fill="#000000" stroke="none">
<path d="M6280 13309 c-647 -38 -1292 -169 -1881 -384 -498 -181 -1009 -440
-1444 -732 -629 -422 -1194 -960 -1648 -1572 -450 -606 -815 -1335 -1031
-2058 -403 -1351 -361 -2846 119 -4164 181 -498 440 -1009 732 -1444 422 -629
960 -1194 1572 -1648 606 -450 1335 -815 2058 -1031 1351 -403 2846 -361 4164
119 498 181 1009 440 1444 732 629 422 1194 960 1648 1572 450 606 815 1335
1031 2058 403 1351 361 2846 -119 4164 -181 498 -440 1009 -732 1444 -422 629
-960 1194 -1572 1648 -606 450 -1335 815 -2058 1031 -717 214 -1535 309 -2283
265z m-35 -684 c239 -63 397 -288 382 -545 -7 -122 -35 -190 -111 -266 -81
-81 -149 -108 -256 -102 -118 7 -206 62 -256 161 -67 131 -21 293 101 352 47
23 57 25 93 15 83 -22 111 -114 51 -164 -17 -14 -42 -26 -55 -26 -33 0 -74 42
-74 76 0 26 -1 27 -20 9 -56 -50 -65 -181 -18 -252 39 -59 117 -97 198 -97 76
0 126 22 181 81 62 64 82 116 87 220 5 113 -18 201 -78 291 -47 70 -96 112
-172 147 -174 79 -372 39 -519 -105 -99 -98 -149 -216 -149 -355 0 -91 21
-169 70 -264 52 -98 120 -182 338 -415 262 -280 427 -469 480 -548 38 -58 25
-65 -148 -78 -730 -56 -1487 -306 -1853 -612 -49 -41 -81 -47 -100 -17 -7 12
4 38 50 110 33 52 122 195 198 319 257 419 408 629 580 808 83 87 104 104 122
98 12 -4 24 -13 27 -21 3 -8 -15 -57 -40 -110 -88 -190 -121 -345 -94 -445 16
-61 72 -115 127 -125 101 -17 217 39 261 125 27 55 28 95 2 138 -21 34 -40 42
-40 17 0 -27 -47 -65 -80 -65 -43 0 -80 39 -80 84 0 64 80 108 158 87 85 -23
134 -94 134 -193 0 -90 -43 -163 -131 -219 -25 -16 -43 -29 -40 -29 3 0 64 14
137 30 166 38 396 75 575 91 124 11 136 13 124 28 -131 159 -289 335 -521 581
-196 207 -289 354 -322 510 -62 290 125 596 413 675 66 18 197 18 268 0z
m1120 0 c94 -25 173 -73 256 -155 116 -115 169 -238 169 -397 0 -112 -14 -172
-65 -278 -54 -112 -112 -189 -273 -361 -297 -319 -529 -581 -521 -588 2 -2 80
-11 173 -20 180 -18 381 -51 559 -91 61 -14 112 -23 114 -21 3 2 -5 7 -18 11
-38 12 -111 88 -135 140 -56 119 -1 253 116 285 110 30 199 -62 135 -138 -18
-22 -36 -32 -55 -32 -31 0 -76 31 -85 60 -9 28 -22 25 -40 -10 -42 -81 2 -187
98 -234 79 -39 150 -44 207 -14 130 67 126 262 -11 557 -33 71 -40 97 -32 109
24 39 48 25 141 -75 175 -190 297 -355 488 -663 70 -113 176 -284 236 -380 65
-104 108 -183 106 -195 -6 -39 -43 -29 -125 33 -143 108 -271 182 -466 266
-359 157 -859 282 -1262 316 -257 22 -260 23 -263 46 -5 36 164 237 507 604
101 107 210 231 244 275 128 169 177 331 144 480 -31 145 -100 252 -207 324
-242 161 -548 85 -661 -165 -57 -125 -62 -266 -13 -370 31 -66 104 -131 169
-150 135 -39 282 45 300 170 8 53 -8 117 -40 153 l-23 28 -7 -28 c-9 -33 -49
-67 -80 -67 -34 0 -73 37 -81 74 -14 76 65 138 147 116 54 -15 112 -70 139
-132 27 -64 25 -171 -5 -233 -92 -190 -363 -221 -520 -59 -165 170 -142 489
49 680 62 62 154 115 232 133 62 14 195 12 259 -4z m-2307 -551 c229 -114 225
-450 -7 -684 -92 -93 -171 -147 -305 -210 -100 -47 -344 -140 -368 -140 -7 0
10 -15 38 -34 63 -42 111 -96 138 -155 31 -67 30 -208 -2 -272 -46 -95 -151
-169 -237 -169 -54 0 -124 37 -152 79 -40 60 -26 149 28 177 37 19 52 18 83
-7 45 -35 32 -110 -21 -124 l-28 -7 24 -19 c36 -29 98 -25 153 10 91 58 128
202 78 306 -29 60 -108 129 -173 151 -152 51 -391 -15 -530 -146 l-62 -58 32
-59 c65 -120 66 -126 72 -595 4 -235 10 -430 14 -434 4 -4 30 15 59 42 280
261 262 240 248 274 -10 24 -10 36 0 60 15 37 37 50 83 50 43 0 87 -46 87 -89
0 -35 -32 -77 -65 -85 -14 -4 -116 -92 -227 -196 -111 -105 -206 -190 -212
-190 -50 1 -57 61 -61 550 -3 439 -9 487 -74 587 -114 176 -316 237 -491 148
-157 -79 -233 -278 -157 -407 38 -66 101 -102 166 -96 26 3 60 13 74 24 30 22
53 64 35 64 -20 0 -58 42 -58 65 0 63 78 88 125 40 19 -19 25 -35 25 -71 0
-112 -99 -204 -220 -204 -88 0 -202 92 -235 189 -25 76 -18 188 17 264 40 85
123 167 211 208 68 32 78 34 182 34 103 0 114 -2 177 -32 38 -18 84 -44 103
-59 l35 -26 60 55 c112 104 272 173 423 183 95 7 350 85 527 162 298 131 480
337 480 545 0 82 -17 130 -62 182 -61 69 -149 87 -224 47 -23 -12 -84 -78 -84
-90 0 -5 15 -6 34 -4 27 3 37 -1 55 -23 56 -73 -13 -159 -102 -126 -61 24 -86
125 -48 199 64 124 218 177 339 116z m3419 14 c158 -68 221 -229 122 -313 -41
-34 -83 -33 -120 4 -33 33 -35 50 -14 90 15 31 33 41 71 41 13 0 24 4 24 9 0
19 -44 63 -83 83 -93 47 -193 10 -251 -92 -28 -49 -31 -63 -30 -135 1 -98 24
-164 95 -264 69 -99 172 -178 333 -256 165 -81 475 -185 549 -185 152 0 345
-81 460 -193 26 -26 50 -47 53 -47 3 0 22 13 42 30 20 16 64 42 97 57 55 26
70 28 175 28 111 0 118 -1 185 -34 91 -45 166 -120 208 -208 28 -60 32 -78 32
-153 0 -73 -4 -93 -28 -142 -33 -67 -91 -121 -155 -142 -66 -23 -111 -20 -173
12 -68 34 -110 91 -116 159 -5 42 -1 53 22 81 48 57 125 36 125 -34 0 -26 -6
-38 -27 -51 -16 -9 -30 -18 -32 -20 -9 -6 32 -54 61 -69 75 -39 178 5 226 97
31 59 28 161 -8 234 -35 73 -114 147 -185 175 -73 28 -186 31 -255 6 -116 -43
-212 -143 -252 -265 -20 -62 -22 -94 -29 -496 -9 -506 -13 -545 -56 -545 -8 0
-104 84 -214 187 -109 102 -216 194 -237 203 -96 43 -67 170 39 170 60 0 98
-65 69 -119 -8 -16 14 -41 144 -165 85 -80 156 -146 159 -146 15 0 20 120 22
460 1 419 4 446 71 569 l35 64 -55 53 c-143 139 -413 208 -556 142 -71 -32
-114 -69 -148 -127 -23 -39 -27 -57 -27 -121 0 -88 25 -143 87 -193 47 -38
122 -48 162 -22 l26 17 -32 17 c-42 21 -58 62 -37 99 48 86 174 12 155 -92 -9
-47 -66 -111 -113 -127 -74 -24 -180 9 -245 78 -15 15 -39 55 -55 88 -68 147
-13 325 128 416 27 18 49 33 49 35 0 1 -44 17 -97 35 -426 141 -659 322 -735
572 -27 91 -23 220 10 288 62 128 221 204 329 157z m-4623 -577 c8 -13 -23
-98 -87 -236 -62 -136 -93 -220 -107 -297 -7 -43 -9 -29 -6 72 5 151 26 252
73 343 45 85 110 146 127 118z m5706 -37 c85 -92 131 -241 129 -422 l-1 -97
-13 62 c-14 64 -46 147 -134 343 -73 164 -66 206 19 114z m-5950 -105 c8 -43
11 -413 3 -405 -1 0 -14 53 -29 116 -32 134 -40 314 -15 344 19 23 29 10 41
-55z m6171 44 c17 -45 4 -234 -24 -348 l-25 -100 -1 200 c-1 191 8 275 30 275
5 0 14 -12 20 -27z m-5761 -9 c0 -22 -50 -93 -149 -211 -47 -57 -103 -131
-123 -165 -21 -34 -38 -59 -38 -55 0 3 14 43 30 88 60 163 129 269 213 330 45
32 67 37 67 13z m5348 2 c47 -24 139 -130 175 -202 30 -60 87 -205 87 -221 0
-3 -19 23 -41 58 -23 35 -74 102 -114 149 -111 131 -163 209 -148 224 9 8 10
8 41 -8z m-5936 -113 c26 -30 59 -103 94 -207 19 -55 34 -102 34 -105 0 -10
-100 149 -125 199 -27 53 -43 130 -28 130 6 0 17 -8 25 -17z m6508 -15 c0 -18
-11 -55 -24 -83 -27 -59 -126 -215 -126 -199 0 19 57 178 80 224 49 96 70 114
70 58z m-5786 -7 c9 -14 -49 -60 -173 -136 -62 -38 -134 -88 -159 -110 l-47
-40 49 62 c74 95 158 170 228 203 65 31 93 37 102 21z m5146 -21 c60 -31 133
-95 201 -177 l64 -77 -55 41 c-30 23 -93 65 -140 93 -171 105 -226 161 -143
145 20 -4 53 -15 73 -25z m-5955 -141 c33 -12 77 -41 110 -71 68 -61 98 -110
37 -57 -23 20 -79 50 -127 68 -47 18 -98 43 -113 56 l-27 24 32 1 c18 0 57 -9
88 -21z m6765 12 c0 -14 -57 -45 -137 -75 -39 -15 -91 -41 -114 -58 l-41 -30
32 41 c40 49 91 86 156 111 53 20 104 26 104 11z m-3000 -551 c289 -36 583
-101 825 -183 1458 -495 2499 -1783 2670 -3307 152 -1347 -403 -2675 -1475
-3535 -134 -108 -410 -290 -575 -379 -440 -239 -930 -393 -1440 -452 -183 -22
-651 -25 -825 -6 -956 104 -1810 521 -2464 1203 -593 619 -961 1395 -1073
2264 -22 174 -25 719 -5 885 97 794 370 1451 856 2060 205 257 570 595 841
779 546 372 1183 608 1810 670 61 6 126 13 145 15 67 8 626 -3 710 -14z m3636
-205 c111 -54 205 -174 233 -296 30 -127 -11 -288 -95 -379 l-24 -26 60 -63
c103 -110 174 -278 186 -441 6 -84 77 -313 151 -490 99 -237 229 -390 394
-465 50 -22 83 -30 149 -33 78 -4 89 -2 140 25 135 71 159 225 50 317 -41 34
-51 33 -44 -3 5 -23 1 -35 -19 -55 -82 -82 -187 38 -109 125 23 26 38 33 79
36 94 9 170 -44 221 -156 55 -119 -6 -263 -139 -330 -211 -105 -495 15 -675
285 -63 94 -133 247 -190 411 -21 62 -41 113 -44 113 -3 0 -18 -20 -33 -45
-106 -167 -347 -206 -495 -80 -22 20 -53 60 -68 90 -63 130 6 275 132 275 61
0 104 -37 104 -91 0 -47 -31 -72 -82 -67 -26 2 -36 10 -48 35 -18 40 -31 37
-48 -9 -20 -51 -2 -109 51 -162 123 -122 331 -77 413 90 75 153 14 416 -131
572 l-53 57 -75 -38 c-121 -61 -168 -66 -547 -68 -184 -1 -368 -4 -408 -8
l-74 -6 148 -158 c109 -116 151 -156 163 -151 45 20 70 16 101 -14 40 -41 40
-83 1 -123 -49 -48 -118 -33 -146 33 -6 17 -96 119 -198 228 -187 198 -207
229 -169 249 33 18 400 34 617 27 295 -9 407 9 515 83 115 79 176 202 168 340
-8 132 -73 232 -190 290 -116 58 -217 50 -293 -23 -73 -70 -81 -157 -20 -222
35 -36 55 -43 55 -19 0 22 37 55 62 55 29 0 68 -38 68 -66 0 -12 -12 -36 -26
-53 -23 -27 -32 -31 -79 -31 -43 0 -62 6 -101 33 -68 46 -95 102 -92 188 4 83
42 149 112 197 66 44 97 52 197 49 71 -3 96 -8 145 -32z m-7869 10 c97 -29
193 -145 193 -235 0 -104 -66 -194 -164 -221 -69 -19 -136 21 -136 81 0 60 63
88 103 48 13 -13 26 -30 29 -38 3 -10 10 -9 32 5 108 71 53 249 -92 291 -91
27 -200 -6 -287 -87 -144 -133 -148 -354 -8 -510 53 -58 109 -93 196 -122 58
-19 88 -21 437 -23 486 -3 590 -13 590 -60 0 -7 -84 -102 -186 -211 -103 -109
-193 -212 -200 -230 -42 -97 -174 -78 -174 26 0 32 6 44 32 66 21 18 38 25 52
21 12 -4 30 -9 41 -12 17 -4 48 24 160 145 77 82 141 154 143 159 4 14 -266
23 -563 21 -303 -3 -371 10 -502 92 -21 13 -26 10 -71 -34 -87 -86 -149 -214
-172 -360 -29 -186 73 -352 233 -381 54 -10 139 10 186 44 71 52 103 154 65
208 l-16 23 -16 -32 c-32 -62 -105 -58 -134 7 -10 21 -8 32 6 59 50 92 199 61
241 -50 43 -110 -23 -243 -151 -306 -41 -20 -63 -24 -144 -24 -83 0 -101 4
-145 27 -48 25 -122 95 -156 147 -15 24 -16 21 -58 -100 -54 -158 -155 -366
-218 -449 -107 -140 -254 -242 -390 -270 -168 -35 -326 32 -389 165 -86 182
90 412 261 341 60 -26 83 -101 44 -150 -45 -57 -147 -17 -137 53 6 38 -2 39
-41 6 -69 -59 -94 -152 -58 -221 76 -145 272 -168 462 -53 31 18 89 68 129
110 114 122 190 272 289 570 42 128 55 183 60 252 11 155 76 307 184 427 l53
58 -39 58 c-64 97 -84 167 -79 276 3 78 9 104 35 160 33 71 104 154 159 189
92 56 212 73 311 44z m8288 -332 c-15 -85 -79 -186 -146 -234 l-31 -22 35 46
c19 25 41 63 47 84 40 126 113 222 95 126z m-8940 3 c9 -13 29 -59 46 -101 16
-43 38 -89 48 -104 38 -55 30 -54 -27 6 -41 42 -66 79 -81 118 -33 88 -24 139
14 81z m9123 -138 c-8 -24 -95 -69 -207 -109 -62 -21 -117 -39 -123 -39 -18 0
201 129 245 144 53 19 90 20 85 4z m-9223 -28 c47 -20 223 -130 208 -130 -19
0 -180 58 -233 84 -71 35 -94 52 -86 65 8 13 58 4 111 -19z m9307 -120 c49
-14 56 -27 21 -42 -19 -8 -96 -12 -240 -13 -117 0 -213 1 -213 2 0 1 156 37
245 56 39 9 151 7 187 -3z m-9301 -15 c46 -8 118 -23 159 -34 l75 -19 -220 2
c-164 1 -226 4 -244 14 -28 17 -18 31 31 42 52 13 109 11 199 -5z m9067 -85
c45 -6 111 -20 146 -30 107 -33 237 -133 209 -161 -13 -13 -80 10 -228 78
-142 66 -208 90 -295 108 l-65 13 75 1 c42 1 112 -4 158 -9z m-8903 -24 c-50
-13 -122 -37 -160 -54 -39 -17 -122 -53 -185 -81 -118 -52 -150 -60 -150 -38
0 43 109 122 217 156 76 24 181 38 293 39 l75 0 -90 -22z m8818 -62 c168 -65
288 -149 331 -232 15 -29 15 -33 2 -38 -21 -8 -74 26 -186 121 -52 44 -130
103 -173 132 -43 29 -76 53 -72 53 3 0 47 -16 98 -36z m-8852 -34 c-40 -28
-112 -83 -159 -124 -137 -115 -202 -152 -202 -112 0 22 67 103 118 142 51 39
159 93 244 124 79 28 78 25 -1 -30z m38 -48 c-31 -34 -58 -74 -150 -222 -64
-103 -109 -141 -109 -92 0 28 49 124 87 170 31 38 191 182 202 182 2 0 -12
-17 -30 -38z m8843 -45 c81 -69 136 -143 159 -210 41 -122 -17 -80 -121 88
-38 61 -85 133 -106 160 -40 53 -36 51 68 -38z m-894 -575 c31 -21 170 -108
307 -192 313 -191 499 -315 639 -424 124 -97 279 -237 304 -274 15 -23 15 -25
-7 -43 -22 -18 -24 -17 -99 18 -42 20 -122 52 -177 72 -87 31 -112 35 -195 36
-77 0 -102 -4 -135 -21 -97 -51 -113 -193 -34 -308 51 -75 142 -105 208 -68
37 20 52 42 28 42 -8 0 -26 9 -41 21 -53 42 -21 139 46 139 61 0 98 -46 98
-120 0 -110 -113 -192 -235 -169 -79 15 -149 70 -194 154 -12 22 -20 32 -17
23 40 -134 111 -558 123 -735 3 -50 9 -97 14 -104 11 -19 150 100 491 418 108
101 226 208 263 238 190 156 397 221 581 182 198 -42 371 -195 436 -385 30
-88 32 -240 4 -322 -54 -161 -174 -278 -346 -336 -41 -14 -85 -19 -170 -19
-110 0 -118 1 -182 33 -85 42 -169 129 -194 204 -81 236 120 471 347 405 127
-37 201 -156 154 -247 -44 -84 -175 -59 -175 34 0 38 36 76 72 76 31 0 16 22
-32 47 -74 39 -178 26 -238 -30 -47 -43 -67 -96 -67 -177 0 -88 15 -121 81
-186 60 -58 132 -84 232 -84 137 1 234 37 327 122 147 134 177 364 73 547
-134 235 -429 318 -683 192 -95 -48 -198 -132 -448 -363 -311 -289 -542 -488
-567 -488 -25 0 -40 34 -40 91 0 172 -56 548 -121 812 -114 463 -269 821 -475
1095 -66 88 -69 95 -49 116 23 22 29 21 93 -22z m-7050 16 c21 -21 13 -47 -37
-111 -311 -397 -548 -1121 -601 -1836 -10 -139 -18 -171 -44 -171 -27 0 -271
210 -566 485 -326 305 -415 369 -573 411 -219 58 -473 -60 -571 -265 -66 -138
-68 -264 -6 -398 90 -195 366 -303 561 -220 179 77 232 291 104 419 -65 65
-180 74 -259 21 l-41 -27 27 -6 c89 -17 102 -122 20 -157 -55 -23 -111 8 -132
73 -15 45 1 94 49 147 49 54 109 80 191 81 112 1 204 -58 262 -167 19 -35 23
-58 23 -137 0 -86 -3 -100 -29 -148 -38 -68 -112 -137 -184 -170 -74 -34 -215
-42 -313 -18 -243 61 -399 257 -399 502 0 303 260 557 570 558 99 0 170 -15
259 -55 123 -56 208 -122 476 -375 253 -238 488 -442 492 -427 1 4 9 82 18
173 18 185 53 400 90 557 14 58 25 108 25 111 0 3 -13 -14 -29 -39 -89 -140
-258 -178 -360 -81 -69 65 -76 173 -14 221 80 64 181 -42 108 -114 -13 -14
-31 -25 -40 -25 -21 0 -19 -13 5 -35 28 -26 100 -31 143 -10 121 57 175 240
99 335 -41 50 -107 72 -202 66 -91 -6 -180 -33 -324 -97 -85 -38 -112 -46
-127 -38 -34 18 -20 45 69 131 189 182 399 332 881 628 145 89 284 175 309
191 52 33 54 33 70 17z m9096 -2304 c236 -58 403 -290 383 -533 -16 -190 -133
-364 -308 -456 -87 -46 -166 -65 -264 -65 -217 1 -366 83 -670 370 -275 260
-543 495 -553 486 -2 -3 -11 -72 -18 -153 -19 -206 -76 -533 -120 -687 -3 -12
8 2 25 30 53 90 137 144 226 144 109 0 186 -68 193 -171 4 -56 3 -60 -32 -95
-31 -31 -41 -36 -69 -30 -41 8 -67 39 -67 80 0 38 14 58 54 78 l28 15 -28 22
c-24 19 -38 22 -86 19 -110 -8 -183 -102 -183 -234 0 -87 17 -117 89 -153 96
-48 246 -26 458 69 61 28 117 50 124 50 8 0 19 -10 25 -22 11 -21 4 -30 -97
-128 -187 -179 -369 -310 -819 -587 -143 -88 -289 -179 -325 -201 -73 -47 -94
-51 -110 -22 -9 18 -1 34 58 113 90 121 153 225 222 372 140 295 261 694 320
1057 25 155 50 383 50 461 0 66 12 97 38 97 32 0 308 -234 582 -494 319 -303
439 -382 619 -408 298 -43 576 209 559 506 -11 187 -119 327 -297 388 -91 31
-235 32 -302 1 -169 -77 -230 -265 -129 -401 59 -79 189 -102 271 -48 l42 28
-33 14 c-68 29 -82 94 -29 138 43 37 83 34 125 -8 47 -47 48 -104 2 -172 -49
-72 -109 -99 -218 -99 -74 0 -91 3 -130 27 -62 36 -94 73 -127 143 -40 89 -39
178 5 267 88 179 279 250 516 192z m-10899 -27 c72 -34 147 -104 183 -172 24
-44 27 -61 27 -145 0 -79 -4 -102 -23 -137 -57 -107 -142 -163 -250 -163 -87
0 -135 16 -187 62 -57 50 -82 112 -65 162 13 41 62 86 93 86 34 0 86 -36 93
-65 10 -40 -13 -83 -52 -97 -40 -14 -41 -18 -11 -39 157 -112 368 41 328 238
-33 168 -209 261 -411 219 -194 -41 -317 -161 -356 -348 -62 -296 211 -588
526 -564 184 13 308 91 620 385 289 273 577 521 604 521 27 0 35 -29 46 -161
36 -462 130 -877 287 -1274 91 -231 182 -397 300 -552 66 -87 76 -116 44 -132
-15 -9 -33 -2 -92 37 -41 27 -180 113 -309 192 -422 258 -663 430 -853 610
-90 85 -102 110 -65 133 13 8 39 0 115 -35 292 -137 484 -140 551 -8 26 52 28
88 6 159 -37 126 -178 203 -258 140 -31 -24 -33 -39 -7 -39 26 0 61 -46 61
-80 0 -65 -80 -101 -132 -60 -62 48 -56 154 11 221 62 63 162 75 249 30 43
-22 116 -97 127 -130 4 -13 9 -21 11 -19 2 3 -9 63 -25 134 -39 174 -67 348
-86 534 -9 85 -17 161 -18 168 -4 23 -183 -131 -524 -451 -277 -260 -395 -342
-548 -382 -86 -22 -237 -20 -316 5 -183 56 -339 215 -393 399 -20 68 -21 198
-1 270 47 177 185 313 371 366 32 9 88 13 159 12 96 -2 118 -6 170 -30z
m10580 -1389 c145 -75 204 -238 131 -362 -74 -126 -212 -172 -288 -95 -53 53
-31 142 39 155 27 5 37 1 64 -25 26 -26 30 -37 25 -62 -5 -26 -3 -28 12 -20
31 16 74 65 88 98 28 66 16 127 -37 187 -137 157 -421 84 -605 -155 -119 -155
-276 -550 -295 -741 -18 -186 -77 -330 -182 -444 l-65 -69 25 -30 c14 -17 40
-62 60 -102 78 -162 45 -357 -84 -488 -176 -178 -449 -159 -549 37 -61 119 1
272 125 309 100 30 187 -46 135 -119 -27 -39 -114 -20 -114 25 0 42 -74 -21
-90 -77 -21 -72 25 -156 105 -196 48 -23 64 -26 123 -22 121 9 228 84 281 197
22 48 26 69 26 151 0 88 -3 101 -33 162 -37 76 -114 153 -188 187 -93 44 -158
51 -504 51 -338 0 -553 12 -576 31 -8 6 -14 19 -14 28 0 10 84 107 188 216
107 114 191 212 197 229 6 20 23 38 46 50 32 17 40 18 68 6 60 -24 79 -102 36
-145 -26 -27 -82 -34 -103 -13 -8 8 -34 -13 -104 -88 -51 -54 -119 -127 -151
-160 l-58 -62 53 -8 c29 -4 197 -7 373 -6 409 2 521 -13 628 -84 35 -23 39
-23 62 -8 59 39 137 161 176 279 34 100 34 259 1 327 -46 92 -129 156 -219
166 -54 6 -128 -13 -174 -44 -75 -51 -108 -169 -61 -217 l22 -21 0 21 c0 25
44 63 73 63 60 0 89 -89 43 -135 -37 -37 -87 -42 -143 -14 -82 41 -112 127
-81 233 18 61 108 148 178 171 70 24 160 24 228 1 60 -20 162 -108 182 -156 7
-16 15 -30 19 -30 3 0 26 58 50 129 50 148 130 320 192 413 91 136 228 243
369 290 84 27 228 21 295 -14z m-10333 11 c133 -27 292 -142 394 -284 58 -83
152 -281 205 -434 42 -121 43 -124 58 -100 39 59 110 124 166 150 51 25 73 29
141 29 70 0 89 -4 142 -31 135 -67 197 -210 139 -320 -44 -83 -145 -114 -206
-64 -37 32 -46 58 -31 95 26 62 108 62 134 -2 l14 -31 17 27 c27 40 16 116
-22 164 -67 82 -204 113 -298 67 -59 -29 -121 -97 -146 -163 -61 -159 14 -424
160 -567 l41 -39 28 17 c44 29 104 55 168 73 50 14 122 17 459 18 254 1 407 6
418 12 16 9 1 29 -129 168 -101 107 -151 153 -158 146 -18 -18 -78 -11 -103
12 -32 30 -32 90 2 123 49 49 125 27 153 -45 6 -14 94 -114 196 -222 102 -109
186 -204 186 -212 0 -7 -7 -19 -15 -26 -25 -21 -210 -31 -552 -31 -421 1 -487
-10 -598 -94 -64 -49 -90 -80 -120 -143 -104 -214 7 -456 232 -508 88 -20 167
2 225 63 65 69 63 180 -4 227 -30 21 -33 20 -46 -9 -21 -46 -87 -52 -114 -11
-15 22 -7 66 16 93 35 40 104 40 171 -2 71 -44 109 -118 102 -198 -12 -134
-121 -232 -272 -245 -157 -12 -313 87 -388 246 -26 56 -32 82 -35 159 -5 113
13 180 75 272 24 35 43 65 43 68 0 2 -16 17 -35 34 -40 36 -114 144 -143 211
-34 78 -53 156 -61 252 -15 171 -167 568 -275 721 -124 173 -273 266 -431 268
-143 2 -247 -85 -247 -206 0 -57 36 -119 88 -149 l31 -18 -5 26 c-10 55 48
105 100 85 78 -30 73 -143 -7 -177 -166 -69 -345 158 -264 336 63 141 219 207
401 169z m9668 -1080 c0 -58 -57 -144 -158 -240 -98 -93 -138 -117 -80 -50 18
22 57 79 87 128 68 110 129 193 141 193 6 0 10 -14 10 -31z m-9223 -11 c17
-18 57 -76 88 -128 32 -52 78 -122 104 -155 l46 -60 -45 35 c-127 98 -219 217
-235 303 -9 46 2 47 42 5z m9367 -96 c8 -14 -22 -64 -67 -110 -53 -54 -128
-100 -237 -145 -130 -53 -141 -53 -63 0 39 26 108 80 153 118 82 71 185 145
200 145 5 0 11 -4 14 -8z m-9335 -151 c74 -61 158 -123 187 -138 29 -15 51
-29 50 -31 -6 -6 -153 51 -226 88 -99 50 -173 109 -205 165 -59 100 2 74 194
-84z m9436 -21 c11 -17 -63 -86 -127 -119 -94 -47 -159 -62 -303 -67 l-130 -4
75 19 c77 20 175 58 245 94 64 33 198 87 217 87 9 0 19 -4 23 -10z m-9694 -11
c19 -7 102 -43 186 -80 83 -38 187 -77 230 -88 43 -11 87 -22 98 -25 11 -3
-34 -3 -100 0 -150 7 -252 27 -332 66 -70 34 -143 96 -143 121 0 20 15 21 61
6z m2170 -266 c110 -104 208 -190 217 -191 9 -2 29 -16 45 -30 39 -37 38 -91
-4 -126 -76 -64 -167 4 -135 100 6 17 -18 44 -151 169 l-158 149 -7 -94 c-4
-52 -7 -239 -6 -415 0 -295 -2 -326 -21 -399 -12 -44 -35 -104 -51 -133 -24
-41 -28 -58 -20 -72 20 -37 106 -104 185 -141 165 -79 328 -92 434 -35 69 38
127 105 146 168 19 64 19 81 -1 148 -37 123 -185 200 -250 128 -16 -18 -16
-19 0 -19 9 0 28 -11 42 -26 45 -45 11 -114 -57 -114 -79 0 -118 105 -66 180
36 54 70 73 137 78 102 7 196 -52 252 -161 33 -63 37 -184 8 -259 -24 -65 -91
-144 -144 -173 -20 -11 -36 -22 -36 -25 0 -4 26 -14 58 -24 87 -27 271 -100
343 -136 211 -106 363 -261 421 -428 31 -91 32 -235 2 -303 -58 -126 -195
-201 -311 -170 -134 36 -228 184 -178 281 47 91 175 76 175 -21 0 -48 -39 -84
-82 -75 l-28 6 15 -31 c24 -45 99 -89 152 -89 86 0 169 68 194 159 51 182 -69
405 -294 545 -163 102 -535 238 -682 249 -96 8 -206 37 -283 76 -71 36 -174
113 -196 146 l-16 25 -65 -45 c-230 -157 -524 -87 -643 153 -70 142 -53 289
44 386 57 58 115 80 193 74 97 -7 165 -65 192 -161 14 -52 -3 -102 -43 -123
-39 -20 -67 -15 -91 18 -18 24 -18 30 -7 57 7 19 22 34 36 37 29 7 30 14 4 46
-31 41 -93 61 -143 47 -220 -58 -194 -386 40 -505 53 -26 67 -29 158 -29 90 0
106 3 160 29 75 37 153 114 189 187 47 97 59 195 51 439 -6 217 9 593 26 637
17 46 46 28 250 -164z m5554 178 c16 -26 26 -251 26 -555 -1 -378 7 -446 61
-548 107 -201 365 -270 545 -146 125 85 181 260 121 375 -56 110 -194 143
-262 62 -29 -34 -33 -49 -12 -49 23 0 57 -50 50 -74 -22 -73 -103 -76 -140 -4
-36 69 17 180 106 226 175 88 375 -80 357 -300 -12 -146 -101 -267 -245 -336
-74 -35 -82 -37 -182 -37 -97 0 -110 2 -170 31 -36 17 -83 45 -105 61 l-40 30
-67 -63 c-110 -103 -263 -167 -435 -180 -141 -12 -498 -141 -666 -241 -282
-169 -406 -471 -262 -641 37 -44 95 -72 148 -72 53 0 128 44 152 89 l15 31
-28 -6 c-40 -8 -85 31 -85 74 0 78 96 111 153 54 58 -59 49 -151 -23 -229
-103 -112 -248 -121 -360 -23 -154 136 -140 394 32 606 115 141 356 278 654
370 31 10 57 21 57 24 0 4 -11 12 -25 18 -14 7 -48 32 -74 57 -127 118 -139
324 -28 451 97 110 253 126 332 33 65 -78 29 -199 -59 -199 -37 0 -76 36 -76
70 0 26 39 70 62 70 20 0 20 1 4 19 -56 62 -183 12 -239 -93 -30 -57 -30 -165
0 -221 53 -100 168 -165 292 -165 72 0 211 34 279 69 55 28 159 107 176 134
15 22 14 27 -19 88 -63 120 -68 159 -70 589 -1 212 -5 397 -9 413 -8 27 -10
25 -161 -118 l-153 -146 5 -53 c5 -49 3 -54 -22 -74 -32 -26 -65 -28 -104 -7
-33 16 -41 33 -41 81 0 38 36 84 67 85 10 0 108 85 218 189 191 181 231 210
250 181z m1877 -148 c9 -10 9 -16 -1 -25 -8 -9 -49 -13 -139 -11 -100 1 -147
7 -222 27 l-95 25 222 -2 c162 -1 225 -5 235 -14z m-9177 -14 c-124 -33 -253
-51 -313 -43 -63 7 -96 20 -87 34 13 21 80 28 270 28 l200 0 -70 -19z m8831
-54 c108 -35 234 -98 234 -115 0 -15 -52 -12 -98 4 -23 8 -67 32 -99 52 -32
21 -80 50 -108 66 -27 15 -47 28 -43 28 4 0 55 -16 114 -35z m-8802 -4 c-29
-15 -65 -38 -82 -49 -83 -60 -232 -106 -220 -69 7 19 123 75 234 112 122 41
133 42 68 6z m17 -52 c-16 -22 -42 -73 -57 -112 -48 -128 -93 -181 -81 -96 8
61 53 144 108 200 28 27 52 49 55 49 2 0 -9 -18 -25 -41z m8803 -108 c30 -68
43 -131 27 -131 -16 0 -46 53 -77 132 -14 37 -36 84 -50 103 -36 54 -29 54 25
1 28 -28 60 -73 75 -105z m-6579 -226 c362 -292 1182 -557 1826 -590 63 -4
124 -8 135 -11 27 -5 37 -29 24 -55 -28 -52 -238 -293 -501 -574 -214 -229
-277 -306 -329 -406 -69 -133 -86 -246 -55 -378 42 -178 192 -330 365 -370
173 -40 361 27 453 161 133 192 119 441 -31 555 -146 111 -363 32 -380 -137
-5 -57 16 -126 48 -155 19 -17 20 -17 20 4 0 30 43 71 75 71 37 0 62 -16 80
-51 34 -65 -25 -139 -112 -139 -96 0 -188 122 -186 249 0 85 29 147 94 205 62
56 132 81 221 80 125 -2 241 -84 301 -212 27 -57 32 -81 35 -162 3 -67 -1
-114 -13 -160 -65 -251 -283 -414 -530 -397 -140 10 -261 66 -362 169 -181
185 -219 449 -98 687 51 103 136 209 335 421 179 192 370 404 430 480 l31 39
-43 5 c-24 2 -128 14 -233 26 -157 18 -385 58 -540 95 l-30 7 25 -17 c49 -35
102 -91 123 -130 49 -92 16 -224 -68 -272 -68 -38 -167 -25 -195 26 -29 55 8
121 68 121 40 0 82 -32 82 -62 0 -28 18 -21 41 15 46 73 4 179 -92 232 -46 25
-65 30 -126 30 -57 0 -77 -4 -99 -21 -44 -32 -63 -65 -76 -126 -21 -101 11
-236 99 -421 l47 -98 -21 -20 c-29 -29 -44 -19 -158 107 -184 204 -296 363
-562 794 -94 151 -190 306 -213 344 l-44 69 23 19 c27 21 35 18 116 -47z
m4390 35 c3 -5 -45 -92 -108 -192 -62 -101 -168 -271 -235 -379 -186 -299
-308 -466 -481 -657 -90 -99 -110 -115 -135 -106 -30 11 -26 41 18 135 112
241 133 422 58 510 -85 102 -288 65 -353 -63 -25 -50 -22 -127 6 -158 22 -24
35 -26 35 -3 0 31 41 63 81 63 66 0 102 -76 61 -126 -54 -67 -179 -57 -237 20
-83 109 -41 266 95 353 30 19 46 32 35 29 -107 -37 -502 -105 -728 -125 -60
-5 -111 -11 -113 -13 -7 -7 247 -296 436 -498 279 -297 347 -390 397 -547 27
-85 33 -221 13 -308 -28 -128 -136 -281 -248 -352 -216 -138 -484 -117 -656
52 -64 64 -97 119 -132 221 -23 70 -26 91 -22 189 3 97 6 117 32 170 104 212
358 276 522 132 111 -98 128 -266 38 -384 -82 -108 -249 -90 -249 27 0 34 6
47 28 66 50 43 119 24 132 -36 6 -27 9 -29 22 -18 24 20 53 89 53 127 1 133
-117 232 -257 218 -97 -10 -172 -69 -219 -172 -24 -50 -28 -74 -28 -145 0
-211 120 -385 305 -441 90 -27 215 -23 298 10 152 61 264 191 306 356 51 199
-25 388 -256 641 -46 50 -157 170 -246 265 -200 215 -393 446 -393 470 0 26
31 39 95 39 168 0 548 57 805 121 456 112 803 261 1079 463 84 62 106 74 121
66 11 -6 22 -14 25 -20z m-5255 -911 c10 -42 50 -146 88 -230 85 -189 98 -227
83 -242 -16 -16 -87 56 -123 127 -44 88 -66 189 -72 333 -3 70 -3 119 0 108 3
-11 14 -54 24 -96z m6015 -6 c-10 -155 -30 -248 -70 -329 -35 -73 -107 -150
-126 -138 -18 11 -3 56 67 210 74 163 97 226 114 308 6 31 14 56 17 56 3 0 2
-48 -2 -107z m-6194 58 c-46 -64 -140 -121 -223 -136 -31 -6 -38 -4 -38 8 0
15 51 42 160 86 30 12 69 32 85 46 39 31 41 31 16 -4z m117 -216 c-3 -135 -8
-197 -17 -214 -13 -23 -14 -23 -27 -7 -20 28 -28 137 -15 213 7 37 22 111 34
163 27 118 30 100 25 -155z m5983 134 c-23 -57 -58 -133 -78 -168 -56 -93
-179 -201 -197 -172 -9 13 26 69 90 147 101 123 185 236 202 271 31 65 22 23
-17 -78z m189 -155 c8 -59 9 -97 1 -140 -13 -70 -24 -84 -43 -53 -10 18 -14
81 -15 244 l-2 220 24 -95 c13 -52 29 -132 35 -176z m85 232 c19 -14 66 -36
103 -50 120 -46 178 -96 95 -82 -62 11 -155 62 -203 110 -49 51 -48 58 5 22z
m-6344 -85 c-34 -100 -81 -200 -104 -220 -44 -36 -19 79 36 169 18 30 47 76
62 102 16 26 31 45 33 44 2 -2 -10 -45 -27 -95z m6390 -116 c10 -22 19 -57 19
-79 0 -34 -2 -37 -16 -25 -31 25 -134 266 -134 312 0 14 108 -158 131 -208z
m-6149 135 c21 -30 71 -95 113 -145 91 -107 135 -172 135 -197 0 -23 -7 -23
-48 2 -83 51 -167 174 -227 335 -37 98 -35 98 27 5z m203 -67 c52 -27 173
-114 179 -129 9 -24 -55 -17 -109 11 -69 37 -125 86 -195 170 l-62 75 79 -56
c43 -31 91 -63 108 -71z m5537 70 c-68 -81 -156 -159 -210 -187 -51 -26 -112
-35 -112 -16 0 13 87 77 190 138 47 28 101 64 120 81 52 45 57 37 12 -16z"/>
<path d="M5173 11173 c-67 -80 -177 -233 -256 -354 -91 -140 -317 -509 -311
-509 2 0 29 16 60 36 152 97 458 229 716 308 l113 35 -59 1 c-32 0 -76 5 -97
12 -86 25 -149 112 -164 225 -7 56 8 182 31 246 8 22 12 42 10 44 -2 2 -21
-18 -43 -44z"/>
<path d="M8146 11143 c42 -163 26 -297 -44 -375 -50 -55 -102 -77 -182 -78
l-65 -1 130 -40 c244 -76 506 -189 672 -290 38 -23 72 -44 76 -46 13 -8 -5 23
-136 237 -186 302 -377 578 -461 668 -7 7 -3 -24 10 -75z"/>
<path d="M6475 10433 c-309 -24 -477 -49 -710 -107 -968 -239 -1808 -857
-2335 -1721 -96 -158 -246 -465 -309 -637 -303 -815 -318 -1706 -45 -2528 277
-830 850 -1555 1599 -2023 244 -153 584 -309 856 -396 1085 -343 2284 -178
3224 444 733 485 1260 1173 1534 2005 187 566 233 1213 131 1818 -167 979
-724 1861 -1550 2452 -487 349 -1088 585 -1690 665 -227 30 -532 42 -705 28z
m584 -303 c41 -19 45 -19 63 -4 17 16 18 15 18 -54 0 -40 -2 -72 -5 -72 -2 0
-14 18 -25 39 -47 93 -157 128 -242 78 -157 -92 -127 -383 45 -428 27 -7 24
-8 -19 -5 -66 4 -135 44 -172 98 -21 33 -27 55 -30 113 -4 80 8 120 54 174 64
77 214 106 313 61z m-709 -1 c-36 -15 -40 -25 -40 -121 l0 -88 130 0 130 0 0
74 c0 88 -11 123 -42 136 -16 6 5 9 72 9 83 1 92 -1 70 -12 l-25 -13 -3 -189
c-3 -208 0 -231 26 -238 9 -3 -23 -5 -73 -5 -49 0 -81 2 -70 5 37 9 45 33 45
130 l0 93 -130 0 -131 0 3 -102 c3 -98 4 -103 28 -115 22 -11 13 -13 -70 -12
-73 0 -89 3 -70 10 13 6 28 15 32 22 4 7 8 96 8 198 0 194 -4 212 -45 222 -11
3 25 5 80 5 75 1 94 -2 75 -9z m783 -372 c-5 -59 -8 -67 -20 -54 -13 12 -19
12 -51 -4 -20 -11 -52 -19 -72 -18 -36 1 -34 3 12 13 37 8 98 63 115 104 8 19
16 33 18 31 2 -2 1 -35 -2 -72z m-1053 -114 c0 -5 -22 -38 -50 -74 -47 -63
-124 -128 -136 -116 -10 10 16 73 47 117 35 48 139 103 139 73z m1202 -25 c15
-10 36 -32 48 -48 23 -32 53 -110 45 -118 -11 -12 -92 58 -137 118 -26 36 -48
69 -48 73 0 13 62 -4 92 -25z m-1686 -97 c51 -23 74 -55 74 -101 0 -50 -41
-110 -138 -205 -93 -90 -112 -128 -112 -219 0 -72 36 -209 76 -288 14 -27 21
-49 15 -47 -21 8 -111 125 -145 188 -46 88 -57 136 -57 239 0 202 73 391 166
433 50 23 70 23 121 0z m2193 3 c68 -27 110 -97 147 -241 58 -228 16 -412
-127 -566 l-58 -62 35 85 c63 151 81 281 49 356 -8 20 -51 72 -96 116 -101
100 -139 158 -139 213 0 47 22 74 80 99 45 20 61 20 109 0z m-1444 -60 c-15
-24 -71 -64 -89 -64 -12 0 3 52 22 74 9 10 31 27 47 37 30 19 30 19 33 -2 2
-11 -4 -31 -13 -45z m646 6 c26 -38 34 -70 15 -70 -28 0 -96 74 -96 104 l0 28
31 -19 c18 -10 40 -29 50 -43z m-233 -106 c86 -40 173 -118 210 -189 22 -42
27 -67 30 -153 4 -90 6 -102 21 -97 47 18 123 27 202 23 76 -4 97 -9 161 -40
46 -23 93 -57 127 -92 l55 -55 -12 -116 c-16 -148 -52 -264 -99 -316 -39 -43
-117 -72 -225 -85 l-57 -7 44 -33 c30 -23 54 -55 76 -100 28 -55 32 -76 32
-138 0 -81 -26 -178 -71 -261 -39 -72 -87 -89 -252 -90 -115 0 -130 2 -182 27
-61 28 -135 91 -178 150 l-26 36 -35 -46 c-78 -105 -183 -155 -324 -155 -127
0 -206 24 -239 72 -55 80 -89 171 -94 252 -4 68 -1 84 22 135 17 36 47 78 78
107 28 26 49 49 47 50 -2 1 -30 15 -62 31 -152 76 -246 212 -268 388 -12 96
-5 111 84 195 138 129 286 160 430 89 l47 -23 0 63 c0 145 97 279 286 392 57
35 69 34 172 -14z m-1537 -93 c21 -17 23 -27 25 -127 2 -123 23 -209 80 -332
18 -41 34 -77 34 -79 0 -12 -93 63 -141 113 -107 114 -168 229 -169 317 0 59
11 82 53 107 40 25 88 25 118 1z m2933 5 c47 -20 66 -51 66 -111 -1 -90 -57
-197 -167 -316 -57 -61 -152 -134 -140 -108 86 193 109 279 111 408 1 95 3
105 25 122 28 23 60 24 105 5z m-2347 -72 c23 -23 25 -31 20 -76 -7 -58 -49
-154 -96 -218 -38 -52 -71 -155 -71 -219 0 -26 6 -71 14 -101 8 -30 13 -56 11
-58 -7 -7 -69 93 -101 162 -97 211 -96 380 2 480 40 39 80 55 142 56 44 0 57
-4 79 -26z m1816 13 c78 -33 137 -141 137 -251 0 -59 -31 -177 -70 -263 -27
-60 -99 -177 -105 -171 -2 2 3 28 11 58 8 30 14 75 14 101 0 65 -33 165 -73
221 -47 65 -90 164 -95 220 -4 40 -1 50 21 72 21 21 36 26 77 26 28 0 65 -6
83 -13z m-2402 -628 c47 -16 96 -54 114 -90 22 -41 36 -127 29 -166 l-6 -34
-22 19 c-50 46 -90 53 -125 21 -21 -20 -24 -20 -56 -5 -59 28 -109 14 -158
-44 -14 -16 -28 -30 -30 -30 -8 0 -34 72 -41 112 -14 75 32 163 109 210 35 21
132 25 186 7z m3036 -15 c15 -11 42 -40 58 -63 26 -36 30 -52 30 -104 0 -36
-8 -82 -18 -110 l-19 -47 -21 27 c-53 68 -106 87 -164 59 -33 -16 -36 -15 -60
4 -14 11 -35 20 -46 20 -23 0 -87 -37 -87 -51 0 -5 -4 -9 -10 -9 -16 0 -12
127 6 168 20 49 60 90 109 114 56 26 181 22 222 -8z m-3548 -59 c59 -30 121
-131 121 -195 0 -55 -28 -69 -108 -52 -49 10 -59 10 -86 -6 -17 -10 -40 -35
-51 -55 -18 -33 -23 -36 -50 -31 -18 3 -37 0 -49 -9 -17 -12 -17 -16 -3 -43 9
-17 23 -36 31 -43 32 -27 11 -148 -23 -138 -81 24 -110 29 -125 24 -15 -6 -15
-9 -2 -35 16 -31 93 -112 107 -112 5 0 15 -13 23 -28 20 -38 5 -62 -38 -62
-68 0 -151 90 -218 238 -24 53 -29 76 -26 114 6 57 46 120 101 156 22 15 40
36 43 51 18 82 50 111 124 111 44 0 68 18 95 69 16 32 57 60 88 61 10 0 31 -7
46 -15z m3965 -19 c17 -19 41 -48 54 -65 20 -26 30 -31 65 -31 63 0 104 -30
119 -85 9 -34 24 -55 60 -86 100 -84 113 -169 48 -294 -45 -89 -100 -159 -144
-186 -52 -32 -106 -21 -106 22 0 10 25 39 55 64 53 46 95 100 95 124 0 16 -50
14 -100 -4 -23 -8 -44 -15 -47 -15 -8 0 -33 70 -33 93 0 13 14 41 30 62 17 21
30 46 30 56 0 21 -29 32 -63 24 -21 -6 -28 -2 -40 22 -37 70 -69 83 -170 68
-38 -6 -51 -4 -67 10 -39 35 -16 116 58 197 62 68 108 76 156 24z m-3197 -111
c88 -37 113 -88 124 -254 11 -154 31 -228 75 -279 43 -51 54 -81 54 -148 0
-66 -26 -142 -73 -216 -42 -66 -180 -223 -209 -239 -17 -9 -31 0 -110 78 -50
48 -96 94 -104 101 -20 20 -17 89 6 138 12 23 39 63 61 87 50 58 71 107 69
166 -3 76 -2 80 44 129 24 26 48 57 55 69 13 26 15 83 2 83 -5 0 -14 14 -21
30 -12 29 -11 66 6 167 4 29 2 51 -9 72 -18 36 -18 36 30 16z m2353 -4 c-13
-25 -14 -66 -5 -164 7 -71 6 -81 -14 -107 -11 -16 -21 -36 -21 -45 0 -27 31
-78 77 -128 42 -45 44 -50 38 -90 -10 -63 10 -124 61 -182 24 -29 56 -78 70
-110 38 -83 31 -101 -93 -219 -120 -115 -106 -116 -223 19 -95 109 -136 174
-160 254 -34 108 -23 176 40 247 41 47 59 118 70 266 7 110 12 134 36 177 15
28 38 58 52 67 21 14 35 20 80 33 1 1 -2 -8 -8 -18z m-2605 -145 c87 -40 135
-114 135 -208 0 -21 -2 -38 -5 -38 -2 0 -24 20 -49 44 -88 88 -202 84 -335
-11 l-24 -17 7 49 c24 167 138 243 271 181z m3010 -11 c43 -32 73 -94 82 -166
l6 -50 -44 29 c-52 35 -127 62 -172 62 -18 0 -50 -9 -72 -19 -40 -18 -104 -76
-106 -95 0 -6 -5 2 -9 18 -13 43 6 125 38 166 15 19 53 48 83 63 71 37 139 34
194 -8z m-3365 -30 c35 -18 44 -47 38 -116 -6 -60 -14 -70 -33 -42 -8 11 -28
26 -45 33 -68 28 -104 -31 -63 -101 16 -27 16 -31 0 -64 -23 -48 -21 -78 6
-102 38 -35 64 -44 124 -41 73 2 125 -21 164 -75 31 -43 59 -123 59 -169 l0
-29 -32 37 c-43 49 -100 74 -169 74 -99 0 -233 53 -261 103 -7 12 -13 42 -14
67 -1 25 -9 63 -17 85 -9 22 -16 67 -16 100 0 109 43 185 131 229 60 30 87 32
128 11z m3655 -9 c59 -28 98 -66 119 -118 21 -49 21 -177 1 -225 -8 -19 -15
-55 -15 -78 0 -28 -7 -51 -21 -69 -39 -49 -156 -96 -244 -96 -77 0 -122 -17
-171 -65 l-46 -44 7 47 c9 61 39 130 73 165 43 46 81 61 145 59 70 -3 122 19
143 59 13 26 13 33 -6 74 l-20 45 20 37 c26 48 25 68 -2 87 -33 23 -53 20 -92
-14 -40 -36 -45 -31 -53 45 -5 50 -4 56 25 84 37 38 69 39 137 7z m-3429 -211
c3 -8 -8 -42 -25 -76 -17 -34 -31 -68 -31 -76 0 -7 -4 -13 -9 -13 -13 0 -18
56 -10 98 13 64 60 106 75 67z m3133 -11 c24 -30 35 -97 23 -139 l-9 -30 -13
40 c-7 22 -24 61 -39 88 -22 41 -24 49 -11 57 22 14 26 13 49 -16z m-2981 -36
c18 -11 40 -34 48 -50 14 -28 14 -32 -1 -47 -15 -15 -18 -14 -41 14 -13 17
-41 50 -61 74 l-37 44 29 -7 c17 -4 45 -17 63 -28z m2840 0 c-17 -18 -42 -50
-56 -71 -28 -42 -55 -46 -60 -8 -6 40 76 109 130 111 12 0 8 -8 -14 -32z
m-2900 -160 c37 -12 74 -23 82 -26 9 -3 -4 -11 -29 -18 -72 -22 -163 9 -148
50 8 21 15 20 95 -6z m2987 -8 c0 -22 -7 -27 -50 -37 -36 -9 -60 -10 -88 -2
-37 10 -43 29 -9 29 9 1 40 9 67 20 63 23 80 21 80 -10z m-3952 -6 c41 -21 95
-71 113 -107 l15 -28 -33 17 c-19 10 -55 18 -85 18 -44 0 -57 -4 -83 -29 -16
-16 -30 -32 -30 -36 0 -3 19 -9 42 -13 58 -9 105 -41 128 -87 11 -21 20 -40
20 -43 0 -2 -26 11 -57 30 -60 36 -124 45 -164 24 -23 -13 -52 -67 -45 -85 10
-26 65 -45 143 -49 91 -5 138 -18 183 -49 51 -34 60 -55 33 -76 -38 -32 -153
-54 -253 -49 -77 4 -98 9 -164 42 -83 41 -165 113 -211 186 -15 24 -50 68 -78
97 l-50 53 36 0 c56 0 139 36 224 97 72 51 125 83 163 96 33 12 122 6 153 -9z
m5013 -3 c22 -10 69 -40 105 -66 91 -68 193 -115 248 -115 l45 0 -41 -34 c-22
-19 -61 -66 -87 -105 -82 -121 -174 -193 -290 -226 -110 -32 -330 -2 -360 48
-9 15 -5 23 23 47 48 41 113 61 211 66 131 7 174 52 110 115 -28 29 -35 31
-85 27 -36 -3 -67 -13 -95 -32 -45 -29 -55 -29 -46 1 13 41 74 86 131 98 l56
11 -21 26 c-36 46 -121 58 -183 26 -10 -5 -21 -7 -24 -4 -10 10 68 96 105 116
49 25 143 26 198 1z m-4616 -178 c113 -65 156 -76 256 -68 132 11 176 -14 229
-127 27 -58 66 -88 113 -88 12 0 49 -25 83 -55 35 -30 87 -67 117 -83 l54 -29
-35 -27 c-57 -43 -135 -66 -230 -66 -107 0 -455 84 -562 135 -151 73 -225 173
-225 304 0 67 20 151 42 179 8 9 18 7 47 -10 20 -13 70 -42 111 -65z m4211 35
c18 -41 23 -71 23 -133 0 -98 -26 -156 -102 -227 -78 -73 -152 -104 -390 -164
-178 -45 -228 -54 -300 -54 -93 0 -165 22 -232 70 l-32 23 48 23 c27 13 80 50
117 84 37 33 77 60 88 60 52 0 86 27 126 101 56 105 87 122 210 114 120 -9
168 6 303 89 58 36 108 65 111 66 4 0 17 -24 30 -52z m-2352 -104 c-87 -275
-200 -408 -367 -430 -163 -21 -183 137 -24 182 178 49 295 142 385 305 18 32
33 54 35 50 1 -5 -11 -53 -29 -107z m353 -90 c56 -61 146 -120 217 -140 165
-48 211 -105 140 -176 -29 -30 -33 -31 -94 -25 -35 3 -83 15 -107 27 -62 29
-140 112 -187 200 -37 70 -111 270 -111 301 0 8 22 -21 49 -63 27 -42 69 -98
93 -124z m-188 -9 c76 -299 73 -510 -7 -530 -53 -14 -70 -3 -104 63 -31 59
-33 71 -33 162 0 70 7 124 24 191 30 121 78 243 87 226 4 -7 19 -58 33 -112z
m-871 -397 c-51 -99 -165 -214 -253 -256 -89 -43 -170 -62 -263 -62 l-79 0 6
-27 c3 -16 15 -127 27 -248 17 -165 22 -299 24 -535 2 -342 3 -351 60 -418 15
-18 55 -51 89 -74 85 -56 143 -115 172 -170 13 -26 24 -52 24 -58 0 -6 -36 14
-79 45 -43 30 -112 70 -154 89 -94 43 -139 82 -166 147 -35 81 -40 136 -56
644 -12 398 -22 603 -29 605 0 1 -59 11 -129 24 -142 26 -189 22 -249 -17 -91
-61 -103 -212 -24 -303 54 -63 158 -59 192 8 21 40 17 79 -11 120 l-25 37 33
6 c47 9 115 -11 148 -44 35 -36 45 -88 29 -160 -23 -104 -140 -191 -256 -191
-97 0 -232 95 -274 192 -45 106 -25 265 47 368 92 131 267 172 467 110 143
-45 340 -45 471 0 103 35 203 112 261 200 40 61 39 48 -3 -32z m1741 5 c66
-93 178 -162 314 -194 69 -16 276 -13 342 5 146 41 186 48 262 43 140 -9 233
-71 292 -196 29 -61 31 -74 31 -176 0 -122 -7 -144 -72 -216 -40 -44 -128 -93
-185 -104 -52 -10 -139 11 -192 47 -111 73 -141 240 -56 312 33 27 94 41 139
31 l30 -6 -25 -36 c-53 -79 -11 -173 78 -173 92 0 152 74 153 190 0 75 -22
122 -73 157 -60 40 -110 43 -249 18 -68 -13 -126 -25 -129 -28 -8 -8 -24 -328
-34 -702 -11 -391 -18 -469 -52 -547 -27 -62 -68 -97 -170 -146 -46 -21 -117
-64 -160 -94 l-76 -56 15 44 c20 58 90 135 179 194 152 103 165 140 157 428
-5 204 8 464 41 760 6 62 10 115 7 117 -2 3 -36 5 -76 5 -84 0 -166 20 -254
60 -88 42 -203 159 -255 260 -42 82 -39 82 18 3z m-3044 -172 c-179 -58 -277
-167 -288 -320 -6 -87 9 -133 62 -185 31 -32 59 -47 114 -65 76 -24 98 -45 87
-82 -16 -51 -123 -75 -217 -49 -58 17 -130 72 -156 121 -21 39 -23 52 -18 114
22 248 146 415 347 469 30 8 70 15 89 15 32 0 31 -1 -20 -18z m4389 4 c213
-50 351 -241 355 -490 1 -66 -2 -77 -29 -115 -45 -63 -120 -102 -209 -108 -80
-5 -126 11 -147 49 -20 37 3 66 65 84 75 22 145 71 170 120 31 59 30 183 -2
247 -49 100 -135 169 -261 209 -70 22 -32 25 58 4z m-2829 -138 c31 -59 40
-67 89 -88 52 -21 58 -22 148 -9 64 8 98 9 104 3 7 -7 0 -34 -21 -84 l-31 -73
26 -57 c14 -31 25 -63 25 -71 0 -9 33 -28 88 -49 54 -21 87 -40 87 -49 0 -7
-40 -39 -88 -70 -83 -52 -90 -58 -112 -113 l-23 -58 30 -91 c23 -68 28 -92 18
-98 -6 -4 -54 5 -106 20 l-94 28 -40 -19 c-21 -10 -44 -19 -50 -19 -5 0 -28
-38 -49 -85 -25 -53 -45 -85 -55 -85 -9 0 -41 38 -72 85 -32 47 -62 85 -67 85
-6 0 -30 9 -54 21 l-43 21 -77 -26 c-83 -28 -109 -31 -117 -17 -3 4 10 46 28
91 l33 83 -32 69 c-31 67 -35 71 -106 110 -41 22 -78 44 -83 48 -16 15 11 35
85 65 39 16 74 36 76 45 3 8 16 41 28 73 l23 59 -25 85 c-20 69 -22 88 -11 94
7 5 20 7 28 4 8 -2 48 -12 88 -21 71 -15 75 -15 122 5 27 12 55 21 64 21 8 0
29 26 47 58 42 75 59 94 73 83 6 -5 27 -39 46 -74z m1325 4 c33 -62 40 -69 91
-90 53 -23 59 -23 150 -10 63 8 98 9 104 3 7 -7 0 -34 -21 -81 l-31 -71 29
-75 28 -76 83 -32 c55 -22 82 -37 82 -48 0 -9 -36 -38 -88 -70 -82 -50 -88
-56 -109 -110 l-23 -58 30 -88 c16 -48 27 -91 24 -96 -8 -14 -34 -11 -123 15
l-83 24 -52 -24 c-51 -23 -55 -28 -90 -105 -27 -58 -41 -79 -53 -77 -9 2 -42
39 -72 83 -50 73 -61 83 -112 103 l-57 22 -86 -27 c-58 -18 -90 -23 -97 -16
-6 6 0 36 22 90 l31 80 -28 72 -28 71 -80 44 c-45 24 -82 50 -84 58 -2 10 23
26 79 51 77 33 84 38 94 74 6 21 19 52 28 69 15 29 14 35 -10 118 -16 56 -22
91 -15 98 6 6 41 2 99 -12 88 -21 90 -21 134 -2 24 10 55 22 69 25 18 5 35 25
59 69 35 64 49 80 63 72 4 -3 23 -35 43 -73z m2717 -591 c-2 -8 -6 -38 -10
-69 -7 -54 -24 -72 -30 -31 -4 23 -19 25 -90 10 l-49 -11 -10 -67 c-6 -37 -8
-71 -5 -75 7 -13 94 -67 108 -67 6 0 14 9 17 20 9 35 30 24 22 -12 -3 -18 -9
-50 -12 -70 -6 -39 -23 -53 -23 -19 0 26 -6 31 -151 133 -182 129 -177 124
-159 141 8 8 91 34 184 58 119 30 171 48 179 61 13 20 34 18 29 -2z m-3383
-109 c57 -80 114 -242 129 -363 18 -144 -13 -218 -91 -218 -22 0 -50 8 -66 19
-26 19 -27 19 -51 0 -40 -30 -93 -25 -124 11 -49 59 -47 170 9 336 50 149 90
233 117 243 31 11 55 3 77 -28z m-2926 -128 c8 -38 13 -70 10 -73 -3 -3 -7 0
-10 5 -13 35 -20 38 -72 25 -28 -6 -51 -13 -51 -15 0 -2 9 -45 21 -95 l21 -92
37 7 c64 11 71 15 71 43 0 39 15 15 28 -46 15 -65 15 -72 2 -72 -5 0 -10 7
-10 15 0 27 -23 26 -165 -5 -76 -16 -140 -30 -142 -30 -2 0 -3 -11 -3 -25 0
-14 -6 -25 -13 -25 -14 0 -42 128 -31 139 4 3 8 2 11 -4 14 -37 19 -39 91 -25
39 7 75 16 81 19 9 6 -22 177 -34 189 -2 2 -39 -4 -82 -14 -68 -17 -78 -22
-78 -41 0 -13 -4 -23 -10 -23 -12 -1 -36 96 -32 125 3 18 5 17 17 -8 7 -15 18
-26 24 -24 6 2 73 17 148 33 137 29 138 29 138 57 0 49 18 28 33 -40z m1034
-139 c38 -24 55 -44 83 -98 30 -60 35 -78 35 -142 0 -63 -3 -76 -25 -99 -30
-33 -95 -64 -132 -65 -16 0 -37 9 -49 21 l-20 20 30 35 c38 43 39 75 4 114
-51 55 -164 49 -202 -12 -19 -31 -26 -129 -12 -185 33 -129 137 -177 332 -153
129 16 400 14 470 -3 120 -29 230 -122 292 -248 41 -83 60 -165 75 -317 13
-127 28 -156 107 -200 100 -55 197 -161 286 -311 51 -85 74 -99 217 -128 126
-26 548 -25 677 0 114 23 171 50 192 91 69 135 224 310 307 347 82 36 99 75
115 255 24 272 152 455 356 509 74 20 324 22 469 5 201 -24 304 23 337 153 15
60 7 156 -16 190 -37 57 -153 61 -200 6 -33 -40 -32 -66 5 -111 l31 -37 -21
-21 c-26 -26 -65 -25 -120 3 -84 42 -108 113 -75 223 37 127 133 203 238 191
125 -15 201 -69 264 -188 25 -49 28 -64 28 -154 0 -94 -2 -104 -33 -163 -18
-35 -56 -88 -85 -117 -44 -45 -63 -57 -127 -76 -97 -30 -284 -32 -440 -5 -166
29 -275 12 -372 -59 -97 -71 -133 -155 -163 -386 -21 -158 -32 -178 -185 -326
-86 -83 -150 -155 -187 -210 -65 -98 -99 -124 -208 -159 -205 -65 -602 -73
-840 -17 -146 34 -199 68 -262 167 -28 45 -98 123 -188 212 -123 122 -146 149
-164 198 -11 31 -21 73 -21 94 0 66 -29 233 -48 275 -36 81 -96 143 -174 182
-96 47 -174 54 -313 30 -62 -12 -151 -18 -235 -19 -234 0 -331 48 -416 207
-38 70 -39 75 -39 172 0 90 3 105 28 153 33 63 101 140 137 155 109 45 186 45
257 1z m4936 -164 c31 -35 36 -83 12 -149 l-15 -42 36 -15 c63 -26 93 -29 100
-8 10 27 25 45 34 39 11 -7 -45 -148 -61 -154 -8 -2 -10 4 -5 22 6 24 2 26
-94 61 -195 72 -189 71 -205 50 -7 -11 -16 -16 -20 -12 -9 8 40 161 62 195 39
59 108 65 156 13z m-5845 -219 c74 -38 106 -97 100 -187 -3 -52 -9 -70 -34
-101 -97 -121 -269 -110 -330 20 -50 108 -13 217 91 271 42 22 127 20 173 -3z
m5585 -186 c20 -10 37 -22 37 -26 0 -3 -19 -9 -42 -12 -68 -9 -100 -64 -58
-102 27 -24 59 -14 120 40 42 38 57 45 91 45 34 0 47 -6 76 -35 33 -33 35 -39
30 -83 -4 -41 -11 -53 -53 -89 -27 -24 -51 -43 -54 -43 -3 0 -23 16 -45 36
l-40 35 30 -6 c57 -13 89 -7 113 20 28 33 28 72 0 102 -35 37 -70 30 -133 -27
-63 -57 -103 -65 -148 -30 -48 38 -41 115 13 153 14 10 18 20 14 32 -4 10 -3
16 2 14 5 -3 26 -13 47 -24z m-3197 -120 c18 -20 36 -51 40 -70 10 -54 28 -61
43 -17 21 60 57 100 102 113 35 11 43 10 67 -8 39 -29 70 -79 89 -142 l16 -56
12 47 c52 198 201 221 263 41 11 -33 22 -51 25 -43 2 8 10 35 17 60 7 25 26
58 46 78 29 29 39 33 66 28 38 -8 72 -37 89 -78 l12 -30 12 30 c17 40 61 72
100 72 25 0 40 -8 61 -32 19 -23 29 -29 32 -19 2 7 13 22 23 32 46 46 112 2
127 -84 5 -29 15 -79 21 -113 29 -157 -11 -243 -103 -220 -20 5 -25 1 -30 -20
-16 -62 -95 -96 -136 -59 -15 14 -18 12 -29 -25 -8 -28 -22 -47 -44 -60 -42
-26 -59 -25 -95 5 l-30 25 -7 -37 c-16 -89 -116 -125 -170 -62 -14 17 -27 30
-29 28 -1 -2 -8 -19 -16 -37 -17 -44 -64 -82 -102 -82 -29 0 -76 36 -91 70 -6
12 -8 12 -13 2 -4 -8 -20 -29 -36 -48 -56 -64 -136 -40 -169 49 l-13 37 -26
-32 c-50 -60 -139 -34 -170 50 l-15 40 -24 -19 c-50 -41 -119 -10 -145 64 -11
33 -14 36 -26 22 -32 -38 -122 -3 -135 54 -6 27 -8 28 -48 24 -36 -4 -46 -1
-67 22 -24 25 -25 33 -28 168 -2 111 1 151 14 185 28 74 85 94 126 44 l23 -28
27 28 c37 39 89 39 129 -1 16 -16 29 -37 29 -45 0 -9 5 -16 10 -16 6 0 10 4
10 9 0 16 52 72 74 81 38 16 58 10 92 -25z m-2066 -237 c47 -67 88 -127 92
-133 4 -7 -8 -26 -29 -46 -34 -32 -35 -33 -29 -9 17 57 16 66 -13 100 l-29 35
-99 -68 c-152 -104 -147 -100 -134 -126 7 -12 9 -26 6 -31 -7 -11 -95 102 -95
120 0 14 11 12 31 -6 17 -15 26 -10 138 68 66 45 120 86 121 90 0 4 -12 26
-27 48 -26 37 -30 40 -65 34 -48 -7 -51 10 -5 30 17 8 37 15 42 15 6 0 48 -54
95 -121z m297 -350 l92 -93 -20 -32 c-28 -44 -42 -42 -34 5 5 34 3 40 -39 82
l-46 44 -35 -34 c-19 -19 -35 -39 -35 -45 0 -6 16 -26 35 -45 29 -28 36 -31
50 -20 10 8 19 10 25 4 6 -6 -7 -26 -35 -54 -31 -31 -48 -41 -55 -34 -8 8 -6
15 5 24 22 19 19 32 -20 70 -30 29 -36 32 -52 20 -46 -35 -93 -86 -93 -101 0
-24 87 -101 108 -95 9 2 28 7 41 11 35 11 22 -13 -21 -39 l-37 -21 -94 90
c-90 86 -119 126 -79 110 9 -4 24 -9 32 -12 9 -2 56 38 120 102 95 95 104 107
92 125 -6 11 -12 22 -12 25 0 16 25 -4 107 -87z m4731 53 c21 -13 10 -46 -16
-49 -24 -4 -38 18 -28 43 6 17 24 19 44 6z m-508 -256 c29 -31 23 -38 -18 -24
-29 10 -36 8 -82 -26 -27 -20 -50 -40 -50 -44 0 -4 15 -25 34 -47 l34 -39 38
32 c40 32 41 34 29 66 -5 11 -2 17 7 17 18 0 78 -73 78 -94 0 -20 -14 -20 -30
-1 -7 8 -17 15 -22 15 -13 0 -78 -53 -78 -63 0 -5 21 -35 47 -68 46 -59 46
-59 72 -43 60 38 80 65 83 113 l3 46 23 -43 c12 -23 20 -47 17 -52 -11 -18
-207 -171 -213 -166 -3 3 0 18 7 32 6 14 8 31 4 37 -20 33 -176 227 -182 227
-4 0 -12 -5 -19 -12 -8 -8 -15 -9 -22 -2 -10 10 175 162 201 163 8 1 26 -10
39 -24z m-3951 -56 c50 -40 68 -68 34 -54 -10 4 -25 8 -33 9 -13 1 -180 -206
-180 -224 0 -4 21 -24 48 -44 46 -37 53 -38 110 -21 31 10 27 -6 -10 -43 l-33
-31 -102 80 c-57 45 -103 84 -103 89 0 4 10 6 23 3 18 -3 37 17 111 114 75 99
87 120 77 135 -26 42 -5 37 58 -13z m3586 -189 c-6 -25 3 -48 49 -129 67 -118
72 -160 29 -212 -32 -37 -115 -79 -158 -79 -55 0 -87 31 -149 144 -48 85 -64
106 -79 104 -40 -6 -25 18 28 46 59 30 80 29 51 -3 -17 -19 -16 -23 31 -107
62 -112 92 -144 132 -144 70 0 144 56 144 108 0 16 -26 76 -59 136 -52 94 -62
106 -81 101 -39 -9 -34 13 9 38 56 33 61 33 53 -3z m-2893 -222 c53 -37 49
-106 -7 -139 -33 -20 -34 -22 -20 -42 33 -47 12 -113 -45 -142 -43 -22 -64
-19 -156 23 -85 38 -102 52 -61 52 19 0 31 21 85 142 55 124 61 144 48 154 -9
6 -13 13 -10 16 7 8 133 -41 166 -64z m2353 -39 c120 -33 179 -164 129 -289
-9 -23 -15 -42 -13 -44 27 -20 114 -45 136 -40 28 7 28 7 9 -15 -25 -28 -61
-27 -130 4 -56 25 -58 25 -106 9 -138 -45 -270 58 -258 202 8 100 70 160 188
183 3 0 23 -4 45 -10z m-1932 -90 c97 -27 162 -140 137 -237 -41 -163 -232
-205 -338 -76 -88 107 -45 263 84 309 48 17 68 18 117 4z m1478 -68 l-22 -17
32 -147 32 -147 28 0 c50 0 31 -17 -32 -29 -34 -7 -67 -15 -75 -18 -8 -3 -14
1 -14 9 0 8 11 18 24 24 l23 9 -31 145 c-30 137 -33 145 -56 145 -47 1 -29 22
32 36 71 18 91 14 59 -10z m-1017 -42 c6 -5 2 -11 -7 -14 -9 -3 -23 -7 -31 -9
-10 -3 -16 -28 -21 -78 -16 -180 -9 -207 61 -234 52 -20 109 -14 136 14 19 18
27 59 42 214 5 50 4 59 -14 68 -11 6 -20 15 -20 20 0 11 53 13 89 3 l24 -6
-21 -16 c-18 -13 -23 -34 -32 -131 -13 -127 -22 -153 -63 -184 -22 -16 -42
-21 -92 -20 -70 1 -114 21 -148 66 -19 26 -20 35 -11 159 8 122 8 133 -8 137
-10 2 -18 10 -18 17 0 10 15 12 63 8 34 -3 66 -9 71 -14z m746 -30 c14 -52 5
-61 -23 -25 -19 24 -28 27 -67 24 l-45 -3 2 -90 c1 -49 4 -118 8 -152 6 -61 7
-63 36 -63 31 0 39 -14 13 -24 -26 -10 -144 -7 -144 4 0 6 9 10 19 10 11 0 22
4 26 10 8 13 -15 283 -25 294 -5 5 -30 5 -55 1 -40 -6 -49 -11 -58 -36 -18
-47 -40 -38 -32 14 4 23 8 43 10 45 1 1 69 8 151 16 82 7 154 14 161 15 7 0
17 -17 23 -40z"/>
<path d="M6575 9271 c-95 -43 -147 -118 -166 -241 -13 -89 4 -247 38 -338 4
-9 -22 11 -57 46 -41 41 -89 75 -137 99 -65 32 -82 36 -146 36 -81 -1 -137
-18 -200 -62 -81 -56 -87 -65 -87 -135 0 -134 64 -228 203 -296 77 -38 215
-80 261 -80 13 0 -1 -13 -40 -36 -77 -46 -130 -97 -162 -159 -25 -46 -27 -59
-26 -160 0 -88 4 -120 21 -160 20 -47 24 -51 79 -68 75 -23 163 -18 223 13 95
48 194 190 238 339 l16 56 18 -53 c89 -259 255 -399 433 -362 64 13 80 28 108
106 51 141 15 279 -104 398 -35 35 -88 77 -118 94 l-55 32 47 0 c77 0 290 30
337 47 105 38 171 142 171 268 0 56 -4 68 -33 107 -21 27 -56 55 -97 77 -62
31 -69 33 -145 28 -89 -6 -162 -29 -250 -82 -32 -20 -60 -33 -62 -31 -2 2 0
21 6 42 59 232 -20 428 -192 479 -64 19 -73 19 -122 -4z m140 -670 c65 -29
115 -104 115 -171 0 -38 -24 -95 -56 -130 -113 -125 -314 -43 -314 128 0 142
130 230 255 173z"/>
<path d="M5960 6689 c-14 -25 -13 -25 23 -35 l29 -7 -16 32 c-19 37 -22 37
-36 10z"/>
<path d="M5856 6584 c-121 -37 -209 -129 -248 -258 -57 -188 41 -384 230 -460
67 -26 180 -25 256 4 81 31 174 123 207 205 35 89 34 218 -3 297 -35 76 -72
121 -133 163 -91 62 -207 80 -309 49z m191 -179 c71 -36 106 -89 111 -169 3
-46 -1 -72 -13 -97 -81 -160 -296 -164 -376 -6 -30 59 -24 150 15 206 34 49
113 91 171 91 24 0 62 -11 92 -25z"/>
<path d="M5616 6554 c13 -54 18 -56 49 -24 16 16 27 32 24 34 -2 2 -21 7 -42
11 -38 7 -38 7 -31 -21z"/>
<path d="M6252 6561 l-23 -6 28 -28 29 -27 17 35 c16 35 16 35 -6 34 -12 -1
-32 -4 -45 -8z"/>
<path d="M5486 6233 l-30 -16 35 -18 c46 -25 49 -24 49 16 0 39 -10 42 -54 18z"/>
<path d="M6387 6213 c-4 -20 -5 -38 -4 -39 1 -1 22 10 46 24 l45 26 -30 13
c-44 19 -51 16 -57 -24z"/>
<path d="M5625 5905 c-8 -21 -13 -40 -11 -43 7 -6 76 18 76 27 0 4 -11 18 -24
30 l-25 23 -16 -37z"/>
<path d="M6248 5909 l-26 -28 46 -14 c26 -7 48 -13 50 -12 6 4 -25 79 -34 81
-5 1 -21 -11 -36 -27z"/>
<path d="M5920 5785 c0 -9 45 -75 51 -75 3 0 13 18 22 40 l15 40 -44 0 c-24 0
-44 -2 -44 -5z"/>
<path d="M7286 6689 c-16 -23 -16 -24 11 -31 35 -9 38 -6 20 27 l-14 28 -17
-24z"/>
<path d="M7178 6581 c-105 -34 -178 -103 -230 -216 -19 -41 -23 -67 -23 -145
0 -82 4 -103 27 -152 76 -163 240 -249 408 -214 124 26 207 94 264 215 26 57
30 77 30 151 0 112 -27 180 -100 259 -98 106 -244 146 -376 102z m216 -188
c57 -40 89 -102 89 -172 0 -65 -11 -91 -62 -144 -151 -159 -420 18 -335 221
51 123 202 169 308 95z"/>
<path d="M6945 6549 c10 -50 18 -52 50 -19 16 16 27 32 24 34 -2 2 -21 7 -43
11 l-38 8 7 -34z"/>
<path d="M7582 6561 l-23 -6 29 -28 30 -28 11 32 c6 17 11 34 11 35 0 6 -32 3
-58 -5z"/>
<path d="M6818 6237 c-16 -6 -28 -14 -28 -17 0 -6 65 -40 75 -40 3 0 5 16 5
35 0 37 -6 40 -52 22z"/>
<path d="M7714 6226 c-13 -52 -2 -58 43 -28 l43 28 -33 12 c-44 16 -46 16 -53
-12z"/>
<path d="M7581 5916 l-33 -34 33 -11 c53 -18 62 -15 54 22 -13 57 -18 60 -54
23z"/>
<path d="M6950 5900 c-7 -17 -11 -33 -8 -35 2 -2 21 1 41 7 l37 11 -22 24
c-28 30 -33 29 -48 -7z"/>
<path d="M7250 5784 c0 -3 11 -21 24 -41 l24 -35 21 41 21 41 -45 0 c-25 0
-45 -2 -45 -6z"/>
<path d="M9797 5995 c-47 -13 -65 -22 -56 -28 2 -2 23 -18 45 -35 23 -18 46
-32 52 -32 9 0 22 53 22 93 0 20 1 20 -63 2z"/>
<path d="M6595 5938 c-95 -212 -127 -396 -78 -450 21 -23 42 -22 73 2 32 25
55 25 87 0 28 -21 59 -25 83 -10 23 14 25 135 5 227 -30 136 -100 293 -131
293 -6 0 -24 -28 -39 -62z"/>
<path d="M9612 5550 c-27 -26 -55 -78 -49 -93 6 -15 144 -63 154 -54 4 4 9 34
11 66 4 54 2 59 -23 79 -35 27 -65 28 -93 2z"/>
<path d="M3795 5340 c-107 -25 -177 -117 -154 -202 22 -83 98 -124 182 -98 57
17 123 84 132 134 20 102 -65 189 -160 166z"/>
<path d="M6016 4927 c-13 -14 -27 -43 -31 -67 -9 -52 3 -64 71 -75 57 -8 74 5
74 57 0 65 -32 107 -83 108 -4 0 -18 -11 -31 -23z"/>
<path d="M6217 4939 c-26 -15 -46 -61 -53 -123 l-7 -56 44 -19 c60 -27 115
-36 124 -21 14 23 9 154 -8 186 -22 43 -60 56 -100 33z"/>
<path d="M6462 4937 c-13 -6 -33 -28 -44 -50 -24 -48 -37 -180 -19 -192 20
-12 125 -18 176 -10 l48 7 -6 67 c-12 146 -74 218 -155 178z"/>
<path d="M6732 4934 c-12 -8 -31 -33 -42 -54 -24 -47 -44 -170 -29 -185 13
-13 135 -18 184 -8 l40 9 -2 73 c-4 139 -76 218 -151 165z"/>
<path d="M6976 4927 c-29 -29 -40 -90 -31 -164 l7 -55 39 6 c22 3 57 13 79 22
40 16 40 16 40 71 0 65 -22 116 -56 132 -36 16 -52 14 -78 -12z"/>
<path d="M7193 4940 c-31 -12 -43 -41 -43 -100 0 -59 9 -65 75 -56 62 10 74
24 65 81 -10 65 -48 94 -97 75z"/>
<path d="M5871 4926 c-7 -8 -14 -30 -18 -49 -5 -34 -5 -34 38 -41 24 -4 46 -3
52 3 14 14 11 69 -4 87 -15 18 -53 18 -68 0z"/>
<path d="M7330 4914 c-25 -66 -1 -95 65 -76 26 8 30 13 27 37 -5 47 -20 65
-53 65 -22 0 -32 -6 -39 -26z"/>
<path d="M7381 4798 c-42 -9 -43 -11 -37 -40 8 -41 23 -58 52 -58 33 0 58 40
49 80 -4 16 -10 30 -13 29 -4 -1 -27 -6 -51 -11z"/>
<path d="M5854 4776 c-21 -86 72 -123 95 -38 11 38 3 51 -29 52 -8 0 -25 3
-37 6 -18 5 -23 1 -29 -20z"/>
<path d="M7242 4750 c-45 -11 -46 -13 -31 -62 12 -37 18 -43 45 -46 44 -4 64
19 64 74 0 48 -6 51 -78 34z"/>
<path d="M5982 4699 c3 -49 6 -55 31 -63 37 -13 58 0 76 48 17 46 11 53 -57
62 l-53 7 3 -54z"/>
<path d="M7135 4712 c-11 -2 -37 -8 -59 -13 -37 -10 -38 -12 -33 -46 8 -46 33
-73 68 -73 41 0 59 24 59 80 0 52 -4 59 -35 52z"/>
<path d="M6127 4674 c-6 -37 6 -84 26 -96 7 -4 24 -8 39 -8 33 0 56 31 60 80
3 32 1 34 -37 42 -22 4 -50 10 -61 13 -18 4 -22 -1 -27 -31z"/>
<path d="M6295 4662 c-9 -9 -5 -103 5 -122 11 -21 60 -35 89 -25 22 7 55 82
49 111 -2 14 -18 21 -71 30 -37 6 -69 8 -72 6z"/>
<path d="M6925 4663 c-72 -15 -68 -11 -62 -54 8 -60 31 -89 72 -89 42 0 75 38
75 86 0 62 -15 72 -85 57z"/>
<path d="M6664 4635 c-4 -8 -3 -36 1 -61 9 -60 43 -96 87 -92 43 4 70 44 76
113 l4 55 -81 0 c-64 0 -83 -3 -87 -15z"/>
<path d="M6472 4580 c6 -87 51 -128 113 -104 25 10 45 59 45 114 l0 50 -81 0
-81 0 4 -60z"/>
<path d="M5352 3765 c-12 -25 -22 -52 -22 -61 0 -16 39 -34 74 -34 56 0 77 82
30 119 -40 32 -57 26 -82 -24z"/>
<path d="M5280 3603 l-31 -68 22 -17 c28 -24 101 -24 122 0 22 25 30 67 17 92
-12 22 -67 60 -87 60 -7 0 -27 -30 -43 -67z"/>
<path d="M7740 3732 c-35 -6 -78 -38 -95 -72 -46 -90 32 -232 141 -254 92 -19
170 76 144 175 -28 103 -107 166 -190 151z"/>
<path d="M5780 3632 c-19 -9 -45 -35 -58 -57 -19 -34 -22 -52 -20 -112 3 -64
7 -76 32 -102 83 -86 206 -54 241 62 28 95 -5 181 -82 213 -43 18 -71 18 -113
-4z"/>
<path d="M10375 8668 c108 -178 202 -387 285 -635 l57 -173 7 56 c24 210 225
282 523 188 42 -13 -174 154 -352 273 -124 82 -530 333 -540 333 -4 0 6 -19
20 -42z"/>
<path d="M2765 8557 c-126 -78 -284 -179 -350 -224 -130 -89 -319 -233 -313
-238 2 -2 37 5 78 16 91 23 229 25 291 4 103 -37 158 -118 159 -235 l1 -65 35
113 c79 257 193 524 298 698 25 41 42 74 38 74 -4 -1 -110 -65 -237 -143z"/>
<path d="M10696 5373 c-64 -225 -201 -548 -304 -717 -24 -38 -41 -70 -40 -72
5 -4 427 257 562 348 131 88 302 215 330 247 17 19 16 19 -46 -2 -49 -16 -89
-21 -178 -21 -107 -1 -119 1 -168 27 -30 16 -65 45 -82 68 -33 46 -55 135 -45
185 11 62 -1 35 -29 -63z"/>
<path d="M2629 5378 c-5 -99 -39 -157 -119 -202 -53 -30 -59 -31 -175 -30 -94
0 -134 5 -185 22 l-65 21 35 -31 c64 -55 253 -194 370 -271 118 -77 508 -317
516 -317 2 0 -14 29 -36 65 -103 169 -224 448 -298 689 l-40 130 -3 -76z"/>
<path d="M4620 2967 c0 -8 252 -417 327 -530 88 -133 282 -391 283 -375 0 4
-9 42 -21 85 -28 101 -24 257 8 318 41 78 102 118 202 131 l52 7 -158 52
c-278 92 -504 195 -670 303 -13 8 -23 12 -23 9z"/>
<path d="M8685 2934 c-170 -103 -460 -229 -678 -295 l-109 -33 67 -13 c106
-19 167 -69 200 -162 21 -62 19 -191 -5 -286 -11 -43 -19 -79 -18 -81 7 -6
158 195 247 326 121 180 369 580 359 580 -2 0 -30 -16 -63 -36z"/>
<path d="M7868 2593 c7 -3 16 -2 19 1 4 3 -2 6 -13 5 -11 0 -14 -3 -6 -6z"/>
</g>
</svg>
