<svg width="602" height="627" viewBox="0 0 602 627" fill="none" xmlns="http://www.w3.org/2000/svg">
<path d="M364.742 307.404L345.842 296.854L362.275 282.646C381.583 266.416 413.629 229.483 413.629 165.971C413.625 68.5707 337.208 5.6665 219.096 5.6665H69.1375C33.9584 6.85817 5.97919 35.2207 5.66669 69.9915V621.925H221.767C353.233 621.925 437.871 551.312 437.871 441.733C437.871 382.891 410.55 332.162 364.329 306.796M230.6 518.233H125.838V394.458C125.838 368.083 136.108 353.875 159.113 351.033H231.013C242.304 350.099 253.664 351.616 264.314 355.48C274.965 359.344 284.655 365.464 292.721 373.421C300.721 381.315 306.885 390.874 310.776 401.418C314.667 411.963 316.188 423.234 315.233 434.433C315.233 487.191 282.983 518.641 231.013 518.641L230.6 518.233ZM125.629 183.625V151.158C125.629 122.75 137.954 108.95 164.663 107.325H218.479C264.496 107.325 292.433 134.521 292.433 180.379C292.433 214.875 273.533 255.458 220.533 255.458H126.042L125.629 183.625Z" stroke="white" stroke-width="40" stroke-linejoin="round"/>
<path d="M547.083 596.821C574.249 596.821 596.271 574.982 596.271 548.042C596.271 521.102 574.249 499.263 547.083 499.263C519.918 499.263 497.896 521.102 497.896 548.042C497.896 574.982 519.918 596.821 547.083 596.821Z" stroke="white" stroke-width="40" stroke-linejoin="round"/>
</svg>
