<svg width="1526" height="481" viewBox="0 0 1526 481" fill="none" xmlns="http://www.w3.org/2000/svg">
<path d="M73.832 42.4638C79.0373 46.1331 83.0907 51.1678 85.992 57.5677C88.8933 63.9678 90.344 71.2211 90.344 79.3278C90.344 87.4344 88.8933 94.8158 85.992 101.472C83.0907 108.128 79.0373 113.333 73.832 117.088C70.504 119.477 66.664 121.226 62.312 122.336C58.0453 123.445 52.7973 124 46.568 124H12.52V122.976L23.016 121.952V37.7278L12.52 36.7038V35.6797H46.568C58.1733 35.6797 67.2613 37.9411 73.832 42.4638ZM69.224 114.912C71.9547 111.413 74.088 106.464 75.624 100.064C77.2453 93.5784 78.056 86.4531 78.056 78.6878C78.056 71.0931 77.288 64.3944 75.752 58.5918C74.3013 52.7891 72.1253 48.1811 69.224 44.7678C66.8347 41.9518 63.8907 39.9891 60.392 38.8798C56.8933 37.7704 51.9013 37.2158 45.416 37.2158H32.872V122.464H45.416C52.2427 122.464 57.3627 121.909 60.776 120.8C64.1893 119.69 67.0053 117.728 69.224 114.912ZM161.29 97.1198L158.09 124H95.37V122.976L105.866 121.952V37.7278L95.37 36.7038V35.6797H158.218L160.01 59.7438L158.73 59.8717L151.562 41.9518C150.794 39.9891 149.941 38.7091 149.002 38.1118C148.149 37.5144 146.698 37.2158 144.65 37.2158H115.722V76.5118H134.666C136.714 76.5118 138.165 76.1704 139.018 75.4878C139.871 74.8051 140.469 73.4824 140.81 71.5198L142.986 61.1518H144.522V93.9198H142.986L140.81 83.5518C140.469 81.5891 139.871 80.2664 139.018 79.5838C138.165 78.9011 136.714 78.5598 134.666 78.5598H115.722V122.464H144.394C146.442 122.464 147.935 122.165 148.874 121.568C149.813 120.885 150.666 119.605 151.434 117.728L159.882 96.9918L161.29 97.1198ZM212.011 122.72C207.83 124.938 203.094 126.048 197.803 126.048C193.792 126.048 189.91 125.408 186.155 124.128C182.4 122.933 179.2 121.226 176.555 119.008L173.867 126.048H172.203L170.539 95.4558L171.691 95.1998C172.971 101.002 174.251 105.525 175.531 108.768C176.896 112.01 178.646 114.826 180.779 117.216C185.131 122.08 190.891 124.512 198.059 124.512C204.203 124.512 208.982 122.933 212.395 119.776C215.894 116.533 217.643 112.181 217.643 106.72C217.643 102.88 216.704 99.6371 214.827 96.9918C213.035 94.3464 210.56 92.0851 207.403 90.2078C204.246 88.3304 199.808 86.1544 194.091 83.6798C189.398 81.6318 185.472 79.6264 182.315 77.6638C179.158 75.6158 176.512 73.0131 174.379 69.8558C172.331 66.6131 171.307 62.6878 171.307 58.0798C171.307 53.3864 172.416 49.2051 174.635 45.5358C176.939 41.7811 180.054 38.8798 183.979 36.8317C187.99 34.6984 192.512 33.6318 197.547 33.6318C201.046 33.6318 204.288 34.2291 207.275 35.4238C210.347 36.6184 213.632 38.5811 217.131 41.3118L220.203 35.1678H221.867L223.147 63.0718L221.867 63.4558C220.502 57.7384 218.752 52.7038 216.619 48.3518C212.352 39.5624 205.824 35.1678 197.035 35.1678C191.744 35.1678 187.52 36.7038 184.363 39.7757C181.206 42.7624 179.627 46.8584 179.627 52.0638C179.627 55.8184 180.48 58.9758 182.187 61.5358C183.979 64.0958 186.411 66.3144 189.483 68.1918C192.64 70.0691 197.078 72.3304 202.795 74.9758C207.915 77.2798 212.011 79.4558 215.083 81.5038C218.24 83.5518 220.758 86.1118 222.635 89.1838C224.598 92.1704 225.579 95.8824 225.579 100.32C225.579 105.269 224.384 109.706 221.995 113.632C219.606 117.472 216.278 120.501 212.011 122.72ZM284.687 121.824C288.356 120.202 291.428 118.026 293.903 115.296C298.084 110.602 301.242 103.605 303.375 94.3038L305.039 94.5598V124H303.375L299.023 116.96C295.183 119.776 291.002 121.994 286.479 123.616C282.042 125.237 277.732 126.048 273.551 126.048C266.127 126.048 259.3 124 253.071 119.904C246.927 115.808 242.063 110.261 238.479 103.264C234.98 96.1811 233.231 88.3731 233.231 79.8398C233.231 71.3918 234.98 63.6264 238.479 56.5438C242.063 49.4611 246.927 43.8718 253.071 39.7757C259.215 35.6798 265.956 33.6318 273.295 33.6318C277.135 33.6318 281.06 34.2718 285.071 35.5518C289.167 36.7464 293.69 38.6664 298.639 41.3118L301.711 35.1678H303.375L304.655 63.9678L302.863 64.4798C301.668 57.9091 299.791 52.4904 297.231 48.2238C294.671 44.0424 291.343 40.8424 287.247 38.6237C283.151 36.3198 278.628 35.1678 273.679 35.1678C264.634 35.1678 257.679 39.0504 252.815 46.8158C247.951 54.5811 245.519 65.5891 245.519 79.8398C245.519 94.0051 247.951 104.97 252.815 112.736C257.679 120.416 264.591 124.256 273.551 124.256C277.391 124.256 281.103 123.445 284.687 121.824ZM375.283 43.4878C375.283 41.4398 375.027 40.0317 374.515 39.2637C374.003 38.4958 372.979 37.9838 371.443 37.7278L362.355 36.7038V35.6797H390.387V36.7038L381.171 37.7278C379.635 37.9838 378.611 38.4958 378.099 39.2637C377.587 40.0317 377.331 41.4398 377.331 43.4878V92.6398C377.331 98.0158 376.904 102.496 376.051 106.08C375.283 109.664 374.046 112.736 372.339 115.296C370.035 118.624 366.878 121.269 362.867 123.232C358.856 125.109 354.419 126.048 349.555 126.048C345.63 126.048 341.747 125.408 337.907 124.128C334.067 122.848 330.867 121.098 328.307 118.88C325.662 116.576 323.784 113.632 322.675 110.048C321.566 106.464 321.011 101.514 321.011 95.1998V37.7278L310.515 36.7038V35.6797H342.003V36.7038L330.867 37.7278V99.4238C330.867 105.653 331.422 110.432 332.531 113.76C333.726 117.088 335.688 119.562 338.419 121.184C339.87 122.037 341.662 122.72 343.795 123.232C345.928 123.744 348.147 124 350.451 124C354.718 124 358.643 123.146 362.227 121.44C365.811 119.733 368.67 117.301 370.803 114.144C372.424 111.754 373.576 108.981 374.259 105.824C374.942 102.581 375.283 98.3998 375.283 93.2798V43.4878ZM434.296 77.4078C441.72 78.4318 447.395 80.8638 451.32 84.7038C455.245 88.5438 457.208 93.5784 457.208 99.8078C457.208 106.634 454.819 112.394 450.04 117.088C445.347 121.696 438.093 124 428.28 124H390.52V122.976L401.016 121.952V37.7278L390.52 36.7038V35.6797H422.392C432.461 35.6797 440.141 37.4718 445.432 41.0558C450.723 44.6398 453.368 49.8451 453.368 56.6718C453.368 62.1331 451.704 66.6558 448.376 70.2398C445.048 73.8238 440.355 76.0424 434.296 76.8958V77.4078ZM410.872 37.2158V76.5118H425.72C431.437 76.5118 435.533 74.8478 438.008 71.5198C440.568 68.1918 441.848 63.2424 441.848 56.6718C441.848 43.7011 435.235 37.2158 422.008 37.2158H410.872ZM425.208 122.464C438.435 122.464 445.048 115.04 445.048 100.192C445.048 92.4264 443.384 86.7944 440.056 83.2958C436.728 79.7971 431.779 78.0478 425.208 78.0478H410.872V122.464H425.208ZM540.566 122.976V124H527.382C525.334 124 523.798 123.701 522.774 123.104C521.75 122.506 520.683 121.354 519.574 119.648L499.99 88.0318C498.795 86.0691 497.771 84.8744 496.918 84.4478C496.15 83.9358 494.742 83.6798 492.694 83.6798H483.222V121.952L494.358 122.976V124H462.87V122.976L473.366 121.952V37.7278L462.87 36.7038V35.6797H495.254C505.323 35.6797 513.003 37.7278 518.294 41.8238C523.585 45.8344 526.23 51.6798 526.23 59.3598C526.23 65.3331 524.609 70.2398 521.366 74.0798C518.123 77.9198 513.43 80.5651 507.286 82.0158H507.414L530.838 118.624C531.947 120.33 533.014 121.482 534.038 122.08C535.147 122.677 536.726 122.976 538.774 122.976H540.566ZM483.222 37.2158V81.7598H494.87C501.697 81.7598 506.731 79.9678 509.974 76.3838C513.302 72.7144 514.966 67.1251 514.966 59.6158C514.966 52.0211 513.302 46.3891 509.974 42.7197C506.646 39.0504 501.611 37.2158 494.87 37.2158H483.222ZM601.015 97.1198L597.815 124H535.095V122.976L545.591 121.952V37.7278L535.095 36.7038V35.6797H597.943L599.735 59.7438L598.455 59.8717L591.287 41.9518C590.519 39.9891 589.666 38.7091 588.727 38.1118C587.874 37.5144 586.423 37.2158 584.375 37.2158H555.447V76.5118H574.391C576.439 76.5118 577.89 76.1704 578.743 75.4878C579.596 74.8051 580.194 73.4824 580.535 71.5198L582.711 61.1518H584.247V93.9198H582.711L580.535 83.5518C580.194 81.5891 579.596 80.2664 578.743 79.5838C577.89 78.9011 576.439 78.5598 574.391 78.5598H555.447V122.464H584.119C586.167 122.464 587.66 122.165 588.599 121.568C589.538 120.885 590.391 119.605 591.159 117.728L599.607 96.9918L601.015 97.1198Z" fill="#675132"/>
<path d="M66.582 365.464C71.7873 369.133 75.8407 374.168 78.742 380.568C81.6433 386.968 83.094 394.221 83.094 402.328C83.094 410.435 81.6433 417.816 78.742 424.472C75.8407 431.128 71.7873 436.333 66.582 440.088C63.254 442.477 59.414 444.227 55.062 445.336C50.7953 446.445 45.5473 447 39.318 447H5.26999V445.976L15.766 444.952V360.728L5.26999 359.704V358.68H39.318C50.9233 358.68 60.0113 360.941 66.582 365.464ZM61.974 437.912C64.7047 434.413 66.838 429.464 68.374 423.064C69.9953 416.579 70.806 409.453 70.806 401.688C70.806 394.093 70.038 387.395 68.502 381.592C67.0513 375.789 64.8753 371.181 61.974 367.768C59.5847 364.952 56.6407 362.989 53.142 361.88C49.6433 360.771 44.6513 360.216 38.166 360.216H25.622V445.464H38.166C44.9927 445.464 50.1127 444.909 53.526 443.8C56.9393 442.691 59.7553 440.728 61.974 437.912ZM154.04 420.12L150.84 447H88.12V445.976L98.616 444.952V360.728L88.12 359.704V358.68H150.968L152.76 382.744L151.48 382.872L144.312 364.952C143.544 362.989 142.691 361.709 141.752 361.112C140.899 360.515 139.448 360.216 137.4 360.216H108.472V399.512H127.416C129.464 399.512 130.915 399.171 131.768 398.488C132.621 397.805 133.219 396.483 133.56 394.52L135.736 384.152H137.272V416.92H135.736L133.56 406.552C133.219 404.589 132.621 403.267 131.768 402.584C130.915 401.901 129.464 401.56 127.416 401.56H108.472V445.464H137.144C139.192 445.464 140.685 445.165 141.624 444.568C142.563 443.885 143.416 442.605 144.184 440.728L152.632 419.992L154.04 420.12ZM257.527 360.728V444.952L268.023 445.976V447H236.535V445.976L247.671 444.952V401.56H205.047V444.952L216.183 445.976V447H184.695V445.976L195.191 444.952V360.728L184.695 359.704V358.68H216.183V359.704L205.047 360.728V399.512H247.671V360.728L236.535 359.704V358.68H268.023V359.704L257.527 360.728ZM352.944 445.976V447H321.584V445.976L332.08 444.696L320.048 411.928H289.072L278.448 440.216C278.107 441.155 277.936 441.923 277.936 442.52C277.936 443.459 278.192 444.141 278.704 444.568C279.301 444.909 280.325 445.165 281.776 445.336L289.584 445.976V447H262.32V445.976L269.488 445.336C271.621 445.165 273.115 444.739 273.968 444.056C274.907 443.373 275.717 442.093 276.4 440.216L307.76 356.632H310.064L342.32 444.696L352.944 445.976ZM319.28 409.88L304.944 370.84H304.432L289.84 409.88H319.28ZM399.012 444.824C402.681 443.203 405.753 441.027 408.228 438.296C412.409 433.603 415.567 426.605 417.7 417.304L419.364 417.56V447H417.7L413.348 439.96C409.508 442.776 405.327 444.995 400.804 446.616C396.367 448.237 392.057 449.048 387.876 449.048C380.452 449.048 373.625 447 367.396 442.904C361.252 438.808 356.388 433.261 352.804 426.264C349.305 419.181 347.556 411.373 347.556 402.84C347.556 394.392 349.305 386.627 352.804 379.544C356.388 372.461 361.252 366.872 367.396 362.776C373.54 358.68 380.281 356.632 387.62 356.632C391.46 356.632 395.385 357.272 399.396 358.552C403.492 359.747 408.015 361.667 412.964 364.312L416.036 358.168H417.7L418.98 386.968L417.188 387.48C415.993 380.909 414.116 375.491 411.556 371.224C408.996 367.043 405.668 363.843 401.572 361.624C397.476 359.32 392.953 358.168 388.004 358.168C378.959 358.168 372.004 362.051 367.14 369.816C362.276 377.581 359.844 388.589 359.844 402.84C359.844 417.005 362.276 427.971 367.14 435.736C372.004 443.416 378.916 447.256 387.876 447.256C391.716 447.256 395.428 446.445 399.012 444.824ZM492.04 420.12L488.84 447H426.12V445.976L436.616 444.952V360.728L426.12 359.704V358.68H488.968L490.76 382.744L489.48 382.872L482.312 364.952C481.544 362.989 480.691 361.709 479.752 361.112C478.899 360.515 477.448 360.216 475.4 360.216H446.472V399.512H465.416C467.464 399.512 468.915 399.171 469.768 398.488C470.621 397.805 471.219 396.483 471.56 394.52L473.736 384.152H475.272V416.92H473.736L471.56 406.552C471.219 404.589 470.621 403.267 469.768 402.584C468.915 401.901 467.464 401.56 465.416 401.56H446.472V445.464H475.144C477.192 445.464 478.685 445.165 479.624 444.568C480.563 443.885 481.416 442.605 482.184 440.728L490.632 419.992L492.04 420.12ZM576.041 445.976V447H562.857C560.809 447 559.273 446.701 558.249 446.104C557.225 445.507 556.158 444.355 555.049 442.648L535.465 411.032C534.27 409.069 533.246 407.875 532.393 407.448C531.625 406.936 530.217 406.68 528.169 406.68H518.697V444.952L529.833 445.976V447H498.345V445.976L508.841 444.952V360.728L498.345 359.704V358.68H530.729C540.798 358.68 548.478 360.728 553.769 364.824C559.06 368.835 561.705 374.68 561.705 382.36C561.705 388.333 560.084 393.24 556.841 397.08C553.598 400.92 548.905 403.565 542.761 405.016H542.889L566.313 441.624C567.422 443.331 568.489 444.483 569.513 445.08C570.622 445.677 572.201 445.976 574.249 445.976H576.041ZM518.697 360.216V404.76H530.345C537.172 404.76 542.206 402.968 545.449 399.384C548.777 395.715 550.441 390.125 550.441 382.616C550.441 375.021 548.777 369.389 545.449 365.72C542.121 362.051 537.086 360.216 530.345 360.216H518.697Z" fill="#675132"/>
<path d="M389.954 274.952V190.728L379.458 189.704V188.68H410.946V189.704L399.81 190.728V275.464H428.098C430.146 275.464 431.639 275.165 432.578 274.568C433.516 273.885 434.37 272.605 435.138 270.728L443.842 248.84L445.378 249.096L442.178 277H379.458V275.976L389.954 274.952ZM489.539 186.632C496.963 186.632 503.747 188.68 509.891 192.776C516.12 196.872 520.984 202.461 524.483 209.544C528.067 216.541 529.859 224.307 529.859 232.84C529.859 241.373 528.067 249.181 524.483 256.264C520.984 263.261 516.12 268.808 509.891 272.904C503.747 277 496.963 279.048 489.539 279.048C482.115 279.048 475.288 277 469.059 272.904C462.915 268.808 458.051 263.261 454.467 256.264C450.968 249.181 449.219 241.373 449.219 232.84C449.219 224.307 450.968 216.541 454.467 209.544C458.051 202.461 462.915 196.872 469.059 192.776C475.288 188.68 482.115 186.632 489.539 186.632ZM461.507 232.84C461.507 247.091 463.939 258.099 468.803 265.864C473.667 273.544 480.579 277.384 489.539 277.384C498.499 277.384 505.411 273.544 510.275 265.864C515.139 258.099 517.571 247.091 517.571 232.84C517.571 218.589 515.139 207.581 510.275 199.816C505.411 192.051 498.499 188.168 489.539 188.168C480.579 188.168 473.667 192.051 468.803 199.816C463.939 207.581 461.507 218.589 461.507 232.84ZM579.699 275.72C575.517 277.939 570.781 279.048 565.491 279.048C561.48 279.048 557.597 278.408 553.843 277.128C550.088 275.933 546.888 274.227 544.243 272.008L541.555 279.048H539.891L538.227 248.456L539.379 248.2C540.659 254.003 541.939 258.525 543.219 261.768C544.584 265.011 546.333 267.827 548.467 270.216C552.819 275.08 558.579 277.512 565.747 277.512C571.891 277.512 576.669 275.933 580.083 272.776C583.581 269.533 585.331 265.181 585.331 259.72C585.331 255.88 584.392 252.637 582.515 249.992C580.723 247.347 578.248 245.085 575.091 243.208C571.933 241.331 567.496 239.155 561.779 236.68C557.085 234.632 553.16 232.627 550.003 230.664C546.845 228.616 544.2 226.013 542.067 222.856C540.019 219.613 538.995 215.688 538.995 211.08C538.995 206.387 540.104 202.205 542.323 198.536C544.627 194.781 547.741 191.88 551.667 189.832C555.677 187.699 560.2 186.632 565.235 186.632C568.733 186.632 571.976 187.229 574.963 188.424C578.035 189.619 581.32 191.581 584.819 194.312L587.891 188.168H589.555L590.835 216.072L589.555 216.456C588.189 210.739 586.44 205.704 584.307 201.352C580.04 192.563 573.512 188.168 564.723 188.168C559.432 188.168 555.208 189.704 552.051 192.776C548.893 195.763 547.315 199.859 547.315 205.064C547.315 208.819 548.168 211.976 549.875 214.536C551.667 217.096 554.099 219.315 557.171 221.192C560.328 223.069 564.765 225.331 570.483 227.976C575.603 230.28 579.699 232.456 582.771 234.504C585.928 236.552 588.445 239.112 590.323 242.184C592.285 245.171 593.267 248.883 593.267 253.32C593.267 258.269 592.072 262.707 589.683 266.632C587.293 270.472 583.965 273.501 579.699 275.72Z" fill="#675132"/>
<path d="M980.559 238.6V274.952L993.103 275.976V277H960.207V275.976L970.703 274.952V190.728L960.207 189.704V188.68H992.591C1002.58 188.68 1010.21 190.813 1015.5 195.08C1020.88 199.347 1023.57 205.363 1023.57 213.128C1023.57 221.405 1020.92 227.72 1015.63 232.072C1010.34 236.424 1002.66 238.6 992.591 238.6H980.559ZM980.559 190.216V237.064H992.207C999.119 237.064 1004.15 235.101 1007.31 231.176C1010.47 227.251 1012.05 221.021 1012.05 212.488C1012.05 205.405 1010.6 199.944 1007.7 196.104C1004.88 192.179 999.717 190.216 992.207 190.216H980.559ZM1037.05 274.952V190.728L1026.56 189.704V188.68H1058.05V189.704L1046.91 190.728V275.208H1070.21C1072.25 275.208 1073.75 274.909 1074.69 274.312C1075.62 273.629 1076.48 272.349 1077.25 270.472L1085.69 248.84L1087.1 249.096L1083.52 277H1026.56V275.976L1037.05 274.952ZM1170.68 275.976V277H1139.32V275.976L1149.82 274.696L1137.79 241.928H1106.81L1096.19 270.216C1095.84 271.155 1095.67 271.923 1095.67 272.52C1095.67 273.459 1095.93 274.141 1096.44 274.568C1097.04 274.909 1098.06 275.165 1099.51 275.336L1107.32 275.976V277H1080.06V275.976L1087.23 275.336C1089.36 275.165 1090.85 274.739 1091.71 274.056C1092.64 273.373 1093.45 272.093 1094.14 270.216L1125.5 186.632H1127.8L1160.06 274.696L1170.68 275.976ZM1137.02 239.88L1122.68 200.84H1122.17L1107.58 239.88H1137.02ZM1216.75 274.824C1220.42 273.203 1223.49 271.027 1225.97 268.296C1230.15 263.603 1233.3 256.605 1235.44 247.304L1237.1 247.56V277H1235.44L1231.09 269.96C1227.25 272.776 1223.06 274.995 1218.54 276.616C1214.1 278.237 1209.79 279.048 1205.61 279.048C1198.19 279.048 1191.36 277 1185.13 272.904C1178.99 268.808 1174.13 263.261 1170.54 256.264C1167.04 249.181 1165.29 241.373 1165.29 232.84C1165.29 224.392 1167.04 216.627 1170.54 209.544C1174.13 202.461 1178.99 196.872 1185.13 192.776C1191.28 188.68 1198.02 186.632 1205.36 186.632C1209.2 186.632 1213.12 187.272 1217.13 188.552C1221.23 189.747 1225.75 191.667 1230.7 194.312L1233.77 188.168H1235.44L1236.72 216.968L1234.93 217.48C1233.73 210.909 1231.85 205.491 1229.29 201.224C1226.73 197.043 1223.41 193.843 1219.31 191.624C1215.21 189.32 1210.69 188.168 1205.74 188.168C1196.7 188.168 1189.74 192.051 1184.88 199.816C1180.01 207.581 1177.58 218.589 1177.58 232.84C1177.58 247.005 1180.01 257.971 1184.88 265.736C1189.74 273.416 1196.65 277.256 1205.61 277.256C1209.45 277.256 1213.17 276.445 1216.75 274.824ZM1309.78 250.12L1306.58 277H1243.86V275.976L1254.35 274.952V190.728L1243.86 189.704V188.68H1306.71L1308.5 212.744L1307.22 212.872L1300.05 194.952C1299.28 192.989 1298.43 191.709 1297.49 191.112C1296.64 190.515 1295.19 190.216 1293.14 190.216H1264.21V229.512H1283.15C1285.2 229.512 1286.65 229.171 1287.51 228.488C1288.36 227.805 1288.96 226.483 1289.3 224.52L1291.47 214.152H1293.01V246.92H1291.47L1289.3 236.552C1288.96 234.589 1288.36 233.267 1287.51 232.584C1286.65 231.901 1285.2 231.56 1283.15 231.56H1264.21V275.464H1292.88C1294.93 275.464 1296.42 275.165 1297.36 274.568C1298.3 273.885 1299.15 272.605 1299.92 270.728L1308.37 249.992L1309.78 250.12ZM1393.78 275.976V277H1380.59C1378.55 277 1377.01 276.701 1375.99 276.104C1374.96 275.507 1373.9 274.355 1372.79 272.648L1353.2 241.032C1352.01 239.069 1350.98 237.875 1350.13 237.448C1349.36 236.936 1347.95 236.68 1345.91 236.68H1336.43V274.952L1347.57 275.976V277H1316.08V275.976L1326.58 274.952V190.728L1316.08 189.704V188.68H1348.47C1358.54 188.68 1366.22 190.728 1371.51 194.824C1376.8 198.835 1379.44 204.68 1379.44 212.36C1379.44 218.333 1377.82 223.24 1374.58 227.08C1371.34 230.92 1366.64 233.565 1360.5 235.016H1360.63L1384.05 271.624C1385.16 273.331 1386.23 274.483 1387.25 275.08C1388.36 275.677 1389.94 275.976 1391.99 275.976H1393.78ZM1336.43 190.216V234.76H1348.08C1354.91 234.76 1359.94 232.968 1363.19 229.384C1366.51 225.715 1368.18 220.125 1368.18 212.616C1368.18 205.021 1366.51 199.389 1363.19 195.72C1359.86 192.051 1354.82 190.216 1348.08 190.216H1336.43ZM1454.23 250.12L1451.03 277H1388.31V275.976L1398.8 274.952V190.728L1388.31 189.704V188.68H1451.16L1452.95 212.744L1451.67 212.872L1444.5 194.952C1443.73 192.989 1442.88 191.709 1441.94 191.112C1441.09 190.515 1439.64 190.216 1437.59 190.216H1408.66V229.512H1427.6C1429.65 229.512 1431.1 229.171 1431.96 228.488C1432.81 227.805 1433.41 226.483 1433.75 224.52L1435.92 214.152H1437.46V246.92H1435.92L1433.75 236.552C1433.41 234.589 1432.81 233.267 1431.96 232.584C1431.1 231.901 1429.65 231.56 1427.6 231.56H1408.66V275.464H1437.33C1439.38 275.464 1440.87 275.165 1441.81 274.568C1442.75 273.885 1443.6 272.605 1444.37 270.728L1452.82 249.992L1454.23 250.12ZM1504.95 275.72C1500.77 277.939 1496.03 279.048 1490.74 279.048C1486.73 279.048 1482.85 278.408 1479.09 277.128C1475.34 275.933 1472.14 274.227 1469.49 272.008L1466.8 279.048H1465.14L1463.48 248.456L1464.63 248.2C1465.91 254.003 1467.19 258.525 1468.47 261.768C1469.83 265.011 1471.58 267.827 1473.72 270.216C1478.07 275.08 1483.83 277.512 1491 277.512C1497.14 277.512 1501.92 275.933 1505.33 272.776C1508.83 269.533 1510.58 265.181 1510.58 259.72C1510.58 255.88 1509.64 252.637 1507.76 249.992C1505.97 247.347 1503.5 245.085 1500.34 243.208C1497.18 241.331 1492.75 239.155 1487.03 236.68C1482.34 234.632 1478.41 232.627 1475.25 230.664C1472.1 228.616 1469.45 226.013 1467.32 222.856C1465.27 219.613 1464.24 215.688 1464.24 211.08C1464.24 206.387 1465.35 202.205 1467.57 198.536C1469.88 194.781 1472.99 191.88 1476.92 189.832C1480.93 187.699 1485.45 186.632 1490.48 186.632C1493.98 186.632 1497.23 187.229 1500.21 188.424C1503.28 189.619 1506.57 191.581 1510.07 194.312L1513.14 188.168H1514.8L1516.08 216.072L1514.8 216.456C1513.44 210.739 1511.69 205.704 1509.56 201.352C1505.29 192.563 1498.76 188.168 1489.97 188.168C1484.68 188.168 1480.46 189.704 1477.3 192.776C1474.14 195.763 1472.56 199.859 1472.56 205.064C1472.56 208.819 1473.42 211.976 1475.12 214.536C1476.92 217.096 1479.35 219.315 1482.42 221.192C1485.58 223.069 1490.02 225.331 1495.73 227.976C1500.85 230.28 1504.95 232.456 1508.02 234.504C1511.18 236.552 1513.7 239.112 1515.57 242.184C1517.54 245.171 1518.52 248.883 1518.52 253.32C1518.52 258.269 1517.32 262.707 1514.93 266.632C1512.54 270.472 1509.22 273.501 1504.95 275.72Z" fill="#675132"/>
<path d="M866.304 358.68V359.704L857.088 360.728C855.04 360.984 853.675 361.496 852.992 362.264C852.309 363.032 851.968 364.44 851.968 366.488V449.048H850.688L793.216 367.512H792.704V439.192C792.704 441.24 792.96 442.691 793.472 443.544C793.984 444.312 795.008 444.781 796.544 444.952L805.632 445.976V447H777.6V445.976L786.816 444.952C788.352 444.781 789.376 444.312 789.888 443.544C790.4 442.691 790.656 441.24 790.656 439.192V364.696L790.144 363.928C788.949 362.221 787.797 361.112 786.688 360.6C785.664 360.003 784.128 359.704 782.08 359.704H779.904V358.68H798.976L849.408 429.336H849.92V366.488C849.92 364.44 849.664 362.989 849.152 362.136C848.64 361.283 847.616 360.813 846.08 360.728L835.712 359.704V358.68H866.304ZM933.04 420.12L929.84 447H867.12V445.976L877.616 444.952V360.728L867.12 359.704V358.68H929.968L931.76 382.744L930.48 382.872L923.312 364.952C922.544 362.989 921.691 361.709 920.752 361.112C919.899 360.515 918.448 360.216 916.4 360.216H887.472V399.512H906.416C908.464 399.512 909.915 399.171 910.768 398.488C911.621 397.805 912.219 396.483 912.56 394.52L914.736 384.152H916.272V416.92H914.736L912.56 406.552C912.219 404.589 911.621 403.267 910.768 402.584C909.915 401.901 908.464 401.56 906.416 401.56H887.472V445.464H916.144C918.192 445.464 919.685 445.165 920.624 444.568C921.563 443.885 922.416 442.605 923.184 440.728L931.632 419.992L933.04 420.12ZM1001.81 437.144V404.888L992.593 403.864V402.84H1022.16V403.864L1011.66 404.888V438.296C1007.57 442.051 1002.58 444.781 996.689 446.488C990.801 448.195 985.638 449.048 981.201 449.048C973.777 449.048 966.95 447 960.721 442.904C954.577 438.808 949.713 433.261 946.129 426.264C942.63 419.181 940.881 411.373 940.881 402.84C940.881 394.392 942.63 386.627 946.129 379.544C949.713 372.461 954.577 366.872 960.721 362.776C966.865 358.68 973.606 356.632 980.945 356.632C984.7 356.632 988.54 357.272 992.465 358.552C996.476 359.747 1000.91 361.667 1005.78 364.312L1008.85 358.168H1010.51L1011.79 386.968L1010 387.48C1008.81 380.909 1006.93 375.491 1004.37 371.224C1001.81 367.043 998.524 363.843 994.513 361.624C990.588 359.32 986.193 358.168 981.329 358.168C972.284 358.168 965.329 362.051 960.465 369.816C955.601 377.581 953.169 388.589 953.169 402.84C953.169 417.091 955.601 428.099 960.465 435.864C965.329 443.629 972.241 447.512 981.201 447.512C985.468 447.512 989.436 446.573 993.105 444.696C996.774 442.733 999.676 440.216 1001.81 437.144ZM1064.8 356.632C1072.22 356.632 1079.01 358.68 1085.15 362.776C1091.38 366.872 1096.25 372.461 1099.75 379.544C1103.33 386.541 1105.12 394.307 1105.12 402.84C1105.12 411.373 1103.33 419.181 1099.75 426.264C1096.25 433.261 1091.38 438.808 1085.15 442.904C1079.01 447 1072.22 449.048 1064.8 449.048C1057.38 449.048 1050.55 447 1044.32 442.904C1038.18 438.808 1033.31 433.261 1029.73 426.264C1026.23 419.181 1024.48 411.373 1024.48 402.84C1024.48 394.307 1026.23 386.541 1029.73 379.544C1033.31 372.461 1038.18 366.872 1044.32 362.776C1050.55 358.68 1057.38 356.632 1064.8 356.632ZM1036.77 402.84C1036.77 417.091 1039.2 428.099 1044.06 435.864C1048.93 443.544 1055.84 447.384 1064.8 447.384C1073.76 447.384 1080.67 443.544 1085.54 435.864C1090.4 428.099 1092.83 417.091 1092.83 402.84C1092.83 388.589 1090.4 377.581 1085.54 369.816C1080.67 362.051 1073.76 358.168 1064.8 358.168C1055.84 358.168 1048.93 362.051 1044.06 369.816C1039.2 377.581 1036.77 388.589 1036.77 402.84ZM1163.54 444.824C1167.21 443.203 1170.28 441.027 1172.75 438.296C1176.93 433.603 1180.09 426.605 1182.22 417.304L1183.89 417.56V447H1182.22L1177.87 439.96C1174.03 442.776 1169.85 444.995 1165.33 446.616C1160.89 448.237 1156.58 449.048 1152.4 449.048C1144.98 449.048 1138.15 447 1131.92 442.904C1125.78 438.808 1120.91 433.261 1117.33 426.264C1113.83 419.181 1112.08 411.373 1112.08 402.84C1112.08 394.392 1113.83 386.627 1117.33 379.544C1120.91 372.461 1125.78 366.872 1131.92 362.776C1138.06 358.68 1144.81 356.632 1152.14 356.632C1155.98 356.632 1159.91 357.272 1163.92 358.552C1168.02 359.747 1172.54 361.667 1177.49 364.312L1180.56 358.168H1182.22L1183.5 386.968L1181.71 387.48C1180.52 380.909 1178.64 375.491 1176.08 371.224C1173.52 367.043 1170.19 363.843 1166.1 361.624C1162 359.32 1157.48 358.168 1152.53 358.168C1143.48 358.168 1136.53 362.051 1131.66 369.816C1126.8 377.581 1124.37 388.589 1124.37 402.84C1124.37 417.005 1126.8 427.971 1131.66 435.736C1136.53 443.416 1143.44 447.256 1152.4 447.256C1156.24 447.256 1159.95 446.445 1163.54 444.824ZM1190.64 358.68H1221.49V359.704L1211 360.728V444.952L1221.49 445.976V447H1190.64V445.976L1201.14 444.952V360.728L1190.64 359.704V358.68ZM1266.48 356.632C1273.9 356.632 1280.68 358.68 1286.83 362.776C1293.06 366.872 1297.92 372.461 1301.42 379.544C1305 386.541 1306.8 394.307 1306.8 402.84C1306.8 411.373 1305 419.181 1301.42 426.264C1297.92 433.261 1293.06 438.808 1286.83 442.904C1280.68 447 1273.9 449.048 1266.48 449.048C1259.05 449.048 1252.23 447 1246 442.904C1239.85 438.808 1234.99 433.261 1231.4 426.264C1227.91 419.181 1226.16 411.373 1226.16 402.84C1226.16 394.307 1227.91 386.541 1231.4 379.544C1234.99 372.461 1239.85 366.872 1246 362.776C1252.23 358.68 1259.05 356.632 1266.48 356.632ZM1238.44 402.84C1238.44 417.091 1240.88 428.099 1245.74 435.864C1250.6 443.544 1257.52 447.384 1266.48 447.384C1275.44 447.384 1282.35 443.544 1287.21 435.864C1292.08 428.099 1294.51 417.091 1294.51 402.84C1294.51 388.589 1292.08 377.581 1287.21 369.816C1282.35 362.051 1275.44 358.168 1266.48 358.168C1257.52 358.168 1250.6 362.051 1245.74 369.816C1240.88 377.581 1238.44 388.589 1238.44 402.84ZM1356.64 445.72C1352.45 447.939 1347.72 449.048 1342.43 449.048C1338.42 449.048 1334.53 448.408 1330.78 447.128C1327.03 445.933 1323.83 444.227 1321.18 442.008L1318.49 449.048H1316.83L1315.16 418.456L1316.32 418.2C1317.6 424.003 1318.88 428.525 1320.16 431.768C1321.52 435.011 1323.27 437.827 1325.4 440.216C1329.76 445.08 1335.52 447.512 1342.68 447.512C1348.83 447.512 1353.61 445.933 1357.02 442.776C1360.52 439.533 1362.27 435.181 1362.27 429.72C1362.27 425.88 1361.33 422.637 1359.45 419.992C1357.66 417.347 1355.19 415.085 1352.03 413.208C1348.87 411.331 1344.43 409.155 1338.72 406.68C1334.02 404.632 1330.1 402.627 1326.94 400.664C1323.78 398.616 1321.14 396.013 1319 392.856C1316.96 389.613 1315.93 385.688 1315.93 381.08C1315.93 376.387 1317.04 372.205 1319.26 368.536C1321.56 364.781 1324.68 361.88 1328.6 359.832C1332.61 357.699 1337.14 356.632 1342.17 356.632C1345.67 356.632 1348.91 357.229 1351.9 358.424C1354.97 359.619 1358.26 361.581 1361.76 364.312L1364.83 358.168H1366.49L1367.77 386.072L1366.49 386.456C1365.13 380.739 1363.38 375.704 1361.24 371.352C1356.98 362.563 1350.45 358.168 1341.66 358.168C1336.37 358.168 1332.15 359.704 1328.99 362.776C1325.83 365.763 1324.25 369.859 1324.25 375.064C1324.25 378.819 1325.11 381.976 1326.81 384.536C1328.6 387.096 1331.04 389.315 1334.11 391.192C1337.27 393.069 1341.7 395.331 1347.42 397.976C1352.54 400.28 1356.64 402.456 1359.71 404.504C1362.87 406.552 1365.38 409.112 1367.26 412.184C1369.22 415.171 1370.2 418.883 1370.2 423.32C1370.2 428.269 1369.01 432.707 1366.62 436.632C1364.23 440.472 1360.9 443.501 1356.64 445.72Z" fill="#675132"/>
</svg>
