<svg width="728" height="728" viewBox="0 0 728 728" fill="none" xmlns="http://www.w3.org/2000/svg">
<path d="M41.3784 519.9C2.16006 438.728 -5.02017 345.756 21.2696 259.525C47.5595 173.294 105.387 100.142 183.22 54.6562C261.054 9.17069 353.172 -5.30485 441.205 14.1164C529.237 33.5376 606.715 85.4284 658.185 159.44M687.667 210.302C726.441 291.977 732.905 385.29 705.763 471.531C678.621 557.772 619.879 630.565 541.318 675.311C462.756 720.058 370.182 733.451 282.16 712.805C194.138 692.158 117.175 638.999 66.7034 563.987" stroke="white" stroke-width="40" stroke-linecap="round" stroke-linejoin="round"/>
<path d="M658.167 159.44L479.782 247.018L228.333 121.25L185.225 144.667L354.942 280.95L373.757 307.153L282.053 359.5L41.3783 519.9M687.667 210.302L522.407 322.347L506.647 603.213L462.752 626.293L431.235 411.833L417.722 383.12L320.91 439.423L66.7216 563.987" stroke="white" stroke-width="40" stroke-linecap="round" stroke-linejoin="round"/>
</svg>
