<svg width="828" height="618" viewBox="0 0 828 618" fill="none" xmlns="http://www.w3.org/2000/svg">
<path d="M821.704 142.824C822.344 144.126 821.316 146.453 818.808 148.642C816.888 150.334 809.531 156.914 802.487 163.267C795.443 169.619 785.775 178.29 780.999 182.561C776.229 186.813 770.082 193.01 767.342 196.341C764.607 199.654 761.414 203.027 760.254 203.775C757.49 205.576 746.452 217.166 737.859 227.313C732.473 233.67 727.458 237.968 714.112 247.518C696.896 259.822 693.767 262.479 694.714 263.982C695.337 264.978 718.371 262.477 726.733 260.502C737.654 257.917 744.493 255.04 761.252 245.916C781.647 234.819 786.969 232.377 790.607 232.641C793.2 232.83 793.36 233.053 792.769 235.696C792.188 238.301 790.318 239.554 771.816 249.685C746.719 263.418 747.577 262.891 748.626 264.571C749.377 265.761 757.963 266.132 790.267 266.317C793.762 266.333 799.373 265.962 802.753 265.476C806.127 264.979 809.908 264.609 811.148 264.634C812.387 264.659 815.846 264.475 818.824 264.284C824.705 263.884 827.737 265.333 827.083 268.17C826.62 270.124 812.271 274.105 807.807 273.514C806.467 273.342 803.269 273.565 800.709 274.065C798.154 274.547 793.051 274.42 789.367 273.772C785.683 273.125 777.553 272.964 771.294 273.425C765.034 273.887 755.272 274.179 749.579 274.077C740.081 273.918 727.6 275.843 718.173 278.921C712.776 280.682 696.415 283.633 692.876 283.486C691.215 283.42 688.094 284.465 685.934 285.823C683.773 287.181 678.344 289.244 673.906 290.434C669.462 291.613 664.325 293.523 662.485 294.664C659.384 296.596 652.032 298.555 646.571 298.855C642.566 299.087 634.938 301.836 624.268 306.924C618.603 309.627 609.57 313.361 604.19 315.206C598.809 317.051 590.429 320.235 585.598 322.315C569.715 329.152 565.199 331.034 554.904 335.008C549.307 337.167 539.242 341.071 532.538 343.712C525.835 346.352 517.245 349.2 513.459 350.03C509.673 350.86 502.467 353.018 497.46 354.821C492.454 356.624 484.814 359.38 480.47 360.927C467.399 365.605 448.789 374.363 439.144 380.373C434.149 383.493 424.978 388.283 418.742 391.017C411.982 393.974 393.071 404.498 371.916 417.09C317.705 449.366 320.18 447.701 272.129 483.23C268.083 486.228 264.986 489.025 265.244 489.443C266.111 490.834 279.746 490.386 294.377 488.465C307.798 486.706 311.318 486.408 319.105 486.388C328.069 486.367 351.011 482.879 358.475 480.398C363.218 478.826 368.793 477.373 370.858 477.174C374.946 476.784 401.304 465.98 407.226 462.261C409.238 461.005 412.64 459.482 414.782 458.892C416.924 458.301 426.802 454.79 436.742 451.084C446.683 447.378 460.053 443.079 466.423 441.514C472.804 439.942 480.417 437.69 483.357 436.497C486.285 435.311 492.511 432.946 497.18 431.275C512.425 425.784 517.078 423.066 524.754 415.024C528.671 410.919 534.621 405.844 538.008 403.715C541.395 401.586 547.306 396.471 551.165 392.32C556.104 387.009 558.728 384.911 560.019 385.19C562.191 385.671 563.118 389.234 561.561 391.031C557.517 395.714 539.019 415.804 535.845 418.961C532.436 422.348 534.391 423.694 540.601 422.237C543.362 421.589 546.767 421.23 548.19 421.433C549.6 421.644 554.734 421.218 559.565 420.461C564.409 419.698 571.475 419.229 575.282 419.427C579.088 419.625 585.402 419.479 589.299 419.089C602.309 417.804 604.211 420.962 593.377 425.877C587.627 428.487 579.748 429.506 572.721 428.582C563.199 427.333 532.956 432.042 521.354 436.564C518.068 437.847 510.447 440.277 504.386 441.963C498.337 443.643 491.106 446.005 488.345 447.205C485.584 448.405 478.66 450.526 472.97 451.889C454.358 456.345 447.967 458.506 436.352 464.329C430.06 467.489 420.778 471.729 415.691 473.752C405.771 477.714 399.794 481.007 400.504 482.126C400.741 482.509 405.865 484.106 411.886 485.659C417.906 487.211 426.561 489.465 431.12 490.663C435.673 491.849 441.788 494.309 444.723 496.113C449.554 499.077 464.996 503.576 474.083 504.651C481.613 505.536 498.418 505.118 500.215 503.986C501.257 503.337 503.811 502.855 505.887 502.95C507.963 503.044 513.178 502.318 517.447 501.304C522.585 500.087 525.744 500.045 526.779 501.149C528.182 502.641 527.755 503.06 523.241 504.973C514.665 508.616 496.815 514.114 494.494 513.815C493.29 513.659 489.451 513.984 485.939 514.545C473.353 516.563 447.989 512.134 437.836 506.127C413.432 491.701 372.609 490.239 340.388 502.631C327.287 507.673 318.32 509.177 295.422 510.15C288.242 510.449 278.434 511.352 273.623 512.143C268.807 512.954 257.17 514.659 247.759 515.947C220.653 519.665 219.116 520.284 176.127 546.333C154.275 559.564 132.854 571.806 124.111 575.987C115.932 579.905 99.9892 587.549 88.6729 592.979C68.6153 602.62 51.9936 610.026 37.5665 615.802C31.944 618.055 29.2255 618.363 24.7141 617.248C16.5594 615.225 14.5424 611.456 16.9498 602.752C19.1204 594.879 17.9414 593.305 10.6403 594.195C7.86208 594.538 4.53103 594.033 3.25162 593.085C1.74706 591.968 0.919381 590.286 0.941025 588.366C1.00738 581.865 26.9391 566.988 42.5849 564.481C46.0043 563.925 51.105 562.037 53.8965 560.283C56.6879 558.53 61.7919 556.371 65.2351 555.471C74.7256 552.97 99.2117 540.662 117.408 529.258C126.349 523.655 137.199 517.5 141.534 515.581C171.14 502.492 210.741 479.864 223.889 468.538C226.81 466.016 239.919 457.076 253.053 448.673C266.168 440.266 278.501 431.663 280.467 429.583C284.484 425.293 337.589 393.278 355.266 384.475C361.086 381.572 373.648 374.413 383.17 368.522C393.83 361.926 403.488 356.712 408.35 354.961C426.935 348.282 470.448 324.878 472.697 320.364C473.078 319.592 476.136 316.645 479.508 313.831C490.01 305.088 506.12 289.766 510.012 284.792C530.028 259.254 534.341 252.445 543.113 232.437C545.757 226.403 549.294 218.607 550.995 215.103C569.141 177.782 575.773 157.954 574.337 145.322C572.774 131.643 575.932 111.283 581.358 100.143C584.905 92.8621 588.959 81.2214 593.38 65.5856C595.2 59.1442 597.568 51.3928 598.659 48.3199C599.75 45.247 600.453 41.3101 600.226 39.5655C599.674 35.3289 606.885 17.2471 613.455 6.40797C617.391 -0.0890115 620.063 -1.55295 622.078 1.63412C623.255 3.50794 620.338 12.2383 612.769 29.4235C609.747 36.2912 601.01 74.6105 602.085 76.307C602.518 77.0025 606.652 74.5688 613.82 69.4527C623.429 62.5811 625.208 61.6645 627.468 62.4088C631.773 63.8009 629.985 66.2994 617.518 76.3813C602.382 88.6197 595.293 97.1262 595.022 103.383C594.908 105.97 594.37 110.332 593.836 113.1C593.301 115.867 593.255 121.521 593.74 125.67C595.734 142.631 594.075 155.884 588.47 168.23C576.396 194.842 577.364 198.696 592.031 182.694C600.525 173.424 632.642 150.625 645.74 144.56C668.898 133.838 674.268 131.699 676.264 132.344C680.801 133.807 677.954 136.428 662.835 144.92C636.903 159.467 617.016 173.234 609.103 182.106C607.422 183.991 601.684 189.242 596.362 193.781C584.125 204.204 572.298 221.514 561.871 244.195C551.344 267.092 535.038 292.411 518.793 311.137C517.016 313.188 515.794 315.233 516.079 315.699C516.795 316.83 535.758 313.038 543.176 310.284C549.309 308.005 560.31 302.883 581.728 292.346C588.288 289.125 595.636 285.892 598.043 285.18C609.099 281.918 612.023 280.781 625.459 274.364C633.321 270.613 643.401 265.881 647.879 263.879C652.345 261.884 660.81 257.249 666.698 253.581C672.586 249.914 679.336 246.332 681.694 245.648C684.762 244.76 690.509 240.764 702.085 231.511C716.722 219.813 718.601 217.94 722.232 211.273C726.12 204.142 727.974 199.304 733.238 182.646C734.618 178.255 737.166 172.496 738.861 169.863C740.567 167.223 742.759 163.466 743.726 161.474C745.173 158.495 745.888 157.94 747.73 158.374C749.565 158.796 749.652 159.912 748.243 164.446C747.299 167.497 744.663 175.86 742.417 183.052C740.171 190.244 737.556 198.863 736.59 202.18L734.824 208.164L738.755 204.965C743.461 201.097 755.124 190.312 764.643 181.081C768.459 177.38 774.863 171.602 778.87 168.232C787.914 160.631 817.286 141.623 819.778 141.777C820.744 141.85 821.412 142.236 821.704 142.824ZM614.609 292.703C614.082 291.872 608.121 293.264 596.112 296.998C594.738 297.429 594.317 298.271 594.953 299.291C595.996 300.959 601.021 299.822 610.263 295.843C613.144 294.604 614.967 293.268 614.609 292.703ZM436.653 359.822C435.496 357.983 410.201 366.85 394.608 374.576C378.678 382.464 297.032 430.596 289.575 436.509C273.446 449.289 261.43 459.048 253.401 465.843C249.924 468.78 241.185 475.339 233.948 480.447C221.158 489.471 217.947 492.87 223.546 491.402C230.693 489.53 280.573 452.535 287.333 444.093C291.121 439.352 358.256 399.11 383.481 386.454C399.884 378.229 405.022 375.909 421.772 369.139C430.121 365.737 437.479 361.142 436.653 359.822Z" fill="#C69160"/>
</svg>
