<svg width="705" height="294" viewBox="0 0 705 294" fill="none" xmlns="http://www.w3.org/2000/svg">
<path d="M0.00227098 124.27C0.075066 123.178 1.62456 122.045 4.0892 121.561C5.98187 121.18 13.2718 119.656 20.2705 118.162C27.2692 116.669 36.8574 114.65 41.5891 113.662C46.3104 112.683 52.6643 110.953 55.7113 109.81C58.7479 108.677 62.1069 107.678 63.1468 107.626C65.6323 107.492 77.2171 104.083 86.6597 100.695C92.5769 98.573 97.4749 97.6563 109.798 96.4513C125.688 94.9064 128.735 94.3502 128.683 93.0113C128.652 92.1255 112.658 85.0704 106.45 83.2062C98.3381 80.7756 92.7848 80.0752 78.3922 79.7147C60.8798 79.2719 56.4809 78.8599 54.2034 77.315C52.5811 76.2129 52.5603 76.0069 53.9434 74.5032C55.3058 73.0201 57.0009 72.9068 72.9118 73.2673C94.4903 73.7617 93.7312 73.7823 93.6792 72.2889C93.6376 71.228 88.1676 67.7468 67.1298 55.439C64.8523 54.1104 61.0462 52.2359 58.6543 51.278C56.2625 50.3305 53.6523 49.146 52.8515 48.662C52.0508 48.1779 49.7213 46.9935 47.7039 45.9944C43.7105 44.0375 42.2754 41.9467 43.7729 40.34C44.8129 39.238 55.6905 42.0497 58.3839 44.1199C59.1951 44.7379 61.3685 45.7987 63.23 46.4373C65.0811 47.0862 68.3673 49.0945 70.5303 50.9072C72.6934 52.7199 77.945 55.8922 82.2088 57.952C86.4725 60.0119 92.9616 63.5034 96.643 65.7178C102.789 69.405 111.67 72.8553 118.991 74.4002C123.182 75.286 134.985 79.5293 137.242 80.961C138.303 81.6304 140.736 82.1248 142.66 82.0527C144.584 81.9806 148.91 82.681 152.258 83.577C155.607 84.4834 159.684 85.1734 161.316 85.1219C164.072 85.0292 169.615 86.5227 173.296 88.3868C176 89.7464 182.021 90.8278 190.913 91.5282C195.634 91.899 202.945 92.8671 207.156 93.6911C211.368 94.515 218.044 95.5964 221.986 96.0599C234.943 97.5842 238.604 98.058 246.83 99.3454C251.301 100.046 259.35 101.292 264.727 102.095C270.103 102.899 276.79 104.279 279.577 105.165C282.364 106.05 287.886 107.358 291.838 108.069C295.79 108.78 301.821 109.861 305.243 110.489C315.548 112.364 331.012 113.662 339.581 113.373C344.022 113.219 351.821 113.548 356.927 114.115C362.46 114.733 378.786 114.99 397.36 114.743C444.957 114.105 442.711 114.259 487.511 109.171C491.286 108.739 494.364 108.079 494.354 107.709C494.312 106.473 485.234 101.622 474.949 97.3576C465.517 93.4439 463.104 92.3109 458.008 89.3859C452.143 86.018 435.837 79.6426 430.024 78.4479C426.332 77.6857 422.141 76.5322 420.716 75.8833C417.898 74.5959 396.6 71.7121 391.328 71.9078C389.539 71.9695 386.742 71.6812 385.12 71.2589C383.497 70.8366 375.719 69.405 367.826 68.0764C359.933 66.7477 349.575 64.5128 344.822 63.1326C340.059 61.7525 334.236 60.3518 331.865 60.0222C329.504 59.6926 324.544 58.8893 320.862 58.2198C308.83 56.0569 304.764 56.0775 296.715 58.4361C292.607 59.6411 286.805 60.7123 283.789 60.8256C280.773 60.9389 274.981 62.0512 270.894 63.3077C265.663 64.9144 263.157 65.2955 262.418 64.6261C261.181 63.4931 261.919 60.8153 263.614 60.2282C268.024 58.6936 287.689 52.5448 290.954 51.6797C294.458 50.7527 293.689 49.1357 289.082 47.7453C287.033 47.1273 284.673 46.0768 283.82 45.4073C282.978 44.7379 279.463 43.0797 276.021 41.751C272.568 40.4224 267.774 38.0638 265.361 36.4983C262.949 34.9328 258.768 32.6463 256.075 31.431C247.09 27.3627 247.038 24.5819 255.971 25.4573C260.713 25.9208 266.245 28.2279 270.488 31.4825C276.239 35.8907 297.776 44.2229 307.062 45.6442C309.693 46.0459 315.59 47.3333 320.186 48.5178C324.772 49.7022 330.388 50.8866 332.645 51.1441C334.901 51.4016 340.226 52.6272 344.458 53.8838C358.3 57.9932 363.291 58.9923 373.077 59.569C378.381 59.878 386.045 60.6093 390.132 61.2066C398.108 62.3602 403.256 62.4632 403.214 61.4641C403.204 61.1243 400.459 58.1477 397.11 54.8622C393.761 51.5767 388.957 46.839 386.43 44.3362C383.903 41.8437 380.835 37.9299 379.598 35.6435C377.559 31.8842 369.167 23.1194 363.635 18.9893C359.049 15.5699 347.911 9.50353 346.309 9.56533C345.384 9.59623 343.533 8.94736 342.212 8.10281C340.891 7.25826 337.21 5.76484 334.038 4.81729C330.222 3.67406 328.142 2.51022 327.882 1.39789C327.528 -0.105831 327.965 -0.219124 331.636 0.23405C338.614 1.0889 352.351 4.23023 353.755 5.30137C354.483 5.85754 357.114 7.09347 359.621 8.05131C368.606 11.481 383.508 23.9433 387.875 31.6988C398.379 50.3305 424.502 66.6859 450.23 70.7439C460.691 72.3918 467.118 74.7916 482.447 82.7942C487.251 85.3073 494 88.4177 497.442 89.7155C500.895 91.0029 509.142 94.2781 515.776 96.9869C534.89 104.784 536.128 104.959 574.044 104.155C593.314 103.754 611.928 103.836 619.218 104.402C626.04 104.928 639.341 105.947 648.784 106.668C665.526 107.935 679.181 109.367 690.786 111.035C695.31 111.684 697.203 112.508 699.73 114.939C704.295 119.337 704.191 122.56 699.335 127.339C694.946 131.665 695.123 133.138 700.229 135.311C702.174 136.135 704.16 137.721 704.638 138.823C705.2 140.121 705.106 141.532 704.368 142.778C701.872 147.001 679.316 146.939 668.147 142.675C665.703 141.748 661.658 141.058 659.172 141.151C656.687 141.243 652.538 140.729 649.948 140.018C642.804 138.071 622.161 136.877 605.97 137.464C598.014 137.752 588.603 137.68 585.046 137.299C560.764 134.683 526.353 134.528 513.489 136.969C510.629 137.515 498.69 138.411 486.939 138.947C475.198 139.493 463.894 140.461 461.825 141.079C457.582 142.366 410.806 143.252 395.935 142.335C391.037 142.037 380.128 141.975 371.684 142.232C362.231 142.521 353.953 142.284 350.116 141.594C335.453 138.947 298.192 137.824 295.02 139.925C294.479 140.286 291.37 141.058 288.105 141.625C277.944 143.375 261.638 147.31 257.219 149.092C234.507 158.227 229.12 161.049 215.84 170.813C211.836 173.759 206.584 177.518 204.151 179.166C178.215 196.706 166.402 207.16 162.575 215.956C158.436 225.483 148.692 237.595 140.944 242.827C135.88 246.246 128.839 252.323 120.052 260.871C116.433 264.394 111.961 268.565 110.089 270.161C108.217 271.758 106.273 274.065 105.763 275.291C104.526 278.267 92.9928 287.361 84.611 291.965C79.5881 294.726 77.2899 294.674 77.1755 291.831C77.1131 290.163 82.3128 285.559 93.7416 277.186C98.3069 273.838 118.471 252.096 118.409 250.582C118.388 249.964 114.769 249.995 108.155 250.634C99.2844 251.499 97.7765 251.427 96.5806 250.088C94.2928 247.554 96.4038 246.596 108.353 244.712C122.86 242.425 130.701 239.541 133.238 235.555C134.288 233.907 136.285 231.26 137.679 229.654C139.072 228.047 141.235 224.37 142.483 221.476C147.579 209.642 153.662 201.608 161.982 195.655C179.91 182.822 180.732 179.938 165.112 184.862C156.065 187.715 126.479 190.495 115.632 189.517C96.4558 187.787 92.1401 187.158 91.0794 185.984C88.6667 183.317 91.5161 182.678 104.598 182.833C127.03 183.111 145.218 181.617 153.735 178.806C155.545 178.208 161.275 176.941 166.464 175.983C178.392 173.79 192.649 166.941 208.02 156.054C223.535 145.065 243.741 134.672 261.42 128.565C263.354 127.895 264.925 127.02 264.914 126.608C264.873 125.599 251.052 120.923 245.166 119.924C240.299 119.1 231.179 118.296 213.209 117.102C207.708 116.731 201.686 116.072 199.846 115.629C191.391 113.59 189.051 113.229 177.851 112.354C171.3 111.839 162.928 111.128 159.247 110.747C155.576 110.366 148.296 110.201 143.065 110.376C137.835 110.551 132.073 110.345 130.274 109.902C127.934 109.326 122.672 109.768 111.618 111.447C97.6413 113.569 95.7071 114.084 90.8194 117.071C85.5885 120.264 82.5519 122.725 72.8286 131.624C70.2704 133.972 66.433 136.774 64.3324 137.855C62.2213 138.936 59.3719 140.564 57.9888 141.501C55.9193 142.902 55.2434 142.994 54.2034 142.016C53.1635 141.048 53.5275 140.286 56.1585 137.855C57.9264 136.217 62.8037 131.747 66.9842 127.895C71.1647 124.043 76.1252 119.398 78.0074 117.596L81.4184 114.352L77.6435 114.959C73.1094 115.711 61.4205 118.358 51.718 120.799C47.8287 121.778 41.4643 123.137 37.5749 123.827C28.7979 125.382 2.43571 126.721 0.865413 125.681C0.262254 125.269 -0.0289269 124.764 0.00227098 124.27ZM191.859 104.464C191.89 105.206 196.31 106.545 205.565 108.636C206.626 108.872 207.219 108.481 207.188 107.575C207.136 106.092 203.423 104.938 195.884 104.052C193.533 103.774 191.838 103.96 191.859 104.464ZM333.456 127.741C333.518 129.379 353.391 133.128 366.494 133.962C379.878 134.817 451.384 134.168 458.487 133.117C473.846 130.851 485.379 129.008 493.189 127.597C496.569 126.989 504.753 126 511.409 125.393C523.17 124.322 526.55 123.312 522.338 122.159C516.962 120.686 470.415 126.042 462.813 129.008C458.549 130.676 399.502 131.644 378.246 130.398C364.425 129.585 360.193 129.162 346.694 127.267C339.955 126.34 333.414 126.567 333.456 127.741Z" fill="#C69160"/>
</svg>
