<svg width="899" height="393" viewBox="0 0 899 393" fill="none" xmlns="http://www.w3.org/2000/svg">
<path d="M108.111 87.5286V27.019L100.57 26.2833V25.5476H123.192V26.2833L115.191 27.019V87.7126H131.928C133.4 87.7126 134.472 87.498 135.147 87.0688C135.821 86.5784 136.434 85.6588 136.986 84.31L143.055 68.7688L144.067 68.9527L141.492 89H100.57V88.2643L108.111 87.5286ZM203.194 88.2643V89H180.664V88.2643L188.205 87.3447L179.561 63.803H157.306L149.674 84.1261C149.428 84.8005 149.306 85.3523 149.306 85.7814C149.306 86.4558 149.49 86.9462 149.858 87.2528C150.287 87.498 151.022 87.6819 152.065 87.8045L157.674 88.2643V89H138.087V88.2643L143.236 87.8045C144.769 87.6819 145.842 87.3754 146.455 86.8849C147.129 86.3945 147.712 85.4749 148.202 84.1261L170.732 24.0762H172.388L195.562 87.3447L203.194 88.2643ZM179.009 62.3316L168.709 34.2838H168.341L157.858 62.3316H179.009ZM244.157 55.5266C249.491 56.2622 253.568 58.0095 256.388 60.7683C259.208 63.5271 260.618 67.1442 260.618 71.6196C260.618 76.5241 258.902 80.6623 255.469 84.0342C252.097 87.3447 246.886 89 239.835 89H212.707V88.2643L220.248 87.5286V27.019L212.707 26.2833V25.5476H235.605C242.839 25.5476 248.357 26.835 252.158 29.4099C255.959 31.9848 257.859 35.7245 257.859 40.629C257.859 44.5527 256.664 47.8019 254.273 50.3768C251.882 52.9517 248.51 54.5457 244.157 55.1587V55.5266ZM227.329 26.6511V54.8828H237.996C242.104 54.8828 245.046 53.6874 246.824 51.2964C248.663 48.9054 249.583 45.3497 249.583 40.629C249.583 31.3104 244.832 26.6511 235.329 26.6511H227.329ZM237.628 87.8965C247.131 87.8965 251.882 82.5628 251.882 71.8954C251.882 66.3165 250.687 62.2703 248.296 59.7567C245.905 57.2431 242.349 55.9864 237.628 55.9864H227.329V87.8965H237.628ZM311.126 69.6884L308.827 89H263.766V88.2643L271.307 87.5286V27.019L263.766 26.2833V25.5476H308.919L310.206 42.8361L309.287 42.928L304.137 30.0536C303.585 28.6436 302.972 27.724 302.298 27.2948C301.685 26.8657 300.642 26.6511 299.171 26.6511H278.388V54.8828H291.998C293.47 54.8828 294.512 54.6376 295.125 54.1472C295.738 53.6567 296.167 52.7065 296.412 51.2964L297.976 43.8476H299.079V67.3894H297.976L296.412 59.9406C296.167 58.5306 295.738 57.5803 295.125 57.0899C294.512 56.5994 293.47 56.3542 291.998 56.3542H278.388V87.8965H298.987C300.459 87.8965 301.531 87.6819 302.206 87.2528C302.88 86.7623 303.493 85.8427 304.045 84.494L310.114 69.5964L311.126 69.6884ZM322.277 87.5286V27.019L314.736 26.2833V25.5476H337.358V26.2833L329.358 27.019V87.8965H349.681C351.152 87.8965 352.225 87.6819 352.899 87.2528C353.574 86.7623 354.187 85.8427 354.739 84.494L360.992 68.7688L362.095 68.9527L359.796 89H314.736V88.2643L322.277 87.5286ZM370.373 87.5286V27.019L362.832 26.2833V25.5476H385.454V26.2833L377.453 27.019V87.8965H397.777C399.248 87.8965 400.321 87.6819 400.995 87.2528C401.67 86.7623 402.283 85.8427 402.834 84.494L409.088 68.7688L410.191 68.9527L407.892 89H362.832V88.2643L370.373 87.5286ZM458.287 69.6884L455.988 89H410.928V88.2643L418.468 87.5286V27.019L410.928 26.2833V25.5476H456.08L457.367 42.8361L456.448 42.928L451.298 30.0536C450.746 28.6436 450.133 27.724 449.459 27.2948C448.846 26.8657 447.804 26.6511 446.332 26.6511H425.549V54.8828H439.159C440.631 54.8828 441.673 54.6376 442.286 54.1472C442.899 53.6567 443.328 52.7065 443.573 51.2964L445.137 43.8476H446.24V67.3894H445.137L443.573 59.9406C443.328 58.5306 442.899 57.5803 442.286 57.0899C441.673 56.5994 440.631 56.3542 439.159 56.3542H425.549V87.8965H446.148C447.62 87.8965 448.693 87.6819 449.367 87.2528C450.041 86.7623 450.654 85.8427 451.206 84.494L457.275 69.5964L458.287 69.6884ZM461.437 88.2643L499.049 27.019V26.6511H476.887C475.415 26.6511 474.312 26.8657 473.576 27.2948C472.84 27.724 472.166 28.6129 471.553 29.9617L464.564 43.8476L463.277 43.6637L467.047 25.5476H507.325V26.2833L469.714 87.5286V87.8965H494.911C496.382 87.8965 497.455 87.6819 498.129 87.2528C498.804 86.7623 499.448 85.8427 500.061 84.494L506.682 69.0447L507.969 69.2286L504.567 89H461.437V88.2643ZM568.563 88.2643V89H546.033V88.2643L553.573 87.3447L544.929 63.803H522.675L515.042 84.1261C514.797 84.8005 514.674 85.3523 514.674 85.7814C514.674 86.4558 514.858 86.9462 515.226 87.2528C515.655 87.498 516.391 87.6819 517.433 87.8045L523.043 88.2643V89H503.455V88.2643L508.605 87.8045C510.138 87.6819 511.21 87.3754 511.824 86.8849C512.498 86.3945 513.08 85.4749 513.571 84.1261L536.101 24.0762H537.756L560.93 87.3447L568.563 88.2643ZM544.377 62.3316L534.078 34.2838H533.71L523.227 62.3316H544.377ZM628.749 25.5476V26.2833L623.599 26.7431C622.127 26.8657 621.085 27.1722 620.472 27.6627C619.92 28.0918 619.307 29.0114 618.633 30.4215L602.632 63.803V87.5286L610.632 88.2643V89H587.55V88.2643L595.551 87.5286V64.2628L575.596 27.019L568.055 26.2833V25.5476H590.953V26.2833L582.952 27.019L601.62 61.8718H602.08L617.162 30.4215C617.407 29.8697 617.529 29.2873 617.529 28.6742C617.529 28.0612 617.315 27.6014 616.886 27.2948C616.457 26.9883 615.752 26.8044 614.771 26.7431L609.161 26.2833V25.5476H628.749Z" fill="#675132"/>
<path d="M416.75 180.205C419.386 179.04 421.593 177.477 423.371 175.515C426.375 172.143 428.643 167.116 430.176 160.434L431.371 160.618V181.768H430.176L427.049 176.711C424.291 178.734 421.287 180.328 418.037 181.492C414.849 182.657 411.753 183.24 408.749 183.24C403.416 183.24 398.511 181.768 394.036 178.826C389.622 175.883 386.127 171.898 383.552 166.871C381.039 161.782 379.782 156.173 379.782 150.042C379.782 143.973 381.039 138.394 383.552 133.305C386.127 128.217 389.622 124.201 394.036 121.259C398.45 118.316 403.293 116.845 408.565 116.845C411.324 116.845 414.144 117.304 417.026 118.224C419.968 119.082 423.218 120.462 426.773 122.362L428.981 117.948H430.176L431.096 138.639L429.808 139.007C428.95 134.286 427.601 130.393 425.762 127.328C423.923 124.324 421.532 122.025 418.589 120.431C415.646 118.776 412.397 117.948 408.841 117.948C402.343 117.948 397.346 120.738 393.852 126.316C390.357 131.895 388.61 139.804 388.61 150.042C388.61 160.219 390.357 168.097 393.852 173.676C397.346 179.193 402.312 181.952 408.749 181.952C411.508 181.952 414.175 181.37 416.75 180.205ZM465.377 116.845C470.71 116.845 475.584 118.316 479.998 121.259C484.474 124.201 487.968 128.217 490.482 133.305C493.057 138.333 494.344 143.912 494.344 150.042C494.344 156.173 493.057 161.782 490.482 166.871C487.968 171.898 484.474 175.883 479.998 178.826C475.584 181.768 470.71 183.24 465.377 183.24C460.043 183.24 455.138 181.768 450.663 178.826C446.249 175.883 442.754 171.898 440.18 166.871C437.666 161.782 436.409 156.173 436.409 150.042C436.409 143.912 437.666 138.333 440.18 133.305C442.754 128.217 446.249 124.201 450.663 121.259C455.138 118.316 460.043 116.845 465.377 116.845ZM445.237 150.042C445.237 160.28 446.985 168.189 450.479 173.768C453.974 179.285 458.939 182.044 465.377 182.044C471.814 182.044 476.78 179.285 480.274 173.768C483.769 168.189 485.516 160.28 485.516 150.042C485.516 139.804 483.769 131.895 480.274 126.316C476.78 120.738 471.814 117.948 465.377 117.948C458.939 117.948 453.974 120.738 450.479 126.316C446.985 131.895 445.237 139.804 445.237 150.042ZM561.982 119.787V180.297L569.982 181.033V181.768H547.36V181.033L554.901 180.297V124.293H554.533L532.371 183.24H531.451L506.714 124.201H506.346V176.159C506.346 177.63 506.53 178.672 506.898 179.285C507.266 179.837 508.001 180.174 509.105 180.297L515.634 181.033V181.768H495.495V181.033L502.116 180.297C503.22 180.174 503.955 179.837 504.323 179.285C504.691 178.672 504.875 177.63 504.875 176.159V120.983C504.446 120.247 503.894 119.757 503.22 119.511C502.606 119.205 501.687 119.052 500.461 119.052H496.231V118.316H511.956L534.578 172.296H534.946L555.177 118.316H569.982V119.052L561.982 119.787ZM600.903 116.845C606.236 116.845 611.11 118.316 615.524 121.259C620 124.201 623.494 128.217 626.008 133.305C628.583 138.333 629.87 143.912 629.87 150.042C629.87 156.173 628.583 161.782 626.008 166.871C623.494 171.898 620 175.883 615.524 178.826C611.11 181.768 606.236 183.24 600.903 183.24C595.569 183.24 590.664 181.768 586.189 178.826C581.775 175.883 578.28 171.898 575.706 166.871C573.192 161.782 571.935 156.173 571.935 150.042C571.935 143.912 573.192 138.333 575.706 133.305C578.28 128.217 581.775 124.201 586.189 121.259C590.664 118.316 595.569 116.845 600.903 116.845ZM580.763 150.042C580.763 160.28 582.511 168.189 586.005 173.768C589.5 179.285 594.465 182.044 600.903 182.044C607.34 182.044 612.306 179.285 615.8 173.768C619.295 168.189 621.042 160.28 621.042 150.042C621.042 139.804 619.295 131.895 615.8 126.316C612.306 120.738 607.34 117.948 600.903 117.948C594.465 117.948 589.5 120.738 586.005 126.316C582.511 131.895 580.763 139.804 580.763 150.042ZM676.357 123.19C680.097 125.826 683.009 129.443 685.093 134.041C687.178 138.639 688.22 143.85 688.22 149.674C688.22 155.498 687.178 160.801 685.093 165.583C683.009 170.365 680.097 174.105 676.357 176.803C673.966 178.519 671.207 179.776 668.081 180.573C665.015 181.37 661.245 181.768 656.77 181.768H632.308V181.033L639.849 180.297V119.787L632.308 119.052V118.316H656.77C665.107 118.316 671.637 119.941 676.357 123.19ZM673.047 175.239C675.008 172.726 676.541 169.17 677.645 164.572C678.81 159.913 679.392 154.793 679.392 149.215C679.392 143.758 678.84 138.946 677.737 134.777C676.694 130.608 675.131 127.297 673.047 124.845C671.33 122.822 669.215 121.412 666.701 120.615C664.188 119.818 660.601 119.419 655.942 119.419H646.93V180.665H655.942C660.847 180.665 664.525 180.266 666.977 179.469C669.43 178.672 671.453 177.262 673.047 175.239ZM690.911 118.316H713.074V119.052L705.533 119.787V180.297L713.074 181.033V181.768H690.911V181.033L698.452 180.297V119.787L690.911 119.052V118.316ZM758.988 123.19C762.728 125.826 765.64 129.443 767.725 134.041C769.809 138.639 770.851 143.85 770.851 149.674C770.851 155.498 769.809 160.801 767.725 165.583C765.64 170.365 762.728 174.105 758.988 176.803C756.597 178.519 753.839 179.776 750.712 180.573C747.647 181.37 743.876 181.768 739.401 181.768H714.939V181.033L722.48 180.297V119.787L714.939 119.052V118.316H739.401C747.739 118.316 754.268 119.941 758.988 123.19ZM755.678 175.239C757.64 172.726 759.172 169.17 760.276 164.572C761.441 159.913 762.023 154.793 762.023 149.215C762.023 143.758 761.471 138.946 760.368 134.777C759.326 130.608 757.762 127.297 755.678 124.845C753.961 122.822 751.846 121.412 749.333 120.615C746.819 119.818 743.233 119.419 738.573 119.419H729.561V180.665H738.573C743.478 180.665 747.156 180.266 749.608 179.469C752.061 178.672 754.084 177.262 755.678 175.239ZM830.047 181.033V181.768H807.517V181.033L815.057 180.113L806.413 156.571H784.159L776.526 176.894C776.281 177.569 776.158 178.121 776.158 178.55C776.158 179.224 776.342 179.715 776.71 180.021C777.139 180.266 777.875 180.45 778.917 180.573L784.527 181.033V181.768H764.939V181.033L770.089 180.573C771.622 180.45 772.694 180.144 773.307 179.653C773.982 179.163 774.564 178.243 775.055 176.894L797.585 116.845H799.24L822.414 180.113L830.047 181.033ZM805.861 155.1L795.562 127.052H795.194L784.711 155.1H805.861ZM870.896 123.19C874.635 125.826 877.548 129.443 879.632 134.041C881.716 138.639 882.759 143.85 882.759 149.674C882.759 155.498 881.716 160.801 879.632 165.583C877.548 170.365 874.635 174.105 870.896 176.803C868.505 178.519 865.746 179.776 862.619 180.573C859.554 181.37 855.784 181.768 851.308 181.768H826.847V181.033L834.388 180.297V119.787L826.847 119.052V118.316H851.308C859.646 118.316 866.175 119.941 870.896 123.19ZM867.585 175.239C869.547 172.726 871.08 169.17 872.183 164.572C873.348 159.913 873.93 154.793 873.93 149.215C873.93 143.758 873.379 138.946 872.275 134.777C871.233 130.608 869.67 127.297 867.585 124.845C865.869 122.822 863.754 121.412 861.24 120.615C858.726 119.818 855.14 119.419 850.481 119.419H841.469V180.665H850.481C855.385 180.665 859.064 180.266 861.516 179.469C863.968 178.672 865.991 177.262 867.585 175.239Z" fill="#675132"/>
<path d="M253.791 365.834V305.324L246.251 304.588V303.853H268.873V304.588L260.872 305.324V366.202H281.195C282.667 366.202 283.74 365.987 284.414 365.558C285.088 365.067 285.701 364.148 286.253 362.799L292.506 347.074L293.61 347.258L291.311 367.305H246.251V366.569L253.791 365.834ZM339.24 309.462C339.24 307.991 339.056 306.979 338.688 306.428C338.32 305.876 337.585 305.508 336.481 305.324L329.952 304.588V303.853H350.091V304.588L343.47 305.324C342.367 305.508 341.631 305.876 341.263 306.428C340.895 306.979 340.711 307.991 340.711 309.462V344.775C340.711 348.637 340.405 351.856 339.792 354.431C339.24 357.006 338.351 359.213 337.125 361.052C335.47 363.443 333.201 365.343 330.32 366.753C327.439 368.102 324.251 368.777 320.756 368.777C317.936 368.777 315.147 368.317 312.388 367.397C309.629 366.478 307.33 365.221 305.491 363.627C303.59 361.971 302.241 359.856 301.445 357.282C300.648 354.707 300.249 351.151 300.249 346.614V305.324L292.708 304.588V303.853H315.33V304.588L307.33 305.324V349.649C307.33 354.124 307.728 357.557 308.525 359.948C309.384 362.339 310.794 364.117 312.756 365.282C313.798 365.895 315.085 366.386 316.618 366.753C318.151 367.121 319.745 367.305 321.4 367.305C324.465 367.305 327.285 366.692 329.86 365.466C332.435 364.24 334.489 362.493 336.021 360.224C337.186 358.508 338.014 356.515 338.504 354.247C338.995 351.917 339.24 348.913 339.24 345.235V309.462ZM356.072 378.432C357.298 376.103 357.912 373.007 357.912 369.144V305.324L350.371 304.588V303.853H372.533V304.588L364.992 305.324V362.063C364.992 366.048 364.747 369.175 364.257 371.443C363.828 373.773 363.061 375.735 361.958 377.329C360.732 379.107 359.107 380.486 357.084 381.467C355.061 382.509 352.915 383.03 350.647 383.03C347.765 383.03 345.374 382.356 343.474 381.007C341.573 379.658 340.623 377.973 340.623 375.949C340.623 374.723 340.991 373.742 341.727 373.007C342.401 372.271 343.321 371.903 344.485 371.903C345.712 371.903 346.662 372.271 347.336 373.007C348.011 373.742 348.348 374.754 348.348 376.041L348.256 378.708C348.256 380.854 349.298 381.927 351.382 381.927C353.344 381.927 354.908 380.762 356.072 378.432ZM403.636 302.381C408.969 302.381 413.843 303.853 418.257 306.795C422.733 309.738 426.227 313.754 428.741 318.842C431.316 323.869 432.603 329.448 432.603 335.579C432.603 341.71 431.316 347.319 428.741 352.408C426.227 357.435 422.733 361.42 418.257 364.362C413.843 367.305 408.969 368.777 403.636 368.777C398.302 368.777 393.398 367.305 388.922 364.362C384.508 361.42 381.014 357.435 378.439 352.408C375.925 347.319 374.668 341.71 374.668 335.579C374.668 329.448 375.925 323.869 378.439 318.842C381.014 313.754 384.508 309.738 388.922 306.795C393.398 303.853 398.302 302.381 403.636 302.381ZM383.497 335.579C383.497 345.817 385.244 353.726 388.738 359.305C392.233 364.822 397.199 367.581 403.636 367.581C410.073 367.581 415.039 364.822 418.533 359.305C422.028 353.726 423.775 345.817 423.775 335.579C423.775 325.341 422.028 317.432 418.533 311.853C415.039 306.274 410.073 303.485 403.636 303.485C397.199 303.485 392.233 306.274 388.738 311.853C385.244 317.432 383.497 325.341 383.497 335.579ZM517.354 305.324V365.834L525.355 366.569V367.305H502.733V366.569L510.273 365.834V309.83H509.906L487.743 368.777H486.824L462.086 309.738H461.719V361.696C461.719 363.167 461.902 364.209 462.27 364.822C462.638 365.374 463.374 365.711 464.477 365.834L471.007 366.569V367.305H450.867V366.569L457.488 365.834C458.592 365.711 459.328 365.374 459.695 364.822C460.063 364.209 460.247 363.167 460.247 361.696V306.52C459.818 305.784 459.266 305.293 458.592 305.048C457.979 304.742 457.059 304.588 455.833 304.588H451.603V303.853H467.328L489.95 357.833H490.318L510.549 303.853H525.355V304.588L517.354 305.324ZM574.102 347.994L571.803 367.305H526.743V366.569L534.284 365.834V305.324L526.743 304.588V303.853H571.895L573.183 321.141L572.263 321.233L567.113 308.359C566.562 306.949 565.949 306.029 565.274 305.6C564.661 305.171 563.619 304.956 562.148 304.956H541.365V333.188H554.975C556.446 333.188 557.488 332.943 558.101 332.452C558.714 331.962 559.143 331.012 559.389 329.602L560.952 322.153H562.056V345.695H560.952L559.389 338.246C559.143 336.836 558.714 335.886 558.101 335.395C557.488 334.905 556.446 334.659 554.975 334.659H541.365V366.202H561.964C563.435 366.202 564.508 365.987 565.182 365.558C565.857 365.067 566.47 364.148 567.021 362.799L573.091 347.902L574.102 347.994ZM639.694 366.569V367.305H616.244V366.569L624.244 365.834L604.841 337.694L586.173 362.891C585.437 363.872 585.069 364.577 585.069 365.006C585.069 365.313 585.253 365.558 585.621 365.742C586.05 365.864 586.725 365.987 587.644 366.11L592.886 366.569V367.305H574.126V366.569L578.816 366.202C580.287 366.079 581.422 365.803 582.218 365.374C583.015 364.884 583.843 364.056 584.701 362.891L604.105 336.591L582.586 305.324L575.046 304.588V303.853H598.495V304.588L590.495 305.324L608.979 332.176L626.727 308.267C627.463 307.225 627.831 306.52 627.831 306.152C627.831 305.845 627.616 305.631 627.187 305.508C626.819 305.324 626.175 305.171 625.256 305.048L620.014 304.588V303.853H638.774V304.588L634.084 304.956C632.613 305.079 631.478 305.385 630.681 305.876C629.884 306.305 629.057 307.102 628.199 308.267L609.715 333.28L632.153 365.834L639.694 366.569ZM637.932 303.853H660.094V304.588L652.554 305.324V365.834L660.094 366.569V367.305H637.932V366.569L645.473 365.834V305.324L637.932 304.588V303.853ZM699.493 365.742C702.129 364.577 704.336 363.014 706.114 361.052C709.118 357.68 711.386 352.653 712.919 345.97L714.114 346.154V367.305H712.919L709.792 362.247C707.033 364.27 704.029 365.864 700.78 367.029C697.592 368.194 694.496 368.777 691.492 368.777C686.158 368.777 681.254 367.305 676.779 364.362C672.364 361.42 668.87 357.435 666.295 352.408C663.782 347.319 662.525 341.71 662.525 335.579C662.525 329.51 663.782 323.931 666.295 318.842C668.87 313.754 672.364 309.738 676.779 306.795C681.193 303.853 686.036 302.381 691.308 302.381C694.067 302.381 696.887 302.841 699.769 303.761C702.711 304.619 705.96 305.999 709.516 307.899L711.723 303.485H712.919L713.838 324.176L712.551 324.544C711.693 319.823 710.344 315.93 708.505 312.865C706.666 309.861 704.275 307.562 701.332 305.968C698.389 304.313 695.14 303.485 691.584 303.485C685.086 303.485 680.089 306.274 676.595 311.853C673.1 317.432 671.353 325.341 671.353 335.579C671.353 345.756 673.1 353.634 676.595 359.213C680.089 364.73 685.055 367.489 691.492 367.489C694.251 367.489 696.918 366.907 699.493 365.742ZM776.259 366.569V367.305H753.729V366.569L761.27 365.65L752.625 342.108H730.371L722.738 362.431C722.493 363.106 722.371 363.657 722.371 364.087C722.371 364.761 722.554 365.251 722.922 365.558C723.351 365.803 724.087 365.987 725.129 366.11L730.739 366.569V367.305H711.151V366.569L716.301 366.11C717.834 365.987 718.907 365.681 719.52 365.19C720.194 364.7 720.777 363.78 721.267 362.431L743.797 302.381H745.453L768.626 365.65L776.259 366.569ZM752.074 340.637L741.774 312.589H741.406L730.923 340.637H752.074ZM835.408 303.853V304.588L828.787 305.324C827.316 305.508 826.335 305.876 825.844 306.428C825.354 306.979 825.109 307.991 825.109 309.462V368.777H824.189L782.899 310.198H782.531V361.696C782.531 363.167 782.715 364.209 783.083 364.822C783.451 365.374 784.186 365.711 785.29 365.834L791.819 366.569V367.305H771.68V366.569L778.301 365.834C779.404 365.711 780.14 365.374 780.508 364.822C780.876 364.209 781.06 363.167 781.06 361.696V308.175L780.692 307.623C779.834 306.397 779.006 305.6 778.209 305.232C777.473 304.803 776.37 304.588 774.898 304.588H773.335V303.853H787.037L823.269 354.615H823.637V309.462C823.637 307.991 823.453 306.949 823.085 306.336C822.718 305.723 821.982 305.385 820.878 305.324L813.43 304.588V303.853H835.408ZM864.068 302.381C869.402 302.381 874.276 303.853 878.69 306.795C883.165 309.738 886.659 313.754 889.173 318.842C891.748 323.869 893.035 329.448 893.035 335.579C893.035 341.71 891.748 347.319 889.173 352.408C886.659 357.435 883.165 361.42 878.69 364.362C874.276 367.305 869.402 368.777 864.068 368.777C858.734 368.777 853.83 367.305 849.354 364.362C844.94 361.42 841.446 357.435 838.871 352.408C836.357 347.319 835.101 341.71 835.101 335.579C835.101 329.448 836.357 323.869 838.871 318.842C841.446 313.754 844.94 309.738 849.354 306.795C853.83 303.853 858.734 302.381 864.068 302.381ZM843.929 335.579C843.929 345.817 845.676 353.726 849.17 359.305C852.665 364.822 857.631 367.581 864.068 367.581C870.505 367.581 875.471 364.822 878.966 359.305C882.46 353.726 884.207 345.817 884.207 335.579C884.207 325.341 882.46 317.432 878.966 311.853C875.471 306.274 870.505 303.485 864.068 303.485C857.631 303.485 852.665 306.274 849.17 311.853C845.676 317.432 843.929 325.341 843.929 335.579Z" fill="#675132"/>
<path d="M47.7272 215.958C51.467 218.594 54.379 222.211 56.4634 226.809C58.5479 231.407 59.5901 236.619 59.5901 242.443C59.5901 248.267 58.5479 253.57 56.4634 258.352C54.379 263.134 51.467 266.873 47.7272 269.571C45.3363 271.287 42.5775 272.544 39.4508 273.341C36.3855 274.138 32.6151 274.537 28.1398 274.537H3.6784V273.801L11.2191 273.065V212.556L3.6784 211.82V211.084H28.1398C36.4775 211.084 43.0066 212.709 47.7272 215.958ZM44.4167 268.008C46.3785 265.494 47.9112 261.938 49.0147 257.34C50.1795 252.681 50.7619 247.562 50.7619 241.983C50.7619 236.527 50.2102 231.714 49.1066 227.545C48.0644 223.376 46.5011 220.066 44.4167 217.614C42.7001 215.59 40.585 214.18 38.0714 213.383C35.5579 212.586 31.9714 212.188 27.3121 212.188H18.3V273.433H27.3121C32.2167 273.433 35.8951 273.035 38.3473 272.238C40.7996 271.441 42.8227 270.031 44.4167 268.008ZM109.641 255.225L107.342 274.537H62.2813V273.801L69.8221 273.065V212.556L62.2813 211.82V211.084H107.434L108.721 228.373L107.802 228.465L102.652 215.59C102.1 214.18 101.487 213.261 100.813 212.832C100.2 212.402 99.1573 212.188 97.6859 212.188H76.903V240.42H90.5131C91.9844 240.42 93.0266 240.174 93.6397 239.684C94.2528 239.193 94.6819 238.243 94.9271 236.833L96.4905 229.384H97.594V252.926H96.4905L94.9271 245.477C94.6819 244.067 94.2528 243.117 93.6397 242.627C93.0266 242.136 91.9844 241.891 90.5131 241.891H76.903V273.433H97.502C98.9734 273.433 100.046 273.219 100.721 272.79C101.395 272.299 102.008 271.379 102.56 270.031L108.629 255.133L109.641 255.225ZM120.792 273.065V212.556L113.251 211.82V211.084H135.873V211.82L127.873 212.556V273.433H148.196C149.667 273.433 150.74 273.219 151.414 272.79C152.089 272.299 152.702 271.379 153.253 270.031L159.507 254.306L160.61 254.489L158.311 274.537H113.251V273.801L120.792 273.065ZM229.756 273.801V274.537H207.225V273.801L214.766 272.881L206.122 249.34H183.868L176.235 269.663C175.99 270.337 175.867 270.889 175.867 271.318C175.867 271.993 176.051 272.483 176.419 272.79C176.848 273.035 177.584 273.219 178.626 273.341L184.235 273.801V274.537H164.648V273.801L169.798 273.341C171.33 273.219 172.403 272.912 173.016 272.422C173.691 271.931 174.273 271.012 174.764 269.663L197.294 209.613H198.949L222.123 272.881L229.756 273.801ZM205.57 247.868L195.271 219.821H194.903L184.419 247.868H205.57ZM269.114 216.694C269.114 215.223 268.931 214.211 268.563 213.659C268.195 213.107 267.459 212.74 266.356 212.556L259.827 211.82V211.084H279.966V211.82L273.345 212.556C272.241 212.74 271.505 213.107 271.138 213.659C270.77 214.211 270.586 215.223 270.586 216.694V252.007C270.586 255.869 270.279 259.087 269.666 261.662C269.114 264.237 268.226 266.444 266.999 268.283C265.344 270.674 263.076 272.575 260.194 273.985C257.313 275.334 254.125 276.008 250.631 276.008C247.81 276.008 245.021 275.548 242.262 274.629C239.503 273.709 237.204 272.452 235.365 270.858C233.465 269.203 232.116 267.088 231.319 264.513C230.522 261.938 230.123 258.382 230.123 253.846V212.556L222.583 211.82V211.084H245.205V211.82L237.204 212.556V256.88C237.204 261.356 237.603 264.789 238.4 267.18C239.258 269.571 240.668 271.349 242.63 272.514C243.672 273.127 244.96 273.617 246.492 273.985C248.025 274.353 249.619 274.537 251.274 274.537C254.34 274.537 257.16 273.924 259.735 272.698C262.309 271.471 264.363 269.724 265.896 267.456C267.061 265.739 267.888 263.747 268.379 261.478C268.869 259.149 269.114 256.145 269.114 252.466V216.694ZM302.04 273.065V212.096H289.901C288.43 212.096 287.357 212.341 286.682 212.832C286.008 213.261 285.364 214.18 284.751 215.59L278.406 229.752L277.67 229.568L281.257 209.613H281.809C283.157 210.226 284.291 210.625 285.211 210.808C286.192 210.992 287.418 211.084 288.889 211.084H324.294C325.765 211.084 326.961 210.992 327.88 210.808C328.861 210.625 330.026 210.226 331.375 209.613H331.927L333.95 229.568L333.214 229.752L327.513 215.59C326.961 214.18 326.348 213.261 325.673 212.832C325.06 212.341 324.018 212.096 322.547 212.096H309.121V273.065L319.052 273.801V274.537H292.108V273.801L302.04 273.065ZM382.14 255.225L379.841 274.537H334.781V273.801L342.322 273.065V212.556L334.781 211.82V211.084H379.933L381.221 228.373L380.301 228.465L375.152 215.59C374.6 214.18 373.987 213.261 373.312 212.832C372.699 212.402 371.657 212.188 370.186 212.188H349.403V240.42H363.013C364.484 240.42 365.526 240.174 366.139 239.684C366.753 239.193 367.182 238.243 367.427 236.833L368.99 229.384H370.094V252.926H368.99L367.427 245.477C367.182 244.067 366.753 243.117 366.139 242.627C365.526 242.136 364.484 241.891 363.013 241.891H349.403V273.433H370.002C371.473 273.433 372.546 273.219 373.22 272.79C373.895 272.299 374.508 271.379 375.06 270.031L381.129 255.133L382.14 255.225ZM357.219 201.612L363.197 194.072L364.484 192.416C365.281 191.497 365.802 190.822 366.047 190.393C366.354 189.903 366.507 189.443 366.507 189.014C366.507 188.217 366.262 187.543 365.772 186.991C365.342 186.439 364.729 186.163 363.932 186.163C362.461 186.163 361.511 186.807 361.082 188.094L356.943 201.521L357.219 201.612ZM448.1 211.084V211.82L441.478 212.556C440.007 212.74 439.026 213.107 438.536 213.659C438.045 214.211 437.8 215.223 437.8 216.694V276.008H436.88L395.59 217.43H395.223V268.927C395.223 270.399 395.406 271.441 395.774 272.054C396.142 272.606 396.878 272.943 397.981 273.065L404.51 273.801V274.537H384.371V273.801L390.992 273.065C392.096 272.943 392.832 272.606 393.199 272.054C393.567 271.441 393.751 270.399 393.751 268.927V215.406L393.383 214.855C392.525 213.629 391.697 212.832 390.9 212.464C390.165 212.035 389.061 211.82 387.59 211.82H386.027V211.084H399.729L435.961 261.846H436.329V216.694C436.329 215.223 436.145 214.18 435.777 213.567C435.409 212.954 434.673 212.617 433.57 212.556L426.121 211.82V211.084H448.1ZM470.664 273.065V212.096H458.525C457.054 212.096 455.981 212.341 455.307 212.832C454.633 213.261 453.989 214.18 453.376 215.59L447.03 229.752L446.295 229.568L449.881 209.613H450.433C451.782 210.226 452.916 210.625 453.836 210.808C454.816 210.992 456.043 211.084 457.514 211.084H492.919C494.39 211.084 495.585 210.992 496.505 210.808C497.486 210.625 498.651 210.226 499.999 209.613H500.551L502.574 229.568L501.839 229.752L496.137 215.59C495.585 214.18 494.972 213.261 494.298 212.832C493.685 212.341 492.643 212.096 491.171 212.096H477.745V273.065L487.677 273.801V274.537H460.733V273.801L470.664 273.065ZM503.406 211.084H525.568V211.82L518.027 212.556V273.065L525.568 273.801V274.537H503.406V273.801L510.946 273.065V212.556L503.406 211.82V211.084ZM564.966 272.973C567.603 271.809 569.81 270.245 571.587 268.283C574.591 264.912 576.86 259.884 578.392 253.202L579.588 253.386V274.537H578.392L575.266 269.479C572.507 271.502 569.503 273.096 566.254 274.261C563.066 275.426 559.97 276.008 556.966 276.008C551.632 276.008 546.728 274.537 542.252 271.594C537.838 268.651 534.344 264.666 531.769 259.639C529.255 254.551 527.998 248.941 527.998 242.811C527.998 236.741 529.255 231.162 531.769 226.074C534.344 220.985 537.838 216.97 542.252 214.027C546.666 211.084 551.51 209.613 556.782 209.613C559.541 209.613 562.361 210.073 565.242 210.992C568.185 211.851 571.434 213.23 574.99 215.131L577.197 210.717H578.392L579.312 231.408L578.025 231.775C577.166 227.055 575.818 223.162 573.978 220.096C572.139 217.092 569.748 214.793 566.806 213.199C563.863 211.544 560.614 210.717 557.058 210.717C550.559 210.717 545.563 213.506 542.068 219.085C538.574 224.664 536.827 232.572 536.827 242.811C536.827 252.987 538.574 260.865 542.068 266.444C545.563 271.962 550.529 274.721 556.966 274.721C559.725 274.721 562.391 274.138 564.966 272.973ZM613.593 209.613C618.927 209.613 623.801 211.084 628.215 214.027C632.69 216.97 636.185 220.985 638.698 226.074C641.273 231.101 642.56 236.68 642.56 242.811C642.56 248.941 641.273 254.551 638.698 259.639C636.185 264.666 632.69 268.651 628.215 271.594C623.801 274.537 618.927 276.008 613.593 276.008C608.259 276.008 603.355 274.537 598.879 271.594C594.465 268.651 590.971 264.666 588.396 259.639C585.882 254.551 584.626 248.941 584.626 242.811C584.626 236.68 585.882 231.101 588.396 226.074C590.971 220.985 594.465 216.97 598.879 214.027C603.355 211.084 608.259 209.613 613.593 209.613ZM593.454 242.811C593.454 253.049 595.201 260.957 598.695 266.536C602.19 272.054 607.156 274.813 613.593 274.813C620.03 274.813 624.996 272.054 628.491 266.536C631.985 260.957 633.732 253.049 633.732 242.811C633.732 232.572 631.985 224.664 628.491 219.085C624.996 213.506 620.03 210.717 613.593 210.717C607.156 210.717 602.19 213.506 598.695 219.085C595.201 224.664 593.454 232.572 593.454 242.811Z" fill="#675132"/>
<path d="M88 138L337 138" stroke="#003938" stroke-width="2" stroke-linecap="round" stroke-linejoin="round"/>
<path d="M832.603 267.782C830.624 265.538 828.071 262.65 826.929 261.365C825.788 260.079 824.86 258.825 824.868 258.58C824.875 258.335 823.681 257.343 822.214 256.378C820.747 255.412 817.808 253.031 815.686 251.09C812.868 248.515 810.734 247.13 807.802 245.974C802.926 244.052 801.364 243.901 797.085 244.935C794.932 245.457 791.384 245.671 786.946 245.551C779.942 245.361 778.328 245.666 775.081 247.813C774.117 248.45 770.892 249.463 767.916 250.063C764.94 250.663 761.045 251.586 759.261 252.116C757.477 252.645 755.502 253.069 754.87 253.062C754.242 253.055 752.545 253.672 751.105 254.436C749.665 255.199 746.671 256.38 744.452 257.053C740.758 258.181 740.058 258.222 736.096 257.563C732.63 256.985 731.305 256.992 729.418 257.581C727.791 258.09 725.675 258.189 722.57 257.895C717.862 257.452 711.798 258.331 705.098 260.432C698.928 262.366 696.024 262.811 695.061 261.974C694.582 261.557 694.207 260.679 694.231 260.016C694.296 258.108 698.682 253.866 702.731 251.794C706.047 250.098 706.843 249.918 710.078 250.14C712.075 250.277 715.649 250.132 718.02 249.815C720.394 249.502 723.573 249.138 725.086 249.008C728.439 248.721 731.217 246.664 733.05 243.103C734.111 241.043 734.351 239.59 734.487 234.331C734.601 229.979 734.395 227.333 733.821 225.792C733.175 224.053 733.142 223.254 733.669 222.202C734.043 221.456 734.594 220.854 734.9 220.864C735.7 220.888 737.162 223.265 737.125 224.476C737.107 225.048 737.426 226.713 737.834 228.181C738.242 229.648 738.702 231.805 738.858 232.972C739.014 234.14 739.364 235.103 739.638 235.111C739.912 235.12 741.221 233.318 742.549 231.109C743.877 228.9 746.192 225.641 747.692 223.868C749.191 222.091 750.428 220.37 750.438 220.04C750.448 219.71 751.029 218.877 751.73 218.185C752.431 217.496 753.189 215.983 753.416 214.821C753.673 213.522 754.184 212.658 754.755 212.565C756.355 212.313 756.256 214.475 754.497 218.154C752.274 222.799 751.819 224.202 752.527 224.223C752.846 224.233 753.288 223.97 753.509 223.638C753.733 223.305 756.019 222.109 758.593 220.979C761.168 219.848 763.873 218.401 764.61 217.76C765.879 216.659 767.722 216.7 767.687 217.83C767.662 218.637 762.922 222.368 759.137 224.565C754.453 227.28 754.297 227.357 751.313 228.554C749.694 229.202 748.361 230.213 747.821 231.199C747.337 232.077 746.608 233.176 746.201 233.638C744.446 235.626 739.941 244.761 739.89 246.434L739.834 248.251L744.278 248.077C748.296 247.917 757.192 245.608 759.124 244.219C760.057 243.546 767.818 241.617 769.386 241.665C770.151 241.688 774.653 240.664 779.392 239.392L788.007 237.077L798.597 237.255C805.32 237.367 811.188 237.148 814.655 236.655C823.266 235.427 827.667 235.065 834.873 234.998C842.581 234.923 845.707 233.998 849.395 230.699C852.702 227.743 853.594 225.898 853.752 221.695C853.875 218.416 854.011 218.036 855.034 218.068C855.943 218.096 856.201 218.537 856.292 220.221C856.356 221.386 856.651 222.347 856.951 222.356C857.251 222.365 859.407 220.936 861.739 219.182C864.071 217.428 866.631 215.822 867.425 215.614C868.22 215.406 869.852 214.523 871.056 213.649C873.305 212.015 874.407 212.061 874.354 213.788C874.322 214.836 870.841 218.27 869.84 218.24C869.078 218.216 862.006 222.518 861.013 223.609C859.86 224.877 857.244 229.975 857.211 231.021C857.172 232.301 858.039 232.234 864.196 230.475C867.138 229.635 870.515 228.975 871.698 229.012C872.883 229.048 874.968 228.584 876.333 227.985C878.358 227.092 879.11 227.011 880.405 227.545C881.278 227.904 881.826 228.452 881.615 228.763C881.1 229.527 875.765 231.958 874.671 231.925C874.19 231.91 871.472 232.844 868.635 233.998C865.798 235.156 862.218 236.296 860.679 236.535C859.144 236.774 857.104 237.236 856.149 237.561C854.331 238.181 850.447 238.923 846.065 239.489C844.643 239.671 840.881 240.395 837.711 241.089C829.507 242.892 823.111 243.877 820.144 243.796C817.45 243.722 815.193 244.593 816.553 245.184C817.198 245.465 822.573 249.875 826.095 253.018C828.921 255.537 832.28 257.124 836.907 258.127C839.563 258.701 842.736 259.468 843.963 259.83C845.187 260.191 848.659 260.483 851.677 260.478C857.561 260.467 859.105 260.892 857.929 262.207C857.546 262.632 856.556 262.966 855.73 262.943C852.721 262.867 852.375 263.714 854.584 265.761C855.701 266.798 856.476 267.856 856.302 268.114C855.73 268.964 854.052 268.542 853.361 267.373C852.988 266.743 852.289 266.212 851.808 266.198C851.33 266.183 849.685 265.498 848.157 264.675C846.361 263.708 844.41 263.146 842.641 263.085C841.137 263.033 838.114 262.56 835.925 262.034C833.737 261.508 831.881 261.074 831.801 261.071C831.721 261.069 831.646 261.434 831.632 261.883C831.619 262.332 832.504 263.418 833.603 264.297C835.958 266.182 839.02 270.65 838.495 271.435C837.669 272.673 836.01 271.648 832.603 267.782Z" fill="#C69160"/>
<path d="M0.000602373 341.97C0.0199111 341.68 0.430912 341.379 1.08465 341.251C1.58668 341.15 3.52032 340.745 5.37672 340.349C7.23312 339.953 9.77636 339.417 11.0314 339.155C12.2837 338.896 13.9691 338.436 14.7773 338.133C15.5828 337.833 16.4737 337.568 16.7496 337.554C17.4088 337.518 20.4817 336.614 22.9863 335.715C24.5559 335.152 25.8551 334.909 29.1238 334.589C33.3386 334.179 34.1468 334.032 34.133 333.676C34.1247 333.441 29.8823 331.57 28.2356 331.075C26.084 330.43 24.611 330.244 20.7934 330.149C16.1483 330.031 14.9815 329.922 14.3774 329.512C13.9471 329.22 13.9415 329.165 14.3084 328.766C14.6698 328.373 15.1194 328.343 19.3397 328.438C25.0634 328.569 24.862 328.575 24.8482 328.179C24.8372 327.897 23.3863 326.974 17.8061 323.708C17.202 323.356 16.1924 322.858 15.558 322.604C14.9235 322.353 14.2312 322.039 14.0188 321.91C13.8064 321.782 13.1885 321.468 12.6534 321.203C11.5941 320.683 11.2135 320.129 11.6107 319.702C11.8865 319.41 14.7718 320.156 15.4862 320.705C15.7014 320.869 16.2779 321.151 16.7717 321.32C17.2626 321.492 18.1343 322.025 18.708 322.506C19.2818 322.987 20.6748 323.829 21.8057 324.375C22.9367 324.922 24.6579 325.848 25.6344 326.435C27.2646 327.414 29.6203 328.329 31.5622 328.739C32.6738 328.974 35.8046 330.1 36.4032 330.479C36.6845 330.657 37.33 330.788 37.8403 330.769C38.3506 330.75 39.4981 330.936 40.3863 331.173C41.2745 331.414 42.3558 331.597 42.7888 331.583C43.5198 331.559 44.9901 331.955 45.9665 332.45C46.6837 332.81 48.2808 333.097 50.6392 333.283C51.8916 333.381 53.8307 333.638 54.9479 333.857C56.065 334.075 57.8359 334.362 58.8813 334.485C62.3183 334.89 63.2893 335.015 65.4711 335.357C66.6573 335.543 68.7923 335.873 70.2183 336.087C71.6444 336.3 73.4181 336.666 74.1573 336.901C74.8966 337.136 76.3613 337.483 77.4095 337.671C78.4577 337.86 80.0575 338.147 80.9651 338.314C83.6986 338.811 87.8004 339.155 90.0733 339.079C91.2511 339.038 93.3199 339.125 94.6743 339.275C96.1418 339.439 100.472 339.508 105.399 339.442C118.024 339.273 117.428 339.314 129.311 337.964C130.313 337.849 131.129 337.674 131.126 337.576C131.115 337.248 128.707 335.961 125.979 334.83C123.477 333.791 122.838 333.491 121.486 332.715C119.93 331.821 115.605 330.13 114.063 329.813C113.084 329.611 111.972 329.304 111.594 329.132C110.847 328.791 105.198 328.026 103.799 328.078C103.325 328.094 102.583 328.017 102.152 327.905C101.722 327.793 99.6587 327.414 97.5651 327.061C95.4715 326.709 92.7241 326.116 91.4635 325.749C90.2002 325.383 88.6555 325.012 88.0266 324.924C87.4004 324.837 86.0846 324.624 85.1082 324.446C81.9167 323.872 80.8382 323.878 78.7032 324.503C77.6136 324.823 76.0744 325.107 75.2745 325.137C74.4745 325.167 72.9381 325.463 71.8541 325.796C70.4666 326.222 69.8018 326.323 69.606 326.146C69.2777 325.845 69.4736 325.135 69.9232 324.979C71.0928 324.572 76.3089 322.94 77.175 322.711C78.1046 322.465 77.9005 322.036 76.6785 321.667C76.1351 321.503 75.5089 321.224 75.2828 321.047C75.0593 320.869 74.127 320.429 73.214 320.077C72.2982 319.724 71.0266 319.099 70.3866 318.683C69.7467 318.268 68.6378 317.661 67.9234 317.339C65.5401 316.26 65.5263 315.522 67.8958 315.754C69.1536 315.877 70.6211 316.489 71.7465 317.353C73.2719 318.522 78.9845 320.733 81.4478 321.11C82.1456 321.216 83.7097 321.558 84.9289 321.872C86.1453 322.186 87.6349 322.501 88.2334 322.569C88.832 322.637 90.2443 322.962 91.367 323.296C95.0384 324.386 96.3624 324.651 98.9581 324.804C100.365 324.886 102.398 325.08 103.482 325.238C105.598 325.545 106.963 325.572 106.952 325.307C106.949 325.217 106.221 324.427 105.333 323.555C104.445 322.684 103.17 321.427 102.5 320.763C101.83 320.101 101.016 319.063 100.688 318.456C100.147 317.459 97.9209 315.134 96.4535 314.038C95.237 313.131 92.2828 311.521 91.858 311.538C91.6125 311.546 91.1215 311.374 90.7712 311.15C90.4208 310.926 89.4444 310.529 88.6031 310.278C87.5907 309.975 87.039 309.666 86.9701 309.371C86.8763 308.972 86.9921 308.942 87.9659 309.062C89.8167 309.289 93.4606 310.122 93.833 310.406C94.0261 310.554 94.7239 310.882 95.3887 311.136C97.772 312.046 101.725 315.352 102.883 317.41C105.669 322.353 112.598 326.692 119.423 327.769C122.198 328.206 123.902 328.843 127.968 330.966C129.243 331.633 131.033 332.458 131.946 332.802C132.862 333.144 135.049 334.013 136.809 334.731C141.879 336.8 142.207 336.846 152.264 336.633C157.375 336.526 162.313 336.548 164.247 336.699C166.056 336.838 169.584 337.108 172.089 337.3C176.53 337.636 180.151 338.016 183.23 338.458C184.43 338.63 184.932 338.849 185.602 339.494C186.813 340.661 186.785 341.516 185.497 342.784C184.333 343.932 184.38 344.322 185.734 344.899C186.25 345.117 186.777 345.538 186.904 345.831C187.053 346.175 187.028 346.549 186.832 346.88C186.17 348 180.187 347.984 177.225 346.853C176.577 346.607 175.504 346.424 174.844 346.448C174.185 346.473 173.084 346.336 172.398 346.148C170.503 345.631 165.027 345.314 160.732 345.47C158.622 345.546 156.126 345.527 155.182 345.426C148.742 344.732 139.614 344.691 136.202 345.339C135.443 345.484 132.277 345.721 129.16 345.863C126.046 346.008 123.047 346.265 122.498 346.429C121.373 346.771 108.966 347.006 105.021 346.762C103.722 346.683 100.828 346.667 98.5884 346.735C96.0811 346.812 93.8854 346.749 92.8675 346.566C88.9782 345.863 79.0949 345.566 78.2535 346.123C78.1101 346.219 77.2854 346.424 76.4192 346.574C73.7243 347.038 69.3991 348.082 68.2268 348.555C62.2024 350.979 60.7736 351.727 57.2511 354.318C56.1891 355.099 54.7962 356.097 54.1507 356.534C47.2712 361.187 44.1377 363.961 43.1226 366.294C42.0248 368.822 39.4402 372.035 37.3852 373.423C36.0418 374.331 34.1744 375.943 31.8435 378.211C30.8836 379.145 29.6975 380.252 29.201 380.675C28.7045 381.099 28.1887 381.711 28.0535 382.036C27.7252 382.826 24.6662 385.239 22.4429 386.46C21.1106 387.192 20.501 387.179 20.4707 386.425C20.4541 385.982 21.8333 384.761 24.8648 382.539C26.0757 381.651 31.4243 375.883 31.4077 375.481C31.4022 375.317 30.4423 375.325 28.6879 375.495C26.335 375.724 25.9351 375.705 25.6178 375.35C25.011 374.678 25.5709 374.424 28.7403 373.923C32.5883 373.317 34.6681 372.552 35.3412 371.494C35.6198 371.057 36.1494 370.355 36.519 369.929C36.8886 369.502 37.4624 368.527 37.7934 367.759C39.145 364.619 40.7587 362.488 42.9654 360.909C47.7209 357.504 47.9388 356.739 43.7957 358.045C41.3959 358.802 33.5482 359.54 30.6712 359.28C25.5847 358.821 24.44 358.654 24.1586 358.343C23.5187 357.635 24.2745 357.466 27.7446 357.507C33.6944 357.58 38.5189 357.184 40.778 356.438C41.2579 356.28 42.7778 355.944 44.1543 355.689C47.3181 355.107 51.0999 353.29 55.1768 350.402C59.2923 347.487 64.6519 344.729 69.3412 343.109C69.8542 342.931 70.2708 342.699 70.268 342.59C70.257 342.322 66.5911 341.082 65.0298 340.816C63.7389 340.598 61.3198 340.385 56.5533 340.068C55.0941 339.969 53.4969 339.795 53.0087 339.677C50.7661 339.136 50.1455 339.04 47.1747 338.808C45.4369 338.671 43.2164 338.483 42.2399 338.382C41.2662 338.281 39.3353 338.237 37.9479 338.283C36.5604 338.33 35.0322 338.275 34.555 338.158C33.9344 338.005 32.5386 338.122 29.6065 338.568C25.8992 339.131 25.3861 339.267 24.0897 340.06C22.7022 340.907 21.8968 341.56 19.3177 343.921C18.6391 344.544 17.6212 345.287 17.064 345.574C16.5041 345.861 15.7483 346.292 15.3814 346.541C14.8325 346.913 14.6532 346.937 14.3774 346.678C14.1015 346.421 14.1981 346.219 14.8959 345.574C15.3649 345.139 16.6586 343.953 17.7674 342.931C18.8763 341.909 20.1921 340.677 20.6913 340.199L21.5961 339.338L20.5948 339.499C19.3921 339.699 16.2917 340.401 13.7181 341.049C12.6865 341.308 10.9983 341.669 9.96669 341.852C7.6386 342.265 0.646067 342.62 0.229549 342.344C0.0695623 342.235 -0.00767281 342.101 0.000602373 341.97ZM50.8903 336.715C50.8985 336.912 52.0709 337.267 54.5258 337.822C54.8072 337.885 54.9644 337.781 54.9561 337.54C54.9423 337.147 53.9576 336.841 51.9578 336.606C51.3344 336.532 50.8847 336.581 50.8903 336.715ZM88.4486 342.89C88.4651 343.325 93.7364 344.32 97.212 344.541C100.762 344.768 119.729 344.596 121.613 344.317C125.687 343.716 128.746 343.227 130.818 342.852C131.714 342.691 133.885 342.429 135.65 342.267C138.77 341.983 139.666 341.715 138.549 341.409C137.123 341.019 124.777 342.44 122.76 343.227C121.629 343.669 105.967 343.926 100.329 343.595C96.6631 343.38 95.5404 343.268 91.96 342.765C90.1726 342.519 88.4375 342.579 88.4486 342.89Z" fill="#C69160"/>
</svg>
