<svg width="964" height="393" viewBox="0 0 964 393" fill="none" xmlns="http://www.w3.org/2000/svg">
<path d="M56.0036 27.019V87.5286L63.5444 88.2643V89H40.9222V88.2643L48.9227 87.5286V56.3542H18.3V87.5286L26.3006 88.2643V89H3.6784V88.2643L11.2191 87.5286V27.019L3.6784 26.2833V25.5476H26.3006V26.2833L18.3 27.019V54.8828H48.9227V27.019L40.9222 26.2833V25.5476H63.5444V26.2833L56.0036 27.019ZM123.635 88.2643V89H101.105V88.2643L108.646 87.3447L100.001 63.803H77.7471L70.1145 84.1261C69.8692 84.8005 69.7466 85.3523 69.7466 85.7814C69.7466 86.4558 69.9305 86.9462 70.2984 87.2528C70.7275 87.498 71.4632 87.6819 72.5054 87.8045L78.115 88.2643V89H58.5275V88.2643L63.6773 87.8045C65.2099 87.6819 66.2828 87.3754 66.8959 86.8849C67.5702 86.3945 68.1527 85.4749 68.6431 84.1261L91.1733 24.0762H92.8286L116.003 87.3447L123.635 88.2643ZM99.4497 62.3316L89.1502 34.2838H88.7823L78.2989 62.3316H99.4497ZM155.813 87.4367C158.449 86.2719 160.656 84.7085 162.434 82.7467C165.438 79.3749 167.706 74.3477 169.239 67.6653L170.434 67.8492V89H169.239L166.112 83.9422C163.353 85.9653 160.349 87.5593 157.1 88.7241C153.912 89.8889 150.816 90.4714 147.812 90.4714C142.478 90.4714 137.574 89 133.098 86.0573C128.684 83.1146 125.19 79.1296 122.615 74.1025C120.101 69.014 118.845 63.4045 118.845 57.2738C118.845 51.2044 120.101 45.6255 122.615 40.5371C125.19 35.4486 128.684 31.433 133.098 28.4903C137.513 25.5476 142.356 24.0762 147.628 24.0762C150.387 24.0762 153.207 24.536 156.088 25.4556C159.031 26.3139 162.28 27.6933 165.836 29.5938L168.043 25.1798H169.239L170.158 45.8708L168.871 46.2386C168.013 41.518 166.664 37.625 164.825 34.5597C162.985 31.5557 160.594 29.2567 157.652 27.6627C154.709 26.0074 151.46 25.1798 147.904 25.1798C141.406 25.1798 136.409 27.9692 132.915 33.5481C129.42 39.127 127.673 47.0356 127.673 57.2738C127.673 67.4507 129.42 75.3286 132.915 80.9075C136.409 86.4251 141.375 89.1839 147.812 89.1839C150.571 89.1839 153.238 88.6015 155.813 87.4367ZM174.368 25.5476H196.531V26.2833L188.99 27.019V87.5286L196.531 88.2643V89H174.368V88.2643L181.909 87.5286V27.019L174.368 26.2833V25.5476ZM245.756 69.6884L243.457 89H198.397V88.2643L205.937 87.5286V27.019L198.397 26.2833V25.5476H243.549L244.836 42.8361L243.917 42.928L238.767 30.0536C238.215 28.6436 237.602 27.724 236.928 27.2948C236.315 26.8657 235.272 26.6511 233.801 26.6511H213.018V54.8828H226.628C228.1 54.8828 229.142 54.6376 229.755 54.1472C230.368 53.6567 230.797 52.7065 231.042 51.2964L232.606 43.8476H233.709V67.3894H232.606L231.042 59.9406C230.797 58.5306 230.368 57.5803 229.755 57.0899C229.142 56.5994 228.1 56.3542 226.628 56.3542H213.018V87.8965H233.617C235.089 87.8965 236.161 87.6819 236.836 87.2528C237.51 86.7623 238.123 85.8427 238.675 84.494L244.744 69.5964L245.756 69.6884ZM311.715 25.5476V26.2833L305.094 27.019C303.622 27.2029 302.642 27.5707 302.151 28.1225C301.661 28.6742 301.415 29.6858 301.415 31.1572V90.4714H300.496L259.206 31.8928H258.838V83.3904C258.838 84.8618 259.022 85.904 259.39 86.5171C259.758 87.0688 260.493 87.406 261.597 87.5286L268.126 88.2643V89H247.987V88.2643L254.608 87.5286C255.711 87.406 256.447 87.0688 256.815 86.5171C257.183 85.904 257.367 84.8618 257.367 83.3904V29.8697L256.999 29.318C256.14 28.0918 255.313 27.2948 254.516 26.927C253.78 26.4979 252.677 26.2833 251.205 26.2833H249.642V25.5476H263.344L299.576 76.3095H299.944V31.1572C299.944 29.6858 299.76 28.6436 299.392 28.0305C299.024 27.4175 298.289 27.0803 297.185 27.019L289.737 26.2833V25.5476H311.715ZM355.43 30.4215C359.17 33.0577 362.082 36.6748 364.167 41.2728C366.251 45.8708 367.293 51.0818 367.293 56.906C367.293 62.7301 366.251 68.0331 364.167 72.815C362.082 77.597 359.17 81.3367 355.43 84.0342C353.039 85.7507 350.281 87.0075 347.154 87.8045C344.089 88.6015 340.318 89 335.843 89H311.382V88.2643L318.922 87.5286V27.019L311.382 26.2833V25.5476H335.843C344.181 25.5476 350.71 27.1722 355.43 30.4215ZM352.12 82.4708C354.082 79.9573 355.614 76.4015 356.718 71.8035C357.883 67.1442 358.465 62.0251 358.465 56.4462C358.465 50.9899 357.913 46.1773 356.81 42.0084C355.768 37.8396 354.204 34.529 352.12 32.0768C350.403 30.0536 348.288 28.6436 345.775 27.8466C343.261 27.0496 339.675 26.6511 335.015 26.6511H326.003V87.8965H335.015C339.92 87.8965 343.598 87.498 346.051 86.701C348.503 85.904 350.526 84.494 352.12 82.4708ZM426.489 88.2643V89H403.959V88.2643L411.499 87.3447L402.855 63.803H380.601L372.968 84.1261C372.723 84.8005 372.6 85.3523 372.6 85.7814C372.6 86.4558 372.784 86.9462 373.152 87.2528C373.581 87.498 374.317 87.6819 375.359 87.8045L380.969 88.2643V89H361.381V88.2643L366.531 87.8045C368.064 87.6819 369.137 87.3754 369.75 86.8849C370.424 86.3945 371.006 85.4749 371.497 84.1261L394.027 24.0762H395.682L418.856 87.3447L426.489 88.2643ZM402.303 62.3316L392.004 34.2838H391.636L381.153 62.3316H402.303ZM474.073 87.4367C476.709 86.2719 478.916 84.7085 480.694 82.7467C483.698 79.3749 485.967 74.3477 487.499 67.6653L488.695 67.8492V89H487.499L484.373 83.9422C481.614 85.9653 478.61 87.5593 475.361 88.7241C472.173 89.8889 469.077 90.4714 466.073 90.4714C460.739 90.4714 455.834 89 451.359 86.0573C446.945 83.1146 443.451 79.1296 440.876 74.1025C438.362 69.014 437.105 63.4045 437.105 57.2738C437.105 51.2044 438.362 45.6255 440.876 40.5371C443.451 35.4486 446.945 31.433 451.359 28.4903C455.773 25.5476 460.616 24.0762 465.889 24.0762C468.648 24.0762 471.468 24.536 474.349 25.4556C477.292 26.3139 480.541 27.6933 484.097 29.5938L486.304 25.1798H487.499L488.419 45.8708L487.132 46.2386C486.273 41.518 484.924 37.625 483.085 34.5597C481.246 31.5557 478.855 29.2567 475.912 27.6627C472.97 26.0074 469.72 25.1798 466.165 25.1798C459.666 25.1798 454.67 27.9692 451.175 33.5481C447.681 39.127 445.933 47.0356 445.933 57.2738C445.933 67.4507 447.681 75.3286 451.175 80.9075C454.67 86.4251 459.635 89.1839 466.073 89.1839C468.831 89.1839 471.498 88.6015 474.073 87.4367ZM550.84 88.2643V89H528.309V88.2643L535.85 87.3447L527.206 63.803H504.952L497.319 84.1261C497.074 84.8005 496.951 85.3523 496.951 85.7814C496.951 86.4558 497.135 86.9462 497.503 87.2528C497.932 87.498 498.668 87.6819 499.71 87.8045L505.319 88.2643V89H485.732V88.2643L490.882 87.8045C492.414 87.6819 493.487 87.3754 494.1 86.8849C494.775 86.3945 495.357 85.4749 495.848 84.1261L518.378 24.0762H520.033L543.207 87.3447L550.84 88.2643ZM526.654 62.3316L516.355 34.2838H515.987L505.503 62.3316H526.654ZM564.341 87.5286V26.5592H552.203C550.731 26.5592 549.658 26.8044 548.984 27.2948C548.31 27.724 547.666 28.6436 547.053 30.0536L540.708 44.2155L539.972 44.0316L543.558 24.0762H544.11C545.459 24.6893 546.593 25.0878 547.513 25.2717C548.493 25.4556 549.72 25.5476 551.191 25.5476H586.596C588.067 25.5476 589.262 25.4556 590.182 25.2717C591.163 25.0878 592.328 24.6893 593.677 24.0762H594.228L596.251 44.0316L595.516 44.2155L589.814 30.0536C589.262 28.6436 588.649 27.724 587.975 27.2948C587.362 26.8044 586.32 26.5592 584.848 26.5592H571.422V87.5286L581.354 88.2643V89H554.41V88.2643L564.341 87.5286ZM652.902 88.2643V89H643.43C641.959 89 640.856 88.7854 640.12 88.3563C639.384 87.9271 638.618 87.0995 637.821 85.8734L623.751 63.1592C622.893 61.7492 622.157 60.8909 621.544 60.5844C620.992 60.2165 619.981 60.0326 618.509 60.0326H611.704V87.5286L619.705 88.2643V89H597.083V88.2643L604.623 87.5286V27.019L597.083 26.2833V25.5476H620.349C627.583 25.5476 633.1 27.019 636.901 29.9617C640.702 32.8431 642.603 37.0426 642.603 42.5602C642.603 46.8517 641.438 50.3768 639.108 53.1356C636.779 55.8944 633.407 57.7949 628.993 58.8371H629.085L645.913 85.1377C646.71 86.3638 647.477 87.1915 648.212 87.6206C649.009 88.0497 650.144 88.2643 651.615 88.2643H652.902ZM611.704 26.6511V58.6532H620.073C624.977 58.6532 628.594 57.3658 630.924 54.7909C633.315 52.1547 634.51 48.1391 634.51 42.7441C634.51 37.2878 633.315 33.2416 630.924 30.6054C628.533 27.9692 624.916 26.6511 620.073 26.6511H611.704ZM648.052 25.5476H670.215V26.2833L662.674 27.019V87.5286L670.215 88.2643V89H648.052V88.2643L655.593 87.5286V27.019L648.052 26.2833V25.5476ZM734.429 25.5476V26.2833L727.808 27.019C726.337 27.2029 725.356 27.5707 724.865 28.1225C724.375 28.6742 724.13 29.6858 724.13 31.1572V90.4714H723.21L681.92 31.8928H681.552V83.3904C681.552 84.8618 681.736 85.904 682.104 86.5171C682.472 87.0688 683.207 87.406 684.311 87.5286L690.84 88.2643V89H670.701V88.2643L677.322 87.5286C678.426 87.406 679.161 87.0688 679.529 86.5171C679.897 85.904 680.081 84.8618 680.081 83.3904V29.8697L679.713 29.318C678.855 28.0918 678.027 27.2948 677.23 26.927C676.494 26.4979 675.391 26.2833 673.92 26.2833H672.356V25.5476H686.058L722.29 76.3095H722.658V31.1572C722.658 29.6858 722.474 28.6436 722.107 28.0305C721.739 27.4175 721.003 27.0803 719.9 27.019L712.451 26.2833V25.5476H734.429ZM791.319 88.2643V89H768.788V88.2643L776.329 87.3447L767.685 63.803H745.431L737.798 84.1261C737.553 84.8005 737.43 85.3523 737.43 85.7814C737.43 86.4558 737.614 86.9462 737.982 87.2528C738.411 87.498 739.147 87.6819 740.189 87.8045L745.798 88.2643V89H726.211V88.2643L731.361 87.8045C732.893 87.6819 733.966 87.3754 734.579 86.8849C735.254 86.3945 735.836 85.4749 736.327 84.1261L758.857 24.0762H760.512L783.686 87.3447L791.319 88.2643ZM767.133 62.3316L756.834 34.2838H756.466L745.982 62.3316H767.133Z" fill="#675132"/>
<path d="M465.038 162.688L462.739 182H417.678V181.264L425.219 180.529V120.019L417.678 119.283V118.548H462.831L464.118 135.836L463.199 135.928L458.049 123.054C457.497 121.644 456.884 120.724 456.21 120.295C455.597 119.866 454.554 119.651 453.083 119.651H432.3V147.883H445.91C447.381 147.883 448.424 147.638 449.037 147.147C449.65 146.657 450.079 145.706 450.324 144.296L451.888 136.848H452.991V160.389H451.888L450.324 152.941C450.079 151.531 449.65 150.58 449.037 150.09C448.424 149.599 447.381 149.354 445.91 149.354H432.3V180.896H452.899C454.37 180.896 455.443 180.682 456.118 180.253C456.792 179.762 457.405 178.843 457.957 177.494L464.026 162.596L465.038 162.688ZM500.558 181.08C497.554 182.674 494.152 183.471 490.351 183.471C487.469 183.471 484.68 183.012 481.982 182.092C479.285 181.234 476.986 180.008 475.085 178.414L473.154 183.471H471.959L470.763 161.493L471.591 161.309C472.51 165.478 473.43 168.727 474.349 171.057C475.33 173.386 476.587 175.41 478.12 177.126C481.246 180.621 485.385 182.368 490.534 182.368C494.949 182.368 498.382 181.234 500.834 178.965C503.348 176.636 504.604 173.509 504.604 169.585C504.604 166.827 503.93 164.497 502.581 162.596C501.294 160.696 499.516 159.071 497.248 157.723C494.979 156.374 491.791 154.81 487.684 153.033C484.312 151.561 481.492 150.121 479.223 148.71C476.955 147.239 475.054 145.369 473.522 143.101C472.05 140.771 471.315 137.951 471.315 134.641C471.315 131.269 472.112 128.265 473.706 125.629C475.361 122.931 477.599 120.847 480.419 119.375C483.3 117.843 486.549 117.076 490.167 117.076C492.68 117.076 495.01 117.505 497.156 118.364C499.363 119.222 501.723 120.632 504.236 122.594L506.444 118.18H507.639L508.559 138.227L507.639 138.503C506.658 134.395 505.401 130.778 503.869 127.652C500.803 121.337 496.113 118.18 489.799 118.18C485.998 118.18 482.963 119.283 480.695 121.49C478.426 123.636 477.292 126.579 477.292 130.318C477.292 133.016 477.905 135.284 479.131 137.124C480.419 138.963 482.166 140.557 484.373 141.905C486.641 143.254 489.829 144.879 493.937 146.779C497.615 148.435 500.558 149.998 502.765 151.469C505.033 152.941 506.842 154.78 508.191 156.987C509.601 159.133 510.306 161.799 510.306 164.987C510.306 168.543 509.448 171.731 507.731 174.551C506.014 177.31 503.623 179.486 500.558 181.08ZM561.805 148.527C567.139 149.262 571.215 151.009 574.036 153.768C576.856 156.527 578.266 160.144 578.266 164.62C578.266 169.524 576.549 173.662 573.116 177.034C569.744 180.345 564.533 182 557.483 182H530.355V181.264L537.895 180.529V120.019L530.355 119.283V118.548H553.253C560.487 118.548 566.004 119.835 569.805 122.41C573.606 124.985 575.507 128.725 575.507 133.629C575.507 137.553 574.311 140.802 571.92 143.377C569.53 145.952 566.158 147.546 561.805 148.159V148.527ZM544.976 119.651V147.883H555.644C559.751 147.883 562.694 146.687 564.472 144.296C566.311 141.905 567.231 138.35 567.231 133.629C567.231 124.31 562.479 119.651 552.977 119.651H544.976ZM555.276 180.896C564.778 180.896 569.53 175.563 569.53 164.895C569.53 159.317 568.334 155.27 565.943 152.757C563.552 150.243 559.996 148.986 555.276 148.986H544.976V180.896H555.276ZM611.485 117.076C616.819 117.076 621.692 118.548 626.106 121.49C630.582 124.433 634.076 128.449 636.59 133.537C639.165 138.564 640.452 144.143 640.452 150.274C640.452 156.404 639.165 162.014 636.59 167.102C634.076 172.13 630.582 176.115 626.106 179.057C621.692 182 616.819 183.471 611.485 183.471C606.151 183.471 601.247 182 596.771 179.057C592.357 176.115 588.863 172.13 586.288 167.102C583.774 162.014 582.517 156.404 582.517 150.274C582.517 144.143 583.774 138.564 586.288 133.537C588.863 128.449 592.357 124.433 596.771 121.49C601.247 118.548 606.151 117.076 611.485 117.076ZM591.346 150.274C591.346 160.512 593.093 168.421 596.587 173.999C600.082 179.517 605.048 182.276 611.485 182.276C617.922 182.276 622.888 179.517 626.382 173.999C629.877 168.421 631.624 160.512 631.624 150.274C631.624 140.036 629.877 132.127 626.382 126.548C622.888 120.969 617.922 118.18 611.485 118.18C605.048 118.18 600.082 120.969 596.587 126.548C593.093 132.127 591.346 140.036 591.346 150.274ZM688.593 124.157C688.593 122.686 688.409 121.674 688.041 121.122C687.673 120.571 686.937 120.203 685.834 120.019L679.305 119.283V118.548H699.444V119.283L692.823 120.019C691.719 120.203 690.984 120.571 690.616 121.122C690.248 121.674 690.064 122.686 690.064 124.157V159.47C690.064 163.332 689.757 166.551 689.144 169.126C688.593 171.7 687.704 173.908 686.477 175.747C684.822 178.138 682.554 180.038 679.672 181.448C676.791 182.797 673.603 183.471 670.109 183.471C667.288 183.471 664.499 183.012 661.74 182.092C658.981 181.172 656.682 179.916 654.843 178.322C652.943 176.666 651.594 174.551 650.797 171.976C650 169.401 649.602 165.846 649.602 161.309V120.019L642.061 119.283V118.548H664.683V119.283L656.682 120.019V164.344C656.682 168.819 657.081 172.252 657.878 174.643C658.736 177.034 660.146 178.812 662.108 179.977C663.15 180.59 664.438 181.08 665.97 181.448C667.503 181.816 669.097 182 670.752 182C673.818 182 676.638 181.387 679.213 180.161C681.788 178.935 683.841 177.187 685.374 174.919C686.539 173.202 687.366 171.21 687.857 168.942C688.347 166.612 688.593 163.608 688.593 159.93V124.157ZM721.518 180.529V119.559H709.379C707.908 119.559 706.835 119.804 706.16 120.295C705.486 120.724 704.842 121.644 704.229 123.054L697.884 137.215L697.148 137.032L700.735 117.076H701.287C702.635 117.689 703.77 118.088 704.689 118.272C705.67 118.456 706.896 118.548 708.368 118.548H743.772C745.243 118.548 746.439 118.456 747.359 118.272C748.339 118.088 749.504 117.689 750.853 117.076H751.405L753.428 137.032L752.692 137.215L746.991 123.054C746.439 121.644 745.826 120.724 745.152 120.295C744.538 119.804 743.496 119.559 742.025 119.559H728.599V180.529L738.53 181.264V182H711.586V181.264L721.518 180.529ZM754.259 118.548H776.422V119.283L768.881 120.019V180.529L776.422 181.264V182H754.259V181.264L761.8 180.529V120.019L754.259 119.283V118.548ZM838.626 185.311C837.339 188.253 835.377 190.706 832.741 192.667C830.166 194.69 827.376 195.702 824.372 195.702C822.165 195.702 820.142 195.15 818.303 194.047C816.464 192.943 814.87 191.533 813.521 189.817C810.272 185.586 807.145 183.471 804.141 183.471C802.792 183.471 801.505 183.809 800.279 184.483C799.053 185.157 798.44 186.016 798.44 187.058C798.44 187.487 798.623 188.192 798.991 189.173C799.42 190.46 799.635 191.38 799.635 191.932C799.635 192.974 799.267 193.863 798.531 194.599C797.796 195.396 796.876 195.794 795.773 195.794C794.73 195.794 793.872 195.396 793.198 194.599C792.523 193.863 792.186 192.913 792.186 191.748C792.186 189.847 793.045 188.131 794.761 186.598C796.478 185.065 798.746 183.778 801.566 182.736C797.213 181.693 793.32 179.64 789.887 176.574C786.454 173.448 783.757 169.616 781.795 165.079C779.833 160.543 778.852 155.607 778.852 150.274C778.852 144.143 780.109 138.564 782.622 133.537C785.197 128.449 788.692 124.433 793.106 121.49C797.581 118.548 802.486 117.076 807.819 117.076C813.153 117.076 818.027 118.548 822.441 121.49C826.916 124.433 830.411 128.449 832.925 133.537C835.499 138.564 836.787 144.143 836.787 150.274C836.787 155.853 835.714 161.002 833.568 165.723C831.484 170.444 828.541 174.337 824.74 177.402C821 180.467 816.801 182.368 812.142 183.104C813.797 183.778 815.789 184.728 818.119 185.954C821.184 187.426 823.575 188.468 825.292 189.081C827.008 189.755 828.725 190.092 830.442 190.092C832.403 190.092 833.905 189.633 834.948 188.713C836.051 187.793 836.971 186.475 837.706 184.759L838.626 185.311ZM787.68 150.274C787.68 160.512 789.427 168.421 792.922 173.999C796.416 179.578 801.382 182.368 807.819 182.368C814.257 182.368 819.222 179.578 822.717 173.999C826.211 168.421 827.959 160.512 827.959 150.274C827.959 140.036 826.211 132.127 822.717 126.548C819.222 120.969 814.257 118.18 807.819 118.18C801.382 118.18 796.416 120.969 792.922 126.548C789.427 132.127 787.68 140.036 787.68 150.274ZM884.927 124.157C884.927 122.686 884.743 121.674 884.375 121.122C884.008 120.571 883.272 120.203 882.168 120.019L875.639 119.283V118.548H895.778V119.283L889.157 120.019C888.054 120.203 887.318 120.571 886.95 121.122C886.582 121.674 886.399 122.686 886.399 124.157V159.47C886.399 163.332 886.092 166.551 885.479 169.126C884.927 171.7 884.038 173.908 882.812 175.747C881.157 178.138 878.888 180.038 876.007 181.448C873.126 182.797 869.938 183.471 866.443 183.471C863.623 183.471 860.834 183.012 858.075 182.092C855.316 181.172 853.017 179.916 851.178 178.322C849.277 176.666 847.929 174.551 847.132 171.976C846.335 169.401 845.936 165.846 845.936 161.309V120.019L838.395 119.283V118.548H861.018V119.283L853.017 120.019V164.344C853.017 168.819 853.416 172.252 854.213 174.643C855.071 177.034 856.481 178.812 858.443 179.977C859.485 180.59 860.772 181.08 862.305 181.448C863.838 181.816 865.432 182 867.087 182C870.152 182 872.972 181.387 875.547 180.161C878.122 178.935 880.176 177.187 881.709 174.919C882.873 173.202 883.701 171.21 884.191 168.942C884.682 166.612 884.927 163.608 884.927 159.93V124.157ZM942.314 162.688L940.015 182H894.954V181.264L902.495 180.529V120.019L894.954 119.283V118.548H940.107L941.394 135.836L940.475 135.928L935.325 123.054C934.773 121.644 934.16 120.724 933.486 120.295C932.873 119.866 931.83 119.651 930.359 119.651H909.576V147.883H923.186C924.657 147.883 925.7 147.638 926.313 147.147C926.926 146.657 927.355 145.706 927.6 144.296L929.163 136.848H930.267V160.389H929.163L927.6 152.941C927.355 151.531 926.926 150.58 926.313 150.09C925.7 149.599 924.657 149.354 923.186 149.354H909.576V180.896H930.175C931.646 180.896 932.719 180.682 933.394 180.253C934.068 179.762 934.681 178.843 935.233 177.494L941.302 162.596L942.314 162.688ZM948.959 196.346C950.307 195.058 951.411 193.526 952.269 191.748C953.127 189.97 953.557 188.315 953.557 186.782C953.557 185.556 953.311 184.606 952.821 183.931C952.392 183.257 951.687 182.552 950.706 181.816C949.786 181.019 949.112 180.375 948.683 179.885C948.315 179.333 948.131 178.567 948.131 177.586C948.131 176.237 948.529 175.134 949.326 174.275C950.185 173.356 951.227 172.896 952.453 172.896C954.108 172.896 955.426 173.54 956.407 174.827C957.45 176.053 957.971 177.831 957.971 180.161C957.971 183.41 957.235 186.445 955.764 189.265C954.292 192.085 952.147 194.599 949.326 196.806L948.959 196.346Z" fill="#675132"/>
<path d="M274.162 328.641C274.162 329.929 273.733 331.001 272.874 331.86C272.077 332.657 271.035 333.055 269.748 333.055C268.46 333.055 267.387 332.657 266.529 331.86C265.732 331.001 265.334 329.929 265.334 328.641C265.334 327.354 265.732 326.311 266.529 325.514C267.387 324.656 268.46 324.227 269.748 324.227C271.035 324.227 272.077 324.656 272.874 325.514C273.733 326.311 274.162 327.354 274.162 328.641ZM270.667 349.976C271.035 357.946 271.403 363.8 271.771 367.54C272.813 377.962 273.334 384.154 273.334 386.116C273.334 387.526 272.997 388.63 272.323 389.427C271.71 390.224 270.851 390.622 269.748 390.622C268.583 390.622 267.694 390.254 267.081 389.519C266.468 388.783 266.161 387.741 266.161 386.392C266.161 385.472 266.376 382.714 266.805 378.116C267.295 373.088 267.602 369.686 267.725 367.908C268.215 362.084 268.736 353.041 269.288 340.78H270.208L270.667 349.976ZM325.008 348.688L322.709 368H277.648V367.264L285.189 366.529V306.019L277.648 305.283V304.548H322.801L324.088 321.836L323.169 321.928L318.019 309.054C317.467 307.644 316.854 306.724 316.18 306.295C315.567 305.866 314.524 305.651 313.053 305.651H292.27V333.883H305.88C307.351 333.883 308.394 333.638 309.007 333.147C309.62 332.657 310.049 331.706 310.294 330.296L311.858 322.848H312.961V346.389H311.858L310.294 338.941C310.049 337.531 309.62 336.58 309.007 336.09C308.394 335.599 307.351 335.354 305.88 335.354H292.27V366.896H312.869C314.34 366.896 315.413 366.682 316.088 366.253C316.762 365.762 317.375 364.843 317.927 363.494L323.996 348.596L325.008 348.688ZM360.528 367.08C357.524 368.674 354.122 369.471 350.321 369.471C347.439 369.471 344.65 369.012 341.952 368.092C339.255 367.234 336.956 366.008 335.055 364.414L333.124 369.471H331.929L330.733 347.493L331.561 347.309C332.48 351.478 333.4 354.727 334.319 357.057C335.3 359.386 336.557 361.41 338.09 363.126C341.216 366.621 345.355 368.368 350.504 368.368C354.919 368.368 358.352 367.234 360.804 364.965C363.318 362.636 364.574 359.509 364.574 355.585C364.574 352.827 363.9 350.497 362.551 348.596C361.264 346.696 359.486 345.071 357.218 343.723C354.949 342.374 351.761 340.81 347.654 339.033C344.282 337.561 341.462 336.121 339.193 334.71C336.925 333.239 335.025 331.369 333.492 329.101C332.02 326.771 331.285 323.951 331.285 320.641C331.285 317.269 332.082 314.265 333.676 311.629C335.331 308.931 337.569 306.847 340.389 305.375C343.27 303.843 346.52 303.076 350.137 303.076C352.65 303.076 354.98 303.505 357.126 304.364C359.333 305.222 361.693 306.632 364.206 308.594L366.414 304.18H367.609L368.529 324.227L367.609 324.503C366.628 320.395 365.371 316.778 363.839 313.652C360.773 307.337 356.083 304.18 349.769 304.18C345.968 304.18 342.933 305.283 340.665 307.49C338.396 309.636 337.262 312.579 337.262 316.318C337.262 319.016 337.875 321.284 339.101 323.124C340.389 324.963 342.136 326.557 344.343 327.905C346.611 329.254 349.799 330.879 353.907 332.779C357.585 334.435 360.528 335.998 362.735 337.469C365.003 338.941 366.812 340.78 368.161 342.987C369.571 345.133 370.276 347.799 370.276 350.987C370.276 354.543 369.418 357.731 367.701 360.551C365.984 363.31 363.593 365.486 360.528 367.08ZM455.524 306.019V366.529L463.525 367.264V368H440.903V367.264L448.443 366.529V310.525H448.075L425.913 369.471H424.993L400.256 310.433H399.888V362.39C399.888 363.862 400.072 364.904 400.44 365.517C400.808 366.069 401.544 366.406 402.647 366.529L409.176 367.264V368H389.037V367.264L395.658 366.529C396.762 366.406 397.497 366.069 397.865 365.517C398.233 364.904 398.417 363.862 398.417 362.39V307.214C397.988 306.479 397.436 305.988 396.762 305.743C396.149 305.437 395.229 305.283 394.003 305.283H389.773V304.548H405.498L428.12 358.528H428.488L448.719 304.548H463.525V305.283L455.524 306.019ZM512.272 348.688L509.973 368H464.913V367.264L472.453 366.529V306.019L464.913 305.283V304.548H510.065L511.353 321.836L510.433 321.928L505.283 309.054C504.731 307.644 504.118 306.724 503.444 306.295C502.831 305.866 501.789 305.651 500.317 305.651H479.534V333.883H493.144C494.616 333.883 495.658 333.638 496.271 333.147C496.884 332.657 497.313 331.706 497.559 330.296L499.122 322.848H500.225V346.389H499.122L497.559 338.941C497.313 337.531 496.884 336.58 496.271 336.09C495.658 335.599 494.616 335.354 493.144 335.354H479.534V366.896H500.133C501.605 366.896 502.678 366.682 503.352 366.253C504.026 365.762 504.639 364.843 505.191 363.494L511.261 348.596L512.272 348.688ZM487.351 295.076L493.328 287.535L494.616 285.88C495.413 284.96 495.934 284.286 496.179 283.857C496.486 283.366 496.639 282.906 496.639 282.477C496.639 281.68 496.394 281.006 495.903 280.454C495.474 279.902 494.861 279.626 494.064 279.626C492.593 279.626 491.642 280.27 491.213 281.558L487.075 294.984L487.351 295.076ZM577.863 367.264V368H554.414V367.264L562.414 366.529L543.01 338.389L524.343 363.586C523.607 364.567 523.239 365.272 523.239 365.701C523.239 366.008 523.423 366.253 523.791 366.437C524.22 366.559 524.894 366.682 525.814 366.805L531.056 367.264V368H512.296V367.264L516.986 366.896C518.457 366.774 519.591 366.498 520.388 366.069C521.185 365.578 522.013 364.751 522.871 363.586L542.275 337.285L520.756 306.019L513.215 305.283V304.548H536.665V305.283L528.665 306.019L547.149 332.871L564.897 308.962C565.633 307.919 566 307.214 566 306.847C566 306.54 565.786 306.325 565.357 306.203C564.989 306.019 564.345 305.866 563.426 305.743L558.184 305.283V304.548H576.944V305.283L572.254 305.651C570.782 305.774 569.648 306.08 568.851 306.571C568.054 307 567.227 307.797 566.368 308.962L547.884 333.975L570.323 366.529L577.863 367.264ZM576.102 304.548H598.264V305.283L590.723 306.019V366.529L598.264 367.264V368H576.102V367.264L583.642 366.529V306.019L576.102 305.283V304.548ZM637.662 366.437C640.299 365.272 642.506 363.709 644.284 361.747C647.288 358.375 649.556 353.348 651.089 346.665L652.284 346.849V368H651.089L647.962 362.942C645.203 364.965 642.199 366.559 638.95 367.724C635.762 368.889 632.666 369.471 629.662 369.471C624.328 369.471 619.424 368 614.948 365.057C610.534 362.115 607.04 358.13 604.465 353.102C601.951 348.014 600.695 342.404 600.695 336.274C600.695 330.204 601.951 324.626 604.465 319.537C607.04 314.449 610.534 310.433 614.948 307.49C619.362 304.548 624.206 303.076 629.478 303.076C632.237 303.076 635.057 303.536 637.938 304.456C640.881 305.314 644.13 306.693 647.686 308.594L649.893 304.18H651.089L652.008 324.871L650.721 325.239C649.862 320.518 648.514 316.625 646.675 313.56C644.835 310.556 642.444 308.257 639.502 306.663C636.559 305.007 633.31 304.18 629.754 304.18C623.255 304.18 618.259 306.969 614.764 312.548C611.27 318.127 609.523 326.036 609.523 336.274C609.523 346.451 611.27 354.329 614.764 359.908C618.259 365.425 623.225 368.184 629.662 368.184C632.421 368.184 635.088 367.602 637.662 366.437ZM686.289 303.076C691.623 303.076 696.497 304.548 700.911 307.49C705.386 310.433 708.881 314.449 711.394 319.537C713.969 324.564 715.257 330.143 715.257 336.274C715.257 342.404 713.969 348.014 711.394 353.102C708.881 358.13 705.386 362.115 700.911 365.057C696.497 368 691.623 369.471 686.289 369.471C680.956 369.471 676.051 368 671.576 365.057C667.162 362.115 663.667 358.13 661.092 353.102C658.579 348.014 657.322 342.404 657.322 336.274C657.322 330.143 658.579 324.564 661.092 319.537C663.667 314.449 667.162 310.433 671.576 307.49C676.051 304.548 680.956 303.076 686.289 303.076ZM666.15 336.274C666.15 346.512 667.897 354.421 671.392 359.999C674.886 365.517 679.852 368.276 686.289 368.276C692.726 368.276 697.692 365.517 701.187 359.999C704.681 354.421 706.428 346.512 706.428 336.274C706.428 326.036 704.681 318.127 701.187 312.548C697.692 306.969 692.726 304.18 686.289 304.18C679.852 304.18 674.886 306.969 671.392 312.548C667.897 318.127 666.15 326.036 666.15 336.274ZM724.671 343.171C724.303 335.201 723.935 329.346 723.568 325.606C722.525 315.184 722.004 308.992 722.004 307.031C722.004 305.62 722.311 304.517 722.924 303.72C723.598 302.923 724.487 302.524 725.591 302.524C726.755 302.524 727.644 302.892 728.257 303.628C728.871 304.364 729.177 305.406 729.177 306.755C729.177 307.674 728.962 310.433 728.533 315.031C728.043 320.058 727.736 323.461 727.614 325.239C727.123 331.063 726.602 340.105 726.05 352.367H725.131L724.671 343.171ZM721.177 364.506C721.177 363.218 721.575 362.176 722.372 361.379C723.23 360.521 724.303 360.091 725.591 360.091C726.878 360.091 727.92 360.521 728.717 361.379C729.576 362.176 730.005 363.218 730.005 364.506C730.005 365.793 729.576 366.866 728.717 367.724C727.92 368.521 726.878 368.92 725.591 368.92C724.303 368.92 723.23 368.521 722.372 367.724C721.575 366.866 721.177 365.793 721.177 364.506Z" fill="#675132"/>
<path d="M173.038 255.688L170.739 275H125.678V274.264L133.219 273.529V213.019L125.678 212.283V211.548H170.831L172.118 228.836L171.199 228.928L166.049 216.054C165.497 214.644 164.884 213.724 164.21 213.295C163.597 212.866 162.554 212.651 161.083 212.651H140.3V240.883H153.91C155.381 240.883 156.424 240.638 157.037 240.147C157.65 239.657 158.079 238.706 158.324 237.296L159.888 229.848H160.991V253.389H159.888L158.324 245.941C158.079 244.531 157.65 243.58 157.037 243.09C156.424 242.599 155.381 242.354 153.91 242.354H140.3V273.896H160.899C162.37 273.896 163.443 273.682 164.118 273.253C164.792 272.762 165.405 271.843 165.957 270.494L172.026 255.596L173.038 255.688ZM208.558 274.08C205.554 275.674 202.152 276.471 198.351 276.471C195.469 276.471 192.68 276.012 189.982 275.092C187.285 274.234 184.986 273.008 183.085 271.414L181.154 276.471H179.959L178.763 254.493L179.591 254.309C180.51 258.478 181.43 261.727 182.349 264.057C183.33 266.386 184.587 268.41 186.12 270.126C189.246 273.621 193.385 275.368 198.534 275.368C202.949 275.368 206.382 274.234 208.834 271.965C211.348 269.636 212.604 266.509 212.604 262.585C212.604 259.827 211.93 257.497 210.581 255.596C209.294 253.696 207.516 252.071 205.248 250.723C202.979 249.374 199.791 247.81 195.684 246.033C192.312 244.561 189.492 243.121 187.223 241.71C184.955 240.239 183.054 238.369 181.522 236.101C180.05 233.771 179.315 230.951 179.315 227.641C179.315 224.269 180.112 221.265 181.706 218.629C183.361 215.931 185.599 213.847 188.419 212.375C191.3 210.843 194.549 210.076 198.167 210.076C200.68 210.076 203.01 210.505 205.156 211.364C207.363 212.222 209.723 213.632 212.236 215.594L214.444 211.18H215.639L216.559 231.227L215.639 231.503C214.658 227.395 213.401 223.778 211.869 220.652C208.803 214.337 204.113 211.18 197.799 211.18C193.998 211.18 190.963 212.283 188.695 214.49C186.426 216.636 185.292 219.579 185.292 223.318C185.292 226.016 185.905 228.284 187.131 230.124C188.419 231.963 190.166 233.557 192.373 234.905C194.641 236.254 197.829 237.879 201.937 239.779C205.615 241.435 208.558 242.998 210.765 244.469C213.033 245.941 214.842 247.78 216.191 249.987C217.601 252.133 218.306 254.799 218.306 257.987C218.306 261.543 217.448 264.731 215.731 267.551C214.014 270.31 211.623 272.486 208.558 274.08ZM270.265 274.08C267.261 275.674 263.858 276.471 260.057 276.471C257.176 276.471 254.386 276.012 251.689 275.092C248.991 274.234 246.692 273.008 244.792 271.414L242.861 276.471H241.665L240.47 254.493L241.297 254.309C242.217 258.478 243.136 261.727 244.056 264.057C245.037 266.386 246.294 268.41 247.826 270.126C250.953 273.621 255.091 275.368 260.241 275.368C264.655 275.368 268.088 274.234 270.541 271.965C273.054 269.636 274.311 266.509 274.311 262.585C274.311 259.827 273.637 257.497 272.288 255.596C271 253.696 269.222 252.071 266.954 250.723C264.686 249.374 261.498 247.81 257.39 246.033C254.018 244.561 251.198 243.121 248.93 241.71C246.662 240.239 244.761 238.369 243.228 236.101C241.757 233.771 241.021 230.951 241.021 227.641C241.021 224.269 241.818 221.265 243.412 218.629C245.068 215.931 247.305 213.847 250.125 212.375C253.007 210.843 256.256 210.076 259.873 210.076C262.387 210.076 264.716 210.505 266.862 211.364C269.069 212.222 271.429 213.632 273.943 215.594L276.15 211.18H277.346L278.265 231.227L277.346 231.503C276.365 227.395 275.108 223.778 273.575 220.652C270.51 214.337 265.82 211.18 259.505 211.18C255.704 211.18 252.67 212.283 250.401 214.49C248.133 216.636 246.999 219.579 246.999 223.318C246.999 226.016 247.612 228.284 248.838 230.124C250.125 231.963 251.873 233.557 254.08 234.905C256.348 236.254 259.536 237.879 263.644 239.779C267.322 241.435 270.265 242.998 272.472 244.469C274.74 245.941 276.549 247.78 277.897 249.987C279.307 252.133 280.012 254.799 280.012 257.987C280.012 261.543 279.154 264.731 277.438 267.551C275.721 270.31 273.33 272.486 270.265 274.08ZM339.722 274.264V275H317.192V274.264L324.732 273.345L316.088 249.803H293.834L286.201 270.126C285.956 270.8 285.833 271.352 285.833 271.781C285.833 272.456 286.017 272.946 286.385 273.253C286.814 273.498 287.55 273.682 288.592 273.805L294.202 274.264V275H274.614V274.264L279.764 273.805C281.297 273.682 282.369 273.375 282.982 272.885C283.657 272.394 284.239 271.475 284.73 270.126L307.26 210.076H308.915L332.089 273.345L339.722 274.264ZM315.536 248.332L305.237 220.284H304.869L294.385 248.332H315.536ZM367.972 241.527C373.306 242.262 377.383 244.009 380.203 246.768C383.023 249.527 384.433 253.144 384.433 257.62C384.433 262.524 382.716 266.662 379.283 270.034C375.911 273.345 370.7 275 363.65 275H336.522V274.264L344.063 273.529V213.019L336.522 212.283V211.548H359.42C366.654 211.548 372.172 212.835 375.973 215.41C379.774 217.985 381.674 221.725 381.674 226.629C381.674 230.553 380.479 233.802 378.088 236.377C375.697 238.952 372.325 240.546 367.972 241.159V241.527ZM351.143 212.651V240.883H361.811C365.918 240.883 368.861 239.687 370.639 237.296C372.478 234.905 373.398 231.35 373.398 226.629C373.398 217.31 368.647 212.651 359.144 212.651H351.143ZM361.443 273.896C370.946 273.896 375.697 268.563 375.697 257.895C375.697 252.317 374.501 248.27 372.11 245.757C369.719 243.243 366.164 241.986 361.443 241.986H351.143V273.896H361.443ZM417.652 210.076C422.986 210.076 427.86 211.548 432.274 214.49C436.749 217.433 440.244 221.449 442.757 226.537C445.332 231.564 446.62 237.143 446.62 243.274C446.62 249.404 445.332 255.014 442.757 260.102C440.244 265.13 436.749 269.115 432.274 272.057C427.86 275 422.986 276.471 417.652 276.471C412.318 276.471 407.414 275 402.939 272.057C398.524 269.115 395.03 265.13 392.455 260.102C389.942 255.014 388.685 249.404 388.685 243.274C388.685 237.143 389.942 231.564 392.455 226.537C395.03 221.449 398.524 217.433 402.939 214.49C407.414 211.548 412.318 210.076 417.652 210.076ZM397.513 243.274C397.513 253.512 399.26 261.421 402.755 266.999C406.249 272.517 411.215 275.276 417.652 275.276C424.089 275.276 429.055 272.517 432.55 266.999C436.044 261.421 437.791 253.512 437.791 243.274C437.791 233.036 436.044 225.127 432.55 219.548C429.055 213.969 424.089 211.18 417.652 211.18C411.215 211.18 406.249 213.969 402.755 219.548C399.26 225.127 397.513 233.036 397.513 243.274ZM504.878 274.264V275H495.406C493.934 275 492.831 274.785 492.095 274.356C491.359 273.927 490.593 273.099 489.796 271.873L475.726 249.159C474.868 247.749 474.132 246.891 473.519 246.584C472.967 246.217 471.956 246.033 470.485 246.033H463.68V273.529L471.68 274.264V275H449.058V274.264L456.599 273.529V213.019L449.058 212.283V211.548H472.324C479.558 211.548 485.076 213.019 488.877 215.962C492.678 218.843 494.578 223.043 494.578 228.56C494.578 232.852 493.413 236.377 491.084 239.136C488.754 241.894 485.382 243.795 480.968 244.837H481.06L497.889 271.138C498.686 272.364 499.452 273.191 500.188 273.621C500.985 274.05 502.119 274.264 503.59 274.264H504.878ZM463.68 212.651V244.653H472.048C476.952 244.653 480.57 243.366 482.899 240.791C485.29 238.155 486.486 234.139 486.486 228.744C486.486 223.288 485.29 219.242 482.899 216.605C480.508 213.969 476.891 212.651 472.048 212.651H463.68ZM502.234 270.586C502.234 269.237 502.664 268.134 503.522 267.275C504.442 266.356 505.606 265.896 507.016 265.896C508.426 265.896 509.561 266.356 510.419 267.275C511.277 268.134 511.706 269.237 511.706 270.586C511.706 271.935 511.277 273.069 510.419 273.988C509.561 274.908 508.426 275.368 507.016 275.368C505.606 275.368 504.442 274.908 503.522 273.988C502.664 273.069 502.234 271.935 502.234 270.586ZM518.001 270.586C518.001 269.237 518.43 268.134 519.288 267.275C520.208 266.356 521.372 265.896 522.783 265.896C524.193 265.896 525.327 266.356 526.185 267.275C527.043 268.134 527.472 269.237 527.472 270.586C527.472 271.935 527.043 273.069 526.185 273.988C525.327 274.908 524.193 275.368 522.783 275.368C521.372 275.368 520.208 274.908 519.288 273.988C518.43 273.069 518.001 271.935 518.001 270.586ZM533.767 270.586C533.767 269.237 534.196 268.134 535.054 267.275C535.974 266.356 537.139 265.896 538.549 265.896C539.959 265.896 541.093 266.356 541.951 267.275C542.809 268.134 543.239 269.237 543.239 270.586C543.239 271.935 542.809 273.069 541.951 273.988C541.093 274.908 539.959 275.368 538.549 275.368C537.139 275.368 535.974 274.908 535.054 273.988C534.196 273.069 533.767 271.935 533.767 270.586Z" fill="#675132"/>
<path d="M4 150L336 150" stroke="#675132" stroke-width="2" stroke-linecap="round" stroke-linejoin="round"/>
<path d="M717.603 270.782C715.624 268.538 713.071 265.65 711.929 264.365C710.788 263.079 709.86 261.825 709.868 261.58C709.875 261.335 708.681 260.343 707.214 259.378C705.747 258.412 702.808 256.031 700.686 254.09C697.868 251.515 695.734 250.13 692.802 248.974C687.926 247.052 686.364 246.901 682.085 247.935C679.932 248.457 676.384 248.671 671.946 248.551C664.942 248.361 663.328 248.666 660.081 250.813C659.117 251.45 655.892 252.463 652.916 253.063C649.94 253.663 646.045 254.586 644.261 255.116C642.477 255.645 640.502 256.069 639.87 256.062C639.242 256.055 637.545 256.672 636.105 257.436C634.665 258.199 631.671 259.38 629.452 260.053C625.758 261.181 625.058 261.222 621.096 260.563C617.63 259.985 616.305 259.992 614.418 260.581C612.791 261.09 610.675 261.189 607.57 260.895C602.862 260.452 596.798 261.331 590.098 263.432C583.928 265.366 581.024 265.811 580.061 264.974C579.582 264.557 579.207 263.679 579.231 263.016C579.296 261.108 583.682 256.866 587.731 254.794C591.047 253.098 591.843 252.918 595.078 253.14C597.075 253.277 600.649 253.132 603.02 252.815C605.394 252.502 608.573 252.138 610.086 252.008C613.439 251.721 616.217 249.664 618.05 246.103C619.111 244.043 619.351 242.59 619.487 237.331C619.601 232.979 619.395 230.333 618.821 228.792C618.175 227.053 618.142 226.254 618.669 225.202C619.043 224.456 619.594 223.854 619.9 223.864C620.7 223.888 622.162 226.265 622.125 227.476C622.107 228.048 622.426 229.713 622.834 231.181C623.242 232.648 623.702 234.805 623.858 235.972C624.014 237.14 624.364 238.103 624.638 238.111C624.912 238.12 626.221 236.318 627.549 234.109C628.877 231.9 631.192 228.641 632.692 226.868C634.191 225.091 635.428 223.37 635.438 223.04C635.448 222.71 636.029 221.877 636.73 221.185C637.431 220.496 638.189 218.983 638.416 217.821C638.673 216.522 639.184 215.658 639.755 215.565C641.355 215.313 641.256 217.475 639.497 221.154C637.274 225.799 636.819 227.202 637.527 227.223C637.846 227.233 638.288 226.97 638.509 226.638C638.733 226.305 641.019 225.109 643.593 223.979C646.168 222.848 648.873 221.401 649.61 220.76C650.879 219.659 652.722 219.7 652.687 220.83C652.662 221.637 647.922 225.368 644.137 227.565C639.453 230.28 639.297 230.357 636.313 231.554C634.694 232.202 633.361 233.213 632.821 234.199C632.337 235.077 631.608 236.176 631.201 236.638C629.446 238.626 624.941 247.761 624.89 249.434L624.834 251.251L629.278 251.077C633.296 250.917 642.192 248.608 644.124 247.219C645.057 246.546 652.818 244.617 654.386 244.665C655.151 244.688 659.653 243.664 664.392 242.392L673.007 240.077L683.597 240.255C690.32 240.367 696.188 240.148 699.655 239.655C708.266 238.427 712.667 238.065 719.873 237.998C727.581 237.923 730.707 236.998 734.395 233.699C737.702 230.743 738.594 228.898 738.752 224.695C738.875 221.416 739.011 221.036 740.034 221.068C740.943 221.096 741.201 221.537 741.292 223.221C741.356 224.386 741.651 225.347 741.951 225.356C742.251 225.365 744.407 223.936 746.739 222.182C749.071 220.428 751.631 218.822 752.425 218.614C753.22 218.406 754.852 217.523 756.056 216.649C758.305 215.015 759.407 215.061 759.354 216.788C759.322 217.836 755.841 221.27 754.84 221.24C754.078 221.216 747.006 225.518 746.013 226.609C744.86 227.877 742.244 232.975 742.211 234.021C742.172 235.301 743.039 235.234 749.196 233.475C752.138 232.635 755.515 231.975 756.698 232.012C757.883 232.048 759.968 231.584 761.333 230.985C763.358 230.092 764.11 230.011 765.405 230.545C766.278 230.904 766.826 231.452 766.615 231.763C766.1 232.527 760.765 234.958 759.671 234.925C759.19 234.91 756.472 235.844 753.635 236.998C750.798 238.156 747.218 239.296 745.679 239.535C744.144 239.774 742.104 240.236 741.149 240.561C739.331 241.181 735.447 241.923 731.065 242.489C729.643 242.671 725.881 243.395 722.711 244.089C714.507 245.892 708.111 246.877 705.144 246.796C702.45 246.722 700.193 247.593 701.553 248.184C702.198 248.465 707.573 252.875 711.095 256.018C713.921 258.537 717.28 260.124 721.907 261.127C724.563 261.701 727.736 262.468 728.963 262.83C730.187 263.191 733.659 263.483 736.677 263.478C742.561 263.467 744.105 263.892 742.929 265.207C742.546 265.632 741.556 265.966 740.73 265.943C737.721 265.867 737.375 266.714 739.584 268.761C740.701 269.798 741.476 270.856 741.302 271.114C740.73 271.964 739.052 271.542 738.361 270.373C737.988 269.743 737.289 269.212 736.808 269.198C736.33 269.183 734.685 268.498 733.157 267.675C731.361 266.708 729.41 266.146 727.641 266.085C726.137 266.033 723.114 265.56 720.925 265.034C718.737 264.508 716.881 264.074 716.801 264.071C716.721 264.069 716.646 264.434 716.632 264.883C716.619 265.332 717.504 266.418 718.603 267.297C720.958 269.182 724.02 273.65 723.495 274.435C722.669 275.673 721.01 274.648 717.603 270.782Z" fill="#C69160"/>
<path d="M49.0006 341.97C49.0199 341.68 49.4309 341.379 50.0847 341.251C50.5867 341.15 52.5203 340.745 54.3767 340.349C56.2331 339.953 58.7764 339.417 60.0314 339.155C61.2837 338.896 62.9691 338.436 63.7773 338.133C64.5828 337.833 65.4737 337.568 65.7496 337.554C66.4088 337.518 69.4817 336.614 71.9863 335.715C73.5559 335.152 74.8551 334.909 78.1238 334.589C82.3386 334.179 83.1468 334.032 83.133 333.676C83.1247 333.441 78.8823 331.57 77.2356 331.075C75.084 330.43 73.611 330.244 69.7934 330.149C65.1483 330.031 63.9815 329.922 63.3774 329.512C62.9471 329.22 62.9415 329.165 63.3084 328.766C63.6698 328.373 64.1194 328.343 68.3397 328.438C74.0634 328.569 73.862 328.575 73.8482 328.179C73.8372 327.897 72.3863 326.974 66.8061 323.708C66.202 323.356 65.1924 322.858 64.558 322.604C63.9235 322.353 63.2312 322.039 63.0188 321.91C62.8064 321.782 62.1885 321.468 61.6534 321.203C60.5941 320.683 60.2135 320.129 60.6107 319.702C60.8865 319.41 63.7718 320.156 64.4862 320.705C64.7014 320.869 65.2779 321.151 65.7717 321.32C66.2626 321.492 67.1343 322.025 67.708 322.506C68.2818 322.987 69.6748 323.829 70.8057 324.375C71.9367 324.922 73.6579 325.848 74.6344 326.435C76.2646 327.414 78.6203 328.329 80.5622 328.739C81.6738 328.974 84.8046 330.1 85.4032 330.479C85.6845 330.657 86.33 330.788 86.8403 330.769C87.3506 330.75 88.4981 330.936 89.3863 331.173C90.2745 331.414 91.3558 331.597 91.7888 331.583C92.5198 331.559 93.9901 331.955 94.9665 332.45C95.6837 332.81 97.2808 333.097 99.6392 333.283C100.892 333.381 102.831 333.638 103.948 333.857C105.065 334.075 106.836 334.362 107.881 334.485C111.318 334.89 112.289 335.015 114.471 335.357C115.657 335.543 117.792 335.873 119.218 336.087C120.644 336.3 122.418 336.666 123.157 336.901C123.897 337.136 125.361 337.483 126.409 337.671C127.458 337.86 129.058 338.147 129.965 338.314C132.699 338.811 136.8 339.155 139.073 339.079C140.251 339.038 142.32 339.125 143.674 339.275C145.142 339.439 149.472 339.508 154.399 339.442C167.024 339.273 166.428 339.314 178.311 337.964C179.313 337.849 180.129 337.674 180.126 337.576C180.115 337.248 177.707 335.961 174.979 334.83C172.477 333.791 171.838 333.491 170.486 332.715C168.93 331.821 164.605 330.13 163.063 329.813C162.084 329.611 160.972 329.304 160.594 329.132C159.847 328.791 154.198 328.026 152.799 328.078C152.325 328.094 151.583 328.017 151.152 327.905C150.722 327.793 148.659 327.414 146.565 327.061C144.471 326.709 141.724 326.116 140.464 325.749C139.2 325.383 137.655 325.012 137.027 324.924C136.4 324.837 135.085 324.624 134.108 324.446C130.917 323.872 129.838 323.878 127.703 324.503C126.614 324.823 125.074 325.107 124.274 325.137C123.475 325.167 121.938 325.463 120.854 325.796C119.467 326.222 118.802 326.323 118.606 326.146C118.278 325.845 118.474 325.135 118.923 324.979C120.093 324.572 125.309 322.94 126.175 322.711C127.105 322.465 126.9 322.036 125.679 321.667C125.135 321.503 124.509 321.224 124.283 321.047C124.059 320.869 123.127 320.429 122.214 320.077C121.298 319.724 120.027 319.099 119.387 318.683C118.747 318.268 117.638 317.661 116.923 317.339C114.54 316.26 114.526 315.522 116.896 315.754C118.154 315.877 119.621 316.489 120.746 317.353C122.272 318.522 127.985 320.733 130.448 321.11C131.146 321.216 132.71 321.558 133.929 321.872C135.145 322.186 136.635 322.501 137.233 322.569C137.832 322.637 139.244 322.962 140.367 323.296C144.038 324.386 145.362 324.651 147.958 324.804C149.365 324.886 151.398 325.08 152.482 325.238C154.598 325.545 155.963 325.572 155.952 325.307C155.949 325.217 155.221 324.427 154.333 323.555C153.445 322.684 152.17 321.427 151.5 320.763C150.83 320.101 150.016 319.063 149.688 318.456C149.147 317.459 146.921 315.134 145.453 314.038C144.237 313.131 141.283 311.521 140.858 311.538C140.612 311.546 140.121 311.374 139.771 311.15C139.421 310.926 138.444 310.529 137.603 310.278C136.591 309.975 136.039 309.666 135.97 309.371C135.876 308.972 135.992 308.942 136.966 309.062C138.817 309.289 142.461 310.122 142.833 310.406C143.026 310.554 143.724 310.882 144.389 311.136C146.772 312.046 150.725 315.352 151.883 317.41C154.669 322.353 161.598 326.692 168.423 327.769C171.198 328.206 172.902 328.843 176.968 330.966C178.243 331.633 180.033 332.458 180.946 332.802C181.862 333.144 184.049 334.013 185.809 334.731C190.879 336.8 191.207 336.846 201.264 336.633C206.375 336.526 211.313 336.548 213.247 336.699C215.056 336.838 218.584 337.108 221.089 337.3C225.53 337.636 229.151 338.016 232.23 338.458C233.43 338.63 233.932 338.849 234.602 339.494C235.813 340.661 235.785 341.516 234.497 342.784C233.333 343.932 233.38 344.322 234.734 344.899C235.25 345.117 235.777 345.538 235.904 345.831C236.053 346.175 236.028 346.549 235.832 346.88C235.17 348 229.187 347.984 226.225 346.853C225.577 346.607 224.504 346.424 223.844 346.448C223.185 346.473 222.084 346.336 221.398 346.148C219.503 345.631 214.027 345.314 209.732 345.47C207.622 345.546 205.126 345.527 204.182 345.426C197.742 344.732 188.614 344.691 185.202 345.339C184.443 345.484 181.277 345.721 178.16 345.863C175.046 346.008 172.047 346.265 171.498 346.429C170.373 346.771 157.966 347.006 154.021 346.762C152.722 346.683 149.828 346.667 147.588 346.735C145.081 346.812 142.885 346.749 141.868 346.566C137.978 345.863 128.095 345.566 127.254 346.123C127.11 346.219 126.285 346.424 125.419 346.574C122.724 347.038 118.399 348.082 117.227 348.555C111.202 350.979 109.774 351.727 106.251 354.318C105.189 355.099 103.796 356.097 103.151 356.534C96.2712 361.187 93.1377 363.961 92.1226 366.294C91.0248 368.822 88.4402 372.035 86.3852 373.423C85.0418 374.331 83.1744 375.943 80.8435 378.211C79.8836 379.145 78.6975 380.252 78.201 380.675C77.7045 381.099 77.1887 381.711 77.0535 382.036C76.7252 382.826 73.6662 385.239 71.4429 386.46C70.1106 387.192 69.501 387.179 69.4707 386.425C69.4541 385.982 70.8333 384.761 73.8648 382.539C75.0757 381.651 80.4243 375.883 80.4077 375.481C80.4022 375.317 79.4423 375.325 77.6879 375.495C75.335 375.724 74.9351 375.705 74.6178 375.35C74.011 374.678 74.5709 374.424 77.7403 373.923C81.5883 373.317 83.6681 372.552 84.3412 371.494C84.6198 371.057 85.1494 370.355 85.519 369.929C85.8886 369.502 86.4624 368.527 86.7934 367.759C88.145 364.619 89.7587 362.488 91.9654 360.909C96.7209 357.504 96.9388 356.739 92.7957 358.045C90.3959 358.802 82.5482 359.54 79.6712 359.28C74.5847 358.821 73.44 358.654 73.1586 358.343C72.5187 357.635 73.2745 357.466 76.7446 357.507C82.6944 357.58 87.5189 357.184 89.778 356.438C90.2579 356.28 91.7778 355.944 93.1543 355.689C96.3181 355.107 100.1 353.29 104.177 350.402C108.292 347.487 113.652 344.729 118.341 343.109C118.854 342.931 119.271 342.699 119.268 342.59C119.257 342.322 115.591 341.082 114.03 340.816C112.739 340.598 110.32 340.385 105.553 340.068C104.094 339.969 102.497 339.795 102.009 339.677C99.7661 339.136 99.1455 339.04 96.1747 338.808C94.4369 338.671 92.2164 338.483 91.2399 338.382C90.2662 338.281 88.3353 338.237 86.9479 338.283C85.5604 338.33 84.0322 338.275 83.555 338.158C82.9344 338.005 81.5386 338.122 78.6065 338.568C74.8992 339.131 74.3861 339.267 73.0897 340.06C71.7022 340.907 70.8968 341.56 68.3177 343.921C67.6391 344.544 66.6212 345.287 66.064 345.574C65.5041 345.861 64.7483 346.292 64.3814 346.541C63.8325 346.913 63.6532 346.937 63.3774 346.678C63.1015 346.421 63.1981 346.219 63.8959 345.574C64.3649 345.139 65.6586 343.953 66.7674 342.931C67.8763 341.909 69.1921 340.677 69.6913 340.199L70.5961 339.338L69.5948 339.499C68.3921 339.699 65.2917 340.401 62.7181 341.049C61.6865 341.308 59.9983 341.669 58.9667 341.852C56.6386 342.265 49.6461 342.62 49.2295 342.344C49.0696 342.235 48.9923 342.101 49.0006 341.97ZM99.8903 336.715C99.8985 336.912 101.071 337.267 103.526 337.822C103.807 337.885 103.964 337.781 103.956 337.54C103.942 337.147 102.958 336.841 100.958 336.606C100.334 336.532 99.8847 336.581 99.8903 336.715ZM137.449 342.89C137.465 343.325 142.736 344.32 146.212 344.541C149.762 344.768 168.729 344.596 170.613 344.317C174.687 343.716 177.746 343.227 179.818 342.852C180.714 342.691 182.885 342.429 184.65 342.267C187.77 341.983 188.666 341.715 187.549 341.409C186.123 341.019 173.777 342.44 171.76 343.227C170.629 343.669 154.967 343.926 149.329 343.595C145.663 343.38 144.54 343.268 140.96 342.765C139.173 342.519 137.438 342.579 137.449 342.89Z" fill="#C69160"/>
</svg>
