<svg width="208" height="50" viewBox="0 0 208 50" fill="none" xmlns="http://www.w3.org/2000/svg">
<path d="M48.1032 15.1443V14.9421C48.6088 14.8987 49.0276 14.8121 49.367 14.6677C49.7064 14.5232 49.9303 14.3643 50.0386 14.191C50.0675 14.1477 50.0892 14.0683 50.1109 13.9455C50.1325 13.8227 50.147 13.6783 50.1614 13.5194C50.1759 13.3533 50.1831 13.1872 50.1903 13.0067C50.1903 12.8333 50.1975 12.66 50.1975 12.4939C50.212 12.0462 50.2192 11.584 50.2192 11.1074V7.88654H42.1671V12.2701C42.1671 12.6673 42.1671 13.0428 42.1887 13.4111C42.2032 13.7794 42.261 14.0321 42.3693 14.1838C42.5354 14.4149 42.7665 14.5882 43.0626 14.711C43.3586 14.8337 43.6547 14.906 43.9364 14.9348V15.1371H37.928V14.9348C38.2674 14.8771 38.5924 14.7904 38.9029 14.6604C39.2134 14.5304 39.4517 14.3716 39.6178 14.1838C39.6684 14.1188 39.7189 14.0033 39.7478 13.8444C39.7767 13.6855 39.8056 13.505 39.8273 13.3028C39.8489 13.1005 39.8634 12.8767 39.8778 12.6384C39.8923 12.4 39.8995 12.1762 39.8995 11.9523C39.8995 11.7646 39.8995 11.5046 39.9067 11.1796C39.9139 10.8546 39.9211 10.4935 39.9284 10.1108C39.9284 9.72082 39.9356 9.32363 39.9356 8.91922V3.0336C39.9356 2.78807 39.9284 2.56419 39.9067 2.34754C39.885 2.13811 39.8562 1.95037 39.8128 1.77705C39.7695 1.61095 39.7117 1.47373 39.6323 1.37985C39.4445 1.14875 39.2062 0.982655 38.9318 0.881552C38.6501 0.780449 38.3396 0.708242 37.9858 0.664912V0.462708H44.0591V0.664912C43.8714 0.693799 43.6619 0.729916 43.4453 0.787689C43.2287 0.845462 43.0337 0.924883 42.8531 1.04043C42.6726 1.15597 42.5282 1.31485 42.4054 1.51706C42.2826 1.71926 42.2176 1.97925 42.2032 2.28978C42.1887 2.7664 42.1815 3.27914 42.1743 3.82799C42.1743 4.37683 42.1671 4.90401 42.1671 5.40952V7.46769H50.2192V4.18907C50.2192 3.83521 50.2192 3.43802 50.1975 2.99028C50.1831 2.7303 50.1686 2.46309 50.147 2.18866C50.1253 1.90702 50.0603 1.68316 49.952 1.50262C49.7064 1.13432 49.432 0.910441 49.1143 0.81656C48.8037 0.729901 48.486 0.679355 48.1755 0.664912V0.462708H54.3066V0.664912C53.9816 0.708242 53.6639 0.794905 53.3461 0.939337C53.0356 1.08377 52.8045 1.28596 52.6529 1.56039C52.5951 1.65427 52.559 1.79149 52.5301 1.95759C52.5012 2.12369 52.4796 2.31865 52.4723 2.52808C52.4579 2.73751 52.4507 2.95417 52.4507 3.17082V9.83638C52.4507 10.2191 52.4507 10.6091 52.4579 11.0207C52.4651 11.4324 52.4651 11.8729 52.4651 12.364C52.4651 12.7611 52.4723 13.1222 52.494 13.4544C52.5157 13.7866 52.5662 14.0177 52.6456 14.1405C52.819 14.4149 53.0573 14.6027 53.3606 14.711C53.6567 14.8193 53.9889 14.8915 54.3355 14.9348V15.1371H48.0816L48.1032 15.1443Z" fill="#A85F41"/>
<path d="M65.9551 15.1443V14.9421C65.9984 14.9421 66.0923 14.9276 66.2512 14.8987C66.41 14.8698 66.5689 14.8265 66.7422 14.7543C66.9156 14.6893 67.06 14.5882 67.19 14.4654C67.32 14.3427 67.385 14.191 67.385 13.996C67.385 13.8733 67.3489 13.6711 67.2694 13.3966C67.1972 13.1222 67.0889 12.7828 66.9517 12.3784C66.8145 11.9812 66.6628 11.5335 66.4823 11.0424C66.3017 10.5513 66.114 10.0458 65.9117 9.51141H60.4883C60.2861 10.0241 60.0911 10.5224 59.8961 10.9918C59.7012 11.4612 59.5134 11.9307 59.3256 12.4073C59.0368 13.1439 58.8996 13.6566 58.8996 13.9599C58.8996 14.1333 58.9501 14.2849 59.0657 14.4004C59.1812 14.516 59.3112 14.6099 59.4845 14.6821C59.6578 14.7543 59.8384 14.8121 60.0333 14.8482C60.2283 14.8843 60.4161 14.9132 60.5966 14.9421V15.1443H56.2564V14.9204C56.6103 14.8771 56.9136 14.7832 57.1664 14.6315C57.4191 14.4799 57.5635 14.3788 57.6069 14.3282C57.7008 14.2344 57.8596 14.0105 58.0763 13.6566C58.2929 13.3028 58.5601 12.7828 58.8707 12.0895C59.1523 11.454 59.4773 10.7246 59.8311 9.90859C60.185 9.09255 60.5461 8.25484 60.9216 7.38825C61.2971 6.52888 61.6654 5.65507 62.0337 4.78125C62.402 3.90744 62.7487 3.08415 63.0736 2.32588L62.8714 1.87815C63.117 1.76982 63.3336 1.63985 63.5358 1.48819C63.7308 1.33654 63.9041 1.18487 64.0558 1.01877C64.2074 0.852674 64.3302 0.701025 64.4313 0.549371C64.5324 0.397717 64.6119 0.274942 64.6624 0.181061H64.8285C65.2474 1.30763 65.6518 2.37644 66.0273 3.38746C66.41 4.39849 66.7711 5.37342 67.1178 6.31223C67.4644 7.25105 67.8038 8.15374 68.1288 9.03478C68.4538 9.9086 68.7787 10.7752 69.1037 11.6346C69.2554 12.0534 69.3926 12.4073 69.5226 12.6817C69.6525 12.9634 69.797 13.2739 69.9631 13.6277C69.992 13.6855 70.0497 13.7794 70.1436 13.9094C70.2375 14.0466 70.3675 14.1838 70.5191 14.3282C70.678 14.4727 70.8658 14.5954 71.0969 14.7038C71.328 14.8121 71.6024 14.8771 71.9129 14.8843V15.1298H65.9623L65.9551 15.1443ZM63.2831 2.79531C63.2036 2.96863 63.0809 3.25025 62.9292 3.633C62.7703 4.01574 62.5826 4.47794 62.3515 5.01956C62.1204 5.56118 61.8676 6.17501 61.586 6.86106C61.3044 7.54712 61.0083 8.29096 60.6761 9.09256H65.7529C65.5218 8.47873 65.2907 7.8721 65.0524 7.25827C64.8141 6.64443 64.583 6.05947 64.3591 5.49619C64.1352 4.9329 63.933 4.41293 63.7453 3.95075C63.5647 3.48134 63.4058 3.0986 63.2903 2.80251L63.2831 2.79531Z" fill="#A85F41"/>
<path d="M87.3455 5.2001C87.1722 4.55015 86.905 3.93631 86.5512 3.3658C86.1973 2.79529 85.7785 2.297 85.2946 1.87815C84.8108 1.45929 84.2691 1.12709 83.6625 0.88156C83.0559 0.636024 82.4132 0.513272 81.7343 0.513272C80.7955 0.513272 79.9578 0.722695 79.2284 1.14155C78.4918 1.5604 77.878 2.11647 77.3869 2.80974C76.8886 3.50302 76.5131 4.28296 76.2459 5.164C75.9787 6.03782 75.8487 6.94051 75.8487 7.86488C75.8487 8.8398 75.9859 9.75694 76.2676 10.6163C76.5492 11.4685 76.9464 12.2123 77.4591 12.8478C77.9719 13.4761 78.6002 13.9816 79.3368 14.3427C80.0734 14.711 80.8822 14.8915 81.7849 14.8915C82.4926 14.8915 83.1498 14.7615 83.7708 14.5016C84.3919 14.2416 84.9407 13.9022 85.4246 13.4833C85.9084 13.0644 86.3129 12.5734 86.645 12.0245C86.9772 11.4757 87.2083 10.9052 87.3311 10.3202H87.5766L87.5189 14.8048H87.2733C87.1072 14.5738 86.9411 14.3643 86.7606 14.1766C86.5873 13.9888 86.4645 13.8949 86.3923 13.8949C86.3634 13.8949 86.2406 13.9671 86.024 14.1116C85.8073 14.256 85.4968 14.4077 85.0852 14.581C84.6808 14.7471 84.1825 14.8988 83.5975 15.0287C83.0126 15.1587 82.341 15.2237 81.5827 15.2237C80.3189 15.2237 79.1779 15.0432 78.1596 14.6821C77.1414 14.321 76.2748 13.8155 75.5599 13.1511C74.8449 12.4939 74.3033 11.7068 73.9205 10.7896C73.5378 9.87248 73.35 8.86145 73.35 7.76377C73.35 7.51823 73.3645 7.24383 73.4006 6.92608C73.4367 6.60833 73.4945 6.28335 73.5811 5.92949C73.6678 5.57563 73.7906 5.20732 73.9494 4.81735C74.1083 4.42739 74.3033 4.03742 74.5488 3.64745C74.8377 3.18527 75.1843 2.74474 75.6104 2.32588C76.0293 1.90703 76.5276 1.53152 77.0981 1.21377C77.6686 0.896019 78.3113 0.643264 79.0335 0.44828C79.7556 0.260518 80.5644 0.166626 81.4599 0.166626C82.276 0.166626 82.9909 0.23884 83.5975 0.390495C84.2114 0.542149 84.7169 0.701019 85.1285 0.88156C85.5401 1.0621 85.8507 1.22099 86.0673 1.37265C86.284 1.5243 86.4067 1.59652 86.4356 1.59652C86.4645 1.59652 86.5151 1.56763 86.5873 1.50263C86.6595 1.43764 86.7461 1.36542 86.8328 1.27876C86.9195 1.1921 87.0134 1.09099 87.1072 0.975444C87.2011 0.859898 87.2878 0.744359 87.3744 0.621592H87.5983V5.18566L87.3528 5.20733L87.3455 5.2001Z" fill="#A85F41"/>
<path d="M91.0574 15.1443V14.9421C91.3969 14.8843 91.7146 14.7976 92.0035 14.6749C92.2924 14.5521 92.5451 14.3788 92.7473 14.1477C92.8123 14.0683 92.8629 13.9527 92.899 13.801C92.9351 13.6494 92.9567 13.4761 92.9784 13.2739C93.0001 13.0717 93.0145 12.855 93.0217 12.6311C93.0217 12.4073 93.029 12.1834 93.029 11.9667C93.029 11.779 93.029 11.519 93.0362 11.194C93.0434 10.8691 93.0506 10.508 93.0578 10.1252C93.0578 9.73528 93.0651 9.33809 93.0651 8.93368V3.04804C93.0651 2.8025 93.0578 2.57865 93.0362 2.362C93.0145 2.15257 92.9856 1.9648 92.9423 1.79148C92.899 1.62539 92.8412 1.48818 92.7618 1.3943C92.574 1.16321 92.3357 0.997112 92.0613 0.896009C91.7796 0.794906 91.4691 0.722677 91.1152 0.679347V0.477142H97.2103V0.679347C96.9214 0.722677 96.6181 0.794891 96.2931 0.903215C95.9682 1.01154 95.7154 1.22821 95.5421 1.55318C95.4193 1.78427 95.3543 2.07313 95.3471 2.42699C95.3471 2.78085 95.3327 3.11305 95.3182 3.42358C95.3182 3.76299 95.3182 4.10241 95.311 4.4346C95.311 4.76679 95.3038 5.10621 95.3038 5.44562V12.2701C95.3038 12.6673 95.3038 13.0428 95.3254 13.4111C95.3399 13.7794 95.3976 14.0321 95.506 14.1838C95.6721 14.4149 95.9248 14.5882 96.2787 14.711C96.6326 14.8337 96.9503 14.906 97.2392 14.9348V15.1371H91.0647L91.0574 15.1443Z" fill="#A85F41"/>
<path d="M113.083 15.1443H100.612V14.9421C100.951 14.8843 101.269 14.7976 101.558 14.6749C101.847 14.5521 102.092 14.386 102.28 14.1621C102.345 14.0827 102.403 13.9599 102.446 13.8083C102.489 13.6494 102.525 13.4689 102.561 13.2667C102.598 13.0645 102.619 12.8478 102.634 12.6239C102.648 12.4001 102.655 12.1762 102.655 11.9595C102.655 11.7718 102.655 11.5118 102.663 11.1868C102.67 10.8619 102.677 10.5008 102.684 10.118C102.684 9.72805 102.691 9.33087 102.691 8.92646V3.77021C102.691 3.52467 102.691 3.27193 102.684 3.01917C102.684 2.75919 102.663 2.51364 102.641 2.28255C102.619 2.05146 102.583 1.84204 102.54 1.6615C102.489 1.48096 102.424 1.34374 102.345 1.2643C102.143 1.04765 101.926 0.910451 101.695 0.845457C101.464 0.787684 101.168 0.722696 100.799 0.672145V0.46994H112.043L113.43 3.83522L113.228 3.93631C112.13 2.5642 111.097 1.63984 110.13 1.16321C109.899 1.05489 109.473 0.960994 108.844 0.881556C108.216 0.802118 107.458 0.758801 106.562 0.758801C106.281 0.758801 105.985 0.766029 105.674 0.787693C105.371 0.809358 105.147 0.831006 105.01 0.859892C104.981 1.07654 104.959 1.52429 104.937 2.20313C104.916 2.88196 104.909 3.66911 104.909 4.56459V5.8717C104.909 6.22556 104.909 6.51443 104.916 6.7383C104.916 6.96217 104.923 7.13549 104.923 7.25826V7.48213H105.327C105.53 7.48213 105.768 7.48213 106.028 7.46047C106.295 7.44602 106.555 7.43157 106.822 7.40991C107.089 7.38825 107.306 7.35935 107.487 7.31603C107.898 7.22214 108.23 7.09217 108.505 6.92607C108.779 6.75998 108.996 6.56499 109.169 6.3339C109.335 6.1028 109.473 5.83559 109.574 5.53228C109.675 5.22898 109.769 4.88234 109.848 4.4996H110.094V10.9196H109.848C109.74 10.4863 109.574 10.0386 109.35 9.5764C109.126 9.11421 108.888 8.76757 108.649 8.53648C108.433 8.34872 108.173 8.18985 107.862 8.06708C107.559 7.94431 107.198 7.8721 106.793 7.84321C106.591 7.82877 106.418 7.82154 106.288 7.81432C106.151 7.81432 106.013 7.80711 105.876 7.80711H104.937C104.909 7.99487 104.894 8.2765 104.894 8.6448V11.0929C104.894 11.3096 104.894 11.519 104.901 11.714C104.901 11.909 104.909 12.0751 104.909 12.2123C104.923 12.6456 104.945 13.0572 104.981 13.4472C105.017 13.8372 105.096 14.126 105.212 14.3138C105.335 14.5015 105.623 14.6388 106.086 14.7182C106.548 14.7976 107.046 14.841 107.595 14.841C107.826 14.841 108.122 14.841 108.483 14.8193C108.844 14.7976 109.22 14.7687 109.617 14.7182C110.05 14.6676 110.455 14.5593 110.816 14.4004C111.184 14.2416 111.538 14.0249 111.877 13.7361C112.217 13.4472 112.549 13.1005 112.867 12.6889C113.185 12.2773 113.517 11.779 113.856 11.194L114.08 11.2518L113.062 15.1443H113.083Z" fill="#A85F41"/>
<path d="M131.824 1.06209C131.52 1.24985 131.282 1.54596 131.123 1.93592C131.029 2.13813 130.964 2.51364 130.942 3.0697C130.914 3.61855 130.885 4.21072 130.863 4.83178C130.834 5.41673 130.812 6.1028 130.791 6.89718C130.769 7.69156 130.762 8.54371 130.762 9.45364V10.7607C130.762 11.2374 130.762 11.7212 130.769 12.2195C130.769 12.7178 130.776 13.2089 130.776 13.6999V15.0215C130.776 15.0721 130.762 15.1226 130.726 15.1515C130.69 15.1876 130.639 15.202 130.574 15.202C130.466 15.202 130.343 15.137 130.206 14.9998C129.05 13.6711 127.996 12.4434 127.05 11.3312C126.097 10.2191 125.194 9.15755 124.327 8.1393C123.468 7.12827 122.616 6.1389 121.793 5.1712C120.962 4.2035 120.088 3.20692 119.164 2.17423V10.7752C119.164 11.4685 119.178 12.0967 119.215 12.6528C119.251 13.2089 119.337 13.6277 119.467 13.8949C119.619 14.2055 119.85 14.4438 120.168 14.5954C120.486 14.7543 120.926 14.8626 121.482 14.9348V15.1371H116.47V14.9348C116.795 14.8915 117.12 14.8121 117.445 14.6821C117.77 14.5521 118.03 14.3427 118.218 14.0394C118.406 13.7505 118.529 13.3316 118.586 12.7756C118.637 12.2195 118.68 11.5551 118.709 10.7752C118.738 10.1902 118.76 9.50419 118.767 8.70981C118.781 7.91543 118.788 7.06327 118.788 6.15335V3.66911C118.788 3.39469 118.788 3.06249 118.767 2.67252C118.723 2.28255 118.63 1.95758 118.485 1.70483C118.334 1.45207 118.16 1.25708 117.958 1.11265C117.756 0.968216 117.532 0.867126 117.294 0.809353C117.055 0.75158 116.824 0.701012 116.608 0.679347V0.477142H120.746L130.408 11.7645V4.83901C130.408 4.29739 130.408 3.77743 130.386 3.27914C130.372 2.78084 130.314 2.39088 130.206 2.10924C130.069 1.72649 129.83 1.41596 129.484 1.18487C129.137 0.946556 128.639 0.780457 127.989 0.686576V0.484371H133.044V0.686576C132.538 0.75157 132.134 0.881566 131.831 1.07655L131.824 1.06209Z" fill="#A85F41"/>
<path d="M151.531 10.2913C151.286 11.064 150.954 11.7284 150.535 12.2917C150.116 12.855 149.625 13.31 149.069 13.6783C148.513 14.0466 147.921 14.3355 147.299 14.5521C146.671 14.7688 146.028 14.9204 145.364 15.0143C144.7 15.1009 144.05 15.1443 143.429 15.1443H135.99V14.9421C136.33 14.8987 136.662 14.8121 136.98 14.6749C137.297 14.5376 137.543 14.3788 137.702 14.1838C137.767 14.1188 137.817 14.0032 137.854 13.8371C137.89 13.6783 137.919 13.4905 137.947 13.2883C137.976 13.0861 137.998 12.8694 138.005 12.6384C138.012 12.4073 138.027 12.1834 138.027 11.9667C138.027 11.779 138.027 11.519 138.034 11.194C138.041 10.8691 138.049 10.508 138.056 10.1252C138.056 9.73528 138.063 9.33809 138.063 8.93368V3.04804C138.063 2.8025 138.056 2.57865 138.034 2.362C138.012 2.14535 137.984 1.9648 137.94 1.79148C137.897 1.62539 137.839 1.48818 137.76 1.3943C137.557 1.14877 137.312 0.982655 137.023 0.881552C136.741 0.787671 136.416 0.715456 136.063 0.679347V0.477143C136.633 0.477143 137.456 0.477158 138.525 0.469936C139.601 0.469936 140.894 0.462708 142.418 0.462708H143.725C144.172 0.462708 144.62 0.48437 145.068 0.527699C145.516 0.571029 145.963 0.636023 146.411 0.729904C146.859 0.823785 147.299 0.968215 147.733 1.15598C148.303 1.40151 148.838 1.71206 149.343 2.0948C149.841 2.47755 150.282 2.92527 150.658 3.45245C151.033 3.97241 151.329 4.57903 151.553 5.26508C151.777 5.95114 151.892 6.7383 151.892 7.61934C151.892 8.63759 151.77 9.53307 151.524 10.3058L151.531 10.2913ZM149.025 5.34453C148.78 4.60071 148.44 3.92187 148.007 3.31526C147.574 2.70864 147.054 2.1959 146.455 1.77705C145.855 1.35819 145.205 1.08377 144.497 0.961001C144.223 0.91045 143.927 0.859904 143.602 0.831017C143.277 0.794909 142.873 0.780461 142.403 0.780461C142.237 0.780461 142.064 0.780468 141.876 0.787689C141.688 0.794911 141.5 0.809353 141.313 0.831017C141.132 0.852682 140.959 0.867109 140.8 0.881552C140.641 0.895995 140.518 0.917672 140.424 0.939337C140.359 1.60373 140.316 2.52087 140.302 3.69077C140.287 4.86068 140.28 6.25445 140.28 7.86487V10.248C140.28 10.9557 140.28 11.5335 140.302 11.9812C140.302 12.169 140.309 12.3784 140.331 12.6023C140.352 12.8261 140.374 13.0428 140.403 13.2522C140.432 13.4616 140.475 13.6566 140.533 13.8227C140.598 13.996 140.663 14.1188 140.749 14.1982C141.024 14.4726 141.363 14.646 141.782 14.7182C142.194 14.7904 142.584 14.8337 142.952 14.8337C143.291 14.8337 143.645 14.8193 143.999 14.7832C144.36 14.7471 144.692 14.6821 145.01 14.5882C146.476 14.1693 147.574 13.3461 148.303 12.1329C149.033 10.9196 149.394 9.41752 149.394 7.641C149.394 6.85385 149.271 6.08835 149.025 5.3373V5.34453Z" fill="#A85F41"/>
<path d="M163.086 15.1443V14.9421C163.129 14.9421 163.223 14.9276 163.382 14.8987C163.541 14.8698 163.7 14.8265 163.873 14.7543C164.046 14.6893 164.191 14.5882 164.321 14.4654C164.451 14.3427 164.516 14.191 164.516 13.996C164.516 13.8733 164.48 13.6711 164.4 13.3966C164.328 13.1222 164.22 12.7828 164.083 12.3784C163.945 11.9812 163.794 11.5335 163.613 11.0424C163.433 10.5513 163.245 10.0458 163.043 9.51141H157.626C157.424 10.0241 157.222 10.5224 157.034 10.9918C156.846 11.4612 156.651 11.9307 156.464 12.4073C156.182 13.1439 156.038 13.6566 156.038 13.9599C156.038 14.1333 156.088 14.2849 156.204 14.4004C156.312 14.516 156.449 14.6099 156.623 14.6821C156.789 14.7543 156.976 14.8121 157.171 14.8482C157.366 14.8843 157.554 14.9132 157.735 14.9421V15.1443H153.395V14.9204C153.748 14.8771 154.052 14.7832 154.304 14.6315C154.557 14.4799 154.702 14.3788 154.745 14.3282C154.839 14.2344 154.998 14.0105 155.214 13.6566C155.431 13.3028 155.698 12.7828 156.009 12.0895C156.298 11.454 156.615 10.7246 156.969 9.90859C157.323 9.09255 157.684 8.25484 158.06 7.38825C158.435 6.52888 158.804 5.65507 159.172 4.78125C159.54 3.90744 159.887 3.08415 160.212 2.32588L160.01 1.87815C160.255 1.76982 160.472 1.63985 160.674 1.48819C160.869 1.33654 161.042 1.18487 161.194 1.01877C161.346 0.852674 161.468 0.701025 161.569 0.549371C161.67 0.397717 161.75 0.274942 161.8 0.181061H161.967C162.385 1.30763 162.79 2.37644 163.165 3.38746C163.548 4.39849 163.909 5.37342 164.256 6.31223C164.602 7.25105 164.942 8.15374 165.267 9.03478C165.592 9.9086 165.917 10.7752 166.242 11.6346C166.393 12.0534 166.531 12.4073 166.661 12.6817C166.791 12.9634 166.935 13.2739 167.101 13.6277C167.13 13.6855 167.188 13.7794 167.282 13.9094C167.376 14.0466 167.506 14.1838 167.657 14.3282C167.816 14.4727 168.004 14.5954 168.235 14.7038C168.466 14.8121 168.74 14.8771 169.051 14.8843V15.1298H163.1L163.086 15.1443ZM160.421 2.79531C160.342 2.96863 160.219 3.25025 160.067 3.633C159.908 4.01574 159.721 4.47794 159.49 5.01956C159.258 5.56118 159.006 6.17501 158.724 6.86106C158.45 7.54712 158.146 8.29096 157.814 9.09256H162.891C162.66 8.47873 162.429 7.8721 162.19 7.25827C161.952 6.64443 161.721 6.05947 161.497 5.49619C161.273 4.9329 161.071 4.41293 160.883 3.95075C160.703 3.48134 160.544 3.0986 160.421 2.80251V2.79531Z" fill="#A85F41"/>
<path d="M29.3992 28.9015C29.0309 27.5294 28.4749 26.2511 27.731 25.0523C26.9872 23.8536 26.1134 22.8137 25.1024 21.9254C24.0913 21.0444 22.9503 20.3439 21.6793 19.8311C20.4083 19.3184 19.0651 19.0584 17.6352 19.0584C15.6637 19.0584 13.9088 19.4989 12.3706 20.3872C10.8324 21.2682 9.53977 22.4381 8.49985 23.8969C7.45994 25.3484 6.65834 27.0022 6.10227 28.8365C5.54621 30.678 5.26456 32.5628 5.26456 34.5054C5.26456 36.5564 5.56065 38.4846 6.1456 40.2827C6.73055 42.0809 7.56104 43.6408 8.6515 44.9696C9.73475 46.2984 11.0491 47.3455 12.5873 48.111C14.1255 48.8837 15.837 49.2664 17.7219 49.2664C19.2023 49.2664 20.5961 48.9993 21.896 48.4504C23.1959 47.9088 24.3513 47.1938 25.3623 46.3128C26.3734 45.4318 27.2327 44.4063 27.9332 43.2508C28.6337 42.0954 29.1104 40.9038 29.3703 39.6761H29.8831L29.7531 49.0931H29.2404C28.9009 48.6093 28.5399 48.1688 28.1716 47.7644C27.8032 47.3672 27.5433 47.165 27.3988 47.165C27.3411 47.165 27.0883 47.3166 26.6261 47.6127C26.1712 47.9088 25.514 48.241 24.6546 48.5948C23.7952 48.9487 22.7553 49.2665 21.5277 49.5337C20.3 49.8081 18.8918 49.9381 17.2886 49.9381C14.6382 49.9381 12.2407 49.5625 10.1031 48.8043C7.96545 48.046 6.1456 46.9772 4.6435 45.5979C3.14863 44.2113 2.00039 42.5576 1.19879 40.6366C0.397189 38.7084 0 36.5925 0 34.2816C0 33.7688 0.0361081 33.1839 0.108324 32.5267C0.180541 31.8696 0.31053 31.1691 0.49107 30.4325C0.678833 29.6886 0.931589 28.9159 1.26378 28.0999C1.58876 27.2838 2.01483 26.4678 2.52757 25.6373C3.12696 24.6696 3.87079 23.738 4.75183 22.857C5.63287 21.9759 6.68 21.196 7.87879 20.5244C9.07758 19.8528 10.428 19.3184 11.9446 18.9212C13.4539 18.524 15.151 18.3218 17.0358 18.3218C18.7473 18.3218 20.2422 18.4807 21.5277 18.7912C22.8131 19.109 23.8819 19.4484 24.7341 19.8167C25.5862 20.185 26.2434 20.5316 26.7056 20.8421C27.1605 21.1599 27.4205 21.3115 27.4783 21.3115C27.5361 21.3115 27.6444 21.2466 27.796 21.1166C27.9477 20.9866 28.121 20.8349 28.3088 20.6472C28.4965 20.4594 28.6843 20.25 28.8865 20.0044C29.0887 19.7661 29.2692 19.5134 29.4426 19.2534H29.912V28.8365L29.3992 28.8798V28.9015Z" fill="#A85F41"/>
<path d="M51.4974 49.7864V49.4181C51.5696 49.4181 51.7501 49.3965 52.0318 49.3459C52.3134 49.2954 52.6095 49.2087 52.9128 49.0859C53.2161 48.9631 53.4906 48.7898 53.7216 48.5732C53.9527 48.3493 54.0683 48.0749 54.0683 47.7283C54.0683 47.5044 54.0033 47.1505 53.8661 46.645C53.7289 46.1467 53.5411 45.5329 53.2956 44.8107C53.05 44.0886 52.7684 43.287 52.4506 42.4059C52.1329 41.5249 51.7935 40.6077 51.4252 39.6545H41.6688C41.3005 40.5861 40.9466 41.4671 40.6072 42.312C40.2678 43.157 39.9211 44.0019 39.5817 44.8613C39.069 46.1828 38.809 47.1144 38.809 47.6488C38.809 47.9666 38.9029 48.2265 39.1051 48.436C39.3001 48.6454 39.5528 48.8115 39.8561 48.9487C40.1594 49.0859 40.4916 49.1798 40.8455 49.2448C41.1994 49.3098 41.5388 49.3603 41.8565 49.4109V49.7792H34.0427V49.3748C34.6782 49.3026 35.2199 49.1292 35.6748 48.862C36.1298 48.5948 36.3898 48.4071 36.462 48.3132C36.6353 48.1399 36.9169 47.7355 37.3069 47.1C37.6969 46.4645 38.1735 45.5257 38.7368 44.2763C39.2495 43.1281 39.8272 41.821 40.4627 40.355C41.0983 38.889 41.7554 37.3797 42.427 35.827C43.0986 34.2744 43.763 32.7073 44.4274 31.133C45.0846 29.5587 45.7129 28.0854 46.2978 26.7133L45.9295 25.9045C46.37 25.7095 46.7672 25.4784 47.1211 25.204C47.4749 24.9368 47.7855 24.6552 48.0599 24.3591C48.3271 24.063 48.5582 23.7814 48.7387 23.5142C48.9193 23.247 49.0637 23.0231 49.1576 22.857H49.4537C50.2119 24.8863 50.9341 26.8144 51.6202 28.6343C52.3062 30.4541 52.9562 32.209 53.5844 33.8988C54.2127 35.5887 54.8121 37.2208 55.3971 38.7951C55.982 40.3694 56.5742 41.9293 57.1591 43.4747C57.4263 44.233 57.6791 44.8613 57.9102 45.3668C58.1413 45.8651 58.4085 46.4356 58.6973 47.0711C58.7479 47.1722 58.8562 47.3383 59.0295 47.5838C59.2029 47.8294 59.4267 48.0749 59.7084 48.3349C59.99 48.5949 60.3367 48.8187 60.7555 49.0137C61.1744 49.2087 61.6582 49.317 62.2215 49.3459V49.7864H51.5118H51.4974ZM46.695 27.5583C46.5506 27.876 46.3339 28.3815 46.0523 29.0604C45.7706 29.7464 45.424 30.5769 45.0051 31.5518C44.5863 32.5267 44.1313 33.6389 43.633 34.8738C43.1347 36.1087 42.5859 37.4447 42.001 38.889H51.1363C50.7175 37.7913 50.2986 36.6864 49.8725 35.5887C49.4464 34.491 49.0276 33.4294 48.6232 32.4184C48.2188 31.4074 47.8505 30.4758 47.5255 29.6309C47.1933 28.7859 46.9189 28.0999 46.7022 27.5583H46.695Z" fill="#A85F41"/>
<path d="M90.9636 30.2736C90.7686 29.8331 90.5375 29.3781 90.2631 28.8943C89.9959 28.4176 89.7214 27.9699 89.4398 27.5582C89.1582 27.1394 88.8837 26.7567 88.6165 26.4028C88.3493 26.0489 88.1182 25.7889 87.916 25.6156C87.4033 25.1246 86.8472 24.7996 86.2478 24.6407C85.6485 24.4819 84.883 24.388 83.9586 24.3663C83.4964 24.3663 83.092 24.3663 82.7454 24.3446C82.4059 24.3302 82.0593 24.3302 81.7199 24.3302H79.3006C79.3006 24.944 79.3006 25.7745 79.279 26.8216C79.2645 27.876 79.2573 28.9737 79.2573 30.1219V44.4641C79.2573 45.1718 79.279 45.8506 79.3151 46.5006C79.3512 47.1505 79.4667 47.6055 79.6617 47.8727C80.03 48.4143 80.55 48.7754 81.2216 48.9704C81.8932 49.1654 82.4998 49.317 83.0342 49.4109V49.7792H71.1113V49.4109C71.7468 49.3387 72.3607 49.2159 72.9456 49.0426C73.5306 48.8693 74.1083 48.4649 74.6716 47.8293C74.7944 47.7066 74.8882 47.5044 74.946 47.2227C75.0038 46.9411 75.0543 46.6233 75.0904 46.2695C75.1265 45.9156 75.1482 45.5329 75.1627 45.114C75.1771 44.6952 75.1843 44.298 75.1843 43.9008C75.1843 43.5614 75.1843 43.1064 75.206 42.5431C75.2204 41.9798 75.2277 41.3588 75.2421 40.6727C75.2565 39.9867 75.2638 39.279 75.2638 38.5424V24.3085H72.8445C72.5268 24.3085 72.1873 24.3085 71.8335 24.323C71.4796 24.3374 71.068 24.3446 70.6058 24.3446C69.6742 24.3663 68.9087 24.4818 68.3166 24.6768C67.7172 24.8718 67.1611 25.2185 66.6484 25.7023C66.4534 25.8756 66.2295 26.1284 65.9695 26.475C65.7095 26.8216 65.4424 27.19 65.1607 27.5944C64.8791 27.9988 64.6119 28.4321 64.3519 28.8943C64.0919 29.3564 63.8969 29.8114 63.7453 30.2519L63.4131 30.1436L64.5108 23.1747C65.074 23.2975 65.594 23.3914 66.0706 23.4708C66.5473 23.5502 67.2405 23.5936 68.1432 23.6152C69.0748 23.6369 69.9053 23.6586 70.6347 23.673C71.3713 23.6875 72.079 23.6947 72.7651 23.6947H79.7339C80.4706 23.6947 81.1783 23.6947 81.8643 23.673C82.5504 23.6586 83.2581 23.6514 83.9947 23.6369C84.7313 23.6225 85.5618 23.6225 86.4862 23.6225C87.295 23.6008 87.9594 23.5286 88.4865 23.4203C89.0137 23.3119 89.5554 23.1675 90.1186 23.0014L91.2958 30.1508L90.9636 30.2591V30.2736Z" fill="#A85F41"/>
<path d="M115.286 49.7864C115.062 49.5625 114.903 49.4037 114.809 49.2881C114.715 49.1798 114.6 49.0498 114.477 48.9054C114.354 48.7609 114.203 48.5443 114.015 48.2627C113.834 47.981 113.546 47.5622 113.156 46.9989C112.693 46.3128 112.282 45.699 111.928 45.1429C111.574 44.5941 111.213 44.0524 110.845 43.5108C110.476 42.9692 110.079 42.4276 109.653 41.8787C109.227 41.3299 108.714 40.7088 108.129 40.03C107.638 39.4667 107.111 38.9395 106.533 38.4557C105.956 37.9646 105.349 37.6613 104.721 37.5385C104.259 37.4374 103.897 37.3941 103.659 37.3941C103.443 37.3941 103.161 37.3797 102.814 37.358V41.5032C102.814 42.6803 102.829 43.6697 102.85 44.4713C102.872 45.2512 102.901 45.9229 102.923 46.4861C102.944 47.0494 103.081 47.5116 103.327 47.8799C103.522 48.1977 103.905 48.5226 104.468 48.8548C105.031 49.187 105.811 49.3748 106.815 49.4253V49.7936H95.0799V49.4253C95.6937 49.3242 96.2787 49.1798 96.842 48.9848C97.4053 48.7898 97.8458 48.4937 98.1635 48.1038C98.2863 47.9593 98.3802 47.7355 98.4596 47.4466C98.5318 47.1505 98.5896 46.8256 98.6257 46.4572C98.6618 46.0889 98.6907 45.699 98.7196 45.2801C98.7413 44.8613 98.7557 44.4641 98.7557 44.0669C98.7557 43.7275 98.7557 43.2581 98.7774 42.6731C98.7918 42.0882 98.799 41.4454 98.8135 40.7449C98.8279 40.0444 98.8351 39.3295 98.8351 38.6001V29.3203C98.8351 28.8798 98.8351 28.4321 98.8135 27.9843C98.799 27.5294 98.7774 27.1033 98.7413 26.6989C98.7051 26.2945 98.6401 25.9262 98.5607 25.6012C98.4741 25.269 98.3585 25.0307 98.2141 24.8863C97.8458 24.4963 97.4341 24.2291 96.9864 24.0991C96.5387 23.9691 95.9754 23.8463 95.3182 23.7525V23.3842H96.8203C97.6508 23.3842 98.5896 23.3842 99.644 23.3697C100.698 23.3553 101.745 23.3481 102.8 23.3481H105.371C107.01 23.3481 108.462 23.3986 109.733 23.4925C111.004 23.5936 112.166 23.9186 113.221 24.4819C114.297 25.0451 115.163 25.8106 115.828 26.7711C116.492 27.7388 116.817 28.952 116.817 30.418C116.817 31.3207 116.651 32.1368 116.319 32.8589C115.986 33.5811 115.553 34.2166 114.997 34.7654C114.441 35.3143 113.806 35.7837 113.069 36.1809C112.34 36.5708 111.567 36.903 110.758 37.1702V37.2786C111.177 37.4952 111.581 37.813 111.971 38.2318C112.361 38.6507 112.744 39.1129 113.105 39.6256C113.741 40.5572 114.434 41.561 115.178 42.6298C115.922 43.7058 116.593 44.6591 117.178 45.4896C118.081 46.7606 118.962 47.6921 119.821 48.2771C120.681 48.862 121.677 49.2448 122.833 49.4109V49.7792H115.315L115.286 49.7864ZM111.654 26.93C111.04 25.9767 110.151 25.2185 108.974 24.6552C108.389 24.388 107.768 24.193 107.118 24.0702C106.468 23.9474 105.79 23.8897 105.082 23.8897C104.569 23.8897 104.15 23.9041 103.832 23.9258C103.515 23.9474 103.269 23.9763 103.096 23.998C103.074 24.1424 103.045 24.2724 103.024 24.3807C103.002 24.4891 102.98 24.6335 102.966 24.7996C102.951 24.9729 102.944 25.2112 102.93 25.5145C102.915 25.8178 102.901 26.2511 102.872 26.8144C102.85 27.6738 102.829 28.6343 102.814 29.7103C102.8 30.7863 102.793 31.8262 102.793 32.83V36.8669C103.796 36.8669 104.728 36.8236 105.602 36.7369C106.468 36.6503 107.306 36.477 108.115 36.2025C108.895 35.957 109.566 35.6248 110.13 35.2132C110.693 34.8015 111.148 34.3249 111.509 33.7977C111.863 33.2706 112.123 32.7073 112.296 32.0934C112.47 31.4868 112.549 30.8441 112.549 30.1869C112.549 28.9665 112.246 27.876 111.632 26.9227L111.654 26.93Z" fill="#A85F41"/>
<path d="M125.96 49.7864V49.4181C126.573 49.317 127.137 49.1581 127.664 48.9415C128.191 48.7248 128.632 48.4071 129 47.9882C129.123 47.8438 129.217 47.6344 129.274 47.3672C129.332 47.1 129.383 46.7822 129.419 46.4139C129.455 46.0456 129.476 45.6629 129.491 45.2585C129.505 44.854 129.505 44.4569 129.505 44.0669C129.505 43.7275 129.505 43.2581 129.52 42.6731C129.534 42.0882 129.541 41.4454 129.556 40.7449C129.57 40.0444 129.578 39.3295 129.578 38.6001V27.9988C129.578 27.5583 129.556 27.1538 129.52 26.7711C129.484 26.3956 129.426 26.0489 129.354 25.7456C129.282 25.4423 129.173 25.204 129.022 25.0307C128.675 24.6118 128.256 24.3158 127.758 24.1352C127.259 23.9547 126.689 23.8247 126.053 23.7525V23.3842H137.023V23.7525C136.51 23.8247 135.962 23.9619 135.369 24.1569C134.784 24.3519 134.329 24.7418 134.012 25.334C133.795 25.7529 133.672 26.2728 133.665 26.9083C133.651 27.5438 133.636 28.1432 133.607 28.7065C133.607 29.3203 133.607 29.9197 133.586 30.5191C133.564 31.1185 133.571 31.7251 133.571 32.3318V44.6157C133.571 45.3234 133.586 46.0095 133.607 46.6667C133.629 47.3239 133.744 47.7933 133.939 48.0605C134.236 48.4793 134.698 48.7971 135.333 49.0137C135.969 49.2376 136.546 49.3676 137.059 49.4181V49.7864H125.945H125.96Z" fill="#A85F41"/>
<path d="M170.503 24.4385C169.954 24.7779 169.528 25.3051 169.239 26.0128C169.065 26.3811 168.957 27.06 168.907 28.0493C168.856 29.0387 168.805 30.1003 168.762 31.2196C168.712 32.274 168.668 33.5089 168.632 34.9388C168.596 36.3686 168.574 37.9068 168.574 39.5389V41.886C168.574 42.7381 168.574 43.6191 168.589 44.5074C168.603 45.4029 168.61 46.2839 168.61 47.165V49.5481C168.61 49.6492 168.582 49.7286 168.517 49.7864C168.459 49.8442 168.365 49.8803 168.242 49.8803C168.047 49.8803 167.823 49.7575 167.585 49.512C165.505 47.1144 163.613 44.919 161.902 42.9114C160.19 40.9038 158.558 38.9901 157.005 37.1702C155.453 35.3504 153.929 33.5739 152.441 31.8335C150.946 30.1003 149.372 28.3021 147.711 26.4389V41.9148C147.711 43.1642 147.74 44.2908 147.805 45.2874C147.863 46.2912 148.022 47.035 148.267 47.5261C148.534 48.0893 148.96 48.5082 149.531 48.7898C150.109 49.0715 150.896 49.2737 151.9 49.3965V49.7647H142.88V49.3965C143.465 49.3242 144.057 49.1726 144.642 48.9343C145.227 48.7032 145.696 48.3204 146.036 47.7788C146.375 47.2661 146.599 46.5078 146.693 45.504C146.794 44.5002 146.866 43.3014 146.917 41.9076C146.967 40.8533 147.003 39.6184 147.025 38.1885C147.047 36.7586 147.061 35.2276 147.061 33.5883V29.1109C147.061 28.6199 147.047 28.0204 147.025 27.3127C146.953 26.605 146.779 26.02 146.512 25.5723C146.245 25.1173 145.927 24.7635 145.559 24.5107C145.191 24.2507 144.794 24.0702 144.367 23.9619C143.941 23.8536 143.53 23.7741 143.14 23.7236V23.3553H150.585L167.968 43.6769V31.2052C167.968 30.2303 167.953 29.2914 167.932 28.396C167.91 27.5005 167.794 26.8 167.599 26.2873C167.354 25.6012 166.921 25.0451 166.3 24.6191C165.678 24.193 164.776 23.8897 163.606 23.7236V23.3553H172.705V23.7236C171.802 23.8463 171.073 24.0774 170.524 24.4241L170.503 24.4385Z" fill="#A85F41"/>
<path d="M195.497 49.7864V49.3603C195.583 49.3603 195.785 49.3315 196.118 49.2737C196.443 49.2159 196.789 49.1148 197.143 48.9776C197.497 48.8404 197.815 48.631 198.082 48.3782C198.349 48.1182 198.486 47.7932 198.486 47.3961C198.486 47.1433 198.407 46.7172 198.248 46.1323C198.089 45.5473 197.872 44.8324 197.584 43.9947C197.295 43.157 196.97 42.2182 196.601 41.1927C196.233 40.1672 195.829 39.0984 195.403 37.9863H184.021C183.595 39.0695 183.176 40.1022 182.779 41.0916C182.382 42.0737 181.978 43.0703 181.581 44.0669C180.981 45.6051 180.685 46.6956 180.685 47.3166C180.685 47.6849 180.801 47.9955 181.032 48.2338C181.263 48.4793 181.552 48.6743 181.905 48.8332C182.259 48.9921 182.649 49.1076 183.061 49.1726C183.473 49.2448 183.87 49.3098 184.238 49.3676V49.7936H175.124V49.3242C175.868 49.2376 176.496 49.0426 177.031 48.7248C177.558 48.4143 177.869 48.1977 177.948 48.0821C178.15 47.8799 178.475 47.4105 178.93 46.6667C179.385 45.9229 179.941 44.8252 180.598 43.3736C181.198 42.0304 181.869 40.5066 182.613 38.7951C183.357 37.0836 184.115 35.3215 184.902 33.5089C185.69 31.6963 186.462 29.8692 187.235 28.0349C188.008 26.1934 188.73 24.4746 189.416 22.8787L188.99 21.9398C189.503 21.7087 189.965 21.4415 190.384 21.1238C190.795 20.8133 191.164 20.4811 191.474 20.1417C191.785 19.8022 192.052 19.47 192.269 19.1595C192.485 18.849 192.644 18.589 192.76 18.3868H193.099C193.98 20.7555 194.825 23.0014 195.627 25.1246C196.428 27.2477 197.186 29.2987 197.916 31.263C198.645 33.2345 199.353 35.1337 200.032 36.9753C200.711 38.8168 201.404 40.6366 202.083 42.4276C202.393 43.3158 202.689 44.0452 202.957 44.6302C203.231 45.2151 203.534 45.8795 203.874 46.6234C203.931 46.7389 204.061 46.9411 204.256 47.2227C204.459 47.5116 204.719 47.8005 205.051 48.0966C205.376 48.3999 205.787 48.6598 206.271 48.8909C206.755 49.122 207.326 49.252 207.983 49.2737V49.7864H195.489H195.497ZM189.893 23.8536C189.719 24.2219 189.474 24.8068 189.142 25.6084C188.817 26.41 188.405 27.3777 187.921 28.5187C187.437 29.6598 186.903 30.9524 186.318 32.3895C185.733 33.8266 185.097 35.3937 184.411 37.0764H195.063C194.579 35.7909 194.088 34.5127 193.59 33.2272C193.092 31.9418 192.608 30.7069 192.139 29.5225C191.669 28.3382 191.243 27.255 190.853 26.2728C190.47 25.2907 190.145 24.4818 189.893 23.8536Z" fill="#A85F41"/>
</svg>
