<svg width="756" height="611" viewBox="0 0 756 611" fill="none" xmlns="http://www.w3.org/2000/svg">
<g opacity="0.05" clip-path="url(#clip0_100_962)">
<path d="M180.43 610.98C181.36 610.88 182.06 610.22 182.17 608.99C182.55 604.97 181.65 602.45 177.58 596.03C175.3 592.43 171.47 584.07 169.11 577.49C166.75 570.91 163.25 561.58 161.34 556.76C159.43 551.94 157.44 542.65 156.9 536.08C156.31 528.79 154.45 520.72 152.11 515.45C148.68 507.7 148.29 504.8 148.57 487.54C148.76 475.83 148.16 466.48 147.02 463.67C144.94 458.5 146.28 440.95 148.86 439.35C150.7 438.21 152.87 441.14 154.29 446.73C155.84 452.81 175.14 492.22 183.4 506.14C190.36 517.87 194.97 521.45 196.76 516.51C197.16 515.41 192.93 505.79 187.34 495.08C177.59 476.38 175.53 470.66 178.57 470.66C179.34 470.66 181.85 473.1 184.1 476.04C186.35 478.99 190.52 482.57 193.42 484.01C196.32 485.45 201.71 488.89 205.38 491.63C212.01 496.58 217.04 496.94 217.04 492.48C217.04 490.32 201.02 478.63 198.05 478.63C197.23 478.63 194.04 475.73 190.97 472.15C187.33 467.9 183.12 464.96 178.76 463.68C172.48 461.83 171.77 460.95 166.45 449.03C163.34 442.07 159.12 430.27 157.08 422.82L153.39 409.26L156.53 387.73C160.14 363.19 162.94 350.13 166.7 340.08C168.14 336.23 170 327.67 170.84 321.04C174.06 295.65 184.5 269.96 202.69 242.59C217.85 219.79 229.59 198.69 233.94 186.47C240.07 169.24 245.36 162.08 266.29 142.46C276.71 132.7 288.73 120.28 293 114.85C310.87 92.1703 323.5 81.8604 349.47 68.7504C354.64 66.1404 361.23 61.9504 364.12 59.4304C379.46 46.0504 399.58 33.7603 413.01 29.5304C420.59 27.1404 432.87 22.5003 440.32 19.2104C447.78 15.9204 461.05 11.3104 469.82 8.99039C478.59 6.67039 492.23 2.63035 500.12 -0.0296244C508.01 -2.6896 523.44 -7.60958 534.41 -10.9396C545.37 -14.2696 565.21 -20.6596 578.52 -25.1396C594.33 -30.4696 605.38 -33.3096 610.42 -33.3096C620.89 -33.3296 630.1 -36.0396 634.89 -40.5396C640.26 -45.5697 646.35 -47.6696 655.52 -47.6696C661.62 -47.6696 664.38 -48.6396 669.18 -52.4596C677.65 -59.1996 685.63 -61.0696 706.66 -61.3296C716.75 -61.4496 726.95 -62.0696 729.34 -62.7296C731.83 -63.4095 737.14 -63.0296 741.8 -61.8296C751.23 -59.4196 755.31 -60.9796 755.31 -66.9696C755.31 -72.7396 744.24 -77.4496 726.01 -79.4296C716.9 -80.4196 709.43 -82.1296 706.87 -83.8196C704.56 -85.3396 698.84 -88.6696 694.11 -91.1996C684.83 -96.1696 683.94 -96.1496 658.82 -90.3996C651.29 -88.6796 643 -88.4496 620.54 -89.3496C607.55 -89.8696 606.48 -89.5996 595.02 -83.8696C588.44 -80.5796 581.91 -77.0796 580.52 -76.0996C578.99 -75.0196 575.68 -74.7896 572.15 -75.4496C567.13 -76.3896 566.32 -77.1296 566.32 -80.8296C566.32 -83.1996 568.53 -89.7796 571.2 -95.4296C574.15 -101.67 575.87 -107.62 575.59 -110.58C575.14 -115.17 574.69 -115.46 567.67 -115.91C556.71 -116.62 544.97 -109.47 526.01 -90.4896C508.77 -73.2396 493.77 -63.8396 470.49 -55.5996C461.67 -52.4796 455.51 -49.0596 450.75 -44.6796C446.53 -40.7896 441.74 -37.9796 438.49 -37.4996C424.56 -35.4496 392.91 -31.6396 389.95 -31.6696C388.12 -31.6896 383.71 -29.0296 380.13 -25.7396C376.55 -22.4496 371.25 -18.9096 368.32 -17.9196C365.39 -16.9296 359.08 -14.5896 354.27 -12.7396C341.63 -7.85959 309.29 -7.84959 299.8 -12.6896C296.26 -14.4996 288.25 -17.2896 281.96 -18.9196C267.21 -22.7296 265.7 -23.3497 255.89 -29.5896C247.89 -34.6797 240.99 -41.7397 240.99 -44.8396C240.99 -45.6797 239.7 -48.2896 238.1 -50.6196C234.27 -56.1796 228.65 -70.5796 226.79 -79.5796C225.97 -83.5296 223.74 -93.5696 221.86 -101.91C218.02 -118.89 217.2 -153.72 220.27 -168.1C221.21 -172.49 222.41 -178.86 222.96 -182.3C223.79 -187.46 226.34 -190.89 237.41 -201.79C250.18 -214.36 252.89 -219.41 247.88 -221.08C246.84 -221.42 243.1 -219.04 239.51 -215.8C235.92 -212.55 232.5 -210.35 231.93 -210.92C231.37 -211.48 232.15 -218.48 233.67 -226.42C236.64 -241.87 235.86 -245.46 229.58 -245.46C225.66 -245.46 224.51 -242.19 220.31 -219.09C218.39 -208.55 214.8 -195.36 212.29 -189.64C207.36 -178.43 205.2 -170.78 203.57 -158.94C203 -154.77 201.92 -151.36 201.18 -151.36C199.68 -151.36 189.99 -167.45 187.72 -173.69C186.09 -178.18 181.38 -185.45 173.27 -196.02C168.48 -202.26 154.3 -229.26 147.45 -245.16C145.72 -249.19 144.34 -250.33 141.67 -249.95C136.04 -249.15 136.63 -244.81 144.51 -229.32C148.82 -220.84 151.36 -214.15 150.54 -213.32C149.72 -212.5 146.14 -213.88 142.02 -216.61C128.31 -225.69 112.61 -228.85 112.61 -222.54C112.61 -220.32 114.93 -218.88 121.78 -216.76C126.81 -215.2 134.71 -211.56 139.32 -208.69C161.05 -195.18 164.85 -191.97 171.76 -181.28C175.6 -175.35 179.44 -170.52 180.33 -170.52C181.23 -170.52 181.97 -169.38 181.97 -167.98C181.97 -166.58 182.96 -163.53 184.16 -161.2C191.52 -146.97 197.79 -129.93 197.87 -123.97C197.9 -121.61 198.62 -119.26 199.46 -118.74C200.3 -118.22 200.9 -115.84 200.81 -113.46C200.58 -107.23 204.02 -86.5296 206.54 -78.9196C207.72 -75.3496 209.17 -69.6896 209.78 -66.3096L210.88 -60.1296L204 -61.4296C200.22 -62.1396 194.97 -62.6496 192.34 -62.5297C187.09 -62.2897 179.02 -64.3096 171.61 -67.7096C168.98 -68.9197 164.31 -70.2696 161.24 -70.7496C157.43 -71.3496 153.13 -74.1296 147.68 -79.4196C137.38 -89.4396 125.28 -104.43 121.76 -111.52C118.97 -117.14 114.33 -119.45 111.54 -116.65C109.53 -114.64 119.06 -98.4896 129.33 -86.4996C133.71 -81.3896 137.3 -76.4096 137.3 -75.4396C137.32 -74.2596 131.58 -73.6296 120.16 -73.4996C82.3001 -73.0696 48.1901 -65.4996 57.6601 -59.6396C58.5801 -59.0696 71.0101 -60.1396 85.3201 -62.0297C120.04 -66.6296 140.77 -65.7496 164.41 -58.5897C167.48 -57.6597 171.07 -55.9797 172.38 -54.8497C173.7 -53.7197 182.84 -50.1196 192.72 -46.8796C212.85 -40.2796 218.62 -36.8597 233.59 -22.6597C239.32 -17.2297 246.34 -11.5496 249.24 -9.99962C258.08 -5.28959 285.98 6.59041 293.6 8.8904C305.82 12.5804 325.84 14.9004 336.41 13.8204C345.51 12.8904 346.42 13.0803 345.93 15.6104C345.6 17.3204 339.78 21.2404 331.08 25.6304C312.03 35.2304 299.03 43.8904 295.7 49.2004C294.2 51.5904 289.66 57.8404 285.63 63.1104C281.6 68.3704 276.96 74.8504 275.31 77.4603C270.68 84.8203 258.6 97.2403 249.44 104.02C244.87 107.41 237.34 113.98 232.69 118.62C228.05 123.27 219.1 130.47 212.81 134.67C206.52 138.87 200.99 143.24 200.55 144.39C199.72 146.56 177.85 153.81 166.81 155.55C163.3 156.11 154.33 157.91 146.88 159.59C133.34 162.64 118.97 165.78 98.6401 170.11C89.1601 172.13 87.2601 172.14 83.2401 170.06C80.7201 168.76 72.3201 165.52 64.5501 162.88C56.7801 160.25 42.8601 155.19 33.6501 151.62C15.8101 144.71 6.84013 143.3 2.70011 146.74C-1.71987 150.41 -0.499899 153.79 4.84013 152.72C9.11015 151.87 26.7701 156.7 36.0401 161.29C37.7901 162.16 48.1601 165.91 59.0701 169.61C69.9801 173.32 79.0801 177.06 79.3001 177.93C79.7701 179.81 64.0301 190.28 54.1301 194.63C50.3301 196.3 41.8201 198.82 35.2401 200.26C17.4001 204.16 15.3101 204.92 15.3101 207.49C15.3101 209.35 17.64 209.82 26.4701 209.73C38.94 209.61 56.2901 204.68 65.8901 198.52C69.1601 196.42 72.6401 194.68 73.6101 194.68C74.5901 194.68 77.2101 193.25 79.4401 191.49C81.6701 189.74 84.8001 188.3 86.3701 188.3C87.9401 188.3 91.3001 186.55 93.8501 184.41C98.0201 180.91 102.89 179.26 125.9 173.7C136.26 171.19 137.65 173.86 129.99 181.67C120.12 191.73 109.59 204.63 107.01 209.83C105.71 212.46 102.65 217.84 100.23 221.74C97.8101 225.64 95.8401 230.08 95.8401 231.61C95.8401 236.93 99.4701 236.73 104.01 231.21C106.47 228.22 110.6 223.27 113.13 220.2C115.66 217.13 118.63 212.82 119.76 210.63C124.56 201.33 141.42 183.49 149.46 179.13C151.53 178.01 159.89 176.46 168.05 175.69C180.67 174.5 184.79 173.27 195.81 167.72C202.94 164.13 209.19 161.19 209.72 161.19C212.16 161.19 210.13 168.1 204.49 178.88C201.09 185.39 197.76 192.49 197.11 194.68C194.97 201.89 183.95 224.11 179.72 229.72C177.44 232.74 175.58 236.07 175.58 237.15C175.58 238.23 173.91 241.15 171.84 243.63C169.78 246.11 167.66 249.91 167.16 252.1C164.8 262.31 160.31 272.59 155.65 278.41C152.84 281.92 148.71 288.38 146.48 292.76C144.25 297.15 137.85 306.38 132.28 313.29C126.71 320.2 120.37 328.45 118.18 331.63C111.95 340.66 101.66 350.97 98.8401 350.97C97.4401 350.97 93.1101 352.34 89.2701 354.01C85.4301 355.68 78.2501 357.89 73.3201 358.89C67.9501 359.98 60.5301 363.2 54.7301 366.96C43.4 374.32 42.46 375.47 45.6601 378.12C47.63 379.76 49.69 379.12 57.2201 374.48C62.2501 371.38 69.5701 367.96 73.5201 366.9C77.4701 365.85 83.8101 363.95 87.6201 362.66C91.4301 361.37 94.8601 360.57 95.2001 360.91C95.5401 361.25 92.6001 368.84 88.6701 377.76C84.7501 386.68 80.8301 396.68 80.0001 399.99C78.4001 406.33 76.0801 414.77 74.2701 420.72C73.4801 423.32 73.9101 424.56 75.9601 425.35C79.3501 426.65 84.64 420.93 84.78 415.78C84.83 413.9 88.0101 406.24 91.8101 398.79C95.6101 391.33 101.28 379.93 104.47 373.42C110.98 360.11 117.27 351.87 132.93 336.14C138.85 330.19 143.69 324.63 143.69 323.78C143.69 322.93 144.83 322.24 146.18 322.24C149.12 322.24 149.01 323.11 141.25 362.11C139.77 369.57 137.95 382.48 137.21 390.82C135.43 411.01 132.85 437.24 131.53 449.03C130.86 455.03 131.53 467.53 133.32 482.52L136.21 506.44L129.43 526.38C125.71 537.34 122.09 547.03 121.41 547.91C120.73 548.79 119.31 552.38 118.27 555.88C117.23 559.39 114.9 565.7 113.04 569.88C110.34 575.95 110.06 577.88 111.65 579.45C114.44 582.2 116.43 579.2 129.09 553.13C134.94 541.08 140.6 531.22 141.7 531.2C142.8 531.19 143.69 532.05 143.69 533.14C143.69 534.24 145.73 540.16 148.23 546.3C150.72 552.44 153.2 560.63 153.71 564.49C154.22 568.35 156.02 573.42 157.75 575.75C159.48 578.08 162.54 583.89 164.53 588.66C166.52 593.43 169.36 598.77 170.86 600.52C172.36 602.27 174.43 605.32 175.45 607.3C176.68 609.79 178.88 611.14 180.43 610.98ZM251.59 135.57C251.49 135.55 251.4 135.53 251.34 135.47C250.17 134.3 262.72 116.53 272.42 105.62C277.58 99.8104 283.78 92.4604 286.17 89.2704C288.57 86.0804 293.17 81.6004 296.44 79.3504C302.99 74.8303 314.33 69.7103 314.33 71.2804C314.33 71.8303 309.13 77.4304 302.77 83.6904C296.41 89.9504 289.22 97.7503 286.77 101.03C276.79 114.4 254.71 135.98 251.59 135.57ZM469.64 -11.2996C469.21 -11.2496 468.82 -11.2696 468.49 -11.2996C467.84 -11.3696 467.44 -11.6196 467.44 -11.9996C467.44 -12.7596 474.8 -16.7996 483.79 -20.9696C497.38 -27.2796 501.69 -28.5496 509.36 -28.5496C516.12 -28.5296 520.74 -29.6396 526.65 -32.6396C535.69 -37.2196 556.75 -40.0795 556.75 -36.7296C556.75 -34.2496 552.49 -32.5296 534.42 -27.8096C526.09 -25.6296 514.68 -22.0496 509.05 -19.8396C503.43 -17.6296 493.38 -15.1296 486.72 -14.2596C480.06 -13.3896 472.99 -12.1696 471.02 -11.6196C470.54 -11.4596 470.07 -11.3496 469.64 -11.2996ZM586.79 -43.2396C579.47 -42.0396 580.88 -45.1896 583.62 -46.2996C586.08 -47.3796 590.05 -47.6596 591.54 -47.6396C593.86 -47.6196 594.5 -46.3196 592.44 -44.9896C590.88 -43.9696 589.11 -43.6196 586.79 -43.2396Z" fill="#0A0A0A"/>
</g>
<defs>
<clipPath id="clip0_100_962">
<rect width="755.31" height="860.99" fill="white" transform="translate(755.31 610.99) rotate(-180)"/>
</clipPath>
</defs>
</svg>
