<svg width="623" height="907" viewBox="0 0 623 907" fill="none" xmlns="http://www.w3.org/2000/svg">
<g clip-path="url(#clip0_48_678)">
<path opacity="0.05" d="M554.648 658.854C555.489 657.701 555.864 655.347 556.217 651.358C557.808 633.377 563.218 621.533 586.757 584.275C605.983 553.848 613.111 533.059 612.482 509.279C611.966 489.714 610.261 481.66 603.77 467.956C600.779 461.642 598.347 455.363 598.333 453.991C598.304 450.597 612.984 430.713 621.222 423.012C626.072 418.473 628.979 414.209 631.694 407.59C633.766 402.549 638.334 393.342 641.862 387.084C645.631 380.402 649.81 369.562 651.981 360.872C654.01 352.747 657.496 342.827 659.667 338.817C662.891 332.863 663.662 327.1 664.108 307.422C664.871 273.82 664.921 262.853 664.178 247.827C663.818 240.65 664.32 228.876 665.345 221.685C668.951 196.498 666.583 157.048 660.176 135.863C657.687 127.647 654.781 115.251 653.706 108.308C652.624 101.371 647.993 84.3366 643.411 70.4773C636.361 49.1863 633.44 42.688 624.453 28.5812C612.913 10.4793 607.249 5.1972 599.577 5.20427C592.548 5.20426 589.967 9.31257 590.851 19.1484C591.283 24.0062 592.421 30.4904 593.39 33.538C595.264 39.4424 593.524 42.3981 586.786 44.9225C583.653 46.0892 582.38 47.6307 580.733 52.2622C578.088 59.6869 579.983 69.0348 586.828 82.3143C598.191 104.355 609.385 145.091 611.068 170.505C611.817 181.889 612.545 180.468 590.187 211.057C572.035 235.884 569.886 239.151 565.636 248.562C563.515 253.257 560.064 259.947 557.985 263.454C554.167 269.888 542.683 298.413 537.592 314.125C536.072 318.813 533.767 323.692 532.466 324.993C528.902 328.585 527.247 342.657 529.326 351.948C533.074 368.692 544.303 398.759 549.634 406.367C556.939 416.797 567.821 437.791 567.531 440.881C567.404 442.253 561.966 449.444 555.425 456.833C544.338 469.349 543.15 470.297 537.903 471.089C534.806 471.555 524.694 474.327 515.389 477.212C505.44 480.302 493.66 482.551 486.822 482.671C476.038 482.862 474.752 482.452 469.851 477.552C464.619 472.319 462.823 468.783 441.348 422.178C435.938 410.447 430.649 399.996 429.589 398.935C428.528 397.875 425.106 391.949 422.008 385.783C417.709 377.227 413.99 372.179 406.254 364.415C394.106 352.238 390.733 350.096 386.809 352.125C381.201 355.031 383.054 359.147 397.436 375.749C409.224 389.347 411.607 392.932 415.333 402.796C424.915 428.146 437.254 452.421 448.716 468.536C456.254 479.128 455.426 482.233 445.972 479.143C423.324 471.739 411.084 466.174 405.802 460.892C402.726 457.816 395.704 452.35 390.224 448.765C378.84 441.298 361.098 436.978 346.164 438.024C341.32 438.371 334.667 438.83 331.449 439.035C323.516 439.559 319.4 443.816 322.236 448.56C324.124 451.721 327.157 452.209 346.299 452.386C358.341 452.492 368.891 453.284 369.76 454.153C370.63 455.023 374.364 456.692 378.048 457.802C387.261 460.581 387.007 463.339 377.051 468.43C364.606 474.794 335.777 505.504 328.281 520.381C325.22 526.455 326.507 531.999 331.089 532.423C333.677 532.664 335.727 531.08 341.561 524.157C348.293 516.167 370.185 496.495 387.968 482.53L395.548 476.59L408.192 480.875C415.135 483.237 424.582 486.801 429.186 488.788C433.789 490.774 441.369 492.952 446.05 493.674C450.724 494.388 457.802 495.809 461.72 496.785C470.756 499.062 486.539 499.627 493.652 497.959C502.272 495.943 520.975 494.777 521.315 496.233C521.484 496.955 514.993 505.454 506.911 515.106C494.522 529.885 487.946 536.333 465.1 556.253C438.449 579.495 437.692 579.997 421.386 587.408C412.264 591.551 400.774 596.282 395.817 597.901C390.86 599.52 381.109 603.162 374.166 605.948C361.07 611.195 316.239 624.305 309.798 624.792C307.775 624.948 304.883 623.852 303.37 622.339C301.857 620.826 298.371 619.136 295.592 618.634C292.813 618.117 288.068 616.625 285.056 615.296C277.836 612.107 252.883 605.425 249.432 605.75C246.575 606.019 243.648 612.213 245.493 614.059C248.265 616.83 257.422 620.09 263.086 620.338C274.895 620.847 284.031 625.33 280.495 628.865C279.937 629.424 275.715 630.732 271.041 631.786C266.36 632.832 260.053 635.463 257.055 637.641C254.056 639.818 248.392 643.418 244.461 645.596C237.291 649.569 218.496 667.191 215.003 673.243C213.921 675.117 214.027 677.345 215.25 678.568C218.772 682.089 227.49 678.023 240.862 666.618C262.358 648.275 281.81 638.935 298.845 638.814C314.189 638.701 339.454 633.009 368.898 623.081C383.082 618.301 395.124 614.829 395.683 615.388C397.825 617.53 380.834 629.77 363.531 638.475C320.609 660.084 316.091 662.552 286.725 681.212C279.137 686.028 267.251 692.908 260.272 696.479C243.004 705.318 222.067 720.457 209.247 733.446C200.387 742.42 197.933 745.991 194.334 754.596C186.316 773.773 184.845 789.202 190.905 790.637C193.776 791.316 195.253 789.046 198.478 778.991C204.488 760.309 208.646 754.271 227.25 737.364C236.513 728.949 246.611 720.492 249.672 718.604C257.96 713.499 267.173 710.211 268.715 711.752C269.931 712.969 268.092 717.975 259.614 736.678C255.386 745.998 246.83 782.555 246.25 793.798C245.783 802.637 248.463 821.297 250.733 825.109C254.87 832.06 257.359 826.601 257.514 810.281C257.663 794.845 261.205 768.604 263.836 763.569C264.875 761.568 271.89 742.476 276.168 729.897C276.712 728.292 278.133 725.979 279.35 724.763C280.559 723.554 281.351 721.744 281.117 720.747C280.87 719.722 286.159 713.358 293.223 706.209C300.124 699.223 306.382 692.102 307.118 690.362C307.91 688.51 310.682 686.12 313.814 684.642C316.756 683.242 324.859 678.165 331.803 673.328C345.917 663.485 362.484 654.951 376.435 650.305C381.548 648.601 392.26 643.799 400.3 639.649C408.333 635.505 418.947 630.874 423.833 629.325C433.428 626.306 433.216 626.49 467.058 592.068C474.744 584.254 489.382 569.447 499.564 559.166C509.746 548.885 524.857 533.01 533.18 523.966C541.495 514.915 555.814 500.808 564.978 492.606C580.973 478.294 581.744 477.792 584.487 479.857C588.391 482.784 593.305 500.002 593.531 511.698C593.708 522.241 591.714 529.892 586.227 539.777C584.233 543.369 582.458 547.166 582.295 548.262C581.921 550.758 575.804 563.705 568.174 578.109C563.896 586.177 559.428 592.089 551.671 599.959C539.268 612.531 533.915 615.466 494.239 631.581C455.66 647.25 446.998 652.688 429.956 671.78C421.238 681.545 417.653 686.77 414.647 694.117C412.491 699.399 409.754 704.78 408.573 706.074C406.537 708.281 405.363 711.533 397.903 735.709C394.983 745.177 395.315 749.936 398.829 749.943C400.809 749.943 409.167 735.009 409.684 730.561C409.86 729.027 412.102 722.797 414.676 716.688C420.043 703.953 431.462 690.921 452.131 674.014C458.587 668.732 465.276 662.962 467.002 661.18C468.72 659.391 480.585 653.494 493.37 648.077C506.154 642.661 523.075 634.989 530.952 631.086C538.83 627.182 546.452 623.859 547.881 623.703C551.699 623.279 551.515 628.568 547.329 640.434C543.504 651.259 544.458 657.546 550.179 659.278C552.13 659.872 553.396 659.992 554.266 659.25C554.393 659.137 554.527 659.016 554.648 658.854ZM586.001 413.558C583.278 416.281 582.295 416.302 579.905 413.912C575.656 409.662 568.486 394.431 561.895 375.622C557.228 362.3 555.92 355.123 555.418 340.111C554.739 319.619 555.538 317.279 569.228 299.516C575.111 291.879 578.604 286.59 592.98 263.475C599.224 253.441 610.184 240.119 612.178 240.119C616.279 240.119 617.849 246.229 618.761 265.313C619.609 283.09 618.796 291.413 613.429 319.209C609.95 337.283 606.563 355.59 605.92 359.91C603.749 374.597 591.212 408.347 586.001 413.558ZM648.445 303.158C648.382 303.221 648.325 303.25 648.268 303.25C645.164 303.257 643.899 296.009 644.443 281.308C644.789 271.911 644.061 263.829 642.654 261.53C641.07 258.942 640.907 254.367 642.194 247.806C646.663 225.051 647.18 219.203 647.144 188.988C647.102 156.971 645.758 148.103 636.644 119.006C634.381 111.779 630.541 97.8706 628.088 88.0913C623.187 68.5257 617.566 52.4107 614.603 49.3772C613.549 48.2954 611.513 44.2649 610.071 40.4323C607.638 33.9552 608.19 29.4863 611.068 32.3642C614.087 35.3836 622.721 51.541 623.951 56.4766C624.694 59.4535 626.2 63.5052 627.31 65.4922C631.659 73.2916 638.411 96.9443 640.328 111.122C641.438 119.317 644.231 131.769 646.536 138.77C648.841 145.77 650.977 154.397 651.288 157.975C653.947 188.508 654.293 204.043 652.546 214.218C650.305 227.321 649.669 252.31 651.359 261.637C652.603 268.51 650.248 301.128 648.445 303.158Z" fill="#0A0A0A"/>
</g>
<defs>
<clipPath id="clip0_48_678">
<rect width="849.21" height="433.49" fill="white" transform="translate(907.006 306.524) rotate(135)"/>
</clipPath>
</defs>
</svg>
