<svg width="490" height="406" viewBox="0 0 490 406" fill="none" xmlns="http://www.w3.org/2000/svg">
<g opacity="0.05" clip-path="url(#clip0_48_676)">
<path d="M308.88 -454.99C307.95 -454.89 307.25 -454.23 307.14 -453C306.76 -448.98 307.66 -446.46 311.73 -440.04C314.01 -436.44 317.84 -428.08 320.2 -421.5C322.56 -414.92 326.06 -405.59 327.97 -400.77C329.88 -395.95 331.87 -386.66 332.41 -380.09C333 -372.8 334.86 -364.73 337.2 -359.46C340.63 -351.71 341.02 -348.81 340.74 -331.55C340.55 -319.84 341.15 -310.49 342.29 -307.68C344.37 -302.51 343.03 -284.96 340.45 -283.36C338.61 -282.22 336.44 -285.15 335.02 -290.74C333.47 -296.82 314.17 -336.23 305.91 -350.15C298.95 -361.88 294.34 -365.46 292.55 -360.52C292.15 -359.42 296.38 -349.8 301.97 -339.09C311.72 -320.39 313.78 -314.67 310.74 -314.67C309.97 -314.67 307.46 -317.11 305.21 -320.05C302.96 -323 298.79 -326.58 295.89 -328.02C292.99 -329.46 287.6 -332.9 283.93 -335.64C277.3 -340.59 272.27 -340.95 272.27 -336.49C272.27 -334.33 288.29 -322.64 291.26 -322.64C292.08 -322.64 295.27 -319.74 298.34 -316.16C301.98 -311.91 306.19 -308.97 310.55 -307.69C316.83 -305.84 317.54 -304.96 322.86 -293.04C325.97 -286.08 330.19 -274.28 332.23 -266.83L335.92 -253.27L332.78 -231.74C329.17 -207.2 326.37 -194.14 322.61 -184.09C321.17 -180.24 319.31 -171.68 318.47 -165.05C315.25 -139.66 304.81 -113.97 286.62 -86.6C271.46 -63.8 259.72 -42.7 255.37 -30.48C249.24 -13.25 243.95 -6.08997 223.02 13.53C212.6 23.29 200.58 35.7101 196.31 41.14C178.44 63.8201 165.81 74.13 139.84 87.24C134.67 89.85 128.08 94.04 125.19 96.56C109.85 109.94 89.73 122.23 76.3 126.46C68.72 128.85 56.44 133.49 48.99 136.78C41.53 140.07 28.26 144.68 19.49 147C10.72 149.32 -2.91998 153.36 -10.81 156.02C-18.7 158.68 -34.13 163.6 -45.1 166.93C-56.06 170.26 -75.9 176.65 -89.21 181.13C-105.02 186.46 -116.07 189.3 -121.11 189.3C-131.58 189.32 -140.79 192.03 -145.58 196.53C-150.95 201.56 -157.04 203.66 -166.21 203.66C-172.31 203.66 -175.07 204.63 -179.87 208.45C-188.34 215.19 -196.32 217.06 -217.35 217.32C-227.44 217.44 -237.64 218.06 -240.03 218.72C-242.52 219.4 -247.83 219.02 -252.49 217.82C-261.92 215.41 -266 216.97 -266 222.96C-266 228.73 -254.93 233.44 -236.7 235.42C-227.59 236.41 -220.12 238.12 -217.56 239.81C-215.25 241.33 -209.53 244.66 -204.8 247.19C-195.52 252.16 -194.63 252.14 -169.51 246.39C-161.98 244.67 -153.69 244.44 -131.23 245.34C-118.24 245.86 -117.17 245.59 -105.71 239.86C-99.13 236.57 -92.6 233.07 -91.21 232.09C-89.68 231.01 -86.37 230.78 -82.84 231.44C-77.82 232.38 -77.01 233.12 -77.01 236.82C-77.01 239.19 -79.22 245.77 -81.89 251.42C-84.84 257.66 -86.56 263.61 -86.28 266.57C-85.83 271.16 -85.38 271.45 -78.36 271.9C-67.4 272.61 -55.66 265.46 -36.7 246.48C-19.46 229.23 -4.45999 219.83 18.82 211.59C27.64 208.47 33.8 205.05 38.56 200.67C42.78 196.78 47.57 193.97 50.82 193.49C64.75 191.44 96.4 187.63 99.36 187.66C101.19 187.68 105.6 185.02 109.18 181.73C112.76 178.44 118.06 174.9 120.99 173.91C123.92 172.92 130.23 170.58 135.04 168.73C147.68 163.85 180.02 163.84 189.51 168.68C193.05 170.49 201.06 173.28 207.35 174.91C222.1 178.72 223.61 179.34 233.42 185.58C241.42 190.67 248.32 197.73 248.32 200.83C248.32 201.67 249.61 204.28 251.21 206.61C255.04 212.17 260.66 226.57 262.52 235.57C263.34 239.52 265.57 249.56 267.45 257.9C271.29 274.88 272.11 309.71 269.04 324.09C268.1 328.48 266.9 334.85 266.35 338.29C265.52 343.45 262.97 346.88 251.9 357.78C239.13 370.35 236.42 375.4 241.43 377.07C242.47 377.41 246.21 375.03 249.8 371.79C253.39 368.54 256.81 366.34 257.38 366.91C257.94 367.47 257.16 374.47 255.64 382.41C252.67 397.86 253.45 401.45 259.73 401.45C263.65 401.45 264.8 398.18 269 375.08C270.92 364.54 274.51 351.35 277.02 345.63C281.95 334.42 284.11 326.77 285.74 314.93C286.31 310.76 287.39 307.35 288.13 307.35C289.63 307.35 299.32 323.44 301.59 329.68C303.22 334.17 307.93 341.44 316.04 352.01C320.83 358.25 335.01 385.25 341.86 401.15C343.59 405.18 344.97 406.32 347.64 405.94C353.27 405.14 352.68 400.8 344.8 385.31C340.49 376.83 337.95 370.14 338.77 369.31C339.59 368.49 343.17 369.87 347.29 372.6C361 381.68 376.7 384.84 376.7 378.53C376.7 376.31 374.38 374.87 367.53 372.75C362.5 371.19 354.6 367.55 349.99 364.68C328.26 351.17 324.46 347.96 317.55 337.27C313.71 331.34 309.87 326.51 308.98 326.51C308.08 326.51 307.34 325.37 307.34 323.97C307.34 322.57 306.35 319.52 305.15 317.19C297.79 302.96 291.52 285.92 291.44 279.96C291.41 277.6 290.69 275.25 289.85 274.73C289.01 274.21 288.41 271.83 288.5 269.45C288.73 263.22 285.29 242.52 282.77 234.91C281.59 231.34 280.14 225.68 279.53 222.3L278.43 216.12L285.31 217.42C289.09 218.13 294.34 218.64 296.97 218.52C302.22 218.28 310.29 220.3 317.7 223.7C320.33 224.91 325 226.26 328.07 226.74C331.88 227.34 336.18 230.12 341.63 235.41C351.93 245.43 364.03 260.42 367.55 267.51C370.34 273.13 374.98 275.44 377.77 272.64C379.78 270.63 370.25 254.48 359.98 242.49C355.6 237.38 352.01 232.4 352.01 231.43C351.99 230.25 357.73 229.62 369.15 229.49C407.01 229.06 441.12 221.49 431.65 215.63C430.73 215.06 418.3 216.13 403.99 218.02C369.27 222.62 348.54 221.74 324.9 214.58C321.83 213.65 318.24 211.97 316.93 210.84C315.61 209.71 306.47 206.11 296.59 202.87C276.46 196.27 270.69 192.85 255.72 178.65C249.99 173.22 242.97 167.54 240.07 165.99C231.23 161.28 203.33 149.4 195.71 147.1C183.49 143.41 163.47 141.09 152.9 142.17C143.8 143.1 142.89 142.91 143.38 140.38C143.71 138.67 149.53 134.75 158.23 130.36C177.28 120.76 190.28 112.1 193.61 106.79C195.11 104.4 199.65 98.15 203.68 92.88C207.71 87.62 212.35 81.14 214 78.53C218.63 71.17 230.71 58.7501 239.87 51.97C244.44 48.58 251.97 42.01 256.62 37.37C261.26 32.72 270.21 25.5201 276.5 21.32C282.79 17.12 288.32 12.75 288.76 11.6C289.59 9.43002 311.46 2.18002 322.5 0.440033C326.01 -0.119965 334.98 -1.91998 342.43 -3.59998C355.97 -6.64996 370.34 -9.78998 390.67 -14.12C400.15 -16.14 402.05 -16.15 406.07 -14.07C408.59 -12.77 416.99 -9.53 424.76 -6.88998C432.53 -4.25998 446.45 0.800018 455.66 4.37003C473.5 11.28 482.47 12.69 486.61 9.25003C491.03 5.58002 489.81 2.20001 484.47 3.27002C480.2 4.12003 462.54 -0.709961 453.27 -5.29996C451.52 -6.16995 441.15 -9.91995 430.24 -13.62C419.33 -17.33 410.23 -21.07 410.01 -21.94C409.54 -23.82 425.28 -34.29 435.18 -38.64C438.98 -40.31 447.49 -42.83 454.07 -44.27C471.91 -48.17 474 -48.93 474 -51.5C474 -53.36 471.67 -53.83 462.84 -53.74C450.37 -53.62 433.02 -48.69 423.42 -42.53C420.15 -40.43 416.67 -38.69 415.7 -38.69C414.72 -38.69 412.1 -37.26 409.87 -35.5C407.64 -33.75 404.51 -32.31 402.94 -32.31C401.37 -32.31 398.01 -30.56 395.46 -28.42C391.29 -24.92 386.42 -23.27 363.41 -17.71C353.05 -15.2 351.66 -17.87 359.32 -25.68C369.19 -35.74 379.72 -48.64 382.3 -53.84C383.6 -56.47 386.66 -61.85 389.08 -65.75C391.5 -69.65 393.47 -74.09 393.47 -75.62C393.47 -80.94 389.84 -80.74 385.3 -75.22C382.84 -72.23 378.71 -67.28 376.18 -64.21C373.65 -61.14 370.68 -56.83 369.55 -54.64C364.75 -45.34 347.89 -27.5 339.85 -23.14C337.78 -22.02 329.42 -20.47 321.26 -19.7C308.64 -18.51 304.52 -17.28 293.5 -11.73C286.37 -8.13998 280.12 -5.19998 279.59 -5.19998C277.15 -5.19998 279.18 -12.11 284.82 -22.89C288.22 -29.4 291.55 -36.5 292.2 -38.69C294.34 -45.9 305.36 -68.12 309.59 -73.73C311.87 -76.75 313.73 -80.08 313.73 -81.16C313.73 -82.24 315.4 -85.16 317.47 -87.64C319.53 -90.12 321.65 -93.92 322.15 -96.11C324.51 -106.32 329 -116.6 333.66 -122.42C336.47 -125.93 340.6 -132.39 342.83 -136.77C345.06 -141.16 351.46 -150.39 357.03 -157.3C362.6 -164.21 368.94 -172.46 371.13 -175.64C377.36 -184.67 387.65 -194.98 390.47 -194.98C391.87 -194.98 396.2 -196.35 400.04 -198.02C403.88 -199.69 411.06 -201.9 415.99 -202.9C421.36 -203.99 428.78 -207.21 434.58 -210.97C445.91 -218.33 446.85 -219.48 443.65 -222.13C441.68 -223.77 439.62 -223.13 432.09 -218.49C427.06 -215.39 419.74 -211.97 415.79 -210.91C411.84 -209.86 405.5 -207.96 401.69 -206.67C397.88 -205.38 394.45 -204.58 394.11 -204.92C393.77 -205.26 396.71 -212.85 400.64 -221.77C404.56 -230.69 408.48 -240.69 409.31 -244C410.91 -250.34 413.23 -258.78 415.04 -264.73C415.83 -267.33 415.4 -268.57 413.35 -269.36C409.96 -270.66 404.67 -264.94 404.53 -259.79C404.48 -257.91 401.3 -250.25 397.5 -242.8C393.7 -235.34 388.03 -223.94 384.84 -217.43C378.33 -204.12 372.04 -195.88 356.38 -180.15C350.46 -174.2 345.62 -168.64 345.62 -167.79C345.62 -166.94 344.48 -166.25 343.13 -166.25C340.19 -166.25 340.3 -167.12 348.06 -206.12C349.54 -213.58 351.36 -226.49 352.1 -234.83C353.88 -255.02 356.46 -281.25 357.78 -293.04C358.45 -299.04 357.78 -311.54 355.99 -326.53L353.1 -350.45L359.88 -370.39C363.6 -381.35 367.22 -391.04 367.9 -391.92C368.58 -392.8 370 -396.39 371.04 -399.89C372.08 -403.4 374.41 -409.71 376.27 -413.89C378.97 -419.96 379.25 -421.89 377.66 -423.46C374.87 -426.21 372.88 -423.21 360.22 -397.14C354.37 -385.09 348.71 -375.23 347.61 -375.21C346.51 -375.2 345.62 -376.06 345.62 -377.15C345.62 -378.25 343.58 -384.17 341.08 -390.31C338.59 -396.45 336.11 -404.64 335.6 -408.5C335.09 -412.36 333.29 -417.43 331.56 -419.76C329.83 -422.09 326.77 -427.9 324.78 -432.67C322.79 -437.44 319.95 -442.78 318.45 -444.53C316.95 -446.28 314.88 -449.33 313.86 -451.31C312.63 -453.8 310.43 -455.15 308.88 -454.99ZM237.72 20.42C237.82 20.44 237.91 20.46 237.97 20.52C239.14 21.69 226.59 39.46 216.89 50.37C211.73 56.18 205.53 63.53 203.14 66.72C200.74 69.91 196.14 74.39 192.87 76.64C186.32 81.16 174.98 86.28 174.98 84.71C174.98 84.16 180.18 78.56 186.54 72.3C192.9 66.04 200.09 58.2401 202.54 54.96C212.52 41.59 234.6 20.01 237.72 20.42ZM19.67 167.29C20.1 167.24 20.49 167.26 20.82 167.29C21.47 167.36 21.87 167.61 21.87 167.99C21.87 168.75 14.51 172.79 5.51999 176.96C-8.07001 183.27 -12.38 184.54 -20.05 184.54C-26.81 184.52 -31.43 185.63 -37.34 188.63C-46.38 193.21 -67.44 196.07 -67.44 192.72C-67.44 190.24 -63.18 188.52 -45.11 183.8C-36.78 181.62 -25.37 178.04 -19.74 175.83C-14.12 173.62 -4.07001 171.12 2.59 170.25C9.25 169.38 16.32 168.16 18.29 167.61C18.77 167.45 19.24 167.34 19.67 167.29ZM-97.48 199.23C-90.16 198.03 -91.57 201.18 -94.31 202.29C-96.77 203.37 -100.74 203.65 -102.23 203.63C-104.55 203.61 -105.19 202.31 -103.13 200.98C-101.57 199.96 -99.8 199.61 -97.48 199.23Z" fill="#0A0A0A"/>
</g>
<defs>
<clipPath id="clip0_48_676">
<rect width="755.31" height="860.99" fill="white" transform="translate(-266 -455)"/>
</clipPath>
</defs>
</svg>
