<svg width="1133" height="261" viewBox="0 0 1133 261" fill="none" xmlns="http://www.w3.org/2000/svg">
<path d="M56.0036 27.019V87.5286L63.5444 88.2643V89H40.9222V88.2643L48.9227 87.5286V56.3542H18.3V87.5286L26.3006 88.2643V89H3.6784V88.2643L11.2191 87.5286V27.019L3.6784 26.2833V25.5476H26.3006V26.2833L18.3 27.019V54.8828H48.9227V27.019L40.9222 26.2833V25.5476H63.5444V26.2833L56.0036 27.019ZM123.635 88.2643V89H101.105V88.2643L108.646 87.3447L100.001 63.803H77.7471L70.1145 84.1261C69.8692 84.8005 69.7466 85.3523 69.7466 85.7814C69.7466 86.4558 69.9305 86.9462 70.2984 87.2528C70.7275 87.498 71.4632 87.6819 72.5054 87.8045L78.115 88.2643V89H58.5275V88.2643L63.6773 87.8045C65.2099 87.6819 66.2828 87.3754 66.8959 86.8849C67.5702 86.3945 68.1527 85.4749 68.6431 84.1261L91.1733 24.0762H92.8286L116.003 87.3447L123.635 88.2643ZM99.4497 62.3316L89.1502 34.2838H88.7823L78.2989 62.3316H99.4497ZM155.813 87.4367C158.449 86.2719 160.656 84.7085 162.434 82.7467C165.438 79.3749 167.706 74.3477 169.239 67.6653L170.434 67.8492V89H169.239L166.112 83.9422C163.353 85.9653 160.349 87.5593 157.1 88.7241C153.912 89.8889 150.816 90.4714 147.812 90.4714C142.478 90.4714 137.574 89 133.098 86.0573C128.684 83.1146 125.19 79.1296 122.615 74.1025C120.101 69.014 118.845 63.4045 118.845 57.2738C118.845 51.2044 120.101 45.6255 122.615 40.5371C125.19 35.4486 128.684 31.433 133.098 28.4903C137.513 25.5476 142.356 24.0762 147.628 24.0762C150.387 24.0762 153.207 24.536 156.088 25.4556C159.031 26.3139 162.28 27.6933 165.836 29.5938L168.043 25.1798H169.239L170.158 45.8708L168.871 46.2386C168.013 41.518 166.664 37.625 164.825 34.5597C162.985 31.5557 160.594 29.2567 157.652 27.6627C154.709 26.0074 151.46 25.1798 147.904 25.1798C141.406 25.1798 136.409 27.9692 132.915 33.5481C129.42 39.127 127.673 47.0356 127.673 57.2738C127.673 67.4507 129.42 75.3286 132.915 80.9075C136.409 86.4251 141.375 89.1839 147.812 89.1839C150.571 89.1839 153.238 88.6015 155.813 87.4367ZM174.368 25.5476H196.531V26.2833L188.99 27.019V87.5286L196.531 88.2643V89H174.368V88.2643L181.909 87.5286V27.019L174.368 26.2833V25.5476ZM245.756 69.6884L243.457 89H198.397V88.2643L205.937 87.5286V27.019L198.397 26.2833V25.5476H243.549L244.836 42.8361L243.917 42.928L238.767 30.0536C238.215 28.6436 237.602 27.724 236.928 27.2948C236.315 26.8657 235.272 26.6511 233.801 26.6511H213.018V54.8828H226.628C228.1 54.8828 229.142 54.6376 229.755 54.1472C230.368 53.6567 230.797 52.7065 231.042 51.2964L232.606 43.8476H233.709V67.3894H232.606L231.042 59.9406C230.797 58.5306 230.368 57.5803 229.755 57.0899C229.142 56.5994 228.1 56.3542 226.628 56.3542H213.018V87.8965H233.617C235.089 87.8965 236.161 87.6819 236.836 87.2528C237.51 86.7623 238.123 85.8427 238.675 84.494L244.744 69.5964L245.756 69.6884ZM311.715 25.5476V26.2833L305.094 27.019C303.622 27.2029 302.642 27.5707 302.151 28.1225C301.661 28.6742 301.415 29.6858 301.415 31.1572V90.4714H300.496L259.206 31.8928H258.838V83.3904C258.838 84.8618 259.022 85.904 259.39 86.5171C259.758 87.0688 260.493 87.406 261.597 87.5286L268.126 88.2643V89H247.987V88.2643L254.608 87.5286C255.711 87.406 256.447 87.0688 256.815 86.5171C257.183 85.904 257.367 84.8618 257.367 83.3904V29.8697L256.999 29.318C256.14 28.0918 255.313 27.2948 254.516 26.927C253.78 26.4979 252.677 26.2833 251.205 26.2833H249.642V25.5476H263.344L299.576 76.3095H299.944V31.1572C299.944 29.6858 299.76 28.6436 299.392 28.0305C299.024 27.4175 298.289 27.0803 297.185 27.019L289.737 26.2833V25.5476H311.715ZM355.43 30.4215C359.17 33.0577 362.082 36.6748 364.167 41.2728C366.251 45.8708 367.293 51.0818 367.293 56.906C367.293 62.7301 366.251 68.0331 364.167 72.815C362.082 77.597 359.17 81.3367 355.43 84.0342C353.039 85.7507 350.281 87.0075 347.154 87.8045C344.089 88.6015 340.318 89 335.843 89H311.382V88.2643L318.922 87.5286V27.019L311.382 26.2833V25.5476H335.843C344.181 25.5476 350.71 27.1722 355.43 30.4215ZM352.12 82.4708C354.082 79.9573 355.614 76.4015 356.718 71.8035C357.883 67.1442 358.465 62.0251 358.465 56.4462C358.465 50.9899 357.913 46.1773 356.81 42.0084C355.768 37.8396 354.204 34.529 352.12 32.0768C350.403 30.0536 348.288 28.6436 345.775 27.8466C343.261 27.0496 339.675 26.6511 335.015 26.6511H326.003V87.8965H335.015C339.92 87.8965 343.598 87.498 346.051 86.701C348.503 85.904 350.526 84.494 352.12 82.4708ZM426.489 88.2643V89H403.959V88.2643L411.499 87.3447L402.855 63.803H380.601L372.968 84.1261C372.723 84.8005 372.6 85.3523 372.6 85.7814C372.6 86.4558 372.784 86.9462 373.152 87.2528C373.581 87.498 374.317 87.6819 375.359 87.8045L380.969 88.2643V89H361.381V88.2643L366.531 87.8045C368.064 87.6819 369.137 87.3754 369.75 86.8849C370.424 86.3945 371.006 85.4749 371.497 84.1261L394.027 24.0762H395.682L418.856 87.3447L426.489 88.2643ZM402.303 62.3316L392.004 34.2838H391.636L381.153 62.3316H402.303ZM474.073 87.4367C476.709 86.2719 478.916 84.7085 480.694 82.7467C483.698 79.3749 485.967 74.3477 487.499 67.6653L488.695 67.8492V89H487.499L484.373 83.9422C481.614 85.9653 478.61 87.5593 475.361 88.7241C472.173 89.8889 469.077 90.4714 466.073 90.4714C460.739 90.4714 455.834 89 451.359 86.0573C446.945 83.1146 443.451 79.1296 440.876 74.1025C438.362 69.014 437.105 63.4045 437.105 57.2738C437.105 51.2044 438.362 45.6255 440.876 40.5371C443.451 35.4486 446.945 31.433 451.359 28.4903C455.773 25.5476 460.616 24.0762 465.889 24.0762C468.648 24.0762 471.468 24.536 474.349 25.4556C477.292 26.3139 480.541 27.6933 484.097 29.5938L486.304 25.1798H487.499L488.419 45.8708L487.132 46.2386C486.273 41.518 484.924 37.625 483.085 34.5597C481.246 31.5557 478.855 29.2567 475.912 27.6627C472.97 26.0074 469.72 25.1798 466.165 25.1798C459.666 25.1798 454.67 27.9692 451.175 33.5481C447.681 39.127 445.933 47.0356 445.933 57.2738C445.933 67.4507 447.681 75.3286 451.175 80.9075C454.67 86.4251 459.635 89.1839 466.073 89.1839C468.831 89.1839 471.498 88.6015 474.073 87.4367ZM550.84 88.2643V89H528.309V88.2643L535.85 87.3447L527.206 63.803H504.952L497.319 84.1261C497.074 84.8005 496.951 85.3523 496.951 85.7814C496.951 86.4558 497.135 86.9462 497.503 87.2528C497.932 87.498 498.668 87.6819 499.71 87.8045L505.319 88.2643V89H485.732V88.2643L490.882 87.8045C492.414 87.6819 493.487 87.3754 494.1 86.8849C494.775 86.3945 495.357 85.4749 495.848 84.1261L518.378 24.0762H520.033L543.207 87.3447L550.84 88.2643ZM526.654 62.3316L516.355 34.2838H515.987L505.503 62.3316H526.654ZM564.341 87.5286V26.5592H552.203C550.731 26.5592 549.658 26.8044 548.984 27.2948C548.31 27.724 547.666 28.6436 547.053 30.0536L540.708 44.2155L539.972 44.0316L543.558 24.0762H544.11C545.459 24.6893 546.593 25.0878 547.513 25.2717C548.493 25.4556 549.72 25.5476 551.191 25.5476H586.596C588.067 25.5476 589.262 25.4556 590.182 25.2717C591.163 25.0878 592.328 24.6893 593.677 24.0762H594.228L596.251 44.0316L595.516 44.2155L589.814 30.0536C589.262 28.6436 588.649 27.724 587.975 27.2948C587.362 26.8044 586.32 26.5592 584.848 26.5592H571.422V87.5286L581.354 88.2643V89H554.41V88.2643L564.341 87.5286ZM652.902 88.2643V89H643.43C641.959 89 640.856 88.7854 640.12 88.3563C639.384 87.9271 638.618 87.0995 637.821 85.8734L623.751 63.1592C622.893 61.7492 622.157 60.8909 621.544 60.5844C620.992 60.2165 619.981 60.0326 618.509 60.0326H611.704V87.5286L619.705 88.2643V89H597.083V88.2643L604.623 87.5286V27.019L597.083 26.2833V25.5476H620.349C627.583 25.5476 633.1 27.019 636.901 29.9617C640.702 32.8431 642.603 37.0426 642.603 42.5602C642.603 46.8517 641.438 50.3768 639.108 53.1356C636.779 55.8944 633.407 57.7949 628.993 58.8371H629.085L645.913 85.1377C646.71 86.3638 647.477 87.1915 648.212 87.6206C649.009 88.0497 650.144 88.2643 651.615 88.2643H652.902ZM611.704 26.6511V58.6532H620.073C624.977 58.6532 628.594 57.3658 630.924 54.7909C633.315 52.1547 634.51 48.1391 634.51 42.7441C634.51 37.2878 633.315 33.2416 630.924 30.6054C628.533 27.9692 624.916 26.6511 620.073 26.6511H611.704ZM648.052 25.5476H670.215V26.2833L662.674 27.019V87.5286L670.215 88.2643V89H648.052V88.2643L655.593 87.5286V27.019L648.052 26.2833V25.5476ZM734.429 25.5476V26.2833L727.808 27.019C726.337 27.2029 725.356 27.5707 724.865 28.1225C724.375 28.6742 724.13 29.6858 724.13 31.1572V90.4714H723.21L681.92 31.8928H681.552V83.3904C681.552 84.8618 681.736 85.904 682.104 86.5171C682.472 87.0688 683.207 87.406 684.311 87.5286L690.84 88.2643V89H670.701V88.2643L677.322 87.5286C678.426 87.406 679.161 87.0688 679.529 86.5171C679.897 85.904 680.081 84.8618 680.081 83.3904V29.8697L679.713 29.318C678.855 28.0918 678.027 27.2948 677.23 26.927C676.494 26.4979 675.391 26.2833 673.92 26.2833H672.356V25.5476H686.058L722.29 76.3095H722.658V31.1572C722.658 29.6858 722.474 28.6436 722.107 28.0305C721.739 27.4175 721.003 27.0803 719.9 27.019L712.451 26.2833V25.5476H734.429ZM791.319 88.2643V89H768.788V88.2643L776.329 87.3447L767.685 63.803H745.431L737.798 84.1261C737.553 84.8005 737.43 85.3523 737.43 85.7814C737.43 86.4558 737.614 86.9462 737.982 87.2528C738.411 87.498 739.147 87.6819 740.189 87.8045L745.798 88.2643V89H726.211V88.2643L731.361 87.8045C732.893 87.6819 733.966 87.3754 734.579 86.8849C735.254 86.3945 735.836 85.4749 736.327 84.1261L758.857 24.0762H760.512L783.686 87.3447L791.319 88.2643ZM767.133 62.3316L756.834 34.2838H756.466L745.982 62.3316H767.133Z" fill="#675132"/>
<path d="M479.038 192.688L476.739 212H431.678V211.264L439.219 210.529V150.019L431.678 149.283V148.548H476.831L478.118 165.836L477.199 165.928L472.049 153.054C471.497 151.644 470.884 150.724 470.21 150.295C469.597 149.866 468.554 149.651 467.083 149.651H446.3V177.883H459.91C461.381 177.883 462.424 177.638 463.037 177.147C463.65 176.657 464.079 175.706 464.324 174.296L465.888 166.848H466.991V190.389H465.888L464.324 182.941C464.079 181.531 463.65 180.58 463.037 180.09C462.424 179.599 461.381 179.354 459.91 179.354H446.3V210.896H466.899C468.37 210.896 469.443 210.682 470.118 210.253C470.792 209.762 471.405 208.843 471.957 207.494L478.026 192.596L479.038 192.688ZM514.558 211.08C511.554 212.674 508.152 213.471 504.351 213.471C501.469 213.471 498.68 213.012 495.982 212.092C493.285 211.234 490.986 210.008 489.085 208.414L487.154 213.471H485.959L484.763 191.493L485.591 191.309C486.51 195.478 487.43 198.727 488.349 201.057C489.33 203.386 490.587 205.41 492.12 207.126C495.246 210.621 499.385 212.368 504.534 212.368C508.949 212.368 512.382 211.234 514.834 208.965C517.348 206.636 518.604 203.509 518.604 199.585C518.604 196.827 517.93 194.497 516.581 192.596C515.294 190.696 513.516 189.071 511.248 187.723C508.979 186.374 505.791 184.81 501.684 183.033C498.312 181.561 495.492 180.121 493.223 178.71C490.955 177.239 489.054 175.369 487.522 173.101C486.05 170.771 485.315 167.951 485.315 164.641C485.315 161.269 486.112 158.265 487.706 155.629C489.361 152.931 491.599 150.847 494.419 149.375C497.3 147.843 500.549 147.076 504.167 147.076C506.68 147.076 509.01 147.505 511.156 148.364C513.363 149.222 515.723 150.632 518.236 152.594L520.444 148.18H521.639L522.559 168.227L521.639 168.503C520.658 164.395 519.401 160.778 517.869 157.652C514.803 151.337 510.113 148.18 503.799 148.18C499.998 148.18 496.963 149.283 494.695 151.49C492.426 153.636 491.292 156.579 491.292 160.318C491.292 163.016 491.905 165.284 493.131 167.124C494.419 168.963 496.166 170.557 498.373 171.905C500.641 173.254 503.829 174.879 507.937 176.779C511.615 178.435 514.558 179.998 516.765 181.469C519.033 182.941 520.842 184.78 522.191 186.987C523.601 189.133 524.306 191.799 524.306 194.987C524.306 198.543 523.448 201.731 521.731 204.551C520.014 207.31 517.623 209.486 514.558 211.08ZM596.68 150.019V210.529L604.221 211.264V212H581.598V211.264L589.599 210.529V179.354H558.976V210.529L566.977 211.264V212H544.355V211.264L551.895 210.529V150.019L544.355 149.283V148.548H566.977V149.283L558.976 150.019V177.883H589.599V150.019L581.598 149.283V148.548H604.221V149.283L596.68 150.019ZM635.633 147.076C640.966 147.076 645.84 148.548 650.254 151.49C654.73 154.433 658.224 158.449 660.738 163.537C663.313 168.564 664.6 174.143 664.6 180.274C664.6 186.404 663.313 192.014 660.738 197.102C658.224 202.13 654.73 206.115 650.254 209.057C645.84 212 640.966 213.471 635.633 213.471C630.299 213.471 625.395 212 620.919 209.057C616.505 206.115 613.011 202.13 610.436 197.102C607.922 192.014 606.665 186.404 606.665 180.274C606.665 174.143 607.922 168.564 610.436 163.537C613.011 158.449 616.505 154.433 620.919 151.49C625.395 148.548 630.299 147.076 635.633 147.076ZM615.494 180.274C615.494 190.512 617.241 198.421 620.735 203.999C624.23 209.517 629.196 212.276 635.633 212.276C642.07 212.276 647.036 209.517 650.53 203.999C654.025 198.421 655.772 190.512 655.772 180.274C655.772 170.036 654.025 162.127 650.53 156.548C647.036 150.969 642.07 148.18 635.633 148.18C629.196 148.18 624.23 150.969 620.735 156.548C617.241 162.127 615.494 170.036 615.494 180.274ZM699.487 211.08C696.483 212.674 693.081 213.471 689.28 213.471C686.399 213.471 683.609 213.012 680.912 212.092C678.214 211.234 675.915 210.008 674.015 208.414L672.083 213.471H670.888L669.692 191.493L670.52 191.309C671.44 195.478 672.359 198.727 673.279 201.057C674.26 203.386 675.517 205.41 677.049 207.126C680.176 210.621 684.314 212.368 689.464 212.368C693.878 212.368 697.311 211.234 699.763 208.965C702.277 206.636 703.534 203.509 703.534 199.585C703.534 196.827 702.859 194.497 701.511 192.596C700.223 190.696 698.445 189.071 696.177 187.723C693.909 186.374 690.721 184.81 686.613 183.033C683.241 181.561 680.421 180.121 678.153 178.71C675.884 177.239 673.984 175.369 672.451 173.101C670.98 170.771 670.244 167.951 670.244 164.641C670.244 161.269 671.041 158.265 672.635 155.629C674.29 152.931 676.528 150.847 679.348 149.375C682.23 147.843 685.479 147.076 689.096 147.076C691.61 147.076 693.939 147.505 696.085 148.364C698.292 149.222 700.652 150.632 703.166 152.594L705.373 148.18H706.568L707.488 168.227L706.568 168.503C705.587 164.395 704.331 160.778 702.798 157.652C699.733 151.337 695.043 148.18 688.728 148.18C684.927 148.18 681.892 149.283 679.624 151.49C677.356 153.636 676.222 156.579 676.222 160.318C676.222 163.016 676.835 165.284 678.061 167.124C679.348 168.963 681.095 170.557 683.303 171.905C685.571 173.254 688.759 174.879 692.866 176.779C696.545 178.435 699.487 179.998 701.695 181.469C703.963 182.941 705.771 184.78 707.12 186.987C708.53 189.133 709.235 191.799 709.235 194.987C709.235 198.543 708.377 201.731 706.66 204.551C704.944 207.31 702.553 209.486 699.487 211.08ZM727.331 184.412V210.529L736.343 211.264V212H712.71V211.264L720.25 210.529V150.019L712.71 149.283V148.548H735.975C743.148 148.548 748.635 150.08 752.436 153.146C756.299 156.211 758.23 160.533 758.23 166.112C758.23 172.059 756.329 176.595 752.528 179.722C748.727 182.849 743.21 184.412 735.975 184.412H727.331ZM727.331 149.651V183.308H735.7C740.665 183.308 744.283 181.898 746.551 179.078C748.819 176.258 749.953 171.783 749.953 165.652C749.953 160.564 748.911 156.64 746.827 153.881C744.804 151.061 741.095 149.651 735.7 149.651H727.331ZM759.458 148.548H781.621V149.283L774.08 150.019V210.529L781.621 211.264V212H759.458V211.264L766.999 210.529V150.019L759.458 149.283V148.548ZM806.385 210.529V149.559H794.246C792.774 149.559 791.702 149.804 791.027 150.295C790.353 150.724 789.709 151.644 789.096 153.054L782.751 167.215L782.015 167.032L785.602 147.076H786.153C787.502 147.689 788.636 148.088 789.556 148.272C790.537 148.456 791.763 148.548 793.234 148.548H828.639C830.11 148.548 831.306 148.456 832.225 148.272C833.206 148.088 834.371 147.689 835.72 147.076H836.272L838.295 167.032L837.559 167.215L831.857 153.054C831.306 151.644 830.693 150.724 830.018 150.295C829.405 149.804 828.363 149.559 826.892 149.559H813.465V210.529L823.397 211.264V212H796.453V211.264L806.385 210.529ZM891.05 211.264V212H868.52V211.264L876.061 210.345L867.416 186.803H845.162L837.529 207.126C837.284 207.8 837.162 208.352 837.162 208.781C837.162 209.456 837.346 209.946 837.713 210.253C838.143 210.498 838.878 210.682 839.92 210.805L845.53 211.264V212H825.943V211.264L831.092 210.805C832.625 210.682 833.698 210.375 834.311 209.885C834.985 209.394 835.568 208.475 836.058 207.126L858.588 147.076H860.244L883.418 210.345L891.05 211.264ZM866.865 185.332L856.565 157.284H856.197L845.714 185.332H866.865ZM895.391 210.529V150.019L887.85 149.283V148.548H910.472V149.283L902.472 150.019V210.896H922.795C924.266 210.896 925.339 210.682 926.014 210.253C926.688 209.762 927.301 208.843 927.853 207.494L934.106 191.769L935.21 191.953L932.911 212H887.85V211.264L895.391 210.529ZM935.946 148.548H958.108V149.283L950.568 150.019V210.529L958.108 211.264V212H935.946V211.264L943.487 210.529V150.019L935.946 149.283V148.548ZM1004.02 153.421C1007.76 156.058 1010.67 159.675 1012.76 164.273C1014.84 168.871 1015.89 174.082 1015.89 179.906C1015.89 185.73 1014.84 191.033 1012.76 195.815C1010.67 200.597 1007.76 204.337 1004.02 207.034C1001.63 208.751 998.873 210.008 995.747 210.805C992.681 211.602 988.911 212 984.436 212H959.974V211.264L967.515 210.529V150.019L959.974 149.283V148.548H984.436C992.773 148.548 999.302 150.172 1004.02 153.421ZM1000.71 205.471C1002.67 202.957 1004.21 199.401 1005.31 194.803C1006.48 190.144 1007.06 185.025 1007.06 179.446C1007.06 173.99 1006.51 169.177 1005.4 165.008C1004.36 160.84 1002.8 157.529 1000.71 155.077C998.996 153.054 996.881 151.644 994.367 150.847C991.854 150.05 988.267 149.651 983.608 149.651H974.596V210.896H983.608C988.512 210.896 992.191 210.498 994.643 209.701C997.095 208.904 999.119 207.494 1000.71 205.471ZM1075.08 211.264V212H1052.55V211.264L1060.09 210.345L1051.45 186.803H1029.19L1021.56 207.126C1021.32 207.8 1021.19 208.352 1021.19 208.781C1021.19 209.456 1021.38 209.946 1021.74 210.253C1022.17 210.498 1022.91 210.682 1023.95 210.805L1029.56 211.264V212H1009.97V211.264L1015.12 210.805C1016.66 210.682 1017.73 210.375 1018.34 209.885C1019.02 209.394 1019.6 208.475 1020.09 207.126L1042.62 147.076H1044.27L1067.45 210.345L1075.08 211.264ZM1050.9 185.332L1040.6 157.284H1040.23L1029.75 185.332H1050.9ZM1115.93 153.421C1119.67 156.058 1122.58 159.675 1124.67 164.273C1126.75 168.871 1127.79 174.082 1127.79 179.906C1127.79 185.73 1126.75 191.033 1124.67 195.815C1122.58 200.597 1119.67 204.337 1115.93 207.034C1113.54 208.751 1110.78 210.008 1107.65 210.805C1104.59 211.602 1100.82 212 1096.34 212H1071.88V211.264L1079.42 210.529V150.019L1071.88 149.283V148.548H1096.34C1104.68 148.548 1111.21 150.172 1115.93 153.421ZM1112.62 205.471C1114.58 202.957 1116.11 199.401 1117.22 194.803C1118.38 190.144 1118.97 185.025 1118.97 179.446C1118.97 173.99 1118.41 169.177 1117.31 165.008C1116.27 160.84 1114.7 157.529 1112.62 155.077C1110.9 153.054 1108.79 151.644 1106.27 150.847C1103.76 150.05 1100.17 149.651 1095.52 149.651H1086.5V210.896H1095.52C1100.42 210.896 1104.1 210.498 1106.55 209.701C1109 208.904 1111.03 207.494 1112.62 205.471Z" fill="#675132"/>
<path d="M40.0011 181.331C40.0352 180.818 40.7627 180.287 41.9199 180.059C42.8085 179.881 46.2311 179.165 49.5171 178.464C52.803 177.763 57.3047 176.815 59.5262 176.351C61.7429 175.892 64.7261 175.08 66.1567 174.543C67.5824 174.012 69.1594 173.543 69.6477 173.518C70.8146 173.456 76.2537 171.855 80.687 170.265C83.4652 169.269 85.7648 168.839 91.5506 168.273C99.0111 167.548 100.442 167.287 100.417 166.658C100.403 166.243 92.8933 162.931 89.9784 162.056C86.1701 160.915 83.5628 160.586 76.8054 160.417C68.5833 160.209 66.518 160.016 65.4487 159.291C64.687 158.773 64.6773 158.677 65.3266 157.971C65.9662 157.275 66.7621 157.222 74.2323 157.391C84.3635 157.623 84.0071 157.632 83.9827 156.932C83.9632 156.434 81.395 154.8 71.5177 149.022C70.4484 148.399 68.6614 147.519 67.5384 147.069C66.4154 146.625 65.1899 146.069 64.814 145.841C64.438 145.614 63.3443 145.058 62.3971 144.589C60.5222 143.671 59.8485 142.689 60.5515 141.935C61.0398 141.418 66.1469 142.738 67.4115 143.709C67.7923 143.999 68.8128 144.497 69.6867 144.797C70.5558 145.102 72.0987 146.044 73.1142 146.895C74.1298 147.746 76.5955 149.235 78.5973 150.202C80.5991 151.169 83.6458 152.808 85.3742 153.847C88.2598 155.578 92.4294 157.197 95.8667 157.923C97.8344 158.338 103.376 160.33 104.436 161.002C104.934 161.316 106.076 161.548 106.979 161.515C107.883 161.481 109.914 161.809 111.486 162.23C113.058 162.655 114.972 162.979 115.739 162.955C117.032 162.912 119.635 163.613 121.363 164.488C122.633 165.126 125.46 165.633 129.634 165.962C131.851 166.136 135.283 166.591 137.261 166.977C139.238 167.364 142.373 167.872 144.223 168.089C150.307 168.805 152.025 169.027 155.887 169.632C157.987 169.96 161.766 170.545 164.29 170.922C166.814 171.299 169.954 171.947 171.262 172.363C172.571 172.779 175.164 173.393 177.019 173.726C178.874 174.06 181.706 174.567 183.312 174.862C188.151 175.742 195.411 176.351 199.435 176.216C201.519 176.143 205.181 176.298 207.579 176.564C210.176 176.854 217.842 176.975 226.562 176.859C248.909 176.559 247.854 176.632 268.888 174.244C270.661 174.041 272.106 173.731 272.101 173.557C272.081 172.977 267.819 170.7 262.99 168.698C258.562 166.861 257.429 166.33 255.037 164.957C252.283 163.376 244.627 160.383 241.898 159.822C240.164 159.465 238.197 158.923 237.528 158.619C236.205 158.014 226.205 156.661 223.73 156.753C222.89 156.782 221.577 156.646 220.815 156.448C220.053 156.25 216.401 155.578 212.695 154.954C208.99 154.331 204.127 153.282 201.895 152.634C199.659 151.986 196.925 151.328 195.812 151.174C194.703 151.019 192.374 150.642 190.646 150.328C184.997 149.312 183.088 149.322 179.309 150.429C177.38 150.995 174.656 151.498 173.24 151.551C171.824 151.604 169.104 152.126 167.186 152.716C164.73 153.47 163.553 153.649 163.206 153.335C162.625 152.803 162.972 151.546 163.768 151.27C165.838 150.55 175.071 147.664 176.604 147.258C178.249 146.823 177.888 146.064 175.725 145.411C174.763 145.121 173.655 144.628 173.255 144.314C172.859 143.999 171.209 143.221 169.593 142.597C167.972 141.974 165.721 140.867 164.588 140.132C163.455 139.397 161.493 138.324 160.228 137.753C156.009 135.844 155.985 134.538 160.179 134.949C162.406 135.167 165.003 136.25 166.995 137.778C169.695 139.847 179.807 143.758 184.167 144.425C185.402 144.613 188.171 145.218 190.329 145.774C192.482 146.33 195.118 146.886 196.178 147.006C197.237 147.127 199.737 147.703 201.724 148.292C208.223 150.221 210.567 150.69 215.161 150.961C217.651 151.106 221.25 151.449 223.168 151.73C226.913 152.271 229.33 152.319 229.311 151.851C229.306 151.691 228.017 150.294 226.445 148.752C224.872 147.209 222.617 144.986 221.43 143.811C220.244 142.641 218.803 140.804 218.222 139.731C217.265 137.966 213.325 133.852 210.728 131.913C208.575 130.308 203.345 127.461 202.593 127.49C202.159 127.504 201.29 127.2 200.67 126.803C200.05 126.407 198.321 125.706 196.832 125.261C195.04 124.725 194.064 124.178 193.942 123.656C193.776 122.95 193.981 122.897 195.704 123.11C198.98 123.511 205.43 124.986 206.089 125.488C206.431 125.749 207.666 126.33 208.843 126.779C213.062 128.389 220.058 134.239 222.109 137.879C227.04 146.624 239.305 154.302 251.384 156.206C256.296 156.98 259.314 158.106 266.51 161.863C268.766 163.042 271.935 164.502 273.551 165.111C275.172 165.716 279.044 167.253 282.159 168.524C291.133 172.184 291.714 172.266 309.516 171.889C318.563 171.701 327.303 171.739 330.725 172.005C333.928 172.252 340.173 172.73 344.606 173.069C352.467 173.663 358.878 174.335 364.327 175.119C366.451 175.423 367.339 175.81 368.526 176.951C370.669 179.015 370.62 180.528 368.34 182.771C366.28 184.802 366.363 185.493 368.76 186.513C369.673 186.9 370.606 187.645 370.83 188.162C371.094 188.771 371.05 189.433 370.703 190.018C369.531 192 358.941 191.971 353.697 189.97C352.55 189.535 350.651 189.211 349.484 189.254C348.317 189.298 346.369 189.056 345.153 188.723C341.799 187.809 332.107 187.248 324.505 187.524C320.77 187.659 316.351 187.625 314.681 187.446C303.281 186.218 287.124 186.146 281.085 187.292C279.742 187.548 274.137 187.968 268.62 188.22C263.107 188.476 257.8 188.931 256.828 189.221C254.836 189.825 232.875 190.241 225.893 189.81C223.593 189.67 218.471 189.641 214.507 189.762C210.069 189.897 206.182 189.786 204.381 189.462C197.496 188.22 180.002 187.693 178.513 188.679C178.259 188.848 176.799 189.211 175.266 189.477C170.496 190.299 162.84 192.145 160.765 192.982C150.102 197.27 147.573 198.595 141.338 203.178C139.458 204.56 136.992 206.325 135.85 207.098C123.673 215.331 118.126 220.238 116.329 224.367C114.386 228.839 109.811 234.524 106.174 236.98C103.796 238.585 100.49 241.437 96.3648 245.45C94.6656 247.103 92.5662 249.061 91.6873 249.81C90.8085 250.56 89.8954 251.643 89.6562 252.218C89.0752 253.615 83.6605 257.884 79.7252 260.045C77.3669 261.341 76.2879 261.316 76.2342 259.982C76.2049 259.199 78.6461 257.038 84.012 253.108C86.1554 251.536 95.6226 241.331 95.5933 240.62C95.5836 240.33 93.8844 240.345 90.7792 240.644C86.6144 241.05 85.9064 241.017 85.3449 240.388C84.2708 239.199 85.2619 238.749 90.8719 237.865C97.683 236.791 101.364 235.438 102.556 233.567C103.049 232.793 103.986 231.551 104.641 230.797C105.295 230.043 106.31 228.317 106.896 226.958C109.289 221.403 112.145 217.633 116.051 214.838C124.468 208.815 124.854 207.461 117.521 209.772C113.273 211.111 99.3821 212.416 94.2897 211.957C85.2863 211.145 83.2601 210.85 82.7621 210.299C81.6293 209.047 82.9672 208.747 89.1093 208.819C99.6409 208.95 108.18 208.249 112.179 206.929C113.029 206.649 115.719 206.054 118.155 205.604C123.756 204.575 130.45 201.36 137.666 196.25C144.951 191.092 154.437 186.214 162.738 183.347C163.646 183.033 164.383 182.622 164.378 182.428C164.359 181.954 157.87 179.76 155.106 179.291C152.821 178.904 148.539 178.527 140.102 177.966C137.519 177.792 134.692 177.483 133.828 177.275C129.859 176.318 128.76 176.148 123.502 175.737C120.426 175.496 116.495 175.162 114.767 174.983C113.043 174.804 109.626 174.727 107.17 174.809C104.714 174.891 102.009 174.795 101.164 174.587C100.066 174.316 97.5951 174.524 92.405 175.312C85.8429 176.308 84.9348 176.55 82.64 177.952C80.1841 179.45 78.7584 180.606 74.1933 184.783C72.9922 185.885 71.1905 187.2 70.2043 187.707C69.2131 188.215 67.8753 188.979 67.2259 189.419C66.2543 190.076 65.937 190.12 65.4487 189.661C64.9605 189.206 65.1313 188.848 66.3666 187.707C67.1966 186.939 69.4865 184.841 71.4493 183.033C73.4121 181.224 75.741 179.044 76.6248 178.198L78.2262 176.675L76.4539 176.961C74.3251 177.313 68.8372 178.556 64.2818 179.702C62.4557 180.161 59.4676 180.799 57.6416 181.123C53.5207 181.853 41.1436 182.481 40.4063 181.993C40.1231 181.8 39.9864 181.563 40.0011 181.331ZM130.078 172.034C130.093 172.382 132.168 173.011 136.514 173.992C137.012 174.103 137.29 173.92 137.275 173.494C137.251 172.798 135.508 172.257 131.968 171.841C130.865 171.71 130.069 171.797 130.078 172.034ZM196.559 182.96C196.588 183.729 205.918 185.488 212.07 185.88C218.354 186.281 251.926 185.977 255.261 185.484C262.473 184.42 267.887 183.555 271.554 182.892C273.141 182.607 276.983 182.143 280.108 181.858C285.63 181.355 287.217 180.881 285.24 180.34C282.715 179.648 260.861 182.162 257.292 183.555C255.29 184.338 227.568 184.792 217.588 184.207C211.099 183.825 209.112 183.627 202.774 182.738C199.61 182.303 196.539 182.409 196.559 182.96Z" fill="#C69160"/>
</svg>
