<svg width="1470" height="486" viewBox="0 0 1470 486" fill="none" xmlns="http://www.w3.org/2000/svg">
<path d="M78.102 37.7278V121.952L88.598 122.976V124H57.11V122.976L68.246 121.952V78.5598H25.622V121.952L36.758 122.976V124H5.26999V122.976L15.766 121.952V37.7278L5.26999 36.7038V35.6797H36.758V36.7038L25.622 37.7278V76.5118H68.246V37.7278L57.11 36.7038V35.6797H88.598V36.7038L78.102 37.7278ZM173.519 122.976V124H142.159V122.976L152.655 121.696L140.623 88.9278H109.647L99.023 117.216C98.6817 118.154 98.511 118.922 98.511 119.52C98.511 120.458 98.767 121.141 99.279 121.568C99.8763 121.909 100.9 122.165 102.351 122.336L110.159 122.976V124H82.895V122.976L90.063 122.336C92.1963 122.165 93.6897 121.738 94.543 121.056C95.4817 120.373 96.2923 119.093 96.975 117.216L128.335 33.6318H130.639L162.895 121.696L173.519 122.976ZM139.855 86.8798L125.519 47.8398H125.007L110.415 86.8798H139.855ZM219.587 121.824C223.256 120.202 226.328 118.026 228.803 115.296C232.984 110.602 236.142 103.605 238.275 94.3038L239.939 94.5598V124H238.275L233.923 116.96C230.083 119.776 225.902 121.994 221.379 123.616C216.942 125.237 212.632 126.048 208.451 126.048C201.027 126.048 194.2 124 187.971 119.904C181.827 115.808 176.963 110.261 173.379 103.264C169.88 96.1811 168.131 88.3731 168.131 79.8398C168.131 71.3918 169.88 63.6264 173.379 56.5438C176.963 49.4611 181.827 43.8718 187.971 39.7757C194.115 35.6798 200.856 33.6318 208.195 33.6318C212.035 33.6318 215.96 34.2718 219.971 35.5518C224.067 36.7464 228.59 38.6664 233.539 41.3118L236.611 35.1678H238.275L239.555 63.9678L237.763 64.4798C236.568 57.9091 234.691 52.4904 232.131 48.2238C229.571 44.0424 226.243 40.8424 222.147 38.6237C218.051 36.3198 213.528 35.1678 208.579 35.1678C199.534 35.1678 192.579 39.0504 187.715 46.8158C182.851 54.5811 180.419 65.5891 180.419 79.8398C180.419 94.0051 182.851 104.97 187.715 112.736C192.579 120.416 199.491 124.256 208.451 124.256C212.291 124.256 216.003 123.445 219.587 121.824ZM246.695 35.6797H277.543V36.7038L267.047 37.7278V121.952L277.543 122.976V124H246.695V122.976L257.191 121.952V37.7278L246.695 36.7038V35.6797ZM347.34 97.1198L344.14 124H281.42V122.976L291.916 121.952V37.7278L281.42 36.7038V35.6797H344.268L346.06 59.7438L344.78 59.8717L337.612 41.9518C336.844 39.9891 335.991 38.7091 335.052 38.1118C334.199 37.5144 332.748 37.2158 330.7 37.2158H301.772V76.5118H320.716C322.764 76.5118 324.215 76.1704 325.068 75.4878C325.921 74.8051 326.519 73.4824 326.86 71.5198L329.036 61.1518H330.572V93.9198H329.036L326.86 83.5518C326.519 81.5891 325.921 80.2664 325.068 79.5838C324.215 78.9011 322.764 78.5598 320.716 78.5598H301.772V122.464H330.444C332.492 122.464 333.985 122.165 334.924 121.568C335.863 120.885 336.716 119.605 337.484 117.728L345.932 96.9918L347.34 97.1198ZM440.429 35.6797V36.7038L431.213 37.7278C429.165 37.9838 427.8 38.4958 427.117 39.2637C426.434 40.0317 426.093 41.4398 426.093 43.4878V126.048H424.813L367.341 44.5117H366.829V116.192C366.829 118.24 367.085 119.69 367.597 120.544C368.109 121.312 369.133 121.781 370.669 121.952L379.757 122.976V124H351.725V122.976L360.941 121.952C362.477 121.781 363.501 121.312 364.013 120.544C364.525 119.69 364.781 118.24 364.781 116.192V41.6958L364.269 40.9277C363.074 39.2211 361.922 38.1118 360.813 37.5998C359.789 37.0024 358.253 36.7038 356.205 36.7038H354.029V35.6797H373.101L423.533 106.336H424.045V43.4878C424.045 41.4398 423.789 39.9891 423.277 39.1357C422.765 38.2824 421.741 37.8131 420.205 37.7278L409.837 36.7038V35.6797H440.429ZM502.557 42.4638C507.762 46.1331 511.816 51.1678 514.717 57.5677C517.618 63.9678 519.069 71.2211 519.069 79.3278C519.069 87.4344 517.618 94.8158 514.717 101.472C511.816 108.128 507.762 113.333 502.557 117.088C499.229 119.477 495.389 121.226 491.037 122.336C486.77 123.445 481.522 124 475.293 124H441.245V122.976L451.741 121.952V37.7278L441.245 36.7038V35.6797H475.293C486.898 35.6797 495.986 37.9411 502.557 42.4638ZM497.949 114.912C500.68 111.413 502.813 106.464 504.349 100.064C505.97 93.5784 506.781 86.4531 506.781 78.6878C506.781 71.0931 506.013 64.3944 504.477 58.5918C503.026 52.7891 500.85 48.1811 497.949 44.7678C495.56 41.9518 492.616 39.9891 489.117 38.8798C485.618 37.7704 480.626 37.2158 474.141 37.2158H461.597V122.464H474.141C480.968 122.464 486.088 121.909 489.501 120.8C492.914 119.69 495.73 117.728 497.949 114.912ZM602.744 122.976V124H571.384V122.976L581.88 121.696L569.848 88.9278H538.872L528.248 117.216C527.907 118.154 527.736 118.922 527.736 119.52C527.736 120.458 527.992 121.141 528.504 121.568C529.101 121.909 530.125 122.165 531.576 122.336L539.384 122.976V124H512.12V122.976L519.288 122.336C521.421 122.165 522.915 121.738 523.768 121.056C524.707 120.373 525.517 119.093 526.2 117.216L557.56 33.6318H559.864L592.12 121.696L602.744 122.976ZM569.08 86.8798L554.744 47.8398H554.232L539.64 86.8798H569.08Z" fill="#675132"/>
<path d="M506.375 279.824C510.044 278.203 513.116 276.027 515.59 273.296C519.772 268.603 522.929 261.605 525.062 252.304L526.727 252.56V282H525.062L520.711 274.96C516.871 277.776 512.689 279.995 508.167 281.616C503.729 283.237 499.42 284.048 495.238 284.048C487.814 284.048 480.988 282 474.758 277.904C468.614 273.808 463.75 268.261 460.166 261.264C456.668 254.181 454.918 246.373 454.918 237.84C454.918 229.392 456.668 221.627 460.166 214.544C463.75 207.461 468.614 201.872 474.758 197.776C480.902 193.68 487.644 191.632 494.982 191.632C498.822 191.632 502.748 192.272 506.758 193.552C510.854 194.747 515.377 196.667 520.326 199.312L523.398 193.168H525.062L526.342 221.968L524.55 222.48C523.356 215.909 521.479 210.491 518.919 206.224C516.359 202.043 513.03 198.843 508.935 196.624C504.839 194.32 500.316 193.168 495.367 193.168C486.321 193.168 479.366 197.051 474.502 204.816C469.638 212.581 467.206 223.589 467.206 237.84C467.206 252.005 469.638 262.971 474.502 270.736C479.366 278.416 486.278 282.256 495.238 282.256C499.079 282.256 502.791 281.445 506.375 279.824ZM614.507 280.976V282H583.146V280.976L593.643 279.696L581.61 246.928H550.634L540.01 275.216C539.669 276.155 539.498 276.923 539.498 277.52C539.498 278.459 539.754 279.141 540.266 279.568C540.864 279.909 541.888 280.165 543.338 280.336L551.146 280.976V282H523.882V280.976L531.05 280.336C533.184 280.165 534.677 279.739 535.53 279.056C536.469 278.373 537.28 277.093 537.962 275.216L569.322 191.632H571.626L603.882 279.696L614.507 280.976ZM580.842 244.88L566.506 205.84H565.994L551.402 244.88H580.842ZM634.579 279.952V195.088H617.683C615.635 195.088 614.142 195.429 613.203 196.112C612.265 196.709 611.369 197.989 610.515 199.952L601.683 219.664L600.659 219.408L605.651 191.632H606.419C608.297 192.485 609.875 193.04 611.155 193.296C612.521 193.552 614.227 193.68 616.275 193.68H665.555C667.603 193.68 669.267 193.552 670.548 193.296C671.913 193.04 673.534 192.485 675.411 191.632H676.179L678.995 219.408L677.971 219.664L670.035 199.952C669.267 197.989 668.414 196.709 667.475 196.112C666.622 195.429 665.171 195.088 663.123 195.088H644.435V279.952L658.259 280.976V282H620.755V280.976L634.579 279.952ZM759.129 280.976V282H745.945C743.897 282 742.361 281.701 741.337 281.104C740.313 280.507 739.246 279.355 738.137 277.648L718.553 246.032C717.358 244.069 716.334 242.875 715.481 242.448C714.713 241.936 713.305 241.68 711.257 241.68H701.785V279.952L712.921 280.976V282H681.433V280.976L691.929 279.952V195.728L681.433 194.704V193.68H713.817C723.886 193.68 731.566 195.728 736.857 199.824C742.147 203.835 744.793 209.68 744.793 217.36C744.793 223.333 743.171 228.24 739.929 232.08C736.686 235.92 731.993 238.565 725.849 240.016H725.977L749.401 276.624C750.51 278.331 751.577 279.483 752.601 280.08C753.71 280.677 755.289 280.976 757.337 280.976H759.129ZM701.785 195.216V239.76H713.433C720.259 239.76 725.294 237.968 728.537 234.384C731.865 230.715 733.529 225.125 733.529 217.616C733.529 210.021 731.865 204.389 728.537 200.72C725.209 197.051 720.174 195.216 713.433 195.216H701.785ZM753.657 193.68H784.505V194.704L774.009 195.728V279.952L784.505 280.976V282H753.657V280.976L764.153 279.952V195.728L753.657 194.704V193.68ZM875.167 193.68V194.704L865.951 195.728C863.903 195.984 862.537 196.496 861.855 197.264C861.172 198.032 860.831 199.44 860.831 201.488V284.048H859.551L802.079 202.512H801.567V274.192C801.567 276.24 801.823 277.691 802.335 278.544C802.847 279.312 803.871 279.781 805.407 279.952L814.495 280.976V282H786.463V280.976L795.679 279.952C797.215 279.781 798.239 279.312 798.751 278.544C799.263 277.691 799.519 276.24 799.519 274.192V199.696L799.007 198.928C797.812 197.221 796.66 196.112 795.551 195.6C794.527 195.003 792.991 194.704 790.943 194.704H788.767V193.68H807.839L858.271 264.336H858.783V201.488C858.783 199.44 858.527 197.989 858.015 197.136C857.503 196.283 856.479 195.813 854.943 195.728L844.575 194.704V193.68H875.167ZM955.631 280.976V282H924.271V280.976L934.767 279.696L922.735 246.928H891.759L881.135 275.216C880.794 276.155 880.623 276.923 880.623 277.52C880.623 278.459 880.879 279.141 881.391 279.568C881.989 279.909 883.013 280.165 884.463 280.336L892.271 280.976V282H865.007V280.976L872.175 280.336C874.309 280.165 875.802 279.739 876.655 279.056C877.594 278.373 878.405 277.093 879.087 275.216L910.447 191.632H912.751L945.007 279.696L955.631 280.976ZM921.967 244.88L907.631 205.84H907.119L892.527 244.88H921.967Z" fill="#675132"/>
<path d="M1398.18 255.12L1394.98 282H1332.26V280.976L1342.75 279.952V195.728L1332.26 194.704V193.68H1395.11L1396.9 217.744L1395.62 217.872L1388.45 199.952C1387.68 197.989 1386.83 196.709 1385.89 196.112C1385.04 195.515 1383.59 195.216 1381.54 195.216H1352.61V234.512H1371.55C1373.6 234.512 1375.05 234.171 1375.91 233.488C1376.76 232.805 1377.36 231.483 1377.7 229.52L1379.87 219.152H1381.41V251.92H1379.87L1377.7 241.552C1377.36 239.589 1376.76 238.267 1375.91 237.584C1375.05 236.901 1373.6 236.56 1371.55 236.56H1352.61V280.464H1381.28C1383.33 280.464 1384.82 280.165 1385.76 279.568C1386.7 278.885 1387.55 277.605 1388.32 275.728L1396.77 254.992L1398.18 255.12ZM1448.9 280.72C1444.72 282.939 1439.98 284.048 1434.69 284.048C1430.68 284.048 1426.8 283.408 1423.04 282.128C1419.29 280.933 1416.09 279.227 1413.44 277.008L1410.75 284.048H1409.09L1407.43 253.456L1408.58 253.2C1409.86 259.003 1411.14 263.525 1412.42 266.768C1413.78 270.011 1415.53 272.827 1417.67 275.216C1422.02 280.08 1427.78 282.512 1434.95 282.512C1441.09 282.512 1445.87 280.933 1449.28 277.776C1452.78 274.533 1454.53 270.181 1454.53 264.72C1454.53 260.88 1453.59 257.637 1451.71 254.992C1449.92 252.347 1447.45 250.085 1444.29 248.208C1441.13 246.331 1436.7 244.155 1430.98 241.68C1426.29 239.632 1422.36 237.627 1419.2 235.664C1416.05 233.616 1413.4 231.013 1411.27 227.856C1409.22 224.613 1408.19 220.688 1408.19 216.08C1408.19 211.387 1409.3 207.205 1411.52 203.536C1413.83 199.781 1416.94 196.88 1420.87 194.832C1424.88 192.699 1429.4 191.632 1434.43 191.632C1437.93 191.632 1441.18 192.229 1444.16 193.424C1447.23 194.619 1450.52 196.581 1454.02 199.312L1457.09 193.168H1458.75L1460.03 221.072L1458.75 221.456C1457.39 215.739 1455.64 210.704 1453.51 206.352C1449.24 197.563 1442.71 193.168 1433.92 193.168C1428.63 193.168 1424.41 194.704 1421.25 197.776C1418.09 200.763 1416.51 204.859 1416.51 210.064C1416.51 213.819 1417.37 216.976 1419.07 219.536C1420.87 222.096 1423.3 224.315 1426.37 226.192C1429.53 228.069 1433.97 230.331 1439.68 232.976C1444.8 235.28 1448.9 237.456 1451.97 239.504C1455.13 241.552 1457.65 244.112 1459.52 247.184C1461.49 250.171 1462.47 253.883 1462.47 258.32C1462.47 263.269 1461.27 267.707 1458.88 271.632C1456.49 275.472 1453.17 278.501 1448.9 280.72Z" fill="#675132"/>
<path d="M721.425 449.824C725.094 448.203 728.166 446.027 730.641 443.296C734.822 438.603 737.979 431.605 740.113 422.304L741.777 422.56V452H740.113L735.761 444.96C731.921 447.776 727.739 449.995 723.217 451.616C718.779 453.237 714.47 454.048 710.289 454.048C702.865 454.048 696.038 452 689.809 447.904C683.665 443.808 678.801 438.261 675.217 431.264C671.718 424.181 669.969 416.373 669.969 407.84C669.969 399.392 671.718 391.627 675.217 384.544C678.801 377.461 683.665 371.872 689.809 367.776C695.953 363.68 702.694 361.632 710.033 361.632C713.873 361.632 717.798 362.272 721.809 363.552C725.905 364.747 730.427 366.667 735.377 369.312L738.449 363.168H740.113L741.393 391.968L739.601 392.48C738.406 385.909 736.529 380.491 733.969 376.224C731.409 372.043 728.081 368.843 723.985 366.624C719.889 364.32 715.366 363.168 710.417 363.168C701.371 363.168 694.417 367.051 689.553 374.816C684.689 382.581 682.257 393.589 682.257 407.84C682.257 422.005 684.689 432.971 689.553 440.736C694.417 448.416 701.329 452.256 710.289 452.256C714.129 452.256 717.841 451.445 721.425 449.824ZM814.452 425.12L811.253 452H748.532V450.976L759.028 449.952V365.728L748.532 364.704V363.68H811.381L813.173 387.744L811.893 387.872L804.725 369.952C803.957 367.989 803.103 366.709 802.165 366.112C801.311 365.515 799.861 365.216 797.812 365.216H768.885V404.512H787.828C789.877 404.512 791.327 404.171 792.181 403.488C793.034 402.805 793.631 401.483 793.972 399.52L796.149 389.152H797.685V421.92H796.149L793.972 411.552C793.631 409.589 793.034 408.267 792.181 407.584C791.327 406.901 789.877 406.56 787.828 406.56H768.885V450.464H797.556C799.605 450.464 801.098 450.165 802.037 449.568C802.975 448.885 803.829 447.605 804.597 445.728L813.045 424.992L814.452 425.12ZM831.253 449.952V365.728L820.757 364.704V363.68H852.245V364.704L841.109 365.728V450.464H869.397C871.446 450.464 872.939 450.165 873.877 449.568C874.816 448.885 875.669 447.605 876.438 445.728L885.142 423.84L886.677 424.096L883.478 452H820.757V450.976L831.253 449.952ZM954.903 425.12L951.703 452H888.983V450.976L899.479 449.952V365.728L888.983 364.704V363.68H951.831L953.623 387.744L952.343 387.872L945.175 369.952C944.407 367.989 943.553 366.709 942.615 366.112C941.761 365.515 940.311 365.216 938.263 365.216H909.335V404.512H928.279C930.327 404.512 931.777 404.171 932.631 403.488C933.484 402.805 934.081 401.483 934.423 399.52L936.599 389.152H938.135V421.92H936.599L934.423 411.552C934.081 409.589 933.484 408.267 932.631 407.584C931.777 406.901 930.327 406.56 928.279 406.56H909.335V450.464H938.007C940.055 450.464 941.548 450.165 942.487 449.568C943.425 448.885 944.279 447.605 945.047 445.728L953.495 424.992L954.903 425.12ZM1004.98 405.408C1012.41 406.432 1018.08 408.864 1022.01 412.704C1025.93 416.544 1027.9 421.579 1027.9 427.808C1027.9 434.635 1025.51 440.395 1020.73 445.088C1016.03 449.696 1008.78 452 998.967 452H961.207V450.976L971.703 449.952V365.728L961.207 364.704V363.68H993.079C1003.15 363.68 1010.83 365.472 1016.12 369.056C1021.41 372.64 1024.06 377.845 1024.06 384.672C1024.06 390.133 1022.39 394.656 1019.06 398.24C1015.74 401.824 1011.04 404.043 1004.98 404.896V405.408ZM981.559 365.216V404.512H996.407C1002.12 404.512 1006.22 402.848 1008.7 399.52C1011.26 396.192 1012.54 391.243 1012.54 384.672C1012.54 371.701 1005.92 365.216 992.695 365.216H981.559ZM995.895 450.464C1009.12 450.464 1015.74 443.04 1015.74 428.192C1015.74 420.427 1014.07 414.795 1010.74 411.296C1007.42 407.797 1002.47 406.048 995.895 406.048H981.559V450.464H995.895ZM1111.25 450.976V452H1098.07C1096.02 452 1094.49 451.701 1093.46 451.104C1092.44 450.507 1091.37 449.355 1090.26 447.648L1070.68 416.032C1069.48 414.069 1068.46 412.875 1067.61 412.448C1066.84 411.936 1065.43 411.68 1063.38 411.68H1053.91V449.952L1065.05 450.976V452H1033.56V450.976L1044.05 449.952V365.728L1033.56 364.704V363.68H1065.94C1076.01 363.68 1083.69 365.728 1088.98 369.824C1094.27 373.835 1096.92 379.68 1096.92 387.36C1096.92 393.333 1095.3 398.24 1092.05 402.08C1088.81 405.92 1084.12 408.565 1077.97 410.016H1078.1L1101.53 446.624C1102.63 448.331 1103.7 449.483 1104.73 450.08C1105.83 450.677 1107.41 450.976 1109.46 450.976H1111.25ZM1053.91 365.216V409.76H1065.56C1072.38 409.76 1077.42 407.968 1080.66 404.384C1083.99 400.715 1085.65 395.125 1085.65 387.616C1085.65 380.021 1083.99 374.389 1080.66 370.72C1077.33 367.051 1072.3 365.216 1065.56 365.216H1053.91ZM1186.81 450.976V452H1155.45V450.976L1165.94 449.696L1153.91 416.928H1122.93L1112.31 445.216C1111.97 446.155 1111.8 446.923 1111.8 447.52C1111.8 448.459 1112.05 449.141 1112.57 449.568C1113.16 449.909 1114.19 450.165 1115.64 450.336L1123.45 450.976V452H1096.18V450.976L1103.35 450.336C1105.48 450.165 1106.98 449.739 1107.83 449.056C1108.77 448.373 1109.58 447.093 1110.26 445.216L1141.62 361.632H1143.93L1176.18 449.696L1186.81 450.976ZM1153.14 414.88L1138.81 375.84H1138.29L1123.7 414.88H1153.14ZM1232.87 449.824C1236.54 448.203 1239.62 446.027 1242.09 443.296C1246.27 438.603 1249.43 431.605 1251.56 422.304L1253.23 422.56V452H1251.56L1247.21 444.96C1243.37 447.776 1239.19 449.995 1234.67 451.616C1230.23 453.237 1225.92 454.048 1221.74 454.048C1214.31 454.048 1207.49 452 1201.26 447.904C1195.11 443.808 1190.25 438.261 1186.67 431.264C1183.17 424.181 1181.42 416.373 1181.42 407.84C1181.42 399.392 1183.17 391.627 1186.67 384.544C1190.25 377.461 1195.11 371.872 1201.26 367.776C1207.4 363.68 1214.14 361.632 1221.48 361.632C1225.32 361.632 1229.25 362.272 1233.26 363.552C1237.35 364.747 1241.88 366.667 1246.83 369.312L1249.9 363.168H1251.56L1252.84 391.968L1251.05 392.48C1249.86 385.909 1247.98 380.491 1245.42 376.224C1242.86 372.043 1239.53 368.843 1235.43 366.624C1231.34 364.32 1226.82 363.168 1221.87 363.168C1212.82 363.168 1205.87 367.051 1201 374.816C1196.14 382.581 1193.71 393.589 1193.71 407.84C1193.71 422.005 1196.14 432.971 1201 440.736C1205.87 448.416 1212.78 452.256 1221.74 452.256C1225.58 452.256 1229.29 451.445 1232.87 449.824ZM1259.98 363.68H1290.83V364.704L1280.33 365.728V449.952L1290.83 450.976V452H1259.98V450.976L1270.48 449.952V365.728L1259.98 364.704V363.68ZM1335.81 361.632C1343.24 361.632 1350.02 363.68 1356.17 367.776C1362.39 371.872 1367.26 377.461 1370.76 384.544C1374.34 391.541 1376.13 399.307 1376.13 407.84C1376.13 416.373 1374.34 424.181 1370.76 431.264C1367.26 438.261 1362.39 443.808 1356.17 447.904C1350.02 452 1343.24 454.048 1335.81 454.048C1328.39 454.048 1321.56 452 1315.33 447.904C1309.19 443.808 1304.33 438.261 1300.74 431.264C1297.24 424.181 1295.49 416.373 1295.49 407.84C1295.49 399.307 1297.24 391.541 1300.74 384.544C1304.33 377.461 1309.19 371.872 1315.33 367.776C1321.56 363.68 1328.39 361.632 1335.81 361.632ZM1307.78 407.84C1307.78 422.091 1310.21 433.099 1315.08 440.864C1319.94 448.544 1326.85 452.384 1335.81 452.384C1344.77 452.384 1351.69 448.544 1356.55 440.864C1361.41 433.099 1363.85 422.091 1363.85 407.84C1363.85 393.589 1361.41 382.581 1356.55 374.816C1351.69 367.051 1344.77 363.168 1335.81 363.168C1326.85 363.168 1319.94 367.051 1315.08 374.816C1310.21 382.581 1307.78 393.589 1307.78 407.84ZM1334.92 350.496L1343.24 340L1345.03 337.696C1346.14 336.416 1346.86 335.477 1347.21 334.88C1347.63 334.197 1347.85 333.557 1347.85 332.96C1347.85 331.851 1347.5 330.912 1346.82 330.144C1346.22 329.376 1345.37 328.992 1344.26 328.992C1342.21 328.992 1340.89 329.888 1340.29 331.68L1334.53 350.368L1334.92 350.496ZM1467.59 363.68V364.704L1458.38 365.728C1456.33 365.984 1454.96 366.496 1454.28 367.264C1453.6 368.032 1453.26 369.44 1453.26 371.488V454.048H1451.98L1394.5 372.512H1393.99V444.192C1393.99 446.24 1394.25 447.691 1394.76 448.544C1395.27 449.312 1396.3 449.781 1397.83 449.952L1406.92 450.976V452H1378.89V450.976L1388.1 449.952C1389.64 449.781 1390.66 449.312 1391.18 448.544C1391.69 447.691 1391.94 446.24 1391.94 444.192V369.696L1391.43 368.928C1390.24 367.221 1389.08 366.112 1387.98 365.6C1386.95 365.003 1385.42 364.704 1383.37 364.704H1381.19V363.68H1400.26L1450.7 434.336H1451.21V371.488C1451.21 369.44 1450.95 367.989 1450.44 367.136C1449.93 366.283 1448.9 365.813 1447.37 365.728L1437 364.704V363.68H1467.59Z" fill="#675132"/>
</svg>
